/* XPM */
static char * app_32x32_xpm[] = {
"32 32 119 2",
"  	c None",
". 	c #A2A2A2",
"+ 	c #A0A0A0",
"@ 	c #B8B8B8",
"# 	c #CECECE",
"$ 	c #D1D1D1",
"% 	c #D3D3D3",
"& 	c #D5D5D5",
"* 	c #D7D7D7",
"= 	c #D9D9D9",
"- 	c #DBDBDB",
"; 	c #DDDDDD",
"> 	c #DFDFDF",
", 	c #E1E1E1",
"' 	c #E2E2E2",
") 	c #B7B7B7",
"! 	c #9F9F9F",
"~ 	c #9C9C9C",
"{ 	c #CCCCCC",
"] 	c #B2B2B2",
"^ 	c #B6B6B6",
"/ 	c #B9B9B9",
"( 	c #BCBCBC",
"_ 	c #BFBFBF",
": 	c #C2C2C2",
"< 	c #C5C5C5",
"[ 	c #C8C8C8",
"} 	c #CACACA",
"| 	c #CBCBCB",
"1 	c #B3B3B3",
"2 	c #999999",
"3 	c #AFAFAF",
"4 	c #B1B1B1",
"5 	c #B4B4B4",
"6 	c #BABABA",
"7 	c #BDBDBD",
"8 	c #C0C0C0",
"9 	c #C4C4C4",
"0 	c #C6C6C6",
"a 	c #C7C7C7",
"b 	c #969696",
"c 	c #C9C9C9",
"d 	c #AEAEAE",
"e 	c #B0B0B0",
"f 	c #B5B5B5",
"g 	c #C1C1C1",
"h 	c #C3C3C3",
"i 	c #939393",
"j 	c #ADADAD",
"k 	c #BBBBBB",
"l 	c #ABABAB",
"m 	c #707070",
"n 	c #909090",
"o 	c #A8A8A8",
"p 	c #A3A3A3",
"q 	c #6E6E6E",
"r 	c #8C8C8C",
"s 	c #A9A9A9",
"t 	c #ACACAC",
"u 	c #7E7E7E",
"v 	c #979797",
"w 	c #7C7C7C",
"x 	c #898989",
"y 	c #BEBEBE",
"z 	c #A7A7A7",
"A 	c #AAAAAA",
"B 	c #6F6F6F",
"C 	c #868686",
"D 	c #A5A5A5",
"E 	c #A6A6A6",
"F 	c #838383",
"G 	c #A4A4A4",
"H 	c #989898",
"I 	c #7F7F7F",
"J 	c #808080",
"K 	c #7B7B7B",
"L 	c #7D7D7D",
"M 	c #9E9E9E",
"N 	c #7A7A7A",
"O 	c #9B9B9B",
"P 	c #9D9D9D",
"Q 	c #949494",
"R 	c #959595",
"S 	c #777777",
"T 	c #9A9A9A",
"U 	c #797979",
"V 	c #737373",
"W 	c #767676",
"X 	c #888888",
"Y 	c #919191",
"Z 	c #6D6D6D",
"` 	c #929292",
" .	c #8D8D8D",
"..	c #6A6A6A",
"+.	c #8E8E8E",
"@.	c #8F8F8F",
"#.	c #676767",
"$.	c #8B8B8B",
"%.	c #646464",
"&.	c #848484",
"*.	c #858585",
"=.	c #878787",
"-.	c #616161",
";.	c #818181",
">.	c #828282",
",.	c #5E5E5E",
"'.	c #787878",
").	c #5B5B5B",
"!.	c #747474",
"~.	c #575757",
"{.	c #636363",
"].	c #717171",
"^.	c #727272",
"/.	c #757575",
"(.	c #626262",
"_.	c #5A5A5A",
":.	c #525252",
"<.	c #545454",
"[.	c #505050",
"                                                                ",
"                                                                ",
"                                                                ",
"                                                                ",
"        . . . . . . . . . . . . . . . . . . . . . . . .         ",
"      + @ # $ % & * = - ; > , ' ' , > ; - = * & % $ # ) !       ",
"      ~ { ] ] ^ / ( _ : < [ } | | } [ < : _ ( / ^ 1 ] { ~       ",
"      2 | 3 4 5 ) 6 7 8 : 9 0 a a 0 9 : 8 7 6 ) 5 4 3 | 2       ",
"      b c d e ] f @ 6 7 _ g : h h : g _ 7 6 @ f ] e d c b       ",
"      i 0 j d e 1 f ) / k 7 l m m l 7 k / ) f 1 e d j 0 i       ",
"      n 9 l j d e ] 4 o ) @ p q q p @ ) o 4 ] e d j l 9 n       ",
"      r g s l t d j u q v v w q q w v v q u j d t l s g r       ",
"      x y z s A l . B q q q q q q q q q q B . l A s z y x       ",
"      C k D E o s e E q q q q q q q q q q E e s o E D k C       ",
"      F @ p G D E z H q q q I G G u q q q H z E D G p @ F       ",
"      J 5 + . p H i K q q I h ) ) : u q q K i H p . + 5 J       ",
"      L 4 M ! + B q q q q M E D D E M q q q q B + ! M 4 L       ",
"      N j O P P m q q q q Q . . . . R q q q q m P P O j N       ",
"      S A 2 T O e o L q q U P ! ! P U q q u o e O T 2 A S       ",
"      V E b v H . z O q q q W X X W q q q ~ z . H v b E V       ",
"      m . Q Q R b v Y q q q q q q q q q q Y v b R Q Q . m       ",
"      Z P Y ` i i  .q q q q q q q q q q q q  .i i ` Y P Z       ",
"      ..2 +.@.n Y H J q P P w q q w P P q J H Y n @.+.2 ..      ",
"      #.` x $. .+.n d j . . ~ q q ~ . . j d n +. .$.x ` #.      ",
"      %.$.&.*.=.X x r Q r r ` B B ` r r Q r x X =.*.&.$.%.      ",
"      -.F u J ;.>.F &.*.C C ` ^ ^ ` C C *.&.F >.;.J u F -.      ",
"      ,.w '.N K w u I I J J ;.;.;.;.J J I I u w K N '.w ,.      ",
"      ).V V !.W S '.U U N N K K K K N N U U '.S W !.V V ).      ",
"      ~.{.Z m ].^.V !.!././.W W W W /./.!.!.V ^.].m Z (._.      ",
"        :.<.<.<.<.<.<.<.<.<.<.<.<.<.<.<.<.<.<.<.<.<.<.[.        ",
"                                                                ",
"                                                                "};
