/* XPM */
static char * app_48x48_xpm[] = {
"48 48 131 2",
"  	c None",
". 	c #A2A2A2",
"+ 	c #A3A3A3",
"@ 	c #A1A1A1",
"# 	c #B1B1B1",
"$ 	c #CCCCCC",
"% 	c #CFCFCF",
"& 	c #D0D0D0",
"* 	c #D1D1D1",
"= 	c #D3D3D3",
"- 	c #D4D4D4",
"; 	c #D5D5D5",
"> 	c #D6D6D6",
", 	c #D8D8D8",
"' 	c #D9D9D9",
") 	c #DBDBDB",
"! 	c #DCDCDC",
"~ 	c #DDDDDD",
"{ 	c #DEDEDE",
"] 	c #DFDFDF",
"^ 	c #E1E1E1",
"/ 	c #E2E2E2",
"( 	c #E3E3E3",
"_ 	c #9F9F9F",
": 	c #C9C9C9",
"< 	c #B3B3B3",
"[ 	c #B0B0B0",
"} 	c #B2B2B2",
"| 	c #B4B4B4",
"1 	c #B6B6B6",
"2 	c #B8B8B8",
"3 	c #BABABA",
"4 	c #BCBCBC",
"5 	c #BEBEBE",
"6 	c #C0C0C0",
"7 	c #C2C2C2",
"8 	c #C4C4C4",
"9 	c #C6C6C6",
"0 	c #C8C8C8",
"a 	c #CACACA",
"b 	c #CDCDCD",
"c 	c #CECECE",
"d 	c #9C9C9C",
"e 	c #AEAEAE",
"f 	c #B5B5B5",
"g 	c #B7B7B7",
"h 	c #B9B9B9",
"i 	c #BBBBBB",
"j 	c #BDBDBD",
"k 	c #BFBFBF",
"l 	c #C1C1C1",
"m 	c #C3C3C3",
"n 	c #C5C5C5",
"o 	c #C7C7C7",
"p 	c #CBCBCB",
"q 	c #9A9A9A",
"r 	c #AFAFAF",
"s 	c #989898",
"t 	c #ADADAD",
"u 	c #969696",
"v 	c #949494",
"w 	c #ACACAC",
"x 	c #929292",
"y 	c #ABABAB",
"z 	c #808080",
"A 	c #6E6E6E",
"B 	c #818181",
"C 	c #909090",
"D 	c #AAAAAA",
"E 	c #8E8E8E",
"F 	c #A9A9A9",
"G 	c #9D9D9D",
"H 	c #A4A4A4",
"I 	c #8C8C8C",
"J 	c #A8A8A8",
"K 	c #919191",
"L 	c #6F6F6F",
"M 	c #8B8B8B",
"N 	c #8A8A8A",
"O 	c #A6A6A6",
"P 	c #A7A7A7",
"Q 	c #7D7D7D",
"R 	c #888888",
"S 	c #A5A5A5",
"T 	c #868686",
"U 	c #848484",
"V 	c #828282",
"W 	c #787878",
"X 	c #7C7C7C",
"Y 	c #A0A0A0",
"Z 	c #898989",
"` 	c #7E7E7E",
" .	c #9E9E9E",
"..	c #7A7A7A",
"+.	c #9B9B9B",
"@.	c #999999",
"#.	c #767676",
"$.	c #777777",
"%.	c #747474",
"&.	c #979797",
"*.	c #737373",
"=.	c #757575",
"-.	c #727272",
";.	c #959595",
">.	c #707070",
",.	c #939393",
"'.	c #6C6C6C",
").	c #8F8F8F",
"!.	c #6A6A6A",
"~.	c #686868",
"{.	c #666666",
"].	c #878787",
"^.	c #8D8D8D",
"/.	c #646464",
"(.	c #838383",
"_.	c #858585",
":.	c #626262",
"<.	c #7F7F7F",
"[.	c #606060",
"}.	c #5E5E5E",
"|.	c #797979",
"1.	c #7B7B7B",
"2.	c #5C5C5C",
"3.	c #5A5A5A",
"4.	c #717171",
"5.	c #595959",
"6.	c #535353",
"7.	c #5D5D5D",
"8.	c #6D6D6D",
"9.	c #545454",
"0.	c #4F4F4F",
"                                                                                                ",
"                                                                                                ",
"                                                                                                ",
"                                                                                                ",
"                                                                                                ",
"          . + . . . . . . . . . . . . . . . . . . . . . . . . . . . . . . . . . . + .           ",
"        @ # $ % & * = - ; > , ' ) ! ~ { ] ^ / ( ( / ^ ] { ~ ! ) ' , > ; - = * & % $ # @         ",
"        _ : < [ } | 1 2 3 4 5 6 7 8 9 0 a $ b c c b $ a 0 9 8 7 6 5 4 3 2 1 | } [ < : _         ",
"        d $ e [ # < f g h i j k l m n o 0 a p $ $ p a : o n m l k j i h g f < # [ e $ d         ",
"        q a e r # } | 1 2 3 4 5 6 7 m n 9 o 0 : : 0 o 9 n m 7 6 5 4 3 2 1 | } # r e a q         ",
"        s : t r [ } | f g h i j 5 6 7 m 8 n 9 9 9 9 n 8 m 7 6 5 j i h g f | } [ r t : s         ",
"        u 0 t e r # } | 1 2 h i j 5 k l 7 7 m m m m 7 7 l k 5 j i h 2 1 | } # r e t 0 u         ",
"        v 9 w t e [ # < | 1 2 h 3 4 j 5 k 6 6 6 6 6 6 k 5 j 4 3 h 2 1 | < # [ e t w 9 v         ",
"        x n y w t e [ # } | 1 g 2 3 i 4 4 j z A A B j 4 4 i 3 2 g 1 | } # [ e t w y n x         ",
"        C 8 D y w t e [ # } < f 1 g 2 h 3 3 A A A A 3 3 h 2 g 1 f < } # [ e t w y D 8 C         ",
"        E 7 F D y w t e r [ # } G H 1 1 g g A A A A g g 1 1 H G } # [ r e t w y D F 7 E         ",
"        I l J F D y w t e r [ K A L d | + M A A A A M + | d L A K [ r e t w y D F J l I         ",
"        N 5 O P F D D y w t q A A A L Q A A A A A A A A Q L A A A q t w y D D F P O 5 N         ",
"        R 4 S O P J F D y w H L A A A A A A A A A A A A A A A A L H w y D F J P O S 4 R         ",
"        T i H S O P P J F D < t L A A A A A A A A A A A A A A L t < D F J P P O S H i T         ",
"        U 2 . + H S O P P J F f V A A A A A A A A A A A A A A V f F J P P O S H + . 2 U         ",
"        V 1 @ . + H H S O P P q A A A A A W e 0 0 e X A A A A A q P P O S H H + . @ 1 V         ",
"        z | Y Y @ . + H H S S R A A A A W l < D D < 6 W A A A A Z S S H H + . @ Y Y | z         ",
"        ` }  ._ Y Y @ . ..A A A A A A A F J O O O O J F A A A A A A A ... @ Y Y _  .} `         ",
"        X [ d G  ._ _ Y A A A A A A A A t H H H H H H w A A A A A A A A Y _ _  .G d [ X         ",
"        ..t +.d d G  . .A A A A A A A A @ . . . . . . @ A A A A A A A A  . .G d d +.t ..        ",
"        W y @.q +.+.d G V A A A A A A A x Y @ @ @ @ Y K A A A A A A A V G d +.+.q @.y W         ",
"        #.F s s @.q q +.3 8 8 K A A A A $.q _ _ _ _ q #.A A A A x 8 8 3 +.q q @.s s F #.        ",
"        %.O u &.&.s @.@.q q +.+ A A A A A *.E q q E =.A A A A A + +.q q @.@.s &.&.u O %.        ",
"        -.H v ;.u u &.&.s s @.+ z A A A A A A A A A A A A A A B + @.s s &.&.u u ;.v H -.        ",
"        >.@ ,.,.v ;.;.u u &.&.Z L A A A A A A A A A A A A A A L Z &.&.u u ;.;.v ,.,.@ >.        ",
"        A  .K x x ,.,.v v ;.M L A A A A A A A A A A A A A A A A L M ;.v v ,.,.x x K  .A         ",
"        '.G ).C K K x x ,.,.).A A A L z A A A A A A A A z L A A A ).,.,.x x K K C ).G '.        ",
"        !.@.E E ).).C C K K _ @.A L + | y E A A A A E y | + L A @._ K K C C ).).E E @.!.        ",
"        ~.;.N M I E E E ).).C S + F Y K +.y A A A A y +.K Y F + S C ).).E E E I M N ;.~.        ",
"        {.K ].R Z N M I ^.^.E E d q ).).).).A A A A ).).).).q d E E ^.^.I M N Z R ].K {.        ",
"        /.I (.U _.T ].R Z N N M M I I ^.^.^.z A A z ^.^.^.I I M M N N Z R ].T _.U (.I /.        ",
"        :.R <.B V (.(.U _.T T ].R R Z Z Z Z e h h e Z Z Z Z R R ].T T _.U (.(.V B <.R :.        ",
"        [.(.X Q ` <.z B V V (.(.U U _._._.T T T T T T _._._.U U (.(.V V B z <.` Q X (.[.        ",
"        }.Q W |...1.X Q ` <.<.z z B B B V V V V V V V V B B B z z <.<.` Q X 1...|.W Q }.        ",
"        2.|.=.#.$.W W |...1.1.X X Q Q Q ` ` ` ` ` ` ` ` Q Q Q X X 1.1...|.W W $.#.=.|.2.        ",
"        3.*.4.-.*.%.=.#.#.$.$.W W |.|.....................|.|.W W $.$.#.#.=.%.*.-.4.*.3.        ",
"        5.A L L >.>.4.-.*.*.%.%.=.=.=.#.#.#.#.#.#.#.#.#.#.=.=.=.%.%.*.*.-.4.>.>.L L A 5.        ",
"        6.7.!.'.8.A A L >.>.4.4.-.-.*.*.*.*.%.%.%.%.*.*.*.*.-.-.4.4.>.>.L A A 8.'.!.2.9.        ",
"          0.9.9.9.9.9.9.9.9.9.9.9.9.9.9.9.9.9.9.9.9.9.9.9.9.9.9.9.9.9.9.9.9.9.9.9.9.0.          ",
"                                                                                                ",
"                                                                                                ",
"                                                                                                "};
