/* XPM */
static char * app_16x16_xpm[] = {
"16 16 66 1",
" 	c None",
".	c #A2A2A2",
"+	c #A3A3A3",
"@	c #9C9C9C",
"#	c #C8C8C8",
"$	c #D2D2D2",
"%	c #D6D6D6",
"&	c #D9D9D9",
"*	c #DDDDDD",
"=	c #DFDFDF",
"-	c #C7C7C7",
";	c #969696",
">	c #CBCBCB",
",	c #B2B2B2",
"'	c #B8B8B8",
")	c #BDBDBD",
"!	c #C1C1C1",
"~	c #C3C3C3",
"{	c #909090",
"]	c #C6C6C6",
"^	c #AFAFAF",
"/	c #A9A9A9",
"(	c #B3B3B3",
"_	c #717171",
":	c #ABABAB",
"<	c #8A8A8A",
"[	c #C0C0C0",
"}	c #AAAAAA",
"|	c #737373",
"1	c #767676",
"2	c #6E6E6E",
"3	c #848484",
"4	c #BABABA",
"5	c #A6A6A6",
"6	c #797979",
"7	c #7E7E7E",
"8	c #B4B4B4",
"9	c #A1A1A1",
"0	c #707070",
"a	c #B5B5B5",
"b	c #787878",
"c	c #ACACAC",
"d	c #9B9B9B",
"e	c #727272",
"f	c #A4A4A4",
"g	c #979797",
"h	c #B9B9B9",
"i	c #6C6C6C",
"j	c #929292",
"k	c #8F8F8F",
"l	c #777777",
"m	c #666666",
"n	c #919191",
"o	c #8B8B8B",
"p	c #ADADAD",
"q	c #606060",
"r	c #828282",
"s	c #808080",
"t	c #8C8C8C",
"u	c #898989",
"v	c #5B5B5B",
"w	c #7A7A7A",
"x	c #7B7B7B",
"y	c #565656",
"z	c #545454",
"A	c #555555",
"                ",
" .............+ ",
" @#$%&*==*&%$-@ ",
" ;>,')!~~!)',>; ",
" {]^,/(__(:,^]{ ",
" <[}.|1221|.}[< ",
" 345/622226/543 ",
" 789022a8220987 ",
" bc@_22d@22_@cb ",
" efghb2222bhgfe ",
" i@jk|l22l|kj@i ",
" mno;p,__,p;onm ",
" qrsrtuaautrsrq ",
" ve1bwxxxxwb1ev ",
" yzzzzzzzzzzzzA ",
"                "};
