/* XPM */
static char * app_24x24_xpm[] = {
"24 24 99 2",
"  	c None",
". 	c #A2A2A2",
"+ 	c #9E9E9E",
"@ 	c #CECECE",
"# 	c #D0D0D0",
"$ 	c #D3D3D3",
"% 	c #D5D5D5",
"& 	c #D8D8D8",
"* 	c #DBDBDB",
"= 	c #DDDDDD",
"- 	c #DFDFDF",
"; 	c #E1E1E1",
"> 	c #CDCDCD",
", 	c #9A9A9A",
"' 	c #CCCCCC",
") 	c #B1B1B1",
"! 	c #B5B5B5",
"~ 	c #B9B9B9",
"{ 	c #BDBDBD",
"] 	c #C0C0C0",
"^ 	c #C4C4C4",
"/ 	c #C7C7C7",
"( 	c #C8C8C8",
"_ 	c #969696",
": 	c #CACACA",
"< 	c #AFAFAF",
"[ 	c #B2B2B2",
"} 	c #B6B6B6",
"| 	c #BABABA",
"1 	c #C2C2C2",
"2 	c #C3C3C3",
"3 	c #929292",
"4 	c #C6C6C6",
"5 	c #ADADAD",
"6 	c #B0B0B0",
"7 	c #B8B8B8",
"8 	c #BCBCBC",
"9 	c #747474",
"0 	c #8E8E8E",
"a 	c #ABABAB",
"b 	c #A9A9A9",
"c 	c #888888",
"d 	c #AAAAAA",
"e 	c #6E6E6E",
"f 	c #8A8A8A",
"g 	c #BFBFBF",
"h 	c #A8A8A8",
"i 	c #ACACAC",
"j 	c #737373",
"k 	c #868686",
"l 	c #A5A5A5",
"m 	c #A7A7A7",
"n 	c #757575",
"o 	c #818181",
"p 	c #B7B7B7",
"q 	c #A4A4A4",
"r 	c #A0A0A0",
"s 	c #898989",
"t 	c #7D7D7D",
"u 	c #9F9F9F",
"v 	c #A1A1A1",
"w 	c #727272",
"x 	c #797979",
"y 	c #9C9C9C",
"z 	c #9D9D9D",
"A 	c #989898",
"B 	c #999999",
"C 	c #7C7C7C",
"D 	c #717171",
"E 	c #959595",
"F 	c #979797",
"G 	c #9B9B9B",
"H 	c #6D6D6D",
"I 	c #919191",
"J 	c #939393",
"K 	c #7E7E7E",
"L 	c #696969",
"M 	c #8F8F8F",
"N 	c #909090",
"O 	c #8C8C8C",
"P 	c #B4B4B4",
"Q 	c #656565",
"R 	c #8D8D8D",
"S 	c #616161",
"T 	c #848484",
"U 	c #7F7F7F",
"V 	c #828282",
"W 	c #858585",
"X 	c #B3B3B3",
"Y 	c #5D5D5D",
"Z 	c #777777",
"` 	c #7B7B7B",
" .	c #5A5A5A",
"..	c #767676",
"+.	c #787878",
"@.	c #595959",
"#.	c #494949",
"$.	c #545454",
"%.	c #4B4B4B",
"                                                ",
"                                                ",
"      . . . . . . . . . . . . . . . . . .       ",
"    + @ # $ % & * = - ; ; - = * & % $ # > +     ",
"    , ' ) ! ~ { ] ^ / ( ( / ^ ] { ~ ! ) ' ,     ",
"    _ : < [ } | { ] 1 2 2 1 ] { | } [ < : _     ",
"    3 4 5 6 [ } 7 | 8 9 9 8 | 7 } [ 6 5 4 3     ",
"    0 2 a 5 < b c < d e e d < c b < 5 a 2 0     ",
"    f g h d i c e j e e e e j e c i d h g f     ",
"    k | l m b 7 n e e e e e e n 7 b m l | k     ",
"    o p . q l r e e f 1 1 s e e r l q . p o     ",
"    t [ u v w e e e ! b b ! e e e w v u [ t     ",
"    x 5 y z 9 e e e u v v u e e e 9 z y 5 x     ",
"    n h A , ] } e e t B B C e e } ] , A h n     ",
"    D . E _ F G 9 e e e e e e 9 G F _ E . D     ",
"    H z I 3 J t e j e e e e j e K J 3 I z H     ",
"    L _ 0 M N q O P ) e e ) P O q N M 0 _ L     ",
"    Q R k c f N d 3 _ j j _ 3 b N f c k R Q     ",
"    S T U o V T W k k X X k k W T V o U T S     ",
"    Y x Z x ` C t K K U U K K t C ` x Z x Y     ",
"     .H D j 9 n ..Z Z +.+.Z Z ..n 9 j D H @.    ",
"    #.$.$.$.$.$.$.$.$.$.$.$.$.$.$.$.$.$.$.%.    ",
"                                                ",
"                                                "};
