/* XPM */
static char * bomb_16x16_xpm[] = {
"16 16 7 1",
" 	c None",
".	c #000000",
"+	c #7F7F7F",
"@	c #FFFFFF",
"#	c #D9D9D9",
"$	c #404040",
"%	c #FFFF00",
"                ",
"       ...      ",
"      .   .     ",
"     .     .    ",
"    ...     .   ",
"   .....    .   ",
"  .+@#...    .  ",
" $.@+....+   .  ",
" ..#+.....   % %",
" .......%. % %% ",
" ......+#.  %%% ",
" $.....+.$  %   ",
"  .......       ",
"   $...$        ",
"                ",
"                "};
