/* XPM */
static char * navigator_16x16_2_xpm[] = {
"16 16 192 2",
"  	c None",
". 	c #93400D",
"+ 	c #2F2A3D",
"@ 	c #57454C",
"# 	c #2F5E8E",
"$ 	c #254D77",
"% 	c #1D3E62",
"& 	c #183251",
"* 	c #DA5F14",
"= 	c #2B2131",
"- 	c #3C4566",
"; 	c #AB3307",
"> 	c #9EDFF4",
", 	c #86CBE6",
"' 	c #4989BC",
") 	c #2563A1",
"! 	c #402F3B",
"~ 	c #4C0301",
"{ 	c #EB8112",
"] 	c #A52D04",
"^ 	c #89D4F0",
"/ 	c #8AD3EF",
"( 	c #7FCBEA",
"_ 	c #54A2D2",
": 	c #2C5D92",
"< 	c #D3A045",
"[ 	c #AB5415",
"} 	c #743C0B",
"| 	c #580C03",
"1 	c #DC6E17",
"2 	c #EF9023",
"3 	c #E68318",
"4 	c #9D2602",
"5 	c #370302",
"6 	c #75CAEB",
"7 	c #55AFDA",
"8 	c #2C6197",
"9 	c #CFC064",
"0 	c #E1AE41",
"a 	c #AC5613",
"b 	c #7E1B04",
"c 	c #DF7918",
"d 	c #EB8A21",
"e 	c #E3791A",
"f 	c #E87A12",
"g 	c #691202",
"h 	c #5EBDE7",
"i 	c #50B2DF",
"j 	c #26649F",
"k 	c #879373",
"l 	c #F5D658",
"m 	c #C8771E",
"n 	c #6D3909",
"o 	c #992E06",
"p 	c #E88717",
"q 	c #EB8113",
"r 	c #E27119",
"s 	c #E27229",
"t 	c #EEA777",
"u 	c #50B8EC",
"v 	c #4FAFE4",
"w 	c #3D98D6",
"x 	c #2468A4",
"y 	c #5D6F6D",
"z 	c #E6C754",
"A 	c #E3AA31",
"B 	c #9A4806",
"C 	c #A93C04",
"D 	c #E88914",
"E 	c #E57A14",
"F 	c #E59C37",
"G 	c #F2AC4D",
"H 	c #A22D02",
"I 	c #3B9BDA",
"J 	c #3A8FCA",
"K 	c #2E75B0",
"L 	c #2166A7",
"M 	c #2A466F",
"N 	c #EFC951",
"O 	c #F1BB39",
"P 	c #B14C04",
"Q 	c #B24600",
"R 	c #E88714",
"S 	c #F28E12",
"T 	c #B53C08",
"U 	c #A11F03",
"V 	c #114281",
"W 	c #1A5B9C",
"X 	c #1E5F9F",
"Y 	c #1F5792",
"Z 	c #195495",
"` 	c #415665",
" .	c #FFD73F",
"..	c #EFC030",
"+.	c #B14700",
"@.	c #AC4300",
"#.	c #D76C0F",
"$.	c #ED8713",
"%.	c #E17811",
"&.	c #B62C01",
"*.	c #AA3302",
"=.	c #0F3C7A",
"-.	c #134A8A",
";.	c #AA4F23",
">.	c #A56A43",
",.	c #184B87",
"'.	c #154B8A",
").	c #807247",
"!.	c #FFC62D",
"~.	c #E9A119",
"{.	c #AE4A01",
"].	c #7E2B00",
"^.	c #BF4809",
"/.	c #CA4A07",
"(.	c #CD4B08",
"_.	c #CE5510",
":.	c #D95D0C",
"<.	c #CB5B15",
"[.	c #154786",
"}.	c #1A396B",
"|.	c #E7A21E",
"1.	c #F8AE18",
"2.	c #D67206",
"3.	c #8E3900",
"4.	c #672400",
"5.	c #A93501",
"6.	c #D4610D",
"7.	c #E87D14",
"8.	c #D96213",
"9.	c #C34A08",
"0.	c #AF3605",
"a.	c #15397A",
"b.	c #764131",
"c.	c #C38627",
"d.	c #FAA517",
"e.	c #EA8907",
"f.	c #B74F08",
"g.	c #5D290B",
"h.	c #903100",
"i.	c #BC4108",
"j.	c #E47810",
"k.	c #EA8013",
"l.	c #E37716",
"m.	c #DC6F1B",
"n.	c #A7380C",
"o.	c #A75019",
"p.	c #B1510E",
"q.	c #CF6709",
"r.	c #EF8710",
"s.	c #E68714",
"t.	c #CD6407",
"u.	c #AD540F",
"v.	c #953400",
"w.	c #BC4207",
"x.	c #DA6B0F",
"y.	c #E77A11",
"z.	c #E77811",
"A.	c #E27A13",
"B.	c #E67B11",
"C.	c #E1730F",
"D.	c #DD6B0E",
"E.	c #E2700D",
"F.	c #D8720B",
"G.	c #B55402",
"H.	c #502501",
"I.	c #331400",
"J.	c #852D00",
"K.	c #B33F03",
"L.	c #C24507",
"M.	c #D3530A",
"N.	c #D4550B",
"O.	c #D35A0C",
"P.	c #D55E0D",
"Q.	c #D25B08",
"R.	c #BE5207",
"S.	c #A64606",
"T.	c #2B1200",
"U.	c #120100",
"V.	c #701A00",
"W.	c #973001",
"X.	c #B04001",
"Y.	c #B34600",
"Z.	c #B24502",
"`.	c #A84203",
" +	c #802404",
".+	c #160201",
"++	c #000000",
"@+	c #130100",
"#+	c #2F0401",
"$+	c #410702",
"%+	c #420702",
"&+	c #2D0401",
"  .       + @ # # $ % &         ",
"  * * = - * ; > > , ' ) !       ",
"~ * { * * { ] ^ / ( _ : < [ }   ",
"| 1 { 2 3 { 4 4 5 6 7 8 9 0 a   ",
"b c 2 d e f * * g h i j k l m n ",
"o p 2 q r s t 4 u v w x y z A B ",
"C D 2 E F F G H I J K L M N O P ",
"Q R S T U 4 4 V W X Y Z `  ...+.",
"@.#.$.%.&.*.=.-.;.>.,.'.).!.~.{.",
"].^.$.$./.(._.:.<.4 [.}.|.1.2.3.",
"4.5.6.$.7.8.9.0.4 a.b.c.d.e.f.g.",
"  h.i.j.k.l.m.n.o.p.q.r.s.t.u.  ",
"    v.w.x.y.z.A.B.C.D.E.F.G.H.  ",
"    I.J.K.L.M.N.O.P.Q.R.S.T.    ",
"      U.V.W.X.Q Y.Z.`. +.+      ",
"        ++@+#+$+%+&+U.++        "};
