/* XPM */
static char * communicator_mail_16x16_2_xpm[] = {
"16 16 186 2",
"  	c None",
". 	c #63858C",
"+ 	c #95C7D2",
"@ 	c #86B0C5",
"# 	c #8AC3D7",
"$ 	c #5395BD",
"% 	c #2F77AC",
"& 	c #1F67A3",
"* 	c #265780",
"= 	c #1C3E5D",
"- 	c #1D426F",
"; 	c #79A7C7",
"> 	c #9CD3E0",
", 	c #80B7D1",
"' 	c #6691BD",
") 	c #377EB0",
"! 	c #4287B5",
"~ 	c #4489B6",
"{ 	c #599AC0",
"] 	c #6CAAC9",
"^ 	c #3D7496",
"/ 	c #4E819E",
"( 	c #4C77AE",
"_ 	c #ACCEDF",
": 	c #5A88B8",
"< 	c #6383B7",
"[ 	c #3474AB",
"} 	c #28669C",
"| 	c #468BB7",
"1 	c #5899BF",
"2 	c #84BFD4",
"3 	c #83BDD4",
"4 	c #337AAE",
"5 	c #2C6CA0",
"6 	c #5D7F89",
"7 	c #5389B4",
"8 	c #8F8E94",
"9 	c #6E8DBA",
"0 	c #6E7AA3",
"a 	c #4C7DB2",
"b 	c #0B5399",
"c 	c #0B4693",
"d 	c #0C327A",
"e 	c #4478A3",
"f 	c #5092BB",
"g 	c #4284B4",
"h 	c #3A7CAF",
"i 	c #1A498F",
"j 	c #102253",
"k 	c #74B0CC",
"l 	c #243768",
"m 	c #C4A181",
"n 	c #869DB9",
"o 	c #4D6B91",
"p 	c #657485",
"q 	c #BDA687",
"r 	c #BDA284",
"s 	c #9F8678",
"t 	c #685B65",
"u 	c #4E8CB8",
"v 	c #2A599E",
"w 	c #3E68A7",
"x 	c #10287A",
"y 	c #111D74",
"z 	c #31629F",
"A 	c #8699B8",
"B 	c #97776B",
"C 	c #87847F",
"D 	c #DFD4B9",
"E 	c #FCE1B3",
"F 	c #FAD8A4",
"G 	c #F9D095",
"H 	c #F9C889",
"I 	c #F8C482",
"J 	c #355385",
"K 	c #2D4890",
"L 	c #2E5293",
"M 	c #0E267F",
"N 	c #142F85",
"O 	c #0F2D7E",
"P 	c #2C3680",
"Q 	c #CEC3B3",
"R 	c #997966",
"S 	c #FFFEE4",
"T 	c #FEFADD",
"U 	c #FEF2D1",
"V 	c #FDEAC2",
"W 	c #FBE1B3",
"X 	c #B88A63",
"Y 	c #464365",
"Z 	c #193688",
"` 	c #1F3F8A",
" .	c #224796",
"..	c #294590",
"+.	c #0D2F84",
"@.	c #A5A6B8",
"#.	c #C3C3C7",
"$.	c #A58874",
"%.	c #C6B49F",
"&.	c #FFFFE6",
"*.	c #DDD2BB",
"=.	c #8E6855",
"-.	c #8D5F46",
";.	c #C49B73",
">.	c #6783A9",
",.	c #2F5397",
"'.	c #3C65A5",
").	c #1A398B",
"!.	c #24418E",
"~.	c #051A3F",
"{.	c #0D1B6E",
"].	c #D2D2CF",
"^.	c #FFFDE2",
"/.	c #774A38",
"(.	c #825743",
"_.	c #AE896B",
":.	c #F1D4A8",
"<.	c #FBDBA8",
"[.	c #E5D1A9",
"}.	c #82A6BE",
"|.	c #374777",
"1.	c #3F68A7",
"2.	c #2D549C",
"3.	c #111F76",
"4.	c #090A42",
"5.	c #595070",
"6.	c #E1C990",
"7.	c #F6E3B7",
"8.	c #FCEDC7",
"9.	c #FCE8BF",
"0.	c #FCE1B4",
"a.	c #FBDAA8",
"b.	c #FAD49C",
"c.	c #F3CD96",
"d.	c #F8C685",
"e.	c #282B5A",
"f.	c #33589A",
"g.	c #1C4091",
"h.	c #0D2369",
"i.	c #0D0F62",
"j.	c #281F43",
"k.	c #6A5644",
"l.	c #A78A5A",
"m.	c #DFBF7F",
"n.	c #F3D097",
"o.	c #F9D299",
"p.	c #F9CD90",
"q.	c #C69D76",
"r.	c #120B3F",
"s.	c #182768",
"t.	c #182563",
"u.	c #050421",
"v.	c #040524",
"w.	c #0B0C59",
"x.	c #070138",
"y.	c #06002C",
"z.	c #191223",
"A.	c #534436",
"B.	c #A68957",
"C.	c #DDB873",
"D.	c #F0C380",
"E.	c #6D5C6B",
"F.	c #110A3E",
"G.	c #0E073C",
"H.	c #070033",
"I.	c #030218",
"J.	c #08083D",
"K.	c #03011A",
"L.	c #04001C",
"M.	c #04001B",
"N.	c #030017",
"O.	c #0E091E",
"P.	c #60555A",
"Q.	c #262050",
"R.	c #2C2654",
"S.	c #0C0537",
"T.	c #02000D",
"U.	c #1A1633",
"V.	c #525064",
"W.	c #3E3963",
"X.	c #433D67",
"Y.	c #231F44",
"Z.	c #01000A",
"`.	c #0E0C1D",
" +	c #312F40",
".+	c #0F0D1B",
"          .                     ",
"        + @ # $ % & * =         ",
"    - ; > , ' ) ! ~ { ] ^       ",
"  / ( _ : < [ } | 1 2 3 4 5     ",
"6 7 8 9 0 a b c d e f g h i j   ",
"k l m n o p q r s t u v w x y   ",
"z A B C D E F G H I J K L M N   ",
"O P Q R S T U V W X Y Z `  ...  ",
"+.@.#.$.%.&.*.=.-.;.>.,.'.).!.~.",
"{.].&.^./.(._.:.<.[.}.|.1.2.3.  ",
"4.5.6.7.8.9.0.a.b.c.d.e.f.g.h.  ",
"  i.j.k.l.m.n.o.p.d.q.r.s.t.u.  ",
"  v.w.x.y.z.A.B.C.D.E.F.G.H.    ",
"    I.J.K.L.M.N.O.P.Q.R.S.T.    ",
"              U.V.W.X.Y.Z.      ",
"                `. +.+          "};
