/* XPM */
static char * communicator_browser_32x32_xpm[] = {
"32 32 764 2",
"  	c None",
". 	c #09203B",
"+ 	c #0A2341",
"@ 	c #0D2C52",
"# 	c #0F325E",
"$ 	c #103665",
"% 	c #0A2240",
"& 	c #143C6A",
"* 	c #346C94",
"= 	c #66A4C1",
"- 	c #9DD3E2",
"; 	c #C6F0F4",
"> 	c #DCFDFE",
", 	c #D3F0F4",
"' 	c #B7D9E2",
") 	c #82B3C8",
"! 	c #42799E",
"~ 	c #143D6A",
"{ 	c #091D37",
"] 	c #113667",
"^ 	c #2C659C",
"/ 	c #7BD1ED",
"( 	c #A6F7FF",
"_ 	c #C3FAFF",
": 	c #D8FAFF",
"< 	c #DAFAFF",
"[ 	c #DBFAFF",
"} 	c #D9FAFF",
"| 	c #D7F9FF",
"1 	c #D7FBFF",
"2 	c #C8FFFF",
"3 	c #79C4D6",
"4 	c #56778B",
"5 	c #254469",
"6 	c #6E3213",
"7 	c #0A2548",
"8 	c #143A71",
"9 	c #2F65B3",
"0 	c #6AB9E8",
"a 	c #82E0FD",
"b 	c #ACF1FF",
"c 	c #C9F0F5",
"d 	c #CCF4FC",
"e 	c #CEF6FC",
"f 	c #CFF6FC",
"g 	c #CCF5FC",
"h 	c #C6F4FC",
"i 	c #BFF4FC",
"j 	c #9FE9F8",
"k 	c #386891",
"l 	c #6F7F8A",
"m 	c #6D8383",
"n 	c #182D4C",
"o 	c #512D21",
"p 	c #701608",
"q 	c #C4541C",
"r 	c #242228",
"s 	c #062151",
"t 	c #092F68",
"u 	c #1D4C9B",
"v 	c #3572C7",
"w 	c #60AEE4",
"x 	c #8B9DA6",
"y 	c #C2744A",
"z 	c #C5A88C",
"A 	c #C1F6FD",
"B 	c #C5F4FC",
"C 	c #C5F4FB",
"D 	c #C3F2FA",
"E 	c #BBF1FA",
"F 	c #B0EFFA",
"G 	c #8FE1F2",
"H 	c #64BFE2",
"I 	c #194783",
"J 	c #606E72",
"K 	c #BCC581",
"L 	c #836D6B",
"M 	c #6D341A",
"N 	c #890D03",
"O 	c #E55715",
"P 	c #B4461C",
"Q 	c #272E50",
"R 	c #484F6A",
"S 	c #5E688A",
"T 	c #5574AC",
"U 	c #995F5A",
"V 	c #CA3900",
"W 	c #8D150A",
"X 	c #709DB6",
"Y 	c #B5F0FC",
"Z 	c #BCF0FB",
"` 	c #BEF2FC",
" .	c #BCF1FB",
"..	c #B8EFFA",
"+.	c #A0E7F5",
"@.	c #8CDFF1",
"#.	c #73CEE8",
"$.	c #52AEDC",
"%.	c #5D96C1",
"&.	c #3D5884",
"*.	c #5D645B",
"=.	c #E1E680",
"-.	c #8D6659",
";.	c #98401B",
">.	c #8E0F02",
",.	c #D43E06",
"'.	c #EB6D0F",
").	c #E1751A",
"!.	c #E77E20",
"~.	c #EB8A31",
"{.	c #D96F31",
"].	c #C93C07",
"^.	c #AA2F0A",
"/.	c #753137",
"(.	c #7CCAE1",
"_.	c #A6ECFA",
":.	c #B2F0FC",
"<.	c #B7F2FD",
"[.	c #B3F1FC",
"}.	c #A2EAF8",
"|.	c #75D1EB",
"1.	c #64C3E3",
"2.	c #5AB6DE",
"3.	c #4AA1DA",
"4.	c #3373BA",
"5.	c #96A3A0",
"6.	c #919477",
"7.	c #D4BD55",
"8.	c #E6DC72",
"9.	c #96503C",
"0.	c #883411",
"a.	c #5B0501",
"b.	c #981904",
"c.	c #EC8315",
"d.	c #ED8215",
"e.	c #EE750E",
"f.	c #E86F0E",
"g.	c #DF650E",
"h.	c #CE4F0E",
"i.	c #CC4D0F",
"j.	c #8E1105",
"k.	c #67798C",
"l.	c #87F3FC",
"m.	c #93F2FF",
"n.	c #A1F7FF",
"o.	c #A8F3FE",
"p.	c #A3EFFB",
"q.	c #99EBF9",
"r.	c #87E1F4",
"s.	c #71D0EC",
"t.	c #5CBAE4",
"u.	c #5DC3EA",
"v.	c #439FDD",
"w.	c #10316B",
"x.	c #C7C268",
"y.	c #FDF070",
"z.	c #FCD357",
"A.	c #C5A551",
"B.	c #AD632D",
"C.	c #511907",
"D.	c #650802",
"E.	c #BE4E10",
"F.	c #EC760E",
"G.	c #DC530A",
"H.	c #D9530E",
"I.	c #D6510E",
"J.	c #D55410",
"K.	c #D15411",
"L.	c #D55D15",
"M.	c #AB2C08",
"N.	c #AF4723",
"O.	c #BA9570",
"P.	c #C09973",
"Q.	c #94A59E",
"R.	c #8EE3F1",
"S.	c #94EDFC",
"T.	c #8CE9F8",
"U.	c #86E7F7",
"V.	c #7BE3F5",
"W.	c #6DDBF4",
"X.	c #5FD0F3",
"Y.	c #51C1F4",
"Z.	c #164F93",
"`.	c #39485E",
" +	c #FFF463",
".+	c #F5D55F",
"++	c #EEBB4C",
"@+	c #D8B849",
"#+	c #85220B",
"$+	c #4F0401",
"%+	c #861A08",
"&+	c #ED7C10",
"*+	c #E05206",
"=+	c #D74908",
"-+	c #D4490B",
";+	c #D24A0C",
">+	c #D14C0E",
",+	c #D25310",
"'+	c #D65E14",
")+	c #AE330B",
"!+	c #A31D03",
"~+	c #E54B00",
"{+	c #F75600",
"]+	c #AB6536",
"^+	c #5EBBDB",
"/+	c #75DAF8",
"(+	c #6FD3F2",
"_+	c #6AD0F1",
":+	c #63CEF1",
"<+	c #5BC8F1",
"[+	c #4CB3E8",
"}+	c #317BBC",
"|+	c #2B83C5",
"1+	c #112E64",
"2+	c #A49354",
"3+	c #FEE64F",
"4+	c #F1C15A",
"5+	c #FFE24C",
"6+	c #90280D",
"7+	c #660802",
"8+	c #B63D0C",
"9+	c #EB6909",
"0+	c #D84806",
"a+	c #D5480B",
"b+	c #D1450A",
"c+	c #CF450B",
"d+	c #CE480D",
"e+	c #CF4F0F",
"f+	c #D45912",
"g+	c #D6651E",
"h+	c #CB6C45",
"i+	c #FFD394",
"j+	c #D3A479",
"k+	c #4F6A8B",
"l+	c #51B1E3",
"m+	c #60C5F0",
"n+	c #5BC0EE",
"o+	c #51B3E5",
"p+	c #47A3DC",
"q+	c #44A9E7",
"r+	c #3696D9",
"s+	c #2161A3",
"t+	c #226BAD",
"u+	c #093271",
"v+	c #6F6551",
"w+	c #FFD341",
"x+	c #FADC59",
"y+	c #FDE34C",
"z+	c #A24813",
"A+	c #480301",
"B+	c #7D0E03",
"C+	c #D35810",
"D+	c #E25509",
"E+	c #D64709",
"F+	c #D2470B",
"G+	c #D0450B",
"H+	c #CE460C",
"I+	c #CE4A0E",
"J+	c #CF5111",
"K+	c #D56018",
"L+	c #EB822D",
"M+	c #EF944B",
"N+	c #7C747F",
"O+	c #1F4D86",
"P+	c #2973B2",
"Q+	c #51B4E9",
"R+	c #50B5EA",
"S+	c #4DB3EB",
"T+	c #409BD9",
"U+	c #2E72B2",
"V+	c #2C76B8",
"W+	c #2D90D5",
"X+	c #1F67A9",
"Y+	c #1A4C8A",
"Z+	c #244980",
"`+	c #54504E",
" @	c #FCBA38",
".@	c #FCD950",
"+@	c #FCDF4D",
"@@	c #B45C14",
"#@	c #741004",
"$@	c #870F03",
"%@	c #E06813",
"&@	c #DD4E0B",
"*@	c #D4490C",
"=@	c #D1460B",
"-@	c #CF470C",
";@	c #CF4C0E",
">@	c #D25312",
",@	c #D9631B",
"'@	c #E17727",
")@	c #F58D31",
"!@	c #E88936",
"~@	c #155091",
"{@	c #3397DA",
"]@	c #42A8E4",
"^@	c #41A5E2",
"/@	c #3E9FDD",
"(@	c #327EBD",
"_@	c #307EBE",
":@	c #2567A6",
"<@	c #1D5899",
"[@	c #1C5B9C",
"}@	c #194F90",
"|@	c #0C3A7B",
"1@	c #848C83",
"2@	c #7C7054",
"3@	c #F5B843",
"4@	c #F7C542",
"5@	c #FDDE4F",
"6@	c #BA5917",
"7@	c #890E04",
"8@	c #880B02",
"9@	c #E66E14",
"0@	c #D8490B",
"a@	c #D24A0D",
"b@	c #D0490D",
"c@	c #D14E0F",
"d@	c #D45813",
"e@	c #CF5916",
"f@	c #C45219",
"g@	c #C2551E",
"h@	c #C1773D",
"i@	c #E48C3A",
"j@	c #225A93",
"k@	c #2C8BD0",
"l@	c #3291D3",
"m@	c #3392D3",
"n@	c #3393D4",
"o@	c #2871B2",
"p@	c #1E5393",
"q@	c #1B5292",
"r@	c #194E8E",
"s@	c #174A89",
"t@	c #164889",
"u@	c #052869",
"v@	c #797D64",
"w@	c #FFE44F",
"x@	c #F7C945",
"y@	c #F6C43F",
"z@	c #FFDB40",
"A@	c #9F4218",
"B@	c #870A03",
"C@	c #860601",
"D@	c #E66711",
"E@	c #DD510A",
"F@	c #D14A0E",
"G@	c #D14C0F",
"H@	c #D55812",
"I@	c #C95112",
"J@	c #9B1E06",
"K@	c #981100",
"L@	c #7B1815",
"M@	c #0A3779",
"N@	c #1E4073",
"O@	c #1B5390",
"P@	c #2279C0",
"Q@	c #267EC5",
"R@	c #2780C5",
"S@	c #2780C6",
"T@	c #2477BC",
"U@	c #1C5EA1",
"V@	c #185090",
"W@	c #154686",
"X@	c #154484",
"Y@	c #134282",
"Z@	c #032769",
"`@	c #696D56",
" #	c #FFE044",
".#	c #F8C734",
"+#	c #FBD23C",
"@#	c #F8C52B",
"##	c #832C19",
"$#	c #870802",
"%#	c #880A02",
"&#	c #DC500C",
"*#	c #E4560B",
"=#	c #D0490E",
"-#	c #D14F10",
";#	c #D75F14",
">#	c #AF340A",
",#	c #9A1803",
"'#	c #AE2300",
")#	c #A6411B",
"!#	c #1D67AC",
"~#	c #1065B7",
"{#	c #1B68B0",
"]#	c #1F70B9",
"^#	c #1D71BC",
"/#	c #1770C0",
"(#	c #136EC0",
"_#	c #196FBD",
":#	c #2073BD",
"<#	c #185498",
"[#	c #123D7C",
"}#	c #123D7D",
"|#	c #113B7B",
"1#	c #012366",
"2#	c #5F614E",
"3#	c #FFD74D",
"4#	c #F4B82D",
"5#	c #FBCF2F",
"6#	c #D98A19",
"7#	c #834123",
"8#	c #880D03",
"9#	c #890E02",
"0#	c #CB3D0A",
"a#	c #E14D0A",
"b#	c #CE4A0F",
"c#	c #D15211",
"d#	c #D45E15",
"e#	c #B33207",
"f#	c #B12903",
"g#	c #BC3001",
"h#	c #DB590A",
"i#	c #9C6F4D",
"j#	c #2162A5",
"k#	c #0B61B7",
"l#	c #0D63B8",
"m#	c #1E65AC",
"n#	c #506D8B",
"o#	c #687D88",
"p#	c #3E73A1",
"q#	c #125DAC",
"r#	c #124385",
"s#	c #103776",
"t#	c #0F3675",
"u#	c #0C3373",
"v#	c #082661",
"w#	c #625C44",
"x#	c #FFCF41",
"y#	c #F4B82C",
"z#	c #F8C425",
"A#	c #EDA91D",
"B#	c #DF951E",
"C#	c #932808",
"D#	c #770C02",
"E#	c #B82A08",
"F#	c #E04309",
"G#	c #CD490F",
"H#	c #D05112",
"I#	c #D55F15",
"J#	c #C54208",
"K#	c #C43601",
"L#	c #D24001",
"M#	c #DA570A",
"N#	c #EB7616",
"O#	c #C9742D",
"P#	c #866959",
"Q#	c #83685B",
"R#	c #BC6E32",
"S#	c #E77C1C",
"T#	c #F4972F",
"U#	c #F8C45D",
"V#	c #738889",
"W#	c #084290",
"X#	c #0C306F",
"Y#	c #0B2F6D",
"Z#	c #021D5D",
"`#	c #666049",
" $	c #E8A725",
".$	c #FBC128",
"+$	c #F7B922",
"@$	c #F2AE1C",
"#$	c #EFA11A",
"$$	c #DA8118",
"%$	c #6C0F02",
"&$	c #4B0501",
"*$	c #A11A03",
"=$	c #D93507",
"-$	c #C9420D",
";$	c #CE5012",
">$	c #D35D15",
",$	c #D45910",
"'$	c #D74701",
")$	c #E25102",
"!$	c #D94F05",
"~$	c #BC440F",
"{$	c #DD6A16",
"]$	c #ED7714",
"^$	c #EC7814",
"/$	c #E67314",
"($	c #E1680F",
"_$	c #CA560E",
":$	c #8E5D3F",
"<$	c #535C6F",
"[$	c #073E8B",
"}$	c #082967",
"|$	c #052464",
"1$	c #031955",
"2$	c #B78E2C",
"3$	c #FAA31A",
"4$	c #F8BA21",
"5$	c #F3AA18",
"6$	c #EC9A15",
"7$	c #EC9C1C",
"8$	c #A33805",
"9$	c #460501",
"0$	c #8A0D01",
"a$	c #C52606",
"b$	c #BB2E08",
"c$	c #C4400E",
"d$	c #CF5614",
"e$	c #D56116",
"f$	c #DB5D0E",
"g$	c #E05807",
"h$	c #E4600B",
"i$	c #B63607",
"j$	c #9F2006",
"k$	c #BE400B",
"l$	c #C8490B",
"m$	c #C5460A",
"n$	c #913A1F",
"o$	c #1F2B5B",
"p$	c #012D7A",
"q$	c #01307D",
"r$	c #063581",
"s$	c #021F5F",
"t$	c #00175E",
"u$	c #0D1F4E",
"v$	c #EBA21A",
"w$	c #EF9916",
"x$	c #F6B119",
"y$	c #ED9812",
"z$	c #EC9A1B",
"A$	c #E5810C",
"B$	c #7E0E02",
"C$	c #770901",
"D$	c #A21404",
"E$	c #A71A05",
"F$	c #B12809",
"G$	c #C94B11",
"H$	c #D05914",
"I$	c #D66417",
"J$	c #DA6514",
"K$	c #DF6611",
"L$	c #E26912",
"M$	c #A43C15",
"N$	c #561827",
"O$	c #3E1D3C",
"P$	c #25224E",
"Q$	c #052467",
"R$	c #012E81",
"S$	c #013082",
"T$	c #012A76",
"U$	c #001F63",
"V$	c #011C68",
"W$	c #02185F",
"X$	c #735531",
"Y$	c #FCA91D",
"Z$	c #EF9C12",
"`$	c #F09E11",
" %	c #E6860A",
".%	c #E78007",
"+%	c #B44008",
"@%	c #780E08",
"#%	c #550501",
"$%	c #920D02",
"%%	c #9E1204",
"&%	c #9E1505",
"*%	c #B9350D",
"=%	c #CD5113",
"-%	c #D05A14",
";%	c #DA6A18",
">%	c #DE6E18",
",%	c #DE731B",
"'%	c #804D35",
")%	c #2C2E55",
"!%	c #032369",
"~%	c #012178",
"{%	c #00104D",
"]%	c #000638",
"^%	c #000030",
"/%	c #01042A",
"(%	c #292B47",
"_%	c #5F4138",
":%	c #EA981B",
"<%	c #F1AC2A",
"[%	c #E78608",
"}%	c #E98A0B",
"|%	c #E27505",
"1%	c #C05507",
"2%	c #851815",
"3%	c #69281E",
"4%	c #750901",
"5%	c #9A1003",
"6%	c #920B03",
"7%	c #9C1505",
"8%	c #C44311",
"9%	c #CC5013",
"0%	c #D56216",
"a%	c #D86818",
"b%	c #DC6D19",
"c%	c #E87317",
"d%	c #E77315",
"e%	c #934F2B",
"f%	c #3C2C45",
"g%	c #221425",
"h%	c #28131A",
"i%	c #502A19",
"j%	c #9A5713",
"k%	c #ED7B05",
"l%	c #ED7C04",
"m%	c #F29E1D",
"n%	c #E58714",
"o%	c #E37E0D",
"p%	c #D3670A",
"q%	c #AA2E02",
"r%	c #7D1C16",
"s%	c #97321B",
"t%	c #890901",
"u%	c #980E03",
"v%	c #8A0802",
"w%	c #A21E08",
"x%	c #C64410",
"y%	c #CA4E12",
"z%	c #CF5713",
"A%	c #D35E15",
"B%	c #D76417",
"C%	c #D96918",
"D%	c #DB6B17",
"E%	c #E56E13",
"F%	c #E26D0F",
"G%	c #D96910",
"H%	c #DC6B0E",
"I%	c #EA740B",
"J%	c #E86F09",
"K%	c #DE6A0A",
"L%	c #E6780D",
"M%	c #E6760A",
"N%	c #DF740A",
"O%	c #E7931F",
"P%	c #DF780F",
"Q%	c #D47F19",
"R%	c #AF4D12",
"S%	c #7B3709",
"T%	c #3E0301",
"U%	c #8D0A02",
"V%	c #910A02",
"W%	c #870602",
"X%	c #A21E07",
"Y%	c #C23F0E",
"Z%	c #C94B10",
"`%	c #CD5111",
" &	c #D15913",
".&	c #D56015",
"+&	c #D66213",
"@&	c #D86311",
"#&	c #D9620F",
"$&	c #D9630D",
"%&	c #D55E0F",
"&&	c #D1580F",
"*&	c #D75F0D",
"=&	c #DC660A",
"-&	c #E37F12",
";&	c #ECA124",
">&	c #EC9F20",
",&	c #EA9213",
"'&	c #BE570C",
")&	c #843706",
"!&	c #450401",
"~&	c #8C0902",
"{&	c #910A03",
"]&	c #8A0902",
"^&	c #9D1704",
"/&	c #BB360B",
"(&	c #C9480F",
"_&	c #CE5010",
":&	c #D25712",
"<&	c #D35A12",
"[&	c #D35910",
"}&	c #D2580E",
"|&	c #D2580D",
"1&	c #D3580D",
"2&	c #D0550D",
"3&	c #D3590D",
"4&	c #DB660C",
"5&	c #E2720D",
"6&	c #E88617",
"7&	c #E28316",
"8&	c #DA6F07",
"9&	c #B03B05",
"0&	c #691E03",
"a&	c #400301",
"b&	c #840902",
"c&	c #990E03",
"d&	c #920C02",
"e&	c #971002",
"f&	c #AF2908",
"g&	c #C5420D",
"h&	c #D0500F",
"i&	c #D55810",
"j&	c #D95D10",
"k&	c #DB610F",
"l&	c #DE650D",
"m&	c #E1670C",
"n&	c #E2690C",
"o&	c #E36B0C",
"p&	c #E36D0D",
"q&	c #E5720F",
"r&	c #B94107",
"s&	c #9E2304",
"t&	c #961B04",
"u&	c #480C02",
"v&	c #290200",
"w&	c #780901",
"x&	c #940D03",
"y&	c #9B1103",
"z&	c #9A1102",
"A&	c #A41B04",
"B&	c #B82F08",
"C&	c #C7410A",
"D&	c #D04C0A",
"E&	c #D65509",
"F&	c #DB5A08",
"G&	c #DE5D07",
"H&	c #DC5D07",
"I&	c #DF6F0F",
"J&	c #E78B19",
"K&	c #D67E1B",
"L&	c #B35219",
"M&	c #A43614",
"N&	c #4B0F08",
"O&	c #050000",
"P&	c #4C0600",
"Q&	c #870C02",
"R&	c #930E03",
"S&	c #9B1303",
"T&	c #A21903",
"U&	c #B12404",
"V&	c #BC2F04",
"W&	c #C63B04",
"X&	c #CD3F03",
"Y&	c #C73E03",
"Z&	c #BB3903",
"`&	c #B43A07",
" *	c #A52E07",
".*	c #9B2509",
"+*	c #852C0F",
"@*	c #290E01",
"#*	c #000000",
"$*	c #040000",
"%*	c #4A0B02",
"&*	c #891806",
"**	c #991806",
"=*	c #8D0E03",
"-*	c #8B0B03",
";*	c #880702",
">*	c #8E1203",
",*	c #921D06",
"'*	c #8B2709",
")*	c #662308",
"!*	c #240F02",
"~*	c #020000",
"{*	c #1B0200",
"]*	c #330501",
"^*	c #420501",
"/*	c #530902",
"(*	c #610C03",
"_*	c #580801",
":*	c #4B0601",
"<*	c #3B0401",
"[*	c #250300",
"}*	c #120100",
"                        . + @ # $ # @ + .                       ",
"                    % & * = - ; > , ' ) ! ~ %                   ",
"                { ] ^ / ( _ : < [ } | 1 2 3 4 5 {               ",
"        6     7 8 9 0 a b c d e f e g h i j k l m n o           ",
"      p q r s t u v w x y z A B h C D E F G H I J K L M         ",
"      N O P Q R S T U V W X Y Z `  ...+.@.#.$.%.&.*.=.-.;.      ",
"      >.,.'.).!.~.{.].^./.(._.:.<.[.}.|.1.2.3.4.5.6.7.8.9.0.    ",
"    a.b.c.d.e.f.g.h.i.j.k.l.m.n.o.p.q.r.s.t.u.v.w.x.y.z.A.B.C.  ",
"    D.E.F.G.H.I.J.K.L.M.N.O.P.Q.R.S.T.U.V.W.X.Y.Z.`. +.+++@+#+  ",
"  $+%+&+*+=+-+;+>+,+'+)+!+~+{+]+^+/+(+_+:+<+[+}+|+1+2+3+4+5+6+  ",
"  7+8+9+0+a+b+c+d+e+f+g+h+i+j+k+l+m+n+o+p+q+r+s+t+u+v+w+x+y+z+A+",
"  B+C+D+E+F+G+H+I+J+K+L+M+N+O+P+Q+R+S+T+U+V+W+X+Y+Z+`+ @.@+@@@#@",
"  $@%@&@*@=@-@;@>@,@'@)@!@~@{@]@^@/@(@_@:@<@[@}@|@1@2@3@4@5@6@7@",
"  8@9@0@a@b@c@d@e@f@g@h@i@j@k@l@m@n@o@p@q@r@s@t@u@v@w@x@y@z@A@B@",
"  C@D@E@F@G@H@I@J@K@L@M@N@O@P@Q@R@S@T@U@V@W@X@Y@Z@`@ #.#+#@###$#",
"  %#&#*#=#-#;#>#,#'#)#!#~#{#]#^#/#(#_#:#<#[#}#|#1#2#3#4#5#6#7#8#",
"  9#0#a#b#c#d#e#f#g#h#i#j#k#l#m#n#o#p#q#r#s#t#u#v#w#x#y#z#A#B#C#",
"  D#E#F#G#H#I#J#K#L#M#N#O#P#Q#R#S#T#U#V#W#X#Y#Z#`# $.$+$@$#$$$%$",
"  &$*$=$-$;$>$,$'$)$!$~${$]$^$/$($_$:$<$[$}$|$1$2$3$4$5$6$7$8$9$",
"    0$a$b$c$d$e$f$g$h$i$j$k$l$m$n$o$p$q$r$s$t$u$v$w$x$y$z$A$B$  ",
"    C$D$E$F$G$H$I$J$K$L$M$N$O$P$Q$R$S$T$U$V$W$X$Y$Z$`$ %.%+%@%  ",
"    #%$%%%&%*%=%-%I$;%>%,%'%)%!%~%{%]%^%/%(%_%:%<%[%}%|%1%2%3%  ",
"      4%5%6%7%8%9%H$0%a%b%c%d%e%f%g%h%i%j%k%l%m%n%o%p%q%r%s%    ",
"        t%u%v%w%x%y%z%A%B%C%D%E%F%G%H%I%J%K%L%M%N%O%P%Q%R%S%    ",
"        T%U%V%W%X%Y%Z%`% &>$.&+&@&#&$&%&&&*&=&-&;&>&,&'&)&      ",
"          !&~&{&]&^&/&(&_&:&<&[&}&|&1&2&3&4&5&6&7&8&9&0&        ",
"            a&b&c&d&e&f&g&h&i&j&k&l&m&n&o&p&q&r&s&t&u&          ",
"              v&w&x&y&z&A&B&C&D&E&F&G&H&I&J&K&L&M&N&            ",
"                O&P&Q&R&S&T&U&V&W&X&Y&Z&`& *.*+*@*              ",
"                  #*$*%*&***=*-*;*-*>*,*'*)*!*~*                ",
"                      #*{*]*^*/*(*_*:*<*[*}*                    ",
"                                                                "};
