/* XPM */
static char * folder_48x48_xpm[] = {
"48 48 846 2",
"  	c None",
". 	c #C2C2C2",
"+ 	c #BDBDBD",
"@ 	c #BEBEBE",
"# 	c #BFBFBF",
"$ 	c #C0C0C0",
"% 	c #C1C1C1",
"& 	c #C3C3C3",
"* 	c #C6C6C6",
"= 	c #F6F6F6",
"- 	c #F9F9F9",
"; 	c #EEEEEE",
"> 	c #CACACA",
", 	c #C7C7C7",
"' 	c #F0B793",
") 	c #EDA374",
"! 	c #F5F5F5",
"~ 	c #CFCFCF",
"{ 	c #F0B894",
"] 	c #F7F7F7",
"^ 	c #DCDCDC",
"/ 	c #C9C9C9",
"( 	c #C8C8C8",
"_ 	c #CBCBCB",
": 	c #CCCCCC",
"< 	c #CDCDCD",
"[ 	c #CECECE",
"} 	c #D1D1D1",
"| 	c #D0D0D0",
"1 	c #F4F4F4",
"2 	c #E4E4E4",
"3 	c #D4D4D4",
"4 	c #D7B094",
"5 	c #DB996B",
"6 	c #DB9C70",
"7 	c #DA9B6F",
"8 	c #DA9A6F",
"9 	c #DA996F",
"0 	c #D9996E",
"a 	c #D9986E",
"b 	c #D9976D",
"c 	c #D9966D",
"d 	c #D9956C",
"e 	c #D9946C",
"f 	c #D9926B",
"g 	c #D9916B",
"h 	c #D8916A",
"i 	c #D8906A",
"j 	c #D88F69",
"k 	c #D88E68",
"l 	c #D78D68",
"m 	c #D78C67",
"n 	c #D78A66",
"o 	c #D68965",
"p 	c #D58763",
"q 	c #D58662",
"r 	c #D58460",
"s 	c #D4835F",
"t 	c #D37E59",
"u 	c #D27C57",
"v 	c #D27956",
"w 	c #D17855",
"x 	c #D17653",
"y 	c #D07452",
"z 	c #D07350",
"A 	c #CF714F",
"B 	c #D0714E",
"C 	c #D26F4C",
"D 	c #DB9C71",
"E 	c #F0C7A2",
"F 	c #F1CBA6",
"G 	c #F2CDA9",
"H 	c #F3CFAC",
"I 	c #F3D1AE",
"J 	c #F3D2B0",
"K 	c #F4D3B3",
"L 	c #F4D5B4",
"M 	c #F4D6B6",
"N 	c #F4D7B8",
"O 	c #F4D7B7",
"P 	c #F4D6B5",
"Q 	c #F3D4B3",
"R 	c #F3D3B1",
"S 	c #F3D0AD",
"T 	c #F2CEAA",
"U 	c #F2CCA8",
"V 	c #F1CBA5",
"W 	c #F0C9A3",
"X 	c #F0C6A1",
"Y 	c #EFC49D",
"Z 	c #EEC19B",
"` 	c #EEBE97",
" .	c #EDBC93",
"..	c #ECB990",
"+.	c #ECB58C",
"@.	c #ECB388",
"#.	c #EBAF84",
"$.	c #EBAB80",
"%.	c #EBA87C",
"&.	c #EBA477",
"*.	c #ECA174",
"=.	c #ED9E71",
"-.	c #ED9A6C",
";.	c #ED9668",
">.	c #ED9264",
",.	c #ED8E5E",
"'.	c #ED895A",
").	c #ED8355",
"!.	c #EE7F50",
"~.	c #EC7B4C",
"{.	c #CD6B49",
"].	c #F2CBA6",
"^.	c #EDB984",
"/.	c #EEBA86",
"(.	c #EEBC87",
"_.	c #EEBE89",
":.	c #EFBF8B",
"<.	c #EFC18C",
"[.	c #F0C28D",
"}.	c #F0C38F",
"|.	c #F0C48F",
"1.	c #F0C38E",
"2.	c #EFBF8A",
"3.	c #EEBA85",
"4.	c #EDB884",
"5.	c #ECB681",
"6.	c #ECB37E",
"7.	c #EBB07B",
"8.	c #EAAE78",
"9.	c #E9AC75",
"0.	c #E9A972",
"a.	c #E8A66F",
"b.	c #E8A36C",
"c.	c #E8A06A",
"d.	c #E99E68",
"e.	c #E99A64",
"f.	c #E99762",
"g.	c #EA945F",
"h.	c #EA915D",
"i.	c #EA8E5A",
"j.	c #EB8A57",
"k.	c #EB8755",
"l.	c #EC8451",
"m.	c #EB814F",
"n.	c #EC7E4B",
"o.	c #EC7A49",
"p.	c #ED7746",
"q.	c #CC6544",
"r.	c #F2CCA6",
"s.	c #EFC08C",
"t.	c #F0C590",
"u.	c #F0C691",
"v.	c #F1C792",
"w.	c #F1C793",
"x.	c #F0C692",
"y.	c #F0C18D",
"z.	c #EFC08B",
"A.	c #EEBD87",
"B.	c #EDBA85",
"C.	c #EDB882",
"D.	c #ECB680",
"E.	c #EBB37C",
"F.	c #EBB07A",
"G.	c #EAAE77",
"H.	c #EAAB74",
"I.	c #E9A871",
"J.	c #E8A56D",
"K.	c #E8A26A",
"L.	c #E79F68",
"M.	c #E89C65",
"N.	c #E89A63",
"O.	c #E9965F",
"P.	c #E9925D",
"Q.	c #E9905A",
"R.	c #EA8D58",
"S.	c #EA8955",
"T.	c #EA8651",
"U.	c #EB834F",
"V.	c #EB804C",
"W.	c #EC7C4A",
"X.	c #EC7846",
"Y.	c #EC7543",
"Z.	c #CA6240",
"`.	c #DB9C6F",
" +	c #F1C893",
".+	c #F1C994",
"++	c #F2CA95",
"@+	c #F2CB96",
"#+	c #F0C490",
"$+	c #F0C38D",
"%+	c #EFC08A",
"&+	c #EFBD87",
"*+	c #EEBA84",
"=+	c #EDB881",
"-+	c #ECB57E",
";+	c #ECB37B",
">+	c #EBAF78",
",+	c #EAAD75",
"'+	c #E9AA72",
")+	c #E8A76F",
"!+	c #E7A46B",
"~+	c #E7A168",
"{+	c #E79E65",
"]+	c #E89B62",
"^+	c #E89860",
"/+	c #E8945D",
"(+	c #E8915A",
"_+	c #E98E58",
":+	c #E98B55",
"<+	c #E98852",
"[+	c #EA844F",
"}+	c #EA814C",
"|+	c #EB7D49",
"1+	c #EB7A46",
"2+	c #EB7643",
"3+	c #EC733F",
"4+	c #C95D3B",
"5+	c #EEBC88",
"6+	c #EEBE8A",
"7+	c #F0C591",
"8+	c #F2CB97",
"9+	c #F3CD98",
"0+	c #F3CE99",
"a+	c #F3CD99",
"b+	c #F3CC97",
"c+	c #F2CA94",
"d+	c #F1C791",
"e+	c #F1C58F",
"f+	c #F0C38C",
"g+	c #EFC089",
"h+	c #EEBD86",
"i+	c #EDBB82",
"j+	c #ECB880",
"k+	c #ECB47D",
"l+	c #EBB27A",
"m+	c #EBAF76",
"n+	c #EAAC73",
"o+	c #E9A970",
"p+	c #E8A66D",
"q+	c #E8A369",
"r+	c #E7A066",
"s+	c #E79D62",
"t+	c #E69A60",
"u+	c #E7965E",
"v+	c #E8935A",
"w+	c #E89057",
"x+	c #E88D55",
"y+	c #E88952",
"z+	c #E9864F",
"A+	c #EA824B",
"B+	c #EA7F49",
"C+	c #EA7C46",
"D+	c #EB7843",
"E+	c #EB7540",
"F+	c #EC713D",
"G+	c #C75837",
"H+	c #F1C9A3",
"I+	c #EEBD88",
"J+	c #F3CE98",
"K+	c #F3D099",
"L+	c #F3CF99",
"M+	c #F2CD96",
"N+	c #F1CA93",
"O+	c #F1C790",
"P+	c #F0C48D",
"Q+	c #F0C28A",
"R+	c #EFBF87",
"S+	c #EEBC84",
"T+	c #EDB980",
"U+	c #EDB67D",
"V+	c #ECB47A",
"W+	c #EBB177",
"X+	c #EAAE74",
"Y+	c #E9AB70",
"Z+	c #E8A76D",
"`+	c #E8A46A",
" @	c #E7A267",
".@	c #E69F63",
"+@	c #E69B5F",
"@@	c #E6985D",
"#@	c #E7945B",
"$@	c #E79157",
"%@	c #E78E54",
"&@	c #E88B51",
"*@	c #E8884F",
"=@	c #E9844C",
"-@	c #E98049",
";@	c #E97D46",
">@	c #EA7943",
",@	c #EB7640",
"'@	c #EB723D",
")@	c #EB6E39",
"!@	c #C65231",
"~@	c #DA9B72",
"{@	c #F0C7A1",
"]@	c #EEBD89",
"^@	c #F1C691",
"/@	c #F1C892",
"(@	c #F2CB95",
"_@	c #F2CC95",
":@	c #F2CB94",
"<@	c #F2CA92",
"[@	c #F1C890",
"}@	c #F0C58D",
"|@	c #EFC28A",
"1@	c #EFC087",
"2@	c #EEBE84",
"3@	c #EEBA81",
"4@	c #EDB77E",
"5@	c #ECB177",
"6@	c #EBAF74",
"7@	c #EAAC71",
"8@	c #E9A96D",
"9@	c #E8A66A",
"0@	c #E7A367",
"a@	c #E7A064",
"b@	c #E69D60",
"c@	c #E6995C",
"d@	c #E5965A",
"e@	c #E69257",
"f@	c #E78F54",
"g@	c #E78C52",
"h@	c #E7894E",
"i@	c #E7854C",
"j@	c #E88148",
"k@	c #E97E46",
"l@	c #E97A42",
"m@	c #EA773F",
"n@	c #EA733C",
"o@	c #EA7039",
"p@	c #EB6C36",
"q@	c #C44B2A",
"r@	c #DB9A71",
"s@	c #F0C69F",
"t@	c #EFBF89",
"u@	c #EFC18B",
"v@	c #EFC28C",
"w@	c #F1C58E",
"x@	c #F1C68F",
"y@	c #F1C78F",
"z@	c #F1C78E",
"A@	c #F1C68D",
"B@	c #F0C48B",
"C@	c #F0C289",
"D@	c #EEBD83",
"E@	c #EDBB80",
"F@	c #EDB87E",
"G@	c #ECB57B",
"H@	c #EBB277",
"I@	c #EAAF74",
"J@	c #E9A96E",
"K@	c #E7A366",
"L@	c #E6A063",
"M@	c #E59D60",
"N@	c #E59A5D",
"O@	c #E5975A",
"P@	c #E69456",
"Q@	c #E69053",
"R@	c #E78C51",
"S@	c #E6894E",
"T@	c #E7864B",
"U@	c #E88248",
"V@	c #E87F45",
"W@	c #E97C42",
"X@	c #E8773F",
"Y@	c #E9743B",
"Z@	c #EA6D36",
"`@	c #EB6A32",
" #	c #C24524",
".#	c #DA956A",
"+#	c #EFC49B",
"@#	c #EDB983",
"##	c #EEBA83",
"$#	c #EEBC85",
"%#	c #EFBF88",
"&#	c #EFC088",
"*#	c #F0C189",
"=#	c #F0C38A",
"-#	c #F0C389",
";#	c #F0C288",
">#	c #EFC188",
",#	c #EFC085",
"'#	c #EFBE84",
")#	c #EEBC82",
"!#	c #EDBA7E",
"~#	c #EDB87C",
"{#	c #ECB579",
"]#	c #EBB276",
"^#	c #EBAF73",
"/#	c #EAAD6F",
"(#	c #E9AA6C",
"_#	c #E8A76A",
":#	c #E8A467",
"<#	c #E7A163",
"[#	c #E69E5F",
"}#	c #E59A5C",
"|#	c #E59759",
"1#	c #E59456",
"2#	c #E59153",
"3#	c #E58E50",
"4#	c #E68A4D",
"5#	c #E7864A",
"6#	c #E78347",
"7#	c #E77F44",
"8#	c #E77C42",
"9#	c #E8793E",
"0#	c #E9753B",
"a#	c #E97036",
"b#	c #E96B32",
"c#	c #E9662C",
"d#	c #EA6027",
"e#	c #C03D1B",
"f#	c #D99167",
"g#	c #EEC096",
"h#	c #ECB67E",
"i#	c #EDB780",
"j#	c #EDB880",
"k#	c #EDB982",
"l#	c #EEBB83",
"m#	c #EEBD84",
"n#	c #EEBC81",
"o#	c #EEBB80",
"p#	c #EEB97E",
"q#	c #EDB67A",
"r#	c #ECB477",
"s#	c #EBB175",
"t#	c #EBAF71",
"u#	c #EAAC6F",
"v#	c #E9A96B",
"w#	c #E9A769",
"x#	c #E8A465",
"y#	c #E7A162",
"z#	c #E69A5B",
"A#	c #E59858",
"B#	c #E49555",
"C#	c #E49252",
"D#	c #E58E4F",
"E#	c #E68B4C",
"F#	c #E68649",
"G#	c #E68142",
"H#	c #E57B3C",
"I#	c #E67738",
"J#	c #E77234",
"K#	c #E66D2E",
"L#	c #E76829",
"M#	c #E76527",
"N#	c #E86225",
"O#	c #E85E23",
"P#	c #E85B20",
"Q#	c #BE3818",
"R#	c #D88D63",
"S#	c #EDBC91",
"T#	c #ECB47B",
"U#	c #ECB67C",
"V#	c #EDB97E",
"W#	c #EDB97D",
"X#	c #EDB77C",
"Y#	c #ECB376",
"Z#	c #ECB174",
"`#	c #EBAF72",
" $	c #EAAB6C",
".$	c #E9A86A",
"+$	c #E8A667",
"@$	c #E7A263",
"#$	c #E6A061",
"$$	c #E69D5E",
"%$	c #E59A5A",
"&$	c #E49655",
"*$	c #E3914F",
"=$	c #E38C49",
"-$	c #E38744",
";$	c #E3823F",
">$	c #E37E3A",
",$	c #E37935",
"'$	c #E47633",
")$	c #E57331",
"!$	c #E5702F",
"~$	c #E66D2D",
"{$	c #E66A2B",
"]$	c #E76728",
"^$	c #E86426",
"/$	c #E86024",
"($	c #E95D22",
"_$	c #E6581F",
":$	c #BF3818",
"<$	c #D6895F",
"[$	c #ECB88B",
"}$	c #EBAE75",
"|$	c #EAAF76",
"1$	c #EBB077",
"2$	c #EBB176",
"3$	c #ECB377",
"4$	c #EBB378",
"5$	c #ECB275",
"6$	c #ECB173",
"7$	c #EBB072",
"8$	c #EAAF70",
"9$	c #E9A969",
"0$	c #E7A262",
"a$	c #E69E5C",
"b$	c #E59955",
"c$	c #E49550",
"d$	c #E39149",
"e$	c #E18C44",
"f$	c #E18840",
"g$	c #E1863E",
"h$	c #E2833C",
"i$	c #E2803A",
"j$	c #E37D38",
"k$	c #E37A36",
"l$	c #E47734",
"m$	c #E47432",
"n$	c #E57130",
"o$	c #E56E2E",
"p$	c #E66B2C",
"q$	c #E7682A",
"r$	c #E76528",
"s$	c #E85F23",
"t$	c #E95C21",
"u$	c #E7571E",
"v$	c #BE3618",
"w$	c #D5865A",
"x$	c #EAB385",
"y$	c #E9A96F",
"z$	c #E9AA70",
"A$	c #EAAB71",
"B$	c #EAAC70",
"C$	c #EAAD71",
"D$	c #EAAD72",
"E$	c #EAAE72",
"F$	c #EAAE71",
"G$	c #EBAE71",
"H$	c #EBAD70",
"I$	c #E9AB6D",
"J$	c #E9A767",
"K$	c #E8A563",
"L$	c #E7A15E",
"M$	c #E69D59",
"N$	c #E69A52",
"O$	c #E4964F",
"P$	c #E4944C",
"Q$	c #E3924A",
"R$	c #E29047",
"S$	c #E28D45",
"T$	c #E18B43",
"U$	c #E2833D",
"V$	c #E2803B",
"W$	c #E37D39",
"X$	c #E37B37",
"Y$	c #E47835",
"Z$	c #E47533",
"`$	c #E57231",
" %	c #E56F2F",
".%	c #E66C2D",
"+%	c #E6692B",
"@%	c #E76628",
"#%	c #E86326",
"$%	c #E95A20",
"%%	c #E7551D",
"&%	c #BE3417",
"*%	c #D28357",
"=%	c #E9AE7F",
"-%	c #E8A569",
";%	c #E8A56A",
">%	c #E9A66B",
",%	c #E9A86B",
"'%	c #E8A86B",
")%	c #E8A564",
"!%	c #E7A260",
"~%	c #E7A05C",
"{%	c #E69E58",
"]%	c #E59C55",
"^%	c #E59A51",
"/%	c #E59950",
"(%	c #E59850",
"_%	c #E4974E",
":%	c #E4954D",
"<%	c #E3944B",
"[%	c #E39048",
"}%	c #E28E46",
"|%	c #E18A42",
"1%	c #E1853E",
"2%	c #E37E39",
"3%	c #E76729",
"4%	c #E76427",
"5%	c #EA591F",
"6%	c #EA561D",
"7%	c #BC3215",
"8%	c #D27F53",
"9%	c #E8A977",
"0%	c #E69D5F",
"a%	c #E49957",
"b%	c #E59754",
"c%	c #E49650",
"d%	c #E3944C",
"e%	c #E4964D",
"f%	c #E3934B",
"g%	c #E18941",
"h%	c #E1863F",
"i%	c #E1843D",
"j%	c #E2823C",
"k%	c #E27F3A",
"l%	c #E66B2B",
"m%	c #E85F24",
"n%	c #E95D21",
"o%	c #E95A1F",
"p%	c #EA571D",
"q%	c #EB541B",
"r%	c #BC3014",
"s%	c #CA6330",
"t%	c #E29257",
"u%	c #E28F47",
"v%	c #E29048",
"w%	c #E39148",
"x%	c #E2813B",
"y%	c #E27E39",
"z%	c #E37C38",
"A%	c #E47834",
"B%	c #EA571E",
"C%	c #EA551C",
"D%	c #EB521A",
"E%	c #BB2E13",
"F%	c #C95D29",
"G%	c #E28E51",
"H%	c #E1843E",
"I%	c #E18740",
"J%	c #E1873F",
"K%	c #E47935",
"L%	c #E47634",
"M%	c #E57230",
"N%	c #E95B20",
"O%	c #EA581E",
"P%	c #EB4F18",
"Q%	c #BB2C12",
"R%	c #C85B28",
"S%	c #E1884B",
"T%	c #E2813C",
"U%	c #E57030",
"V%	c #E66C2C",
"W%	c #EB531A",
"X%	c #EB5018",
"Y%	c #EC4F18",
"Z%	c #BB2B12",
"`%	c #C85928",
" &	c #E28246",
".&	c #E37C37",
"+&	c #E7692A",
"@&	c #C75726",
"#&	c #E27D40",
"$&	c #E37936",
"%&	c #E37A37",
"&&	c #E56F2E",
"*&	c #E6692A",
"=&	c #E86124",
"-&	c #C75526",
";&	c #E37639",
">&	c #E57432",
",&	c #E47532",
"'&	c #E47332",
")&	c #E66E2E",
"!&	c #E86125",
"~&	c #EA581F",
"{&	c #EA541B",
"]&	c #EB511A",
"^&	c #C55225",
"/&	c #E16F34",
"(&	c #E46E2F",
"_&	c #E36E2E",
":&	c #E36F2F",
"<&	c #E37030",
"[&	c #E37130",
"}&	c #E37131",
"|&	c #E37231",
"1&	c #E27232",
"2&	c #E17231",
"3&	c #E27230",
"4&	c #E27130",
"5&	c #E2702F",
"6&	c #E26F2E",
"7&	c #E26E2D",
"8&	c #E36D2C",
"9&	c #E36B2C",
"0&	c #E36A2B",
"a&	c #E3692A",
"b&	c #E4672A",
"c&	c #E46628",
"d&	c #E46427",
"e&	c #E56226",
"f&	c #E56025",
"g&	c #E55E24",
"h&	c #E65C22",
"i&	c #E65A21",
"j&	c #E7561E",
"k&	c #E7541C",
"l&	c #E8521B",
"m&	c #E85019",
"n&	c #E94E18",
"o&	c #E84E18",
"p&	c #C14F22",
"q&	c #DE662D",
"r&	c #E1682A",
"s&	c #E1682B",
"t&	c #E1692B",
"u&	c #E16A2C",
"v&	c #E16B2D",
"w&	c #E06B2D",
"x&	c #E06A2C",
"y&	c #E0692B",
"z&	c #E0682B",
"A&	c #E0672A",
"B&	c #E06629",
"C&	c #E16528",
"D&	c #E16427",
"E&	c #E16227",
"F&	c #E16126",
"G&	c #E25F24",
"H&	c #E25E23",
"I&	c #E25C22",
"J&	c #E35A21",
"K&	c #E35920",
"L&	c #E3581E",
"M&	c #E4561D",
"N&	c #E4541B",
"O&	c #E5511A",
"P&	c #E54F19",
"Q&	c #E54D17",
"R&	c #E64D17",
"S&	c #BE4D21",
"T&	c #D85E27",
"U&	c #DE6125",
"V&	c #DE6226",
"W&	c #DE6326",
"X&	c #DE6327",
"Y&	c #DE6427",
"Z&	c #DE6528",
"`&	c #DD6528",
" *	c #DD6529",
".*	c #DE6428",
"+*	c #DE6126",
"@*	c #DD6025",
"#*	c #DE5F24",
"$*	c #DE5E23",
"%*	c #DE5D22",
"&*	c #DE5B22",
"**	c #DF5A21",
"=*	c #DF5820",
"-*	c #DF571F",
";*	c #DF551E",
">*	c #E0531D",
",*	c #E0521B",
"'*	c #E1501A",
")*	c #E14E19",
"!*	c #E14D17",
"~*	c #E24C17",
"{*	c #E34C17",
"]*	c #BC4B21",
"^*	c #D55821",
"/*	c #DC5C23",
"(*	c #DC5D23",
"_*	c #DC5E24",
":*	c #DC5E25",
"<*	c #DC5F25",
"[*	c #DC6025",
"}*	c #DB6026",
"|*	c #DB5A22",
"1*	c #DC5921",
"2*	c #DC5820",
"3*	c #DC571F",
"4*	c #DC561E",
"5*	c #DD541D",
"6*	c #DD521C",
"7*	c #DD511B",
"8*	c #DE4F1A",
"9*	c #DE4D19",
"0*	c #DE4C18",
"a*	c #DF4B18",
"b*	c #E14C18",
"c*	c #BC2B13",
"d*	c #B6461D",
"e*	c #D1511F",
"f*	c #DA561F",
"g*	c #DA5720",
"h*	c #DA5721",
"i*	c #DA5822",
"j*	c #D95922",
"k*	c #D95A22",
"l*	c #DA551F",
"m*	c #DA541E",
"n*	c #DA531D",
"o*	c #DA511C",
"p*	c #DA501B",
"q*	c #DB4F1A",
"r*	c #DB4D19",
"s*	c #DB4C18",
"t*	c #DA4A17",
"u*	c #DB4A17",
"v*	c #DE4B17",
"w*	c #BC2C12",
"x*	c #B2431D",
"y*	c #CC4B1B",
"z*	c #D7501B",
"A*	c #D7501C",
"B*	c #D7511C",
"C*	c #D7521D",
"D*	c #D6521D",
"E*	c #D6531E",
"F*	c #D6541E",
"G*	c #D6531D",
"H*	c #D7511D",
"I*	c #D74F1B",
"J*	c #D74E1B",
"K*	c #D84D1A",
"L*	c #D84C19",
"M*	c #D84B18",
"N*	c #D84917",
"O*	c #D94917",
"P*	c #DB4917",
"Q*	c #AF3F1C",
"R*	c #AF3E1B",
"S*	c #AF3D1B",
"T*	c #AE3D1A",
"U*	c #AE3C1A",
"V*	c #AE3B19",
"W*	c #AD3919",
"X*	c #AD3918",
"Y*	c #AD3818",
"Z*	c #AD3617",
"`*	c #AD3517",
" =	c #AC3417",
".=	c #AC3317",
"+=	c #AC3216",
"@=	c #AB3116",
"#=	c #AB3115",
"$=	c #AB3015",
"%=	c #AB2F14",
"&=	c #AA2E14",
"*=	c #AA2D13",
"==	c #AA2C13",
"-=	c #AA2B12",
";=	c #A92A12",
">=	c #A92911",
",=	c #A92811",
"'=	c #A82711",
")=	c #A82710",
"!=	c #B22911",
"~=	c #BC2D12",
"                                                                                                ",
"                                                                                                ",
"                                                                                                ",
"                                                                                                ",
"                                                                                                ",
"                                                                                                ",
"                                                                                                ",
"                                                                                                ",
"    . + @ @ @ # # $ $ $ % % . . & & & *                                                         ",
"    + = - - - - - - - - - - - - - - - ; > ,                                                     ",
"    @ - - ' ) ) ) ) ) ) ) ) ) ) ) ' - - ! ~ ,                                                   ",
"    @ - - { ) ) ) ) ) ) ) ) ) ) ) { - - - ] ^ / * , , , ( ( / / / > > _ _ _ : : < < [ [ [ }     ",
"    # - - - - - - - - - - - - - - - - - - - - - - - - - - - - - - - - - - - - - - - - - ! |     ",
"    # 1 1 1 1 1 1 1 1 1 1 1 1 1 1 1 1 1 1 1 1 1 1 1 1 1 1 1 1 1 1 1 1 1 1 1 1 1 1 1 1 1 1 ~     ",
"    $ 2 2 2 2 2 2 2 2 2 2 2 2 2 2 2 2 2 2 2 2 2 2 2 2 2 2 2 2 2 2 2 2 2 2 2 2 2 2 2 2 2 2 ~     ",
"    $ 3 3 3 3 3 3 3 3 3 3 3 3 3 3 3 3 3 3 3 3 3 3 3 3 3 3 3 3 3 3 3 3 3 3 3 3 3 3 3 3 3 3 ~     ",
"    4 5 6 6 6 6 6 6 7 7 8 9 0 a b b c d e e f g g h i j k l m n o p q r s t u v w x y z A B C   ",
"    D E F G H I J K L M N O M P Q R I S T U V W X Y Z `  ...+.@.#.$.%.&.*.=.-.;.>.,.'.).!.~.{.  ",
"    5 ].^./.(._.:.<.[.}.|.|.|.|.1.[.<.2._.(.3.4.5.6.7.8.9.0.a.b.c.d.e.f.g.h.i.j.k.l.m.n.o.p.q.  ",
"    5 r./.(._.s.[.|.t.u.v.w.w.x.u.t.}.y.z.A.B.C.D.E.F.G.H.I.J.K.L.M.N.O.P.Q.R.S.T.U.V.W.X.Y.Z.  ",
"    `.F (._.z.[.|.u. +.+++@+@+++.+v.#+$+%+&+*+=+-+;+>+,+'+)+!+~+{+]+^+/+(+_+:+<+[+}+|+1+2+3+4+  ",
"    7 V 5+6+<.}.7+w..+8+9+0+a+b+c+d+e+f+g+h+i+j+k+l+m+n+o+p+q+r+s+t+u+v+w+x+y+z+A+B+C+D+E+F+G+  ",
"    7 H+I+2.<.|.u. +++b+J+K+L+M+N+O+P+Q+R+S+T+U+V+W+X+Y+Z+`+ @.@+@@@#@$@%@&@*@=@-@;@>@,@'@)@!@  ",
"    ~@{@]@6+<.}.t.^@/@c+(@_@:@<@[@}@|@1@2@3@4@V+5@6@7@8@9@0@a@b@c@d@e@f@g@h@i@j@k@l@m@n@o@p@q@  ",
"    r@s@5+A.t@u@v@P+w@x@y@[@z@A@B@C@1@D@E@F@G@H@I@7@J@9@K@L@M@N@O@P@Q@R@S@T@U@V@W@X@Y@o@Z@`@ #  ",
"    .#+#@###$#A.%#&#*#|@=#-#;#>#,#'#)#!#~#{#]#^#/#(#_#:#<#[#}#|#1#2#3#4#5#6#7#8#9#0#a#b#c#d#e#  ",
"    f#g#h#i#j#k#l#S+D@m#2@m#D@n#o#p#~#q#r#s#t#u#v#w#x#y#[#z#A#B#C#D#E#F#G#H#I#J#K#L#M#N#O#P#Q#  ",
"    R#S#l+;+T#U#U+4@F@V#F@W#W#X#q#{#Y#Z#`#/# $.$+$@$#$$$%$&$*$=$-$;$>$,$'$)$!$~${$]$^$/$($_$:$  ",
"    <$[$}$|$1$2$5@3$4$3$r#3$Y#5$6$7$8$/#(#9$+$0$a$b$c$d$e$f$g$h$i$j$k$l$m$n$o$p$q$r$N#s$t$u$v$  ",
"    w$x$y$z$A$B$C$D$E$E$F$G$H$/#I$J$K$L$M$N$O$P$Q$R$S$T$f$g$U$V$W$X$Y$Z$`$ %.%+%@%#%/$($$%%%&%  ",
"    *%=%-%;%>%,%'%,%w#)%!%~%{%]%^%/%(%_%:%<%Q$[%}%e$|%f$1%h$V$2%X$Y$Z$)$!$~${$3%4%N#s$t$5%6%7%  ",
"    8%9%0%%$a%b%c%d%P$:%:%e%e%:%:%P$f%Q$d$R$}%e$|%g%h%i%j%k%j$X$Y$Z$)$!$~$l%L#r$N#m%n%o%p%q%r%  ",
"    s%t%g%|%e$S$}%u%v%[%w%d$d$w%[%R$u%}%S$T$|%f$h%1%h$x%y%z%k$A%Z$)$!$~$p$q$r$#%/$($$%B%C%D%E%  ",
"    F%G%H%h%I%g%g%|%T$e$e$e$e$e$T$T$|%g%f$J%g$i%j%x%k%j$X$K%L%m$M% %~${$L#r$#%/$($N%O%C%D%P%Q%  ",
"    R%S%V$T%h$i%1%g$h%J%I%I%I%J%J%h%1%H%i%j%x%i$y%z%X$,$l$Z$)$U%o$V%{$3%M#N#/$($N%O%C%W%X%Y%Z%  ",
"    `% &.&j$y%k%i$x%x%j%j%j%j%j%j%x%x%i$k%2%z%X$k$Y$l$Z$)$n$ %~$p$+&@%4%N#s$($$%O%C%D%X%Y%Y%Z%  ",
"    @&#&l$Y$$&%&X$z%z%j$j$W$W$j$j$z%z%X$k$$&Y$l$Z$m$`$n$&&~$p$*&3%M##%=&O#t$o%B%C%D%X%Y%Y%Y%Z%  ",
"    -&;&>&m$Z$'$L%l$A%Y$Y$Y$Y$Y$Y$A%l$L%Z$,&'&`$n$!$)&.%p$*&3%r$#%!&s$($N%~&6%{&]&P%Y%Y%Y%Y%Z%  ",
"    ^&/&(&_&:&<&[&}&|&|&|&1&2&3&3&3&4&5&5&6&7&8&9&0&a&b&c&d&e&f&g&h&i&_$j&k&l&m&n&n&n&n&n&o&Z%  ",
"    p&q&r&r&s&t&u&u&v&w&w&w&w&w&w&w&x&x&y&z&A&B&C&D&E&F&G&H&I&J&K&L&M&N&O&P&Q&R&R&R&R&R&R&R&Z%  ",
"    S&T&U&V&W&X&Y&Z&Z&`& * * * *`&Z&.*Y&X&V&+*@*#*$*%*&***=*-*;*>*,*'*)*!*~*~*~*~*~*~*~*~*{*Q%  ",
"    ]*^*/*(*_*:*<*[*}*}*}*}*}*}*}*}*<*<*_*_*(*/*|*1*2*3*4*5*6*7*8*9*0*a*a*a*a*a*a*a*a*a*a*b*c*  ",
"    d*e*f*g*h*h*i*j*j*j*j*k*k*j*j*j*j*i*h*h*g*f*l*m*n*o*p*q*r*s*t*u*u*u*u*u*u*u*u*u*u*u*u*v*w*  ",
"    x*y*z*A*B*C*D*E*E*F*F*F*F*F*E*E*G*D*H*B*A*z*I*J*K*L*M*N*O*O*O*N*N*N*N*N*N*N*N*N*N*N*N*P*w*  ",
"      Q*Q*R*S*T*U*V*W*X*Y*Z*`* =.=+=@=#=$=%=&=*===-=;=>=,=,=,=,=,=,=,=,=,=,=,=,=,='='='=)=!=~=  ",
"                                                                                                ",
"                                                                                                ",
"                                                                                                "};
