/* XPM */
static char * folder_16x16_xpm[] = {
"16 16 125 2",
"  	c None",
". 	c #A8A8A8",
"+ 	c #AEAEAE",
"@ 	c #FFFFFF",
"# 	c #FEFEFE",
"$ 	c #D4D4D4",
"% 	c #A9A9A9",
"& 	c #ABABAB",
"* 	c #D8905F",
"= 	c #DB9D71",
"- 	c #DB9C70",
"; 	c #DB9A6F",
"> 	c #DB986F",
", 	c #DB966D",
"' 	c #DA946C",
") 	c #D9936C",
"! 	c #D9916A",
"~ 	c #D98F6A",
"{ 	c #D88C69",
"] 	c #D58866",
"^ 	c #D78664",
"/ 	c #D17652",
"( 	c #DB9B6F",
"_ 	c #F5D7B1",
": 	c #F5D8B1",
"< 	c #F5D9B1",
"[ 	c #F5D9B2",
"} 	c #D47E60",
"| 	c #DB976D",
"1 	c #F3D2AC",
"2 	c #EEBA7F",
"3 	c #EEBB7F",
"4 	c #EEBB80",
"5 	c #EEBC80",
"6 	c #EEBC81",
"7 	c #EDBB7F",
"8 	c #EDB97B",
"9 	c #ECB879",
"0 	c #CF6E4E",
"a 	c #F2CDA7",
"b 	c #EBB278",
"c 	c #EBB379",
"d 	c #EBB276",
"e 	c #EAB073",
"f 	c #EAAE6F",
"g 	c #E9AC6C",
"h 	c #E9AB69",
"i 	c #E8A965",
"j 	c #C95D3D",
"k 	c #D78C64",
"l 	c #F1C7A3",
"m 	c #E9AA71",
"n 	c #E9A970",
"o 	c #E8A76C",
"p 	c #E8A568",
"q 	c #E7A465",
"r 	c #E7A162",
"s 	c #E6A05E",
"t 	c #E69E5B",
"u 	c #E59C58",
"v 	c #E49952",
"w 	c #E3954C",
"x 	c #C24624",
"y 	c #D58560",
"z 	c #EEBF99",
"A 	c #E59B5F",
"B 	c #E5995C",
"C 	c #E49758",
"D 	c #E39454",
"E 	c #E28F4C",
"F 	c #E18B45",
"G 	c #E0863D",
"H 	c #DF8438",
"I 	c #DE8236",
"J 	c #DE8134",
"K 	c #DE8234",
"L 	c #BF3B19",
"M 	c #D17851",
"N 	c #EBB088",
"O 	c #DE803F",
"P 	c #DD7B37",
"Q 	c #DC7732",
"R 	c #DB752D",
"S 	c #DB742C",
"T 	c #DB752C",
"U 	c #DC752D",
"V 	c #DC762D",
"W 	c #BE3516",
"X 	c #C6562A",
"Y 	c #E69C71",
"Z 	c #D96725",
"` 	c #D96826",
" .	c #D96926",
"..	c #D96A26",
"+.	c #D96A27",
"@.	c #BC2F14",
"#.	c #C65227",
"$.	c #E4946D",
"%.	c #D65B1F",
"&.	c #D65C1F",
"*.	c #D75C1F",
"=.	c #D75D20",
"-.	c #D75E20",
";.	c #D75E21",
">.	c #BC2C13",
",.	c #C54C25",
"'.	c #E38C69",
").	c #D44F19",
"!.	c #D45019",
"~.	c #D45119",
"{.	c #D4511A",
"].	c #D4521A",
"^.	c #D5521A",
"/.	c #BC2B13",
"(.	c #C1431D",
"_.	c #C0401B",
":.	c #BF3D1A",
"<.	c #BF3A19",
"[.	c #BE3818",
"}.	c #BD3516",
"|.	c #BC3215",
"1.	c #BB2C12",
"2.	c #BB2B12",
"3.	c #BB2E14",
"4.	c #BC3017",
"                                ",
". . . . . . +                   ",
". @ @ @ @ # $ % . . . . . .     ",
". @ @ @ @ @ @ @ @ @ @ @ @ &     ",
". @ * = - ; > , ' ) ! ~ { ] ^ / ",
". @ ( _ : : : : < < < [ [ [ [ } ",
". @ | 1 2 3 4 4 5 5 6 6 7 8 9 0 ",
". @ ) a b b c c c d e f g h i j ",
". @ k l m n o p q r s t u v w x ",
". @ y z A B C D E F G H I J K L ",
". @ M N O P Q R S S T U U V V W ",
". @ X Y Z Z Z ` ` `  . ...+.+.@.",
". @ #.$.%.%.%.&.*.=.=.=.-.-.;.>.",
". @ ,.'.).).!.!.!.~.{.{.].].^./.",
". . (._.:.<.[.}.|.@.1.2.2.3.4.1.",
"                                "};
