/* XPM */
static char * folder_24x24_xpm[] = {
"24 24 303 2",
"  	c None",
". 	c #C1C1C1",
"+ 	c #C2C2C2",
"@ 	c #C3C3C3",
"# 	c #BEBEBE",
"$ 	c #F7F7F7",
"% 	c #FBFBFB",
"& 	c #F4F4F4",
"* 	c #F8F8F8",
"= 	c #F0B28A",
"- 	c #EDA374",
"; 	c #EFB28B",
"> 	c #FCFCFC",
", 	c #E7E7E7",
"' 	c #BCBCBC",
") 	c #F5F5F5",
"! 	c #F9F9F9",
"~ 	c #B9B9B9",
"{ 	c #F3F3F3",
"] 	c #F6F6F6",
"^ 	c #D58956",
"/ 	c #DB996C",
"( 	c #DB9B6F",
"_ 	c #DA986C",
": 	c #DA976A",
"< 	c #D68B59",
"[ 	c #B7B7B7",
"} 	c #F0F0F0",
"| 	c #D89367",
"1 	c #F1D0AE",
"2 	c #F3D2AF",
"3 	c #F3D1AD",
"4 	c #F3D2AE",
"5 	c #F3D1AE",
"6 	c #F3D0AC",
"7 	c #F2CCA6",
"8 	c #F1CAA5",
"9 	c #F0C9A4",
"0 	c #F0C7A2",
"a 	c #F0C49F",
"b 	c #EFC29E",
"c 	c #EEBF9C",
"d 	c #EEBC9B",
"e 	c #EEB999",
"f 	c #EAAC88",
"g 	c #E69B73",
"h 	c #E1895D",
"i 	c #DA9469",
"j 	c #B5B5B5",
"k 	c #EDEDED",
"l 	c #D88F64",
"m 	c #F3D3AF",
"n 	c #EEBE84",
"o 	c #EEC084",
"p 	c #F0C289",
"q 	c #F0C288",
"r 	c #EFC087",
"s 	c #EEBA81",
"t 	c #ECB881",
"u 	c #ECB57E",
"v 	c #EBB17B",
"w 	c #EAAD77",
"x 	c #E9A974",
"y 	c #E8A571",
"z 	c #E7A16F",
"A 	c #E69D6D",
"B 	c #E49666",
"C 	c #E38D5D",
"D 	c #E18555",
"E 	c #D68A5C",
"F 	c #B3B3B3",
"G 	c #EAEAEA",
"H 	c #EEEEEE",
"I 	c #D78B62",
"J 	c #F4D6B1",
"K 	c #F0C287",
"L 	c #F0C488",
"M 	c #F0C78B",
"N 	c #F0C68A",
"O 	c #F0C387",
"P 	c #EEBE83",
"Q 	c #EEBB7F",
"R 	c #ECB67C",
"S 	c #EBB278",
"T 	c #EAAE74",
"U 	c #E8A970",
"V 	c #E7A369",
"W 	c #E59D63",
"X 	c #E4965E",
"Y 	c #E39059",
"Z 	c #E28A54",
"` 	c #E0834F",
" .	c #DE7B49",
"..	c #D37D4F",
"+.	c #AFAFAF",
"@.	c #EBEBEB",
"#.	c #D68860",
"$.	c #F4D5B1",
"%.	c #EFC185",
"&.	c #F0C487",
"*.	c #F0C689",
"=.	c #EFC287",
"-.	c #EDB97D",
";.	c #ECB477",
">.	c #EAAE71",
",.	c #E8A86B",
"'.	c #E7A265",
").	c #E59C5E",
"!.	c #E39558",
"~.	c #E28F53",
"{.	c #E1884D",
"].	c #DF8147",
"^.	c #DD7942",
"/.	c #DC723D",
"(.	c #CF7142",
"_.	c #ABABAB",
":.	c #E4E4E4",
"<.	c #E8E8E8",
"[.	c #D5855F",
"}.	c #F4D4B1",
"|.	c #EEBC81",
"1.	c #EEBD82",
"2.	c #EEBD80",
"3.	c #EEBC7E",
"4.	c #EDB97B",
"5.	c #ECB676",
"6.	c #EAB170",
"7.	c #E9AB6B",
"8.	c #E8A664",
"9.	c #E69F5F",
"0.	c #E59A58",
"a.	c #E39351",
"b.	c #E18D4B",
"c.	c #E08442",
"d.	c #DD7A3A",
"e.	c #DB7132",
"f.	c #D9692B",
"g.	c #D86125",
"h.	c #C65C29",
"i.	c #A9A9A9",
"j.	c #E2E2E2",
"k.	c #E5E5E5",
"l.	c #D37D58",
"m.	c #F3D0AB",
"n.	c #EBB172",
"o.	c #EBB272",
"p.	c #EBB171",
"q.	c #EBB06F",
"r.	c #EAAD6B",
"s.	c #E9A966",
"t.	c #E7A45E",
"u.	c #E69D55",
"v.	c #E3954C",
"w.	c #E28E44",
"x.	c #E0863C",
"y.	c #DD8033",
"z.	c #DC782E",
"A.	c #DB722B",
"B.	c #DA6D28",
"C.	c #D96725",
"D.	c #D76122",
"E.	c #D65B1F",
"F.	c #C55525",
"G.	c #A6A6A6",
"H.	c #E1E1E1",
"I.	c #CE6F49",
"J.	c #F1C79E",
"K.	c #E69F59",
"L.	c #E69E55",
"M.	c #E59B50",
"N.	c #E4984B",
"O.	c #E39546",
"P.	c #E29143",
"Q.	c #E28E3F",
"R.	c #E18B3C",
"S.	c #E08739",
"T.	c #DF8235",
"U.	c #DD7E31",
"V.	c #DC792E",
"W.	c #DB732C",
"X.	c #DA6E29",
"Y.	c #D96926",
"Z.	c #D86323",
"`.	c #D75D20",
" +	c #D6581D",
".+	c #C45123",
"++	c #A4A4A4",
"@+	c #E0E0E0",
"#+	c #C34D21",
"$+	c #ECB585",
"%+	c #E0893A",
"&+	c #E18A3C",
"*+	c #E08A3B",
"=+	c #E0883A",
"-+	c #DF8638",
";+	c #DF8335",
">+	c #DE7F32",
",+	c #DD7C30",
"'+	c #DC772E",
")+	c #DB732B",
"!+	c #D86423",
"~+	c #D75E21",
"{+	c #D6591E",
"]+	c #D5531B",
"^+	c #C44D21",
"/+	c #A2A2A2",
"(+	c #DDDDDD",
"_+	c #C34A22",
":+	c #EAAF7F",
"<+	c #DE8032",
"[+	c #DE8133",
"}+	c #DE8134",
"|+	c #DE8033",
"1+	c #DD7D31",
"2+	c #DD7A2F",
"3+	c #DB742C",
"4+	c #DB702A",
"5+	c #DA6C28",
"6+	c #D75E20",
"7+	c #D5541B",
"8+	c #D44F18",
"9+	c #C3481F",
"0+	c #9F9F9F",
"a+	c #DADADA",
"b+	c #D9D5D4",
"c+	c #C34B25",
"d+	c #E8A77A",
"e+	c #DC762D",
"f+	c #DC752D",
"g+	c #DB712B",
"h+	c #DA6F29",
"i+	c #DA6B27",
"j+	c #D96826",
"k+	c #D86424",
"l+	c #D76022",
"m+	c #D65C1F",
"n+	c #D6571D",
"o+	c #D5531A",
"p+	c #D44E18",
"q+	c #D34915",
"r+	c #C1441C",
"s+	c #9D9D9D",
"t+	c #D7D7D7",
"u+	c #D5CECC",
"v+	c #C54E2A",
"w+	c #E69F73",
"x+	c #D96A27",
"y+	c #D86624",
"z+	c #D76021",
"A+	c #D75C1F",
"B+	c #D6581E",
"C+	c #D5551B",
"D+	c #D45019",
"E+	c #D34C17",
"F+	c #D24715",
"G+	c #D24413",
"H+	c #C0401B",
"I+	c #9B9B9B",
"J+	c #D4D4D4",
"K+	c #D2C3C0",
"L+	c #C44F2E",
"M+	c #E5966C",
"N+	c #D86223",
"O+	c #D86222",
"P+	c #D75C20",
"Q+	c #D65A1E",
"R+	c #D5571D",
"S+	c #D34D17",
"T+	c #D24513",
"U+	c #BF3C19",
"V+	c #989898",
"W+	c #D2D2D2",
"X+	c #D0BEBA",
"Y+	c #C44E30",
"Z+	c #E38D66",
"`+	c #D5551C",
" @	c #D45119",
".@	c #D34B17",
"+@	c #D24815",
"@@	c #D14313",
"#@	c #BF3818",
"$@	c #969696",
"%@	c #CFCFCF",
"&@	c #CBAFA8",
"*@	c #C64D31",
"=@	c #DB6F44",
"-@	c #D44F19",
";@	c #D34916",
">@	c #D04313",
",@	c #BE3315",
"'@	c #959595",
")@	c #BFBFBF",
"!@	c #C2887D",
"~@	c #C44221",
"{@	c #D44E1F",
"]@	c #CD4013",
"^@	c #BE3012",
"/@	c #9E716A",
"(@	c #BB2B12",
"_@	c #BA2E16",
":@	c #BB2F16",
"<@	c #BA2C13",
"[@	c #BA2D12",
"                                                ",
"                                                ",
". + @ @ @ @ @ @ + @                             ",
"# $ % % % % % % % & +                           ",
"# * = - - - - - ; > , ' ' ' ' ' ' ' ' ' '       ",
"' ) ! ! ! ! ! ! ! ! ! ! ! ! ! ! ! ! ! ! '       ",
"~ { ] ^ / ( ( ( ( ( ( ( ( _ : : : : : : : : : < ",
"[ } { | 1 2 3 4 5 3 6 7 8 9 0 a b c d e f g h i ",
"j k } l m n o p q r n s t u v w x y z A B C D E ",
"F G H I J K L M N O P Q R S T U V W X Y Z `  ...",
"+., @.#.$.%.&.*.*.=.P -.;.>.,.'.).!.~.{.].^./.(.",
"_.:.<.[.}.|.1.2.3.4.5.6.7.8.9.0.a.b.c.d.e.f.g.h.",
"i.j.k.l.m.n.o.p.q.r.s.t.u.v.w.x.y.z.A.B.C.D.E.F.",
"G.H.j.I.J.K.L.M.N.O.P.Q.R.S.T.U.V.W.X.Y.Z.`. +.+",
"++@+@+#+$+%+&+R.R.*+=+-+;+>+,+'+)+X.Y.!+~+{+]+^+",
"/+(+(+_+:+<+[+}+}+|+>+1+2+'+3+4+5+C.Z.6+{+7+8+9+",
"0+a+b+c+d+e+'+'+'+e+f+W.g+h+i+j+k+l+m+n+o+p+q+r+",
"s+t+u+v+w+5+B.B.B.B.5+x+j+y+Z.z+A+B+C+D+E+F+G+H+",
"I+J+K+L+M+N+Z.Z.Z.Z.O+l+~+P+Q+R+7+D+S+q+T+G+G+U+",
"V+W+X+Y+Z+ +{+{+{+{+ +R+`+]+ @p+.@+@T+G+G+G+@@#@",
"$@%@&@*@=@p+-@-@-@8+p+S+.@;@F+T+G+G+G+G+G+G+>@,@",
"'@)@!@~@{@G+T+T+T+T+G+G+G+G+G+G+G+G+G+G+G+G+]@^@",
"  /@(@(@(@(@(@(@(@(@(@(@(@(@(@_@:@:@:@:@:@:@<@[@",
"                                                "};
