/* XPM */
static char * folder_32x32_xpm[] = {
"32 32 413 2",
"  	c None",
". 	c #C1C1C1",
"+ 	c #BEBEBE",
"@ 	c #BFBFBF",
"# 	c #C0C0C0",
"$ 	c #C2C2C2",
"% 	c #C3C3C3",
"& 	c #C7C7C7",
"* 	c #F9F9F9",
"= 	c #F7F7F7",
"- 	c #DADADA",
"; 	c #EFB38C",
"> 	c #EDA374",
", 	c #EFB38D",
"' 	c #E4E4E4",
") 	c #C8C8C8",
"! 	c #C9C9C9",
"~ 	c #CACACA",
"{ 	c #CBCBCB",
"] 	c #CCCCCC",
"^ 	c #CDCDCD",
"/ 	c #CECECE",
"( 	c #D1D1D1",
"_ 	c #F4F4F4",
": 	c #F5F5F5",
"< 	c #CFCFCF",
"[ 	c #DEDEDE",
"} 	c #D8A182",
"| 	c #D88F67",
"1 	c #D78E65",
"2 	c #D78D63",
"3 	c #D78C62",
"4 	c #D68A60",
"5 	c #D6895E",
"6 	c #D5885D",
"7 	c #D5875B",
"8 	c #D5865A",
"9 	c #D48559",
"0 	c #D48457",
"a 	c #D48154",
"b 	c #D98F68",
"c 	c #F2CDA9",
"d 	c #F3D0AC",
"e 	c #F4D3B0",
"f 	c #F5D6B4",
"g 	c #F5D9B7",
"h 	c #F6DAB9",
"i 	c #F6D9B7",
"j 	c #F5D7B4",
"k 	c #F4D4B1",
"l 	c #F3D1AD",
"m 	c #F3CEA9",
"n 	c #F2CBA4",
"o 	c #F1C8A1",
"p 	c #F0C49B",
"q 	c #EFBF94",
"r 	c #EDBA8F",
"s 	c #ECB588",
"t 	c #EDAF82",
"u 	c #ECA97B",
"v 	c #EBA375",
"w 	c #EC9D6D",
"x 	c #EC9768",
"y 	c #ED9061",
"z 	c #EC8959",
"A 	c #ED8151",
"B 	c #ED7A49",
"C 	c #D27C4F",
"D 	c #D98F6A",
"E 	c #F2CCA5",
"F 	c #EEBE89",
"G 	c #EFC18C",
"H 	c #F0C48F",
"I 	c #F0C691",
"J 	c #F1C793",
"K 	c #F1C893",
"L 	c #F1C792",
"M 	c #EFC08B",
"N 	c #EEBD87",
"O 	c #EDB983",
"P 	c #ECB57F",
"Q 	c #EBB17A",
"R 	c #EAAC75",
"S 	c #E9A870",
"T 	c #E8A46C",
"U 	c #E79F67",
"V 	c #E89A63",
"W 	c #E9955F",
"X 	c #E9905B",
"Y 	c #EA8C56",
"Z 	c #EA8752",
"` 	c #EB814D",
" .	c #EC7C49",
"..	c #EC7744",
"+.	c #D07649",
"@.	c #D78B65",
"#.	c #F3CEA8",
"$.	c #F2C995",
"%.	c #F2CC97",
"&.	c #F3CD98",
"*.	c #F0C58E",
"=.	c #EFC18A",
"-.	c #EEBD86",
";.	c #EDB981",
">.	c #ECB47C",
",.	c #EBB077",
"'.	c #EAAB73",
").	c #E8A76D",
"!.	c #E7A268",
"~.	c #E79D63",
"{.	c #E79860",
"].	c #E8935B",
"^.	c #E98F56",
"/.	c #E98A52",
"(.	c #EA844D",
"_.	c #EA7F49",
":.	c #EB7944",
"<.	c #EB7440",
"[.	c #CE6F41",
"}.	c #D68964",
"|.	c #F3CEA6",
"1.	c #F2CA95",
"2.	c #F2CE98",
"3.	c #F3CF99",
"4.	c #F2CC96",
"5.	c #F1C891",
"6.	c #F0C48C",
"7.	c #EFC088",
"8.	c #EEBB83",
"9.	c #EDB77E",
"0.	c #EBB378",
"a.	c #EAAE74",
"b.	c #E9A96F",
"c.	c #E8A469",
"d.	c #E6A065",
"e.	c #E69B5F",
"f.	c #E7965B",
"g.	c #E79156",
"h.	c #E88C52",
"i.	c #E9864D",
"j.	c #E98149",
"k.	c #EA7B44",
"l.	c #EA7640",
"m.	c #EB713B",
"n.	c #CB683A",
"o.	c #D68663",
"p.	c #F2CBA3",
"q.	c #EFBF8A",
"r.	c #F0C28C",
"s.	c #F0C48E",
"t.	c #F1C790",
"u.	c #F1C890",
"v.	c #F1C78F",
"w.	c #EFC187",
"x.	c #EEBD83",
"y.	c #EDB87E",
"z.	c #ECB479",
"A.	c #EBAF74",
"B.	c #EAAB70",
"C.	c #E9A66A",
"D.	c #E7A265",
"E.	c #E69D60",
"F.	c #E5985B",
"G.	c #E69256",
"H.	c #E78D52",
"I.	c #E7884D",
"J.	c #E88248",
"K.	c #E97D44",
"L.	c #E97740",
"M.	c #EA723A",
"N.	c #EA6C36",
"O.	c #C85F32",
"P.	c #D48160",
"Q.	c #F1C79D",
"R.	c #EEBA84",
"S.	c #EEBD85",
"T.	c #EFBE86",
"U.	c #EFC087",
"V.	c #EFC188",
"W.	c #EFC288",
"X.	c #EFC086",
"Y.	c #EFBE83",
"Z.	c #EEBB80",
"`.	c #EDB87C",
" +	c #ECB477",
".+	c #EBAF73",
"++	c #E9AB6F",
"@+	c #E8A769",
"#+	c #E7A264",
"$+	c #E69E5F",
"%+	c #E5985A",
"&+	c #E59355",
"*+	c #E58E50",
"=+	c #E6894D",
"-+	c #E78448",
";+	c #E77E43",
">+	c #E8783D",
",+	c #E87036",
"'+	c #E96930",
")+	c #EA6229",
"!+	c #C55427",
"~+	c #D37B59",
"{+	c #F0C295",
"]+	c #ECB47D",
"^+	c #ECB67E",
"/+	c #EDB87F",
"(+	c #EDB980",
"_+	c #EDBA7F",
":+	c #EDB97F",
"<+	c #EDB97D",
"[+	c #EDB67B",
"}+	c #EBB174",
"|+	c #EAAD6F",
"1+	c #EAAA6C",
"2+	c #E8A567",
"3+	c #E7A162",
"4+	c #E69D5D",
"5+	c #E49858",
"6+	c #E49151",
"7+	c #E48B4A",
"8+	c #E48443",
"9+	c #E57E3C",
"0+	c #E57736",
"a+	c #E57030",
"b+	c #E66A2B",
"c+	c #E76628",
"d+	c #E86124",
"e+	c #E95C21",
"f+	c #C44F22",
"g+	c #D07352",
"h+	c #EEBB8B",
"i+	c #EAAF74",
"j+	c #EBAF76",
"k+	c #EBB176",
"l+	c #EBB073",
"m+	c #EBAE71",
"n+	c #EAAC6E",
"o+	c #E9AA6B",
"p+	c #E8A565",
"q+	c #E69F5D",
"r+	c #E59A56",
"s+	c #E3934E",
"t+	c #E28D47",
"u+	c #E18741",
"v+	c #E2833D",
"w+	c #E27F3A",
"x+	c #E37A36",
"y+	c #E47633",
"z+	c #E57130",
"A+	c #E66D2D",
"B+	c #E76829",
"C+	c #E86326",
"D+	c #E85F23",
"E+	c #E95A20",
"F+	c #C34C21",
"G+	c #CE6B4A",
"H+	c #ECB483",
"I+	c #E8A66B",
"J+	c #E9A86D",
"K+	c #E9A96D",
"L+	c #E9A96C",
"M+	c #E8A768",
"N+	c #E8A463",
"O+	c #E7A15E",
"P+	c #E69E59",
"Q+	c #E69A53",
"R+	c #E4964E",
"S+	c #E3934B",
"T+	c #E39148",
"U+	c #E28E45",
"V+	c #E18A42",
"W+	c #E1873F",
"X+	c #E2833C",
"Y+	c #E37B37",
"Z+	c #E47734",
"`+	c #E57231",
" @	c #E66E2E",
".@	c #E6692B",
"+@	c #E76527",
"@@	c #E86024",
"#@	c #EA571E",
"$@	c #C2481F",
"%@	c #CA603F",
"&@	c #E8A66F",
"*@	c #E49654",
"=@	c #E39550",
"-@	c #E4944E",
";@	c #E3924B",
">@	c #E3934A",
",@	c #E3924A",
"'@	c #E28F47",
")@	c #E28D45",
"!@	c #E18840",
"~@	c #E1853E",
"{@	c #E2813B",
"]@	c #E37E39",
"^@	c #E47634",
"/@	c #E56E2E",
"(@	c #E86225",
"_@	c #E95D22",
":@	c #EA591F",
"<@	c #EA541C",
"[@	c #C1451E",
"}@	c #C0421C",
"|@	c #E49253",
"1@	c #E1863F",
"2@	c #E18B43",
"3@	c #E18C44",
"4@	c #E1843D",
"5@	c #E2813C",
"6@	c #E27F39",
"7@	c #E37C37",
"8@	c #E47835",
"9@	c #E47533",
"0@	c #E66E2D",
"a@	c #E9591F",
"b@	c #EA551C",
"c@	c #EB5119",
"d@	c #C03F1B",
"e@	c #E6894A",
"f@	c #E2823C",
"g@	c #E37D38",
"h@	c #E57331",
"i@	c #E56F2F",
"j@	c #E66C2C",
"k@	c #E7682A",
"l@	c #EC4F18",
"m@	c #BF3B19",
"n@	c #E67F42",
"o@	c #E37C38",
"p@	c #E37936",
"q@	c #E47432",
"r@	c #E57230",
"s@	c #E66C2D",
"t@	c #E6692A",
"u@	c #E85F24",
"v@	c #EA581E",
"w@	c #BD3818",
"x@	c #E57537",
"y@	c #E47231",
"z@	c #E47331",
"A@	c #E37432",
"B@	c #E37532",
"C@	c #E47130",
"D@	c #E46F2E",
"E@	c #E56D2D",
"F@	c #E56B2C",
"G@	c #E5682A",
"H@	c #E56528",
"I@	c #E66226",
"J@	c #E65F24",
"K@	c #E75C22",
"L@	c #E75920",
"M@	c #E8551D",
"N@	c #E9521B",
"O@	c #E94E18",
"P@	c #EA4E18",
"Q@	c #B83415",
"R@	c #E1672B",
"S@	c #E0662A",
"T@	c #E0682A",
"U@	c #E0692B",
"V@	c #E0692C",
"W@	c #E06A2C",
"X@	c #E06629",
"Y@	c #E16528",
"Z@	c #E16327",
"`@	c #E16126",
" #	c #E15F24",
".#	c #E15C23",
"+#	c #E25A21",
"@#	c #E2571F",
"##	c #E3541D",
"$#	c #E3511A",
"%#	c #E44E18",
"&#	c #E54D17",
"*#	c #BB3416",
"=#	c #B33015",
"-#	c #DD5D23",
";#	c #DD5E24",
">#	c #DD5F25",
",#	c #DC6026",
"'#	c #DC6126",
")#	c #DC6127",
"!#	c #DD5C23",
"~#	c #DD5B22",
"{#	c #DE5921",
"]#	c #DE571F",
"^#	c #DF551E",
"/#	c #DF531D",
"(#	c #DF501B",
"_#	c #DF4E19",
":#	c #E04C18",
"<#	c #B83115",
"[#	c #B02E12",
"}#	c #D9531E",
"|#	c #DA561F",
"1#	c #D95620",
"2#	c #D95720",
"3#	c #D9551F",
"4#	c #DA521D",
"5#	c #DA511C",
"6#	c #DA4F1A",
"7#	c #DA4D19",
"8#	c #DA4B17",
"9#	c #DB4A17",
"0#	c #DA4A17",
"a#	c #DA4917",
"b#	c #B72E12",
"c#	c #A92712",
"d#	c #AA2811",
"e#	c #A92811",
"f#	c #B62B12",
"                                                                ",
"                                                                ",
"                                                                ",
"                                                                ",
"                                                                ",
"                                                                ",
"    . + + @ # # . . $ % % &                                     ",
"    + * * * * * * * * * = - &                                   ",
"    + * ; > > > > > > , * * ' ) ) ! ~ ~ { { ] ] ] ^ / / / (     ",
"    @ = = = = = = = = = = = = = _ _ _ _ _ _ _ : : : : : _ <     ",
"    # [ [ [ [ [ [ [ [ [ [ [ [ [ [ [ [ [ [ [ [ [ [ [ [ [ [ <     ",
"    } | | | | | | | | | | | | | | | | | 1 2 3 4 5 6 7 8 9 0 a   ",
"    b c d e f g h h i j k l m n o p q r s t u v w x y z A B C   ",
"    D E F G H I J K L I H M N O P Q R S T U V W X Y Z `  ...+.  ",
"    @.#.M H I $.%.&.%.K *.=.-.;.>.,.'.).!.~.{.].^./.(._.:.<.[.  ",
"    }.|.G H J 1.2.3.4.5.6.7.8.9.0.a.b.c.d.e.f.g.h.i.j.k.l.m.n.  ",
"    o.p.q.r.s.t.5.u.v.6.w.x.y.z.A.B.C.D.E.F.G.H.I.J.K.L.M.N.O.  ",
"    P.Q.R.S.T.U.V.W.X.Y.Z.`. +.+++@+#+$+%+&+*+=+-+;+>+,+'+)+!+  ",
"    ~+{+]+^+/+(+_+:+<+[+ +}+|+1+2+3+4+5+6+7+8+9+0+a+b+c+d+e+f+  ",
"    g+h+i+j+k+k+k+}+l+m+n+o+p+q+r+s+t+u+v+w+x+y+z+A+B+C+D+E+F+  ",
"    G+H+I+J+K+L+M+N+O+P+Q+R+S+T+U+V+W+X+w+Y+Z+`+ @.@+@@@e+#@$@  ",
"    %@&@*@=@-@;@>@S+>@,@T+'@)@V+!@~@{@]@x+^@`+/@b+c+(@_@:@<@[@  ",
"    }@|@1@!@V+2@2@3@2@2@V+!@1@4@5@6@7@8@9@z+0@b+c+(@_@a@b@c@}@  ",
"    d@e@w+{@f@v+4@4@4@v+f@{@w+g@Y+8@9@h@i@j@k@+@d+_@a@b@c@l@d@  ",
"    m@n@8@x+Y+7@o@o@o@7@Y+p@8@^@q@r@i@s@t@c+C+u@e+v@<@c@l@l@m@  ",
"    w@x@y@y@z@A@A@B@A@A@z@y@C@D@E@F@G@H@I@J@K@L@M@N@O@P@P@P@w@  ",
"    Q@R@S@T@U@V@W@W@W@U@U@T@X@Y@Z@`@ #.#+#@###$#%#&#&#&#&#&#*#  ",
"    =#-#;#>#,#'#)#)#)#'#,#>#;#!#~#{#]#^#/#(#_#:#:#:#:#:#:#:#<#  ",
"    [#}#|#1#2#2#2#2#2#2#1#1#3#}#4#5#6#7#8#9#9#9#9#0#0#0#0#a#b#  ",
"    c#d#d#d#d#d#d#d#d#d#d#d#d#d#d#d#d#d#d#d#d#d#d#d#d#d#e#e#f#  ",
"                                                                ",
"                                                                "};
