/* XPM */
static char * home_24x24_xpm[] = {
"24 24 268 2",
"  	c None",
". 	c #C1C1C1",
"+ 	c #C2C2C2",
"@ 	c #C3C3C3",
"# 	c #BEBEBE",
"$ 	c #F7F7F7",
"% 	c #FBFBFB",
"& 	c #F4F4F4",
"* 	c #F8F8F8",
"= 	c #F0B28A",
"- 	c #EDA374",
"; 	c #EFB28B",
"> 	c #FCFCFC",
", 	c #E7E7E7",
"' 	c #BCBCBC",
") 	c #F5F5F5",
"! 	c #F9F9F9",
"~ 	c #B9B9B9",
"{ 	c #F3F3F3",
"] 	c #F6F6F6",
"^ 	c #D58956",
"/ 	c #DB996C",
"( 	c #DB9B6F",
"_ 	c #DA986C",
": 	c #DA976A",
"< 	c #D68B59",
"[ 	c #B7B7B7",
"} 	c #F0F0F0",
"| 	c #D89367",
"1 	c #F1D0AE",
"2 	c #F3D2AF",
"3 	c #F3D1AD",
"4 	c #F3D2AE",
"5 	c #F3D1AE",
"6 	c #F3D0AC",
"7 	c #F2CCA6",
"8 	c #F1CAA5",
"9 	c #F0C9A4",
"0 	c #F0C7A2",
"a 	c #F0C49F",
"b 	c #EFC29E",
"c 	c #EEBF9C",
"d 	c #EEBC9B",
"e 	c #EEB999",
"f 	c #EAAC88",
"g 	c #E69B73",
"h 	c #E1895D",
"i 	c #DA9469",
"j 	c #B5B5B5",
"k 	c #EDEDED",
"l 	c #D88F64",
"m 	c #F3D3AF",
"n 	c #EEBE84",
"o 	c #EEC084",
"p 	c #F0C289",
"q 	c #F0C288",
"r 	c #EFC087",
"s 	c #EEBA81",
"t 	c #EBB37D",
"u 	c #D16741",
"v 	c #E9A874",
"w 	c #E9A974",
"x 	c #E8A571",
"y 	c #E7A16F",
"z 	c #E69D6D",
"A 	c #E49666",
"B 	c #E38D5D",
"C 	c #E18555",
"D 	c #D68A5C",
"E 	c #B3B3B3",
"F 	c #EAEAEA",
"G 	c #EEEEEE",
"H 	c #D78B62",
"I 	c #F4D6B1",
"J 	c #F0C287",
"K 	c #F0C488",
"L 	c #F0C78B",
"M 	c #F0C68A",
"N 	c #F0C387",
"O 	c #EEBE83",
"P 	c #E7A770",
"Q 	c #C84E2D",
"R 	c #C1391F",
"S 	c #C0391F",
"T 	c #C74A2A",
"U 	c #E1925D",
"V 	c #E59D63",
"W 	c #E4965E",
"X 	c #E39059",
"Y 	c #E28A54",
"Z 	c #E0834F",
"` 	c #DE7B49",
" .	c #D37D4F",
"..	c #AFAFAF",
"+.	c #EBEBEB",
"@.	c #D68860",
"#.	c #F4D5B1",
"$.	c #EFC185",
"%.	c #F0C487",
"&.	c #F0C689",
"*.	c #EFC287",
"=.	c #DD8F5F",
"-.	c #C33F22",
";.	c #C13A20",
">.	c #C13A21",
",.	c #C23B1E",
"'.	c #D67342",
").	c #E28F53",
"!.	c #E1884D",
"~.	c #DF8147",
"{.	c #DD7942",
"].	c #DC723D",
"^.	c #CF7142",
"/.	c #ABABAB",
"(.	c #E4E4E4",
"_.	c #E8E8E8",
":.	c #D5855F",
"<.	c #F4D4B1",
"[.	c #EEBC81",
"}.	c #EEBD82",
"|.	c #EEBD80",
"1.	c #ECB87C",
"2.	c #D26C42",
"3.	c #C0391D",
"4.	c #C13920",
"5.	c #C0381E",
"6.	c #BF351A",
"7.	c #CC5428",
"8.	c #DC7839",
"9.	c #DB7132",
"0.	c #D9692B",
"a.	c #D86125",
"b.	c #C65C29",
"c.	c #A9A9A9",
"d.	c #E2E2E2",
"e.	c #E5E5E5",
"f.	c #D37D58",
"g.	c #F3D0AB",
"h.	c #EBB172",
"i.	c #EBB272",
"j.	c #E6A064",
"k.	c #C84E2B",
"l.	c #C0391E",
"m.	c #C13A1F",
"n.	c #C0381D",
"o.	c #C0371D",
"p.	c #BF3519",
"q.	c #C33D18",
"r.	c #D66022",
"s.	c #D76122",
"t.	c #D65B1F",
"u.	c #C55525",
"v.	c #A6A6A6",
"w.	c #E1E1E1",
"x.	c #CE6F49",
"y.	c #F1C79E",
"z.	c #E69F59",
"A.	c #DA7D42",
"B.	c #C23C1C",
"C.	c #C0361C",
"D.	c #BF351B",
"E.	c #C03416",
"F.	c #CE4E1B",
"G.	c #D6581D",
"H.	c #C45123",
"I.	c #A4A4A4",
"J.	c #E0E0E0",
"K.	c #C34D21",
"L.	c #ECB585",
"M.	c #E0893A",
"N.	c #E39350",
"O.	c #E9AF7E",
"P.	c #C34024",
"Q.	c #E2906C",
"R.	c #D96B39",
"S.	c #D5531B",
"T.	c #C44D21",
"U.	c #A2A2A2",
"V.	c #DDDDDD",
"W.	c #C34A22",
"X.	c #EAAF7F",
"Y.	c #DE8032",
"Z.	c #DF8438",
"`.	c #DF843A",
" +	c #C33F23",
".+	c #C0371C",
"++	c #C0351C",
"@+	c #D86028",
"#+	c #D65921",
"$+	c #D44F18",
"%+	c #C3481F",
"&+	c #9F9F9F",
"*+	c #DADADA",
"=+	c #D9D5D4",
"-+	c #C34B25",
";+	c #E8A77A",
">+	c #DC762D",
",+	c #DC772E",
"'+	c #C33E22",
")+	c #E9A97F",
"!+	c #E9A67D",
"~+	c #E8A47D",
"{+	c #D5531A",
"]+	c #D44E18",
"^+	c #D34915",
"/+	c #C1441C",
"(+	c #9D9D9D",
"_+	c #D7D7D7",
":+	c #D5CECC",
"<+	c #C54E2A",
"[+	c #E69F73",
"}+	c #DA6C28",
"|+	c #DA6D28",
"1+	c #D86624",
"2+	c #D86323",
"3+	c #D76021",
"4+	c #D34C17",
"5+	c #D24715",
"6+	c #D24413",
"7+	c #C0401B",
"8+	c #9B9B9B",
"9+	c #D4D4D4",
"0+	c #D2C3C0",
"a+	c #C44F2E",
"b+	c #E5966C",
"c+	c #D86223",
"d+	c #D75C20",
"e+	c #D65A1E",
"f+	c #D5571D",
"g+	c #BF341B",
"h+	c #D24513",
"i+	c #BF3C19",
"j+	c #989898",
"k+	c #D2D2D2",
"l+	c #D0BEBA",
"m+	c #C44E30",
"n+	c #E38D66",
"o+	c #D6591E",
"p+	c #D45119",
"q+	c #D14313",
"r+	c #BF3818",
"s+	c #969696",
"t+	c #CFCFCF",
"u+	c #CBAFA8",
"v+	c #C64D31",
"w+	c #DB6F44",
"x+	c #D44F19",
"y+	c #E59575",
"z+	c #E59574",
"A+	c #E59474",
"B+	c #E59374",
"C+	c #D34916",
"D+	c #E48F71",
"E+	c #D04313",
"F+	c #BE3315",
"G+	c #959595",
"H+	c #BFBFBF",
"I+	c #C2887D",
"J+	c #C44221",
"K+	c #D44E1F",
"L+	c #CD4013",
"M+	c #BE3012",
"N+	c #9E716A",
"O+	c #BB2B12",
"P+	c #BA2E16",
"Q+	c #BB2F16",
"R+	c #BA2C13",
"S+	c #BA2D12",
"                                                ",
"                                                ",
". + @ @ @ @ @ @ + @                             ",
"# $ % % % % % % % & +                           ",
"# * = - - - - - ; > , ' ' ' ' ' ' ' ' ' '       ",
"' ) ! ! ! ! ! ! ! ! ! ! ! ! ! ! ! ! ! ! '       ",
"~ { ] ^ / ( ( ( ( ( ( ( ( _ : : : : : : : : : < ",
"[ } { | 1 2 3 4 5 3 6 7 8 9 0 a b c d e f g h i ",
"j k } l m n o p q r n s t u u v w x y z A B C D ",
"E F G H I J K L M N O P Q R S T U V W X Y Z `  .",
".., +.@.#.$.%.&.&.*.=.-.;.>.;.S ,.'.).!.~.{.].^.",
"/.(._.:.<.[.}.|.1.2.3.;.;.;.4.S 5.6.7.8.9.0.a.b.",
"c.d.e.f.g.h.i.j.k.l.;.m.R S 5.5.n.o.p.q.r.s.t.u.",
"v.w.d.x.y.z.A.B.n.l.l.5.5.n.n.o.o.o.C.D.E.F.G.H.",
"I.J.J.K.L.M.N.O.P.n.n.n.n.o.o.o.o.C.C.C.Q.R.S.T.",
"U.V.V.W.X.Y.Z.`. +n.o.o.o.o.o..+C.C.C.++@+#+$+%+",
"&+*+=+-+;+>+,+,+'+o.o.o.o.)+!+~+C.C.++++{+]+^+/+",
"(+_+:+<+[+}+|+|+C.C.C.C.C.1+2+3+++++++D.4+5+6+7+",
"8+9+0+a+b+c+2+2+C.C.C.C.++d+e+f+++D.D.g+h+6+6+i+",
"j+k+l+m+n+G.o+o+++++++++++S.p+]+g+g+g+g+6+6+q+r+",
"s+t+u+v+w+]+x+x+y+z+z+A+B+C+5+h+D+D+D+D+6+6+E+F+",
"G+H+I+J+K+6+h+h+h+h+6+6+6+6+6+6+6+6+6+6+6+6+L+M+",
"  N+O+O+O+O+O+O+O+O+O+O+O+O+O+P+Q+Q+Q+Q+Q+Q+R+S+",
"                                                "};
