/* XPM */
static char * home_48x48_xpm[] = {
"48 48 884 2",
"  	c None",
". 	c #C2C2C2",
"+ 	c #BDBDBD",
"@ 	c #BEBEBE",
"# 	c #BFBFBF",
"$ 	c #C0C0C0",
"% 	c #C1C1C1",
"& 	c #C3C3C3",
"* 	c #C6C6C6",
"= 	c #F6F6F6",
"- 	c #F9F9F9",
"; 	c #EEEEEE",
"> 	c #CACACA",
", 	c #C7C7C7",
"' 	c #F0B793",
") 	c #EDA374",
"! 	c #F5F5F5",
"~ 	c #CFCFCF",
"{ 	c #F0B894",
"] 	c #F7F7F7",
"^ 	c #DCDCDC",
"/ 	c #C9C9C9",
"( 	c #C8C8C8",
"_ 	c #CBCBCB",
": 	c #CCCCCC",
"< 	c #CDCDCD",
"[ 	c #CECECE",
"} 	c #D1D1D1",
"| 	c #D0D0D0",
"1 	c #F4F4F4",
"2 	c #E4E4E4",
"3 	c #D4D4D4",
"4 	c #D7B094",
"5 	c #DB996B",
"6 	c #DB9C70",
"7 	c #DA9B6F",
"8 	c #DA9A6F",
"9 	c #DA996F",
"0 	c #D9996E",
"a 	c #D9986E",
"b 	c #D9976D",
"c 	c #D9966D",
"d 	c #D9956C",
"e 	c #D9946C",
"f 	c #D9926B",
"g 	c #D9916B",
"h 	c #D8916A",
"i 	c #D8906A",
"j 	c #D88F69",
"k 	c #D88E68",
"l 	c #D78D68",
"m 	c #D78C67",
"n 	c #D78A66",
"o 	c #D68965",
"p 	c #D58763",
"q 	c #D58662",
"r 	c #D58460",
"s 	c #D4835F",
"t 	c #D37E59",
"u 	c #D27C57",
"v 	c #D27956",
"w 	c #D17855",
"x 	c #D17653",
"y 	c #D07452",
"z 	c #D07350",
"A 	c #CF714F",
"B 	c #D0714E",
"C 	c #D26F4C",
"D 	c #DB9C71",
"E 	c #F0C7A2",
"F 	c #F1CBA6",
"G 	c #F2CDA9",
"H 	c #F3CFAC",
"I 	c #F3D1AE",
"J 	c #F3D2B0",
"K 	c #F4D3B3",
"L 	c #F4D5B4",
"M 	c #F4D6B6",
"N 	c #F4D7B8",
"O 	c #F4D7B7",
"P 	c #F4D6B5",
"Q 	c #F3D4B3",
"R 	c #F3D3B1",
"S 	c #F3D0AD",
"T 	c #F2CEAA",
"U 	c #F2CCA8",
"V 	c #F1CBA5",
"W 	c #F0C9A3",
"X 	c #F0C6A1",
"Y 	c #EFC49D",
"Z 	c #EEC19B",
"` 	c #EEBE97",
" .	c #EDBC93",
"..	c #ECB990",
"+.	c #ECB58C",
"@.	c #ECB388",
"#.	c #EBAF84",
"$.	c #EBAB80",
"%.	c #EBA87C",
"&.	c #EBA477",
"*.	c #ECA174",
"=.	c #ED9E71",
"-.	c #ED9A6C",
";.	c #ED9668",
">.	c #ED9264",
",.	c #ED8E5E",
"'.	c #ED895A",
").	c #ED8355",
"!.	c #EE7F50",
"~.	c #EC7B4C",
"{.	c #CD6B49",
"].	c #F2CBA6",
"^.	c #EDB984",
"/.	c #EEBA86",
"(.	c #EEBC87",
"_.	c #EEBE89",
":.	c #EFBF8B",
"<.	c #EFC18C",
"[.	c #F0C28D",
"}.	c #F0C38F",
"|.	c #F0C48F",
"1.	c #F0C38E",
"2.	c #EFBF8A",
"3.	c #EEBA85",
"4.	c #EDB884",
"5.	c #ECB681",
"6.	c #ECB37E",
"7.	c #EBB07B",
"8.	c #EAAE78",
"9.	c #E9AC75",
"0.	c #E9A972",
"a.	c #E8A66F",
"b.	c #E8A36C",
"c.	c #E8A06A",
"d.	c #E99E68",
"e.	c #E99A64",
"f.	c #E99762",
"g.	c #EA945F",
"h.	c #EA915D",
"i.	c #EA8E5A",
"j.	c #EB8A57",
"k.	c #EB8755",
"l.	c #EC8451",
"m.	c #EB814F",
"n.	c #EC7E4B",
"o.	c #EC7A49",
"p.	c #ED7746",
"q.	c #CC6544",
"r.	c #F2CCA6",
"s.	c #EFC08C",
"t.	c #F0C590",
"u.	c #F0C691",
"v.	c #F1C792",
"w.	c #F1C793",
"x.	c #F0C692",
"y.	c #F0C18D",
"z.	c #EFC08B",
"A.	c #EEBD87",
"B.	c #EDBA85",
"C.	c #EDB882",
"D.	c #ECB680",
"E.	c #EBB37C",
"F.	c #EBB07A",
"G.	c #EAAE77",
"H.	c #EAAB74",
"I.	c #E9A871",
"J.	c #E8A56D",
"K.	c #E8A26A",
"L.	c #E79F68",
"M.	c #E89C65",
"N.	c #E89A63",
"O.	c #E9965F",
"P.	c #E9925D",
"Q.	c #E9905A",
"R.	c #EA8D58",
"S.	c #EA8955",
"T.	c #EA8651",
"U.	c #EB834F",
"V.	c #EB804C",
"W.	c #EC7C4A",
"X.	c #EC7846",
"Y.	c #EC7543",
"Z.	c #CA6240",
"`.	c #DB9C6F",
" +	c #F1C893",
".+	c #F1C994",
"++	c #F2CA95",
"@+	c #F2CB96",
"#+	c #F0C490",
"$+	c #F0C38D",
"%+	c #EFC08A",
"&+	c #EFBD87",
"*+	c #EDB680",
"=+	c #D98A52",
"-+	c #D88850",
";+	c #EBAF78",
">+	c #EAAD75",
",+	c #E9AA72",
"'+	c #E8A76F",
")+	c #E7A46B",
"!+	c #E7A168",
"~+	c #E79E65",
"{+	c #E89B62",
"]+	c #E89860",
"^+	c #E8945D",
"/+	c #E8915A",
"(+	c #E98E58",
"_+	c #E98B55",
":+	c #E98852",
"<+	c #EA844F",
"[+	c #EA814C",
"}+	c #EB7D49",
"|+	c #EB7A46",
"1+	c #EB7643",
"2+	c #EC733F",
"3+	c #C95D3B",
"4+	c #EEBC88",
"5+	c #EEBE8A",
"6+	c #F0C591",
"7+	c #F2CB97",
"8+	c #F3CD98",
"9+	c #F3CE99",
"0+	c #F3CD99",
"a+	c #F3CC97",
"b+	c #F2CA94",
"c+	c #F1C791",
"d+	c #F1C58F",
"e+	c #F0C38C",
"f+	c #EFC089",
"g+	c #E8AE77",
"h+	c #D17842",
"i+	c #CD6E38",
"j+	c #CD6D37",
"k+	c #D0753E",
"l+	c #E5A269",
"m+	c #EAAC73",
"n+	c #E9A970",
"o+	c #E8A66D",
"p+	c #E8A369",
"q+	c #E7A066",
"r+	c #E79D62",
"s+	c #E69A60",
"t+	c #E7965E",
"u+	c #E8935A",
"v+	c #E89057",
"w+	c #E88D55",
"x+	c #E88952",
"y+	c #E9864F",
"z+	c #EA824B",
"A+	c #EA7F49",
"B+	c #EA7C46",
"C+	c #EB7843",
"D+	c #EB7540",
"E+	c #EC713D",
"F+	c #C75837",
"G+	c #F1C9A3",
"H+	c #EEBD88",
"I+	c #F3CE98",
"J+	c #F3D099",
"K+	c #F3CF99",
"L+	c #F2CD96",
"M+	c #F1CA93",
"N+	c #F1C790",
"O+	c #F0C48D",
"P+	c #F0C189",
"Q+	c #E09C65",
"R+	c #CD6F38",
"S+	c #CD6D39",
"T+	c #CD6D38",
"U+	c #CC6C38",
"V+	c #CC6B36",
"W+	c #CC6A34",
"X+	c #DC8E55",
"Y+	c #E8A46A",
"Z+	c #E7A267",
"`+	c #E69F63",
" @	c #E69B5F",
".@	c #E6985D",
"+@	c #E7945B",
"@@	c #E79157",
"#@	c #E78E54",
"$@	c #E88B51",
"%@	c #E8884F",
"&@	c #E9844C",
"*@	c #E98049",
"=@	c #E97D46",
"-@	c #EA7943",
";@	c #EB7640",
">@	c #EB723D",
",@	c #EB6E39",
"'@	c #C65231",
")@	c #DA9B72",
"!@	c #F0C7A1",
"~@	c #EEBD89",
"{@	c #F1C691",
"]@	c #F1C892",
"^@	c #F2CB95",
"/@	c #F2CC95",
"(@	c #F2CB94",
"_@	c #F2CA92",
":@	c #F1C890",
"<@	c #F0C58D",
"[@	c #ECBC84",
"}@	c #D7864E",
"|@	c #CC6B37",
"1@	c #CC6937",
"2@	c #CB6836",
"3@	c #CB6735",
"4@	c #CA6431",
"5@	c #D27640",
"6@	c #E59E63",
"7@	c #E7A064",
"8@	c #E69D60",
"9@	c #E6995C",
"0@	c #E5965A",
"a@	c #E69257",
"b@	c #E78F54",
"c@	c #E78C52",
"d@	c #E7894E",
"e@	c #E7854C",
"f@	c #E88148",
"g@	c #E97E46",
"h@	c #E97A42",
"i@	c #EA773F",
"j@	c #EA733C",
"k@	c #EA7039",
"l@	c #EB6C36",
"m@	c #C44B2A",
"n@	c #DB9A71",
"o@	c #F0C69F",
"p@	c #EFBF89",
"q@	c #EFC18B",
"r@	c #EFC28C",
"s@	c #F1C58E",
"t@	c #F1C68F",
"u@	c #F1C78F",
"v@	c #F1C78E",
"w@	c #F1C68D",
"x@	c #F0C48B",
"y@	c #E7AD75",
"z@	c #D0743E",
"A@	c #CC6A36",
"B@	c #CB6635",
"C@	c #CB6534",
"D@	c #CB6433",
"E@	c #CA6231",
"F@	c #CC6532",
"G@	c #DE8E53",
"H@	c #E59A5D",
"I@	c #E5975A",
"J@	c #E69456",
"K@	c #E69053",
"L@	c #E78C51",
"M@	c #E6894E",
"N@	c #E7864B",
"O@	c #E88248",
"P@	c #E87F45",
"Q@	c #E97C42",
"R@	c #E8773F",
"S@	c #E9743B",
"T@	c #EA6D36",
"U@	c #EB6A32",
"V@	c #C24524",
"W@	c #DA956A",
"X@	c #EFC49B",
"Y@	c #EDB983",
"Z@	c #EEBA83",
"`@	c #EEBC85",
" #	c #EFBF88",
".#	c #EFC088",
"+#	c #EFC28A",
"@#	c #F0C38A",
"##	c #F0C389",
"$#	c #F0C288",
"%#	c #EEC086",
"&#	c #DD955C",
"*#	c #CC6C37",
"=#	c #CB6936",
"-#	c #CB6535",
";#	c #CB6434",
">#	c #CB6232",
",#	c #CA6131",
"'#	c #C95F30",
")#	c #C95C2C",
"!#	c #D77841",
"~#	c #E49355",
"{#	c #E59153",
"]#	c #E58E50",
"^#	c #E68A4D",
"/#	c #E7864A",
"(#	c #E78347",
"_#	c #E77F44",
":#	c #E77C42",
"<#	c #E8793E",
"[#	c #E9753B",
"}#	c #E97036",
"|#	c #E96B32",
"1#	c #E9662C",
"2#	c #EA6027",
"3#	c #C03D1B",
"4#	c #D99167",
"5#	c #EEC096",
"6#	c #ECB67E",
"7#	c #EDB780",
"8#	c #EDB880",
"9#	c #EDB982",
"0#	c #EEBB83",
"a#	c #EEBC84",
"b#	c #EEBD83",
"c#	c #EEBD84",
"d#	c #EEBE84",
"e#	c #EBB47B",
"f#	c #D57E46",
"g#	c #CC6A35",
"h#	c #CC6A37",
"i#	c #CB6A36",
"j#	c #CB6334",
"k#	c #CA6031",
"l#	c #CA5E30",
"m#	c #C95D2F",
"n#	c #C85C2F",
"o#	c #C8592C",
"p#	c #CE6432",
"q#	c #E2884B",
"r#	c #E68B4C",
"s#	c #E68649",
"t#	c #E68142",
"u#	c #E57B3C",
"v#	c #E67738",
"w#	c #E77234",
"x#	c #E66D2E",
"y#	c #E76829",
"z#	c #E76527",
"A#	c #E86225",
"B#	c #E85E23",
"C#	c #E85B20",
"D#	c #BE3818",
"E#	c #D88D63",
"F#	c #EDBC91",
"G#	c #EBB27A",
"H#	c #ECB37B",
"I#	c #ECB47B",
"J#	c #ECB67C",
"K#	c #EDB67D",
"L#	c #EDB77E",
"M#	c #EDB87E",
"N#	c #EDB97E",
"O#	c #E3A167",
"P#	c #CE6F39",
"Q#	c #CC6935",
"R#	c #CA6232",
"S#	c #CA5D30",
"T#	c #C85B2F",
"U#	c #C85A2F",
"V#	c #C8592E",
"W#	c #C7572D",
"X#	c #C7562A",
"Y#	c #C95528",
"Z#	c #DB7033",
"`#	c #E37935",
" $	c #E47633",
".$	c #E57331",
"+$	c #E5702F",
"@$	c #E66D2D",
"#$	c #E66A2B",
"$$	c #E76728",
"%$	c #E86426",
"&$	c #E86024",
"*$	c #E95D22",
"=$	c #E6581F",
"-$	c #BF3818",
";$	c #D6895F",
">$	c #ECB88B",
",$	c #EBAE75",
"'$	c #EAAF76",
")$	c #EBB077",
"!$	c #EBB176",
"~$	c #ECB177",
"{$	c #ECB377",
"]$	c #EBB378",
"^$	c #EBB175",
"/$	c #DA894F",
"($	c #CB6833",
"_$	c #CB6233",
":$	c #CA5F30",
"<$	c #CA5D2F",
"[$	c #C85A2E",
"}$	c #C8582D",
"|$	c #C7572C",
"1$	c #C7562C",
"2$	c #C6552A",
"3$	c #C6532A",
"4$	c #C54F24",
"5$	c #D35E29",
"6$	c #E47332",
"7$	c #E57130",
"8$	c #E56E2E",
"9$	c #E66B2C",
"0$	c #E7682A",
"a$	c #E76528",
"b$	c #E85F23",
"c$	c #E95C21",
"d$	c #E7571E",
"e$	c #BE3618",
"f$	c #D5865A",
"g$	c #EAB385",
"h$	c #E9A96F",
"i$	c #E9AA70",
"j$	c #EAAB71",
"k$	c #EAAC70",
"l$	c #EAAD71",
"m$	c #EAAD72",
"n$	c #E6A369",
"o$	c #CA6633",
"p$	c #CB6333",
"q$	c #CA6130",
"r$	c #CA5E2F",
"s$	c #C85D2F",
"t$	c #C85B2E",
"u$	c #C8592D",
"v$	c #C7582D",
"w$	c #C7552B",
"x$	c #C6552B",
"y$	c #C65329",
"z$	c #C65129",
"A$	c #C65028",
"B$	c #C54F28",
"C$	c #C54C24",
"D$	c #CB5023",
"E$	c #E06A2D",
"F$	c #E66C2D",
"G$	c #E6692B",
"H$	c #E76628",
"I$	c #E86326",
"J$	c #E95A20",
"K$	c #E7551D",
"L$	c #BE3417",
"M$	c #D28357",
"N$	c #E9AE7F",
"O$	c #E8A569",
"P$	c #E8A56A",
"Q$	c #E9A66B",
"R$	c #E9A86B",
"S$	c #E8A86B",
"T$	c #DD9055",
"U$	c #CC6733",
"V$	c #CA6533",
"W$	c #CB6332",
"X$	c #C96131",
"Y$	c #C96030",
"Z$	c #C95E2F",
"`$	c #C6542B",
" %	c #C65229",
".%	c #C55028",
"+%	c #C54E27",
"@%	c #C54D27",
"#%	c #C44D26",
"$%	c #C44A24",
"%%	c #C6481F",
"&%	c #D95B26",
"*%	c #E76729",
"=%	c #E76427",
"-%	c #EA591F",
";%	c #EA561D",
">%	c #BC3215",
",%	c #D27F53",
"'%	c #E8A977",
")%	c #E69D5F",
"!%	c #E59A5A",
"~%	c #E49957",
"{%	c #E59754",
"]%	c #E49650",
"^%	c #E7A466",
"/%	c #EEBD90",
"(%	c #EFBF94",
"_%	c #C85C2E",
":%	c #C6522A",
"<%	c #C44B26",
"[%	c #EFA982",
"}%	c #F0A781",
"|%	c #F0A37C",
"1%	c #EA7E48",
"2%	c #E85F24",
"3%	c #E95D21",
"4%	c #E95A1F",
"5%	c #EA571D",
"6%	c #EB541B",
"7%	c #BC3014",
"8%	c #CA6330",
"9%	c #E29257",
"0%	c #E18941",
"a%	c #E18A42",
"b%	c #E18C44",
"c%	c #E28D45",
"d%	c #E28E46",
"e%	c #E28F47",
"f%	c #E29048",
"g%	c #E39048",
"h%	c #E39148",
"i%	c #C95F2F",
"j%	c #C95E2E",
"k%	c #C95D2E",
"l%	c #C7562B",
"m%	c #EAB286",
"n%	c #EDB68C",
"o%	c #EDB68B",
"p%	c #EEB58A",
"q%	c #EEB389",
"r%	c #EEB288",
"s%	c #C8532D",
"t%	c #C44C26",
"u%	c #C44A25",
"v%	c #C34925",
"w%	c #EA571E",
"x%	c #EA551C",
"y%	c #EB521A",
"z%	c #BB2E13",
"A%	c #C95D29",
"B%	c #E28E51",
"C%	c #E1843E",
"D%	c #E1863F",
"E%	c #E18740",
"F%	c #E18B43",
"G%	c #E08440",
"H%	c #E2823C",
"I%	c #E2813B",
"J%	c #E27F3A",
"K%	c #E37D38",
"L%	c #E37B37",
"M%	c #C7522C",
"N%	c #C44B25",
"O%	c #C34924",
"P%	c #C34824",
"Q%	c #C44524",
"R%	c #E95B20",
"S%	c #EA581E",
"T%	c #EB4F18",
"U%	c #BB2C12",
"V%	c #C85B28",
"W%	c #E1884B",
"X%	c #E2803B",
"Y%	c #E2813C",
"Z%	c #E2833C",
"`%	c #E1843D",
" &	c #E1853E",
".&	c #E1863E",
"+&	c #E1873F",
"@&	c #C55128",
"#&	c #E1803E",
"$&	c #E27E39",
"%&	c #E37C38",
"&&	c #E47734",
"*&	c #C74F2B",
"=&	c #C34724",
"-&	c #C34524",
";&	c #C34424",
">&	c #C34323",
",&	c #EB531A",
"'&	c #EB5018",
")&	c #EC4F18",
"!&	c #BB2B12",
"~&	c #C85928",
"{&	c #E28246",
"]&	c #E37C37",
"^&	c #E2803A",
"/&	c #C6542A",
"(&	c #E17B3B",
"_&	c #E37A36",
":&	c #E47835",
"<&	c #E47533",
"[&	c #C74C29",
"}&	c #C34624",
"|&	c #C34322",
"1&	c #C34221",
"2&	c #C75726",
"3&	c #E27D40",
"4&	c #E37936",
"5&	c #E37A37",
"6&	c #C7542A",
"7&	c #E27637",
"8&	c #E47432",
"9&	c #E57231",
"0&	c #E56F2E",
"a&	c #C64928",
"b&	c #C34121",
"c&	c #C24021",
"d&	c #C23F20",
"e&	c #E86124",
"f&	c #C75526",
"g&	c #E37639",
"h&	c #E57432",
"i&	c #E47634",
"j&	c #E47834",
"k&	c #C44925",
"l&	c #E37234",
"m&	c #E66E2E",
"n&	c #C64827",
"o&	c #C24121",
"p&	c #C24020",
"q&	c #C23E1F",
"r&	c #C23D1F",
"s&	c #EA581F",
"t&	c #EA541B",
"u&	c #EB511A",
"v&	c #C55225",
"w&	c #E16F34",
"x&	c #E46E2F",
"y&	c #E36E2E",
"z&	c #E36F2F",
"A&	c #E37030",
"B&	c #E37130",
"C&	c #E37131",
"D&	c #E37231",
"E&	c #E16D2F",
"F&	c #E36B2C",
"G&	c #E36A2B",
"H&	c #E3692A",
"I&	c #E4672A",
"J&	c #E46628",
"K&	c #C44525",
"L&	c #C13F20",
"M&	c #C13E1F",
"N&	c #C13B1F",
"O&	c #C23A1E",
"P&	c #C2391E",
"Q&	c #E7561E",
"R&	c #E7541C",
"S&	c #E8521B",
"T&	c #E85019",
"U&	c #E94E18",
"V&	c #E84E18",
"W&	c #C14F22",
"X&	c #DE662D",
"Y&	c #E1682A",
"Z&	c #E1682B",
"`&	c #E1692B",
" *	c #E16A2C",
".*	c #E16B2D",
"+*	c #E06B2D",
"@*	c #C54C27",
"#*	c #C34825",
"$*	c #C24423",
"%*	c #DF672C",
"&*	c #E16528",
"**	c #E16427",
"=*	c #E16227",
"-*	c #E16126",
";*	c #E25F24",
">*	c #C44224",
",*	c #C13A1E",
"'*	c #C1391E",
")*	c #C0381D",
"!*	c #E4541B",
"~*	c #E5511A",
"{*	c #E54F19",
"]*	c #E54D17",
"^*	c #E64D17",
"/*	c #BE4D21",
"(*	c #DB6027",
"_*	c #DE6125",
":*	c #DE6226",
"<*	c #DE6326",
"[*	c #DE6327",
"}*	c #DE6427",
"|*	c #DE6528",
"1*	c #DD6528",
"2*	c #DD6529",
"3*	c #C44924",
"4*	c #C34823",
"5*	c #C34723",
"6*	c #C34523",
"7*	c #C34423",
"8*	c #C24322",
"9*	c #C24221",
"0*	c #DC6229",
"a*	c #DE5F24",
"b*	c #DE5E23",
"c*	c #DE5D22",
"d*	c #DE5B22",
"e*	c #DF5A21",
"f*	c #C43F23",
"g*	c #C1391D",
"h*	c #C0371C",
"i*	c #C0361C",
"j*	c #E14E19",
"k*	c #E14D17",
"l*	c #E24C17",
"m*	c #E34C17",
"n*	c #BC4B21",
"o*	c #D55821",
"p*	c #DC5C23",
"q*	c #DC5D23",
"r*	c #DC5E24",
"s*	c #DC5E25",
"t*	c #DC5F25",
"u*	c #DC6025",
"v*	c #DB6026",
"w*	c #E9A07D",
"x*	c #EA9F7C",
"y*	c #EA9E7C",
"z*	c #EA9E7B",
"A*	c #DD6028",
"B*	c #DB5A22",
"C*	c #DC5921",
"D*	c #DC5820",
"E*	c #DC571F",
"F*	c #DC561E",
"G*	c #EA9472",
"H*	c #EB9777",
"I*	c #EB9776",
"J*	c #EB9576",
"K*	c #EB9475",
"L*	c #EB9474",
"M*	c #DF4B18",
"N*	c #E14C18",
"O*	c #BC2B13",
"P*	c #B6461D",
"Q*	c #D1511F",
"R*	c #DA561F",
"S*	c #DA5720",
"T*	c #DA5721",
"U*	c #DA5822",
"V*	c #D95922",
"W*	c #D95A22",
"X*	c #DA551F",
"Y*	c #DA541E",
"Z*	c #DA531D",
"`*	c #DA511C",
" =	c #DA501B",
".=	c #DB4F1A",
"+=	c #DB4D19",
"@=	c #DB4C18",
"#=	c #DA4A17",
"$=	c #DB4A17",
"%=	c #DE4B17",
"&=	c #BC2C12",
"*=	c #B2431D",
"==	c #CC4B1B",
"-=	c #D7501B",
";=	c #D7501C",
">=	c #D7511C",
",=	c #D7521D",
"'=	c #D6521D",
")=	c #D6531E",
"!=	c #D6541E",
"~=	c #D6531D",
"{=	c #D7511D",
"]=	c #D74F1B",
"^=	c #D74E1B",
"/=	c #D84D1A",
"(=	c #D84C19",
"_=	c #D84B18",
":=	c #D84917",
"<=	c #D94917",
"[=	c #DB4917",
"}=	c #AF3F1C",
"|=	c #AF3E1B",
"1=	c #AF3D1B",
"2=	c #AE3D1A",
"3=	c #AE3C1A",
"4=	c #AE3B19",
"5=	c #AD3919",
"6=	c #AD3918",
"7=	c #AD3818",
"8=	c #AD3617",
"9=	c #AD3517",
"0=	c #AC3417",
"a=	c #AC3317",
"b=	c #AC3216",
"c=	c #AB3116",
"d=	c #AB3115",
"e=	c #AB3015",
"f=	c #AB2F14",
"g=	c #AA2E14",
"h=	c #AA2D13",
"i=	c #AA2C13",
"j=	c #AA2B12",
"k=	c #A92A12",
"l=	c #A92911",
"m=	c #A92811",
"n=	c #A82711",
"o=	c #A82710",
"p=	c #B22911",
"q=	c #BC2D12",
"                                                                                                ",
"                                                                                                ",
"                                                                                                ",
"                                                                                                ",
"                                                                                                ",
"                                                                                                ",
"                                                                                                ",
"                                                                                                ",
"    . + @ @ @ # # $ $ $ % % . . & & & *                                                         ",
"    + = - - - - - - - - - - - - - - - ; > ,                                                     ",
"    @ - - ' ) ) ) ) ) ) ) ) ) ) ) ' - - ! ~ ,                                                   ",
"    @ - - { ) ) ) ) ) ) ) ) ) ) ) { - - - ] ^ / * , , , ( ( / / / > > _ _ _ : : < < [ [ [ }     ",
"    # - - - - - - - - - - - - - - - - - - - - - - - - - - - - - - - - - - - - - - - - - ! |     ",
"    # 1 1 1 1 1 1 1 1 1 1 1 1 1 1 1 1 1 1 1 1 1 1 1 1 1 1 1 1 1 1 1 1 1 1 1 1 1 1 1 1 1 1 ~     ",
"    $ 2 2 2 2 2 2 2 2 2 2 2 2 2 2 2 2 2 2 2 2 2 2 2 2 2 2 2 2 2 2 2 2 2 2 2 2 2 2 2 2 2 2 ~     ",
"    $ 3 3 3 3 3 3 3 3 3 3 3 3 3 3 3 3 3 3 3 3 3 3 3 3 3 3 3 3 3 3 3 3 3 3 3 3 3 3 3 3 3 3 ~     ",
"    4 5 6 6 6 6 6 6 7 7 8 9 0 a b b c d e e f g g h i j k l m n o p q r s t u v w x y z A B C   ",
"    D E F G H I J K L M N O M P Q R I S T U V W X Y Z `  ...+.@.#.$.%.&.*.=.-.;.>.,.'.).!.~.{.  ",
"    5 ].^./.(._.:.<.[.}.|.|.|.|.1.[.<.2._.(.3.4.5.6.7.8.9.0.a.b.c.d.e.f.g.h.i.j.k.l.m.n.o.p.q.  ",
"    5 r./.(._.s.[.|.t.u.v.w.w.x.u.t.}.y.z.A.B.C.D.E.F.G.H.I.J.K.L.M.N.O.P.Q.R.S.T.U.V.W.X.Y.Z.  ",
"    `.F (._.z.[.|.u. +.+++@+@+++.+v.#+$+%+&+*+=+-+;+;+>+,+'+)+!+~+{+]+^+/+(+_+:+<+[+}+|+1+2+3+  ",
"    7 V 4+5+<.}.6+w..+7+8+9+0+a+b+c+d+e+f+g+h+i+j+k+l+m+n+o+p+q+r+s+t+u+v+w+x+y+z+A+B+C+D+E+F+  ",
"    7 G+H+2.<.|.u. +++a+I+J+K+L+M+N+O+P+Q+R+S+T+U+V+W+X+o+Y+Z+`+ @.@+@@@#@$@%@&@*@=@-@;@>@,@'@  ",
"    )@!@~@5+<.}.t.{@]@b+^@/@(@_@:@<@[@}@j+U+U+|@1@2@3@4@5@6@7@8@9@0@a@b@c@d@e@f@g@h@i@j@k@l@m@  ",
"    n@o@4+A.p@q@r@O+s@t@u@:@v@w@x@y@z@|@U+|@A@2@3@B@C@D@E@F@G@H@I@J@K@L@M@N@O@P@Q@R@S@k@T@U@V@  ",
"    W@X@Y@Z@`@A. #.#P++#@###$#%#&#*#*#|@A@=#3@-#;#D@>#>#,#'#)#!#~#{#]#^#/#(#_#:#<#[#}#|#1#2#3#  ",
"    4#5#6#7#8#9#0#a#b#c#d#c#e#f#g#h#i#2@3@-#;#j#>#>#,#k#l#m#n#o#p#q#r#s#t#u#v#w#x#y#z#A#B#C#D#  ",
"    E#F#G#H#I#J#K#L#M#N#M#O#P#Q#=#2@B@-#;#j#>#R#,#k#S#m#T#U#V#W#X#Y#Z#`# $.$+$@$#$$$%$&$*$=$-$  ",
"    ;$>$,$'$)$!$~${$]$^$/$($2@3@B@C@;#_$>#,#k#:$<$n#T#[$}$|$|$1$2$3$4$5$6$7$8$9$0$a$A#b$c$d$e$  ",
"    f$g$h$i$j$k$l$m$n$z@o$B@-#;#p$>#>#q$:$r$s$n#t$u$v$|$|$w$x$y$z$A$B$C$D$E$F$G$H$I$&$*$J$K$L$  ",
"    M$N$O$P$Q$R$S$T$U$V$C@W$>#,#X$Y$'#Z$s$t$[$u$W#|$1$w$`$3$ %.%B$+%@%#%$%%%&%*%=%A#b$c$-%;%>%  ",
"    ,%'%)%!%~%{%]%^%/%(%(%,#Y$'#Z$m#_%t$[$}$W#|$1$x$`$3$:%.%B$@%@%#%<%[%}%|%1%a$A#2%3%4%5%6%7%  ",
"    8%9%0%a%b%c%d%e%f%g%h%i%j%k%t$[$u$v$|$|$l%m%n%o%p%q%r%s%#%t%<%u%v%@$9$0$a$I$&$*$J$w%x%y%z%  ",
"    A%B%C%D%E%0%0%a%F%b%b%_%t$[$u$W#|$|$w$`$3$G%H%I%J%K%L%M%N%u%O%P%Q%#$y#a$I$&$*$R%S%x%y%T%U%  ",
"    V%W%X%Y%Z%`% &.&D%+&E%V#}$W#|$1$w$`$3$:%@&#&$&%&L%`#&&*&P%=&-&;&>&*%z#A#&$*$R%S%x%,&'&)&!&  ",
"    ~&{&]&K%$&J%^&I%I%H%H%|$|$l%x$/&y$ %B$+%@%(&_&:&&&<&.$[&}&;&>&|&1&=%A#b$*$J$S%x%y%'&)&)&!&  ",
"    2&3&&&:&4&5&L%%&%&K%K%6&3$ %z$A$B$+%@%#%t%7&<&8&9&7$0&a&>&|&b&c&d&e&B#c$4%w%x%y%'&)&)&)&!&  ",
"    f&g&h&8&<& $i&&&j&:&:& %z$.%B$+%@%#%t%N%k&l&7$+$m&F$9$n&o&p&d&q&r&*$R%s&;%t&u&T%)&)&)&)&!&  ",
"    v&w&x&y&z&A&B&C&D&D&D&.%B$@%@%t%<%u%v%P%}&E&F&G&H&I&J&K&L&M&N&O&P&=$Q&R&S&T&U&U&U&U&U&V&!&  ",
"    W&X&Y&Y&Z&`& * *.*+*+*@*t%<%u%k&#*=&}&-&$*%*&***=*-*;*>*N&,*'*)*)*!*~*{*]*^*^*^*^*^*^*^*!&  ",
"    /*(*_*:*<*[*}*|*|*1*2*N%$%3*4*5*6*7*8*8*9*0*a*b*c*d*e*f*g*)*)*h*i*j*k*l*l*l*l*l*l*l*l*m*U%  ",
"    n*o*p*q*r*s*t*u*v*v*v*w*w*w*w*w*x*x*y*y*z*A*B*C*D*E*F*G*H*I*J*K*L*M*M*M*M*M*M*M*M*M*M*N*O*  ",
"    P*Q*R*S*T*T*U*V*V*V*V*W*W*V*V*V*V*U*T*T*S*R*X*Y*Z*`* =.=+=@=#=$=$=$=$=$=$=$=$=$=$=$=$=%=&=  ",
"    *===-=;=>=,='=)=)=!=!=!=!=!=)=)=~='={=>=;=-=]=^=/=(=_=:=<=<=<=:=:=:=:=:=:=:=:=:=:=:=:=[=&=  ",
"      }=}=|=1=2=3=4=5=6=7=8=9=0=a=b=c=d=e=f=g=h=i=j=k=l=m=m=m=m=m=m=m=m=m=m=m=m=m=n=n=n=o=p=q=  ",
"                                                                                                ",
"                                                                                                ",
"                                                                                                "};
