/* XPM */
static char * home_16x16_xpm[] = {
"16 16 125 2",
"  	c None",
". 	c #A8A8A8",
"+ 	c #AEAEAE",
"@ 	c #FFFFFF",
"# 	c #FEFEFE",
"$ 	c #D4D4D4",
"% 	c #A9A9A9",
"& 	c #ABABAB",
"* 	c #D8905F",
"= 	c #DB9D71",
"- 	c #DB9C70",
"; 	c #DB9A6F",
"> 	c #DB986F",
", 	c #DB966D",
"' 	c #DA946C",
") 	c #D9936C",
"! 	c #D9916A",
"~ 	c #D98F6A",
"{ 	c #D88C69",
"] 	c #D58866",
"^ 	c #D78664",
"/ 	c #D17652",
"( 	c #DB9B6F",
"_ 	c #F5D7B1",
": 	c #F5D8B1",
"< 	c #F5D9B1",
"[ 	c #F4D7B0",
"} 	c #F5D9B2",
"| 	c #D47E60",
"1 	c #DB976D",
"2 	c #F3D2AC",
"3 	c #EEBA7F",
"4 	c #EEBB7F",
"5 	c #EEBB80",
"6 	c #DF925F",
"7 	c #C8502B",
"8 	c #DF9260",
"9 	c #EEBC81",
"0 	c #EDBB7F",
"a 	c #EDB97B",
"b 	c #ECB879",
"c 	c #CF6E4E",
"d 	c #F2CDA7",
"e 	c #EBB278",
"f 	c #EAAF76",
"g 	c #D26D42",
"h 	c #C24221",
"i 	c #C34323",
"j 	c #C24120",
"k 	c #D26B3E",
"l 	c #E8A869",
"m 	c #E9AB69",
"n 	c #E8A965",
"o 	c #C95D3D",
"p 	c #D78C64",
"q 	c #F1C7A3",
"r 	c #E9AA71",
"s 	c #E29661",
"t 	c #C24121",
"u 	c #C34222",
"v 	c #C84D26",
"w 	c #DE8848",
"x 	c #E3954C",
"y 	c #C24624",
"z 	c #D58560",
"A 	c #EEBF99",
"B 	c #D97B49",
"C 	c #C54825",
"D 	c #C24222",
"E 	c #C24122",
"F 	c #C54928",
"G 	c #C2411F",
"H 	c #C4441D",
"I 	c #D4692B",
"J 	c #BF3B19",
"K 	c #D17851",
"L 	c #EBB088",
"M 	c #E39159",
"N 	c #E9AB7F",
"O 	c #C24020",
"P 	c #E8A87B",
"Q 	c #C44222",
"R 	c #E9A779",
"S 	c #E1894B",
"T 	c #BE3516",
"U 	c #C6562A",
"V 	c #E69C71",
"W 	c #D96725",
"X 	c #C23F1F",
"Y 	c #D96826",
"Z 	c #D96926",
"` 	c #D96A27",
" .	c #BC2F14",
"..	c #C65227",
"+.	c #E4946D",
"@.	c #D65B1F",
"#.	c #C23E1F",
"$.	c #C23F20",
"%.	c #D75D20",
"&.	c #D75E20",
"*.	c #D75E21",
"=.	c #BC2C13",
"-.	c #C54C25",
";.	c #E38C69",
">.	c #D44F19",
",.	c #E59472",
"'.	c #E59675",
").	c #E59574",
"!.	c #D45119",
"~.	c #D4511A",
"{.	c #E59776",
"].	c #D4521A",
"^.	c #D5521A",
"/.	c #BC2B13",
"(.	c #C1431D",
"_.	c #C0401B",
":.	c #BF3D1A",
"<.	c #BF3A19",
"[.	c #BE3818",
"}.	c #BD3516",
"|.	c #BC3215",
"1.	c #BB2C12",
"2.	c #BB2B12",
"3.	c #BB2E14",
"4.	c #BC3017",
"                                ",
". . . . . . +                   ",
". @ @ @ @ # $ % . . . . . .     ",
". @ @ @ @ @ @ @ @ @ @ @ @ &     ",
". @ * = - ; > , ' ) ! ~ { ] ^ / ",
". @ ( _ : : : : < [ < } } } } | ",
". @ 1 2 3 4 5 5 6 7 8 9 0 a b c ",
". @ ) d e e f g h i j k l m n o ",
". @ p q r s 7 t i i u j v w x y ",
". @ z A B C t D E F F j G H I J ",
". @ K L M N O O O P P O Q R S T ",
". @ U V W W X X X Y Z X X ` `  .",
". @ ..+.@.@.t #.$.%.%.#.#.&.*.=.",
". @ -.;.>.>.,.'.).!.~.{.{.].^./.",
". . (._.:.<.[.}.|. .1.2.2.3.4.1.",
"                                "};
