/* XPM */
static char * home_32x32_xpm[] = {
"32 32 424 2",
"  	c None",
". 	c #C1C1C1",
"+ 	c #BEBEBE",
"@ 	c #BFBFBF",
"# 	c #C0C0C0",
"$ 	c #C2C2C2",
"% 	c #C3C3C3",
"& 	c #C7C7C7",
"* 	c #F9F9F9",
"= 	c #F7F7F7",
"- 	c #DADADA",
"; 	c #EFB38C",
"> 	c #EDA374",
", 	c #EFB38D",
"' 	c #E4E4E4",
") 	c #C8C8C8",
"! 	c #C9C9C9",
"~ 	c #CACACA",
"{ 	c #CBCBCB",
"] 	c #CCCCCC",
"^ 	c #CDCDCD",
"/ 	c #CECECE",
"( 	c #D1D1D1",
"_ 	c #F4F4F4",
": 	c #F5F5F5",
"< 	c #CFCFCF",
"[ 	c #DEDEDE",
"} 	c #D8A182",
"| 	c #D88F67",
"1 	c #D78E65",
"2 	c #D78D63",
"3 	c #D78C62",
"4 	c #D68A60",
"5 	c #D6895E",
"6 	c #D5885D",
"7 	c #D5875B",
"8 	c #D5865A",
"9 	c #D48559",
"0 	c #D48457",
"a 	c #D48154",
"b 	c #D98F68",
"c 	c #F2CDA9",
"d 	c #F3D0AC",
"e 	c #F4D3B0",
"f 	c #F5D6B4",
"g 	c #F5D9B7",
"h 	c #F6DAB9",
"i 	c #F6D9B7",
"j 	c #F5D7B4",
"k 	c #F4D4B1",
"l 	c #F3D1AD",
"m 	c #F3CEA9",
"n 	c #F2CBA4",
"o 	c #F1C8A1",
"p 	c #F0C49B",
"q 	c #EFBF94",
"r 	c #EDBA8F",
"s 	c #ECB588",
"t 	c #EDAF82",
"u 	c #ECA97B",
"v 	c #EBA375",
"w 	c #EC9D6D",
"x 	c #EC9768",
"y 	c #ED9061",
"z 	c #EC8959",
"A 	c #ED8151",
"B 	c #ED7A49",
"C 	c #D27C4F",
"D 	c #D98F6A",
"E 	c #F2CCA5",
"F 	c #EEBE89",
"G 	c #EFC18C",
"H 	c #F0C48F",
"I 	c #F0C691",
"J 	c #F1C793",
"K 	c #F1C893",
"L 	c #F1C792",
"M 	c #EFC08B",
"N 	c #ECB882",
"O 	c #D7824D",
"P 	c #D6804B",
"Q 	c #E9AC75",
"R 	c #EAAC75",
"S 	c #E9A870",
"T 	c #E8A46C",
"U 	c #E79F67",
"V 	c #E89A63",
"W 	c #E9955F",
"X 	c #E9905B",
"Y 	c #EA8C56",
"Z 	c #EA8752",
"` 	c #EB814D",
" .	c #EC7C49",
"..	c #EC7744",
"+.	c #D07649",
"@.	c #D78B65",
"#.	c #F3CEA8",
"$.	c #F2C995",
"%.	c #F2CC97",
"&.	c #F3CD98",
"*.	c #F0C58E",
"=.	c #E5AA74",
"-.	c #CF6F3B",
";.	c #CB6433",
">.	c #CB6231",
",.	c #CD6735",
"'.	c #E19660",
").	c #E8A76D",
"!.	c #E7A268",
"~.	c #E79D63",
"{.	c #E79860",
"].	c #E8935B",
"^.	c #E98F56",
"/.	c #E98A52",
"(.	c #EA844D",
"_.	c #EA7F49",
":.	c #EB7944",
"<.	c #EB7440",
"[.	c #CE6F41",
"}.	c #D68964",
"|.	c #F3CEA6",
"1.	c #F2CA95",
"2.	c #F2CE98",
"3.	c #F3CF99",
"4.	c #F2CC96",
"5.	c #F0C58F",
"6.	c #DB915B",
"7.	c #CC6533",
"8.	c #CB6333",
"9.	c #CA6232",
"0.	c #CA5F31",
"a.	c #C95D30",
"b.	c #C9592C",
"c.	c #D67945",
"d.	c #E69E64",
"e.	c #E69B5F",
"f.	c #E7965B",
"g.	c #E79156",
"h.	c #E88C52",
"i.	c #E9864D",
"j.	c #E98149",
"k.	c #EA7B44",
"l.	c #EA7640",
"m.	c #EB713B",
"n.	c #CB683A",
"o.	c #D68663",
"p.	c #F2CBA3",
"q.	c #EFBF8A",
"r.	c #F0C28C",
"s.	c #F0C48E",
"t.	c #F1C790",
"u.	c #F1C891",
"v.	c #F1C890",
"w.	c #EAB67F",
"x.	c #D17642",
"y.	c #CB6334",
"z.	c #CA6132",
"A.	c #C95F31",
"B.	c #C95C31",
"C.	c #C85A30",
"D.	c #C8592E",
"E.	c #C6542A",
"F.	c #CC5E30",
"G.	c #DF8B51",
"H.	c #E69256",
"I.	c #E78D52",
"J.	c #E7884D",
"K.	c #E88248",
"L.	c #E97D44",
"M.	c #E97740",
"N.	c #EA723A",
"O.	c #EA6C36",
"P.	c #C85F32",
"Q.	c #D48160",
"R.	c #F1C79D",
"S.	c #EEBA84",
"T.	c #EEBD85",
"U.	c #EFBE86",
"V.	c #EFC087",
"W.	c #EEC087",
"X.	c #DF9861",
"Y.	c #CB6633",
"Z.	c #CA6233",
"`.	c #CA6031",
" +	c #C95E31",
".+	c #C95B30",
"++	c #C8592F",
"@+	c #C8572D",
"#+	c #C7552C",
"$+	c #C7522B",
"%+	c #C54F28",
"&+	c #C44D24",
"*+	c #D66E3A",
"=+	c #E5884C",
"-+	c #E78448",
";+	c #E77E43",
">+	c #E8783D",
",+	c #E87036",
"'+	c #E96930",
")+	c #EA6229",
"!+	c #C55427",
"~+	c #D37B59",
"{+	c #F0C295",
"]+	c #ECB47D",
"^+	c #ECB67E",
"/+	c #EDB87F",
"(+	c #E9B077",
"_+	c #D47A46",
":+	c #CB6232",
"<+	c #C7562D",
"[+	c #C7542C",
"}+	c #C6512A",
"|+	c #C54F29",
"1+	c #C44E28",
"2+	c #C44A26",
"3+	c #C34621",
"4+	c #CB5125",
"5+	c #E17133",
"6+	c #E57030",
"7+	c #E66A2B",
"8+	c #E76628",
"9+	c #E86124",
"0+	c #E95C21",
"a+	c #C44F22",
"b+	c #D07352",
"c+	c #EEBB8B",
"d+	c #EAAF74",
"e+	c #EBAF76",
"f+	c #DF965E",
"g+	c #CC6734",
"h+	c #C95D31",
"i+	c #C95B2F",
"j+	c #C7542B",
"k+	c #C5522A",
"l+	c #C55029",
"m+	c #C44E27",
"n+	c #C44C26",
"o+	c #C34925",
"p+	c #C34624",
"q+	c #C24423",
"r+	c #C24220",
"s+	c #C23F1C",
"t+	c #D95B26",
"u+	c #E76829",
"v+	c #E86326",
"w+	c #E85F23",
"x+	c #E95A20",
"y+	c #C34C21",
"z+	c #CE6B4A",
"A+	c #ECB483",
"B+	c #E8A66B",
"C+	c #E9A86D",
"D+	c #ECB582",
"E+	c #F1C9A3",
"F+	c #F1CAA4",
"G+	c #C95E30",
"H+	c #C95C2F",
"I+	c #C8582E",
"J+	c #C8582D",
"K+	c #C6552C",
"L+	c #C6532A",
"M+	c #C55129",
"N+	c #C54E28",
"O+	c #C44D27",
"P+	c #C34825",
"Q+	c #C34524",
"R+	c #C14222",
"S+	c #EFAA83",
"T+	c #EFA57D",
"U+	c #EA7E49",
"V+	c #E76527",
"W+	c #E86024",
"X+	c #EA571E",
"Y+	c #C2481F",
"Z+	c #CA603F",
"`+	c #E8A66F",
" @	c #E49654",
".@	c #E39550",
"+@	c #E4944E",
"@@	c #E3924B",
"#@	c #E3934A",
"$@	c #C85A2D",
"%@	c #C7582C",
"&@	c #C7562B",
"*@	c #EDB98E",
"=@	c #EDB88C",
"-@	c #EDB68B",
";@	c #EEB389",
">@	c #C24322",
",@	c #C14121",
"'@	c #C13F20",
")@	c #E56E2E",
"!@	c #E86225",
"~@	c #E95D22",
"{@	c #EA591F",
"]@	c #EA541C",
"^@	c #C1451E",
"/@	c #C0421C",
"(@	c #E49253",
"_@	c #E1863F",
":@	c #E18840",
"<@	c #E18A42",
"[@	c #E18B43",
"}@	c #C7562C",
"|@	c #C6542B",
"1@	c #C6522A",
"2@	c #E1843D",
"3@	c #E2813C",
"4@	c #E27F39",
"5@	c #E37C37",
"6@	c #C14021",
"7@	c #C13D20",
"8@	c #C23A1F",
"9@	c #E9591F",
"0@	c #EA551C",
"a@	c #EB5119",
"b@	c #C03F1B",
"c@	c #E6894A",
"d@	c #E27F3A",
"e@	c #E2813B",
"f@	c #E2823C",
"g@	c #E2833D",
"h@	c #C44C25",
"i@	c #C34824",
"j@	c #E37D38",
"k@	c #E37B37",
"l@	c #E47835",
"m@	c #E47533",
"n@	c #C13C1F",
"o@	c #C1391E",
"p@	c #C1381C",
"q@	c #EC4F18",
"r@	c #BF3B19",
"s@	c #E67F42",
"t@	c #E37A36",
"u@	c #E37C38",
"v@	c #C54D27",
"w@	c #C44B26",
"x@	c #C44925",
"y@	c #C34724",
"z@	c #C24524",
"A@	c #E47634",
"B@	c #E47432",
"C@	c #E57230",
"D@	c #E56F2F",
"E@	c #C1391D",
"F@	c #C1371C",
"G@	c #E85F24",
"H@	c #EA581E",
"I@	c #BD3818",
"J@	c #E57537",
"K@	c #E47231",
"L@	c #E47331",
"M@	c #E37432",
"N@	c #C44D26",
"O@	c #C44A25",
"P@	c #E46F2E",
"Q@	c #E56D2D",
"R@	c #E56B2C",
"S@	c #E5682A",
"T@	c #C0381C",
"U@	c #C1361C",
"V@	c #E75920",
"W@	c #E8551D",
"X@	c #E9521B",
"Y@	c #E94E18",
"Z@	c #EA4E18",
"`@	c #B83415",
" #	c #E1672B",
".#	c #E0662A",
"+#	c #E0682A",
"@#	c #E0692B",
"##	c #E0692C",
"$#	c #E06A2C",
"%#	c #C24424",
"&#	c #C24323",
"*#	c #E16528",
"=#	c #E16327",
"-#	c #E16126",
";#	c #E15F24",
">#	c #C0361C",
",#	c #E3511A",
"'#	c #E44E18",
")#	c #E54D17",
"!#	c #BB3416",
"~#	c #B33015",
"{#	c #DD5D23",
"]#	c #DD5E24",
"^#	c #DD5F25",
"/#	c #DC6026",
"(#	c #DC6126",
"_#	c #DC6127",
":#	c #EAA07D",
"<#	c #EB9F7C",
"[#	c #EB9E7C",
"}#	c #DD5C23",
"|#	c #DD5B22",
"1#	c #DE5921",
"2#	c #DE571F",
"3#	c #EC9978",
"4#	c #EC9877",
"5#	c #EC9676",
"6#	c #EC9575",
"7#	c #E04C18",
"8#	c #B83115",
"9#	c #B02E12",
"0#	c #D9531E",
"a#	c #DA561F",
"b#	c #D95620",
"c#	c #D95720",
"d#	c #D9551F",
"e#	c #DA521D",
"f#	c #DA511C",
"g#	c #DA4F1A",
"h#	c #DA4D19",
"i#	c #DA4B17",
"j#	c #DB4A17",
"k#	c #DA4A17",
"l#	c #DA4917",
"m#	c #B72E12",
"n#	c #A92712",
"o#	c #AA2811",
"p#	c #A92811",
"q#	c #B62B12",
"                                                                ",
"                                                                ",
"                                                                ",
"                                                                ",
"                                                                ",
"                                                                ",
"    . + + @ # # . . $ % % &                                     ",
"    + * * * * * * * * * = - &                                   ",
"    + * ; > > > > > > , * * ' ) ) ! ~ ~ { { ] ] ] ^ / / / (     ",
"    @ = = = = = = = = = = = = = _ _ _ _ _ _ _ : : : : : _ <     ",
"    # [ [ [ [ [ [ [ [ [ [ [ [ [ [ [ [ [ [ [ [ [ [ [ [ [ [ <     ",
"    } | | | | | | | | | | | | | | | | | 1 2 3 4 5 6 7 8 9 0 a   ",
"    b c d e f g h h i j k l m n o p q r s t u v w x y z A B C   ",
"    D E F G H I J K L I H M N O P Q R S T U V W X Y Z `  ...+.  ",
"    @.#.M H I $.%.&.%.K *.=.-.;.>.,.'.).!.~.{.].^./.(._.:.<.[.  ",
"    }.|.G H J 1.2.3.4.5.6.7.8.9.0.a.b.c.d.e.f.g.h.i.j.k.l.m.n.  ",
"    o.p.q.r.s.t.u.v.w.x.;.y.z.A.B.C.D.E.F.G.H.I.J.K.L.M.N.O.P.  ",
"    Q.R.S.T.U.V.W.X.Y.8.Z.`. +.+++@+#+$+%+&+*+=+-+;+>+,+'+)+!+  ",
"    ~+{+]+^+/+(+_+:+8.z.A.B.C.D.<+[+}+|+1+2+3+4+5+6+7+8+9+0+a+  ",
"    b+c+d+e+f+g+:+z.0.h+i+D.@+j+k+l+m+n+o+p+q+r+s+t+u+v+w+x+y+  ",
"    z+A+B+C+D+E+F+G+H+I+J+K+L+M+N+O+2+P+Q+q+R+S+T+U+V+W+0+X+Y+  ",
"    Z+`+ @.@+@@@#@$@%@&@E.M+%+*@=@-@;@q+>@,@'@)@7+8+!@~@{@]@^@  ",
"    /@(@_@:@<@[@[@}@|@1@l+N+O+2@3@4@5@R+6@7@8@7+8+!@~@9@0@a@/@  ",
"    b@c@d@e@f@g@2@L+M+%+m+h@i@j@k@l@m@'@n@o@p@V+9+~@9@0@a@q@b@  ",
"    r@s@l@t@k@5@u@%+v@w@x@y@z@A@B@C@D@8@E@F@F@G@0+H@]@a@q@q@r@  ",
"    I@J@K@K@L@M@M@N@O@i@p+q+>@P@Q@R@S@T@F@F@U@V@W@X@Y@Z@Z@Z@I@  ",
"    `@ #.#+#@###$#P+p+%#&#,@'@*#=#-#;#>#>#>#>#,#'#)#)#)#)#)#!#  ",
"    ~#{#]#^#/#(#_#:#:#:#:#<#[#}#|#1#2#3#4#5#6#7#7#7#7#7#7#7#8#  ",
"    9#0#a#b#c#c#c#c#c#c#b#b#d#0#e#f#g#h#i#j#j#j#j#k#k#k#k#l#m#  ",
"    n#o#o#o#o#o#o#o#o#o#o#o#o#o#o#o#o#o#o#o#o#o#o#o#o#o#p#p#q#  ",
"                                                                ",
"                                                                "};
