/* XPM */
static char * xterm_24x24_xpm[] = {
"24 24 239 2",
"  	c None",
". 	c #B2B2B2",
"+ 	c #B0B0B0",
"@ 	c #ADADAD",
"# 	c #DADADA",
"$ 	c #E7E7E7",
"% 	c #E6E6E6",
"& 	c #D8D8D8",
"* 	c #AEAEAE",
"= 	c #A7A7A7",
"- 	c #E5E5E5",
"; 	c #4B4C4C",
"> 	c #494A4A",
", 	c #464747",
"' 	c #424343",
") 	c #404040",
"! 	c #3C3D3D",
"~ 	c #E2E2E2",
"{ 	c #A2A2A2",
"] 	c #E1E1E1",
"^ 	c #484A4D",
"/ 	c #494B4E",
"( 	c #4A4D4F",
"_ 	c #4B4D51",
": 	c #4C4E51",
"< 	c #4D4F52",
"[ 	c #4C4F51",
"} 	c #47494C",
"| 	c #414446",
"1 	c #3E4043",
"2 	c #393B3E",
"3 	c #343638",
"4 	c #303133",
"5 	c #343535",
"6 	c #DDDDDD",
"7 	c #9E9E9E",
"8 	c #DEDEDE",
"9 	c #4D5053",
"0 	c #4F5155",
"a 	c #505356",
"b 	c #515457",
"c 	c #515558",
"d 	c #515559",
"e 	c #505256",
"f 	c #4C5053",
"g 	c #484B4E",
"h 	c #43464A",
"i 	c #3F4145",
"j 	c #3A3D40",
"k 	c #35383A",
"l 	c #303235",
"m 	c #2B2E30",
"n 	c #2C2D2D",
"o 	c #999999",
"p 	c #DCDCDC",
"q 	c #505255",
"r 	c #535659",
"s 	c #54585B",
"t 	c #55595D",
"u 	c #56595E",
"v 	c #575A5E",
"w 	c #55585C",
"x 	c #4D5055",
"y 	c #4A4D51",
"z 	c #45484D",
"A 	c #404348",
"B 	c #3B3E42",
"C 	c #363A3D",
"D 	c #313438",
"E 	c #2B2E32",
"F 	c #27292C",
"G 	c #242525",
"H 	c #D4D4D4",
"I 	c #959595",
"J 	c #D9D9D9",
"K 	c #525559",
"L 	c #C5C6C9",
"M 	c #7C7F83",
"N 	c #595D61",
"O 	c #575B5F",
"P 	c #55595E",
"Q 	c #52565C",
"R 	c #4F5358",
"S 	c #4B4E54",
"T 	c #474B50",
"U 	c #42464B",
"V 	c #3D4045",
"W 	c #363B3F",
"X 	c #32363A",
"Y 	c #2C3033",
"Z 	c #26292D",
"` 	c #212428",
" .	c #1E1F1F",
"..	c #CFCFCF",
"+.	c #909090",
"@.	c #D5D5D5",
"#.	c #54575B",
"$.	c #56595D",
"%.	c #797C81",
"&.	c #BEC1C4",
"*.	c #C0C2C5",
"=.	c #787C80",
"-.	c #53575D",
";.	c #51565C",
">.	c #4C5258",
",.	c #474C52",
"'.	c #43484D",
").	c #3D4247",
"!.	c #373C41",
"~.	c #32363B",
"{.	c #2C3035",
"].	c #262A2E",
"^.	c #23272B",
"/.	c #CACACA",
"(.	c #8B8B8B",
"_.	c #D2D2D2",
":.	c #4A4B4B",
"<.	c #505458",
"[.	c #505357",
"}.	c #4E5256",
"|.	c #4D5257",
"1.	c #707579",
"2.	c #B4B8BE",
"3.	c #B5B8BF",
"4.	c #494F54",
"5.	c #454B50",
"6.	c #40454C",
"7.	c #393E44",
"8.	c #34393E",
"9.	c #2F3439",
"0.	c #292D32",
"a.	c #C7C7C7",
"b.	c #878787",
"c.	c #CDCDCD",
"d.	c #474B4E",
"e.	c #464A4D",
"f.	c #43484C",
"g.	c #63686C",
"h.	c #A8ADB3",
"i.	c #A6ACB2",
"j.	c #363B41",
"k.	c #343A3F",
"l.	c #31363C",
"m.	c #30343A",
"n.	c #2E3238",
"o.	c #272B2F",
"p.	c #24282C",
"q.	c #222529",
"r.	c #1F2226",
"s.	c #C2C2C2",
"t.	c #828282",
"u.	c #323539",
"v.	c #2F3237",
"w.	c #51545B",
"x.	c #989FA7",
"y.	c #9AA0A9",
"z.	c #2C3136",
"A.	c #2D3136",
"B.	c #2A2F34",
"C.	c #272B30",
"D.	c #25292D",
"E.	c #1F2225",
"F.	c #1C1F22",
"G.	c #BEBEBE",
"H.	c #7D7D7D",
"I.	c #B9B9B9",
"J.	c #9097A1",
"K.	c #484C52",
"L.	c #25282D",
"M.	c #1D2023",
"N.	c #1B1E21",
"O.	c #191B1E",
"P.	c #797979",
"Q.	c #B4B4B4",
"R.	c #1A1D20",
"S.	c #1D1F23",
"T.	c #1E2124",
"U.	c #202327",
"V.	c #1E2225",
"W.	c #1E2024",
"X.	c #1A1C1F",
"Y.	c #181A1D",
"Z.	c #16191B",
"`.	c #141719",
" +	c #747474",
".+	c #AFAFAF",
"++	c #16181A",
"@+	c #17191C",
"#+	c #191C1E",
"$+	c #191C1F",
"%+	c #181B1E",
"&+	c #15181A",
"*+	c #141619",
"=+	c #131517",
"-+	c #111315",
";+	c #101113",
">+	c #707070",
",+	c #ABABAB",
"'+	c #0F1012",
")+	c #101213",
"!+	c #111214",
"~+	c #121315",
"{+	c #121416",
"]+	c #131417",
"^+	c #B3BBC7",
"/+	c #0D0F10",
"(+	c #0C0D0F",
"_+	c #0A0C0D",
":+	c #6B6B6B",
"<+	c #A5A5A5",
"[+	c #090A0B",
"}+	c #0A0B0C",
"|+	c #0B0C0D",
"1+	c #0B0D0E",
"2+	c #0C0E0F",
"3+	c #0D0E0F",
"4+	c #0B0C0E",
"5+	c #080809",
"6+	c #060708",
"7+	c #050606",
"8+	c #676767",
"9+	c #A1A1A1",
"0+	c #030304",
"a+	c #040405",
"b+	c #050506",
"c+	c #060607",
"d+	c #060707",
"e+	c #050607",
"f+	c #040404",
"g+	c #020202",
"h+	c #010101",
"i+	c #000000",
"j+	c #626262",
"k+	c #9B9B9B",
"l+	c #606060",
"m+	c #868686",
"n+	c #5F5F5F",
"o+	c #5B5B5B",
"p+	c #595959",
"                                                ",
"                                                ",
"  . + + + + + + + + + + + + + + + + + + + + .   ",
"@ # $ $ $ $ $ $ $ $ $ $ $ $ $ $ $ $ $ $ $ % & * ",
"= - ; ; ; ; ; ; ; ; ; ; ; ; ; ; ; > , ' ) ! ~ = ",
"{ ] ; ^ / ( _ : < < < < [ : _ } | 1 2 3 4 5 6 { ",
"7 8 ; : 9 0 a b c d d d e f g h i j k l m n & 7 ",
"o p ; q c r s t u v w d x y z A B C D E F G H o ",
"I J ; K w L M N O P Q R S T U V W X Y Z `  ...I ",
"+.@.; #.$.%.&.*.=.-.;.>.,.'.).!.~.{.].^.`  ./.+.",
"(._.:.<.[.}.|.1.2.3.4.5.6.7.8.9.{.0.].^.`  .a.(.",
"b.c.' d.e.z f.g.h.i.j.k.l.m.n.{.0.o.p.q.r. .s.b.",
"t.a.5 u.v.w.x.y.;.z.A.z.{.B.0.C.D.^.` E.F. .G.t.",
"H.I. .r.` J.K.L.D.].].].D.p.^.q.` E.M.N.O. .I.H.",
"P.Q. .R.N.S.T.E.r.U.U.U.r.V.W.S.N.X.Y.Z.`. .Q.P.",
" +.+ .`.++@+Y.O.#+$+$+$+O.%+Y.@+&+*+=+-+;+ ..+ +",
">+,+ .'+)+!+~+{+]+=+^+^+^+^+^+^+;+'+/+(+_+ .,+>+",
":+<+ .[+}+|+1+(+2+3+3+2+(+(+4+_+}+[+5+6+7+ .<+:+",
"8+9+ .0+a+b+7+c+d+6+6+6+d+e+7+b+f+0+g+h+i+ .9+8+",
"j+k+ . . . . . . . . . . . . . . . . . . . .k+j+",
"l+m+I I I I I I I I I I I I I I I I I I I I m+n+",
"  o+p+p+p+p+p+p+p+p+p+p+p+p+p+p+p+p+p+p+p+p+o+  ",
"                                                ",
"                                                "};
