/* XPM */
static char * xterm_48x48_xpm[] = {
"48 48 528 2",
"  	c None",
". 	c #B2B2B2",
"+ 	c #B1B1B1",
"@ 	c #B3B3B3",
"# 	c #D6D6D6",
"$ 	c #E4E4E4",
"% 	c #E5E5E5",
"& 	c #E3E3E3",
"* 	c #ACACAC",
"= 	c #DCDCDC",
"- 	c #CFCFCF",
"; 	c #CECECE",
"> 	c #CDCDCD",
", 	c #CCCCCC",
"' 	c #DADADA",
") 	c #AAAAAA",
"! 	c #C5C5C5",
"~ 	c #C4C4C4",
"{ 	c #C3C3C3",
"] 	c #C2C2C2",
"^ 	c #C1C1C1",
"/ 	c #C0C0C0",
"( 	c #BFBFBF",
"_ 	c #D2D2D2",
": 	c #A8A8A8",
"< 	c #D0D0D0",
"[ 	c #BEBEBE",
"} 	c #4B4C4C",
"| 	c #4A4B4B",
"1 	c #484949",
"2 	c #474848",
"3 	c #464747",
"4 	c #444545",
"5 	c #424343",
"6 	c #404141",
"7 	c #3F4040",
"8 	c #3D3E3E",
"9 	c #3C3D3D",
"0 	c #3A3B3B",
"a 	c #B8B8B8",
"b 	c #B7B7B7",
"c 	c #CBCBCB",
"d 	c #A5A5A5",
"e 	c #454749",
"f 	c #46484A",
"g 	c #46494B",
"h 	c #47494B",
"i 	c #48494C",
"j 	c #484A4D",
"k 	c #494A4D",
"l 	c #494B4D",
"m 	c #494B4E",
"n 	c #494C4E",
"o 	c #4A4C4F",
"p 	c #4A4D4F",
"q 	c #46484B",
"r 	c #444648",
"s 	c #424547",
"t 	c #404245",
"u 	c #3E4042",
"v 	c #3B3D40",
"w 	c #393A3D",
"x 	c #36383A",
"y 	c #333538",
"z 	c #323336",
"A 	c #303133",
"B 	c #2D2E30",
"C 	c #363737",
"D 	c #B6B6B6",
"E 	c #B5B5B5",
"F 	c #C9C9C9",
"G 	c #A3A3A3",
"H 	c #4A4D50",
"I 	c #4B4D50",
"J 	c #4B4E51",
"K 	c #4C4E51",
"L 	c #4D4F52",
"M 	c #4D5052",
"N 	c #484B4E",
"O 	c #47494C",
"P 	c #45474B",
"Q 	c #434548",
"R 	c #404346",
"S 	c #3E4043",
"T 	c #3B3E40",
"U 	c #393B3E",
"V 	c #37393B",
"W 	c #353739",
"X 	c #323437",
"Y 	c #303134",
"Z 	c #2D2F31",
"` 	c #2A2C2E",
" .	c #313232",
"..	c #B4B4B4",
"+.	c #C7C7C7",
"@.	c #A0A0A0",
"#.	c #4B4D51",
"$.	c #4C4F51",
"%.	c #4D5053",
"&.	c #4D5154",
"*.	c #4E5154",
"=.	c #4F5155",
"-.	c #4F5255",
";.	c #494B4F",
">.	c #464A4D",
",.	c #434649",
"'.	c #404446",
").	c #3F4144",
"!.	c #3C3F41",
"~.	c #393C3F",
"{.	c #383A3D",
"].	c #35383A",
"^.	c #323538",
"/.	c #303235",
"(.	c #2D3032",
"_.	c #2A2C2F",
":.	c #27292C",
"<.	c #2E2F2F",
"[.	c #C6C6C6",
"}.	c #9E9E9E",
"|.	c #4E5155",
"1.	c #505255",
"2.	c #505356",
"3.	c #515457",
"4.	c #515458",
"5.	c #515558",
"6.	c #515559",
"7.	c #525559",
"8.	c #505256",
"9.	c #4D5055",
"0.	c #4B4F52",
"a.	c #494C50",
"b.	c #484B4F",
"c.	c #45494C",
"d.	c #44464A",
"e.	c #414448",
"f.	c #3F4246",
"g.	c #3C4043",
"h.	c #393D40",
"i.	c #383B3F",
"j.	c #36393B",
"k.	c #333539",
"l.	c #303236",
"m.	c #2E3033",
"n.	c #2A2D30",
"o.	c #282B2E",
"p.	c #26282B",
"q.	c #292A2A",
"r.	c #9C9C9C",
"s.	c #53565A",
"t.	c #54575B",
"u.	c #54585B",
"v.	c #55585C",
"w.	c #505357",
"x.	c #4B5053",
"y.	c #4B4E52",
"z.	c #484C50",
"A.	c #464A4E",
"B.	c #44474C",
"C.	c #424549",
"D.	c #404247",
"E.	c #3D4044",
"F.	c #3B3F42",
"G.	c #393B40",
"H.	c #36393C",
"I.	c #33363A",
"J.	c #313337",
"K.	c #2E3134",
"L.	c #2B2D31",
"M.	c #26292B",
"N.	c #232629",
"O.	c #252626",
"P.	c #B0B0B0",
"Q.	c #AFAFAF",
"R.	c #999999",
"S.	c #BDBDBD",
"T.	c #D4D5D6",
"U.	c #85888B",
"V.	c #55595D",
"W.	c #56595D",
"X.	c #565A5E",
"Y.	c #55585D",
"Z.	c #53575B",
"`.	c #51555A",
" +	c #505458",
".+	c #4E5256",
"++	c #4D5156",
"@+	c #4B4F53",
"#+	c #494C52",
"$+	c #474B4F",
"%+	c #45484D",
"&+	c #42464A",
"*+	c #404348",
"=+	c #3E4246",
"-+	c #3B3F43",
";+	c #393C41",
">+	c #363A3D",
",+	c #33373B",
"'+	c #313438",
")+	c #2E3135",
"!+	c #2C2F33",
"~+	c #292C2F",
"{+	c #26292D",
"]+	c #202226",
"^+	c #212222",
"/+	c #ADADAD",
"(+	c #979797",
"_+	c #53575A",
":+	c #FAFAFB",
"<+	c #DEDFE1",
"[+	c #939598",
"}+	c #5A5D62",
"|+	c #53575C",
"1+	c #52555B",
"2+	c #4F5357",
"3+	c #4E5257",
"4+	c #4C5055",
"5+	c #4A4E53",
"6+	c #474C50",
"7+	c #45494E",
"8+	c #42474B",
"9+	c #42454A",
"0+	c #3F4347",
"a+	c #3C4045",
"b+	c #393E41",
"c+	c #363B3F",
"d+	c #34373C",
"e+	c #313539",
"f+	c #2F3237",
"g+	c #292D31",
"h+	c #23262A",
"i+	c #202427",
"j+	c #1D2023",
"k+	c #1E1F1F",
"l+	c #959595",
"m+	c #535659",
"n+	c #7F8185",
"o+	c #C8C9CB",
"p+	c #F6F6F8",
"q+	c #F7F7F9",
"r+	c #E4E4E6",
"s+	c #9C9DA1",
"t+	c #5B5F64",
"u+	c #51575C",
"v+	c #505459",
"w+	c #4E5358",
"x+	c #4A5055",
"y+	c #494D52",
"z+	c #464B50",
"A+	c #44484E",
"B+	c #42464B",
"C+	c #3F4449",
"D+	c #3D4046",
"E+	c #3A3E43",
"F+	c #373B40",
"G+	c #34383D",
"H+	c #31353A",
"I+	c #303237",
"J+	c #2C3035",
"K+	c #262A2D",
"L+	c #23272B",
"M+	c #212428",
"N+	c #1F2326",
"O+	c #1E2125",
"P+	c #929292",
"Q+	c #CACACA",
"R+	c #6E7175",
"S+	c #B5B7BA",
"T+	c #EDEFF1",
"U+	c #F2F3F5",
"V+	c #E6E7EA",
"W+	c #A2A5A9",
"X+	c #5E6267",
"Y+	c #50545B",
"Z+	c #4F5459",
"`+	c #4D5258",
" @	c #4B5056",
".@	c #494E54",
"+@	c #464C51",
"@@	c #454A50",
"#@	c #42474C",
"$@	c #40444A",
"%@	c #3D4147",
"&@	c #3A3E44",
"*@	c #373C41",
"=@	c #32363B",
"-@	c #2F3338",
";@	c #292D32",
">@	c #262A2E",
",@	c #24282C",
"'@	c #23262B",
")@	c #222529",
"!@	c #1F2226",
"~@	c #909090",
"{@	c #525659",
"]@	c #52555A",
"^@	c #50555A",
"/@	c #5E6368",
"(@	c #A2A6A9",
"_@	c #E2E4E7",
":@	c #EDEFF2",
"<@	c #E7E9EC",
"[@	c #AAADB0",
"}@	c #52565D",
"|@	c #4D5158",
"1@	c #4A4F55",
"2@	c #484D54",
"3@	c #454B50",
"4@	c #43474D",
"5@	c #3F454A",
"6@	c #3A3F44",
"7@	c #363B41",
"8@	c #353A3E",
"9@	c #31363B",
"0@	c #2E3238",
"a@	c #282C30",
"b@	c #262A2F",
"c@	c #25292D",
"d@	c #8D8D8D",
"e@	c #4F5256",
"f@	c #4E5255",
"g@	c #4E5156",
"h@	c #4C5156",
"i@	c #53575D",
"j@	c #A8ABB0",
"k@	c #E8EBEF",
"l@	c #555960",
"m@	c #4A4F56",
"n@	c #474D53",
"o@	c #454950",
"p@	c #41474D",
"q@	c #3F434A",
"r@	c #3C4147",
"s@	c #383D43",
"t@	c #353A3F",
"u@	c #32373D",
"v@	c #30353A",
"w@	c #2D3237",
"x@	c #2C3036",
"y@	c #2B2F34",
"z@	c #24272B",
"A@	c #22262A",
"B@	c #BCBCBC",
"C@	c #8B8B8B",
"D@	c #C8C8C8",
"E@	c #BBBBBB",
"F@	c #4A4E52",
"G@	c #4A4D52",
"H@	c #484D51",
"I@	c #484C51",
"J@	c #484D52",
"K@	c #484C52",
"L@	c #6F7378",
"M@	c #B7BABD",
"N@	c #E3E6EA",
"O@	c #E4E7EB",
"P@	c #CACDD1",
"Q@	c #494F55",
"R@	c #41464C",
"S@	c #3D4349",
"T@	c #3B4047",
"U@	c #383D42",
"V@	c #33393F",
"W@	c #30343A",
"X@	c #2E3338",
"Y@	c #2D3136",
"Z@	c #2A2E33",
"`@	c #272B30",
" #	c #25282D",
".#	c #BABABA",
"+#	c #898989",
"@#	c #B9B9B9",
"##	c #46494D",
"$#	c #46494C",
"%#	c #44484D",
"&#	c #44484C",
"*#	c #454A4E",
"=#	c #777C81",
"-#	c #BEC2C6",
";#	c #DFE3E8",
">#	c #DFE2E7",
",#	c #BABEC3",
"'#	c #6C7176",
")#	c #383E42",
"!#	c #353A40",
"~#	c #343A40",
"{#	c #34393F",
"]#	c #33383E",
"^#	c #31363C",
"/#	c #30353B",
"(#	c #2F3439",
"_#	c #2A2F34",
":#	c #202327",
"<#	c #868686",
"[#	c #404447",
"}#	c #404347",
"|#	c #3F4146",
"1#	c #3B3F44",
"2#	c #3D4246",
"3#	c #787D82",
"4#	c #C3C7CC",
"5#	c #D8DCE2",
"6#	c #ABAEB4",
"7#	c #5C6065",
"8#	c #2D3137",
"9#	c #282B30",
"0#	c #1E2225",
"a#	c #1D2024",
"b#	c #848484",
"c#	c #2A2B2B",
"d#	c #2B2F32",
"e#	c #272B2F",
"f#	c #26292E",
"g#	c #C5CAD2",
"h#	c #D3D8DF",
"i#	c #D1D6DD",
"j#	c #9CA1A7",
"k#	c #4D5257",
"l#	c #2B3035",
"m#	c #272A2F",
"n#	c #1C1F22",
"o#	c #828282",
"p#	c #212529",
"q#	c #CCD1D8",
"r#	c #8F949B",
"s#	c #282D31",
"t#	c #1C1E22",
"u#	c #1A1D20",
"v#	c #7F7F7F",
"w#	c #373B3F",
"x#	c #1B1D20",
"y#	c #1A1C1F",
"z#	c #191B1E",
"A#	c #7D7D7D",
"B#	c #ABABAB",
"C#	c #1D1F23",
"D#	c #1E2024",
"E#	c #181A1D",
"F#	c #16191B",
"G#	c #7B7B7B",
"H#	c #1B1E21",
"I#	c #1E2124",
"J#	c #1F2225",
"K#	c #191C1E",
"L#	c #181B1E",
"M#	c #171A1C",
"N#	c #15171A",
"O#	c #141619",
"P#	c #787878",
"Q#	c #191C1F",
"R#	c #16181A",
"S#	c #151719",
"T#	c #141618",
"U#	c #131517",
"V#	c #121416",
"W#	c #767676",
"X#	c #141719",
"Y#	c #16181B",
"Z#	c #17191C",
"`#	c #111315",
" $	c #101214",
".$	c #0F1113",
"+$	c #737373",
"@$	c #121315",
"#$	c #141518",
"$$	c #15181A",
"%$	c #CBD1D9",
"&$	c #0F1012",
"*$	c #0E0F11",
"=$	c #0D0E10",
"-$	c #717171",
";$	c #101213",
">$	c #131417",
",$	c #0D0F10",
"'$	c #0D0E0F",
")$	c #0C0D0F",
"!$	c #0B0C0E",
"~$	c #0A0B0D",
"{$	c #6F6F6F",
"]$	c #0C0E0F",
"^$	c #0E1011",
"/$	c #0F1112",
"($	c #101113",
"_$	c #0C0D0E",
":$	c #0A0C0D",
"<$	c #0A0B0C",
"[$	c #090A0B",
"}$	c #08090A",
"|$	c #080809",
"1$	c #6C6C6C",
"2$	c #0B0C0D",
"3$	c #0B0D0E",
"4$	c #070808",
"5$	c #060708",
"6$	c #050607",
"7$	c #050506",
"8$	c #6A6A6A",
"9$	c #AEAEAE",
"0$	c #060607",
"a$	c #070708",
"b$	c #070809",
"c$	c #09090A",
"d$	c #0A0A0C",
"e$	c #050606",
"f$	c #040405",
"g$	c #030404",
"h$	c #030303",
"i$	c #020202",
"j$	c #686868",
"k$	c #030304",
"l$	c #040404",
"m$	c #060707",
"n$	c #040505",
"o$	c #020203",
"p$	c #010202",
"q$	c #010101",
"r$	c #000000",
"s$	c #656565",
"t$	c #000101",
"u$	c #010102",
"v$	c #020303",
"w$	c #636363",
"x$	c #616161",
"y$	c #A6A6A6",
"z$	c #5E5E5E",
"A$	c #858585",
"B$	c #5B5B5B",
"C$	c #595959",
"                                                                                                ",
"                                                                                                ",
"                                                                                                ",
"                                                                                                ",
"                                                                                                ",
"                                                                                                ",
"                                                                                                ",
"    . + + + + + + + + + + + + + + + + + + + + + + + + + + + + + + + + + + + + + + + + + + @     ",
"  + # $ % % % % % % % % % % % % % % % % % % % % % % % % % % % % % % % % % % % % % % $ $ & # +   ",
"  * = - - - - - - - - - - - - - - - - - - - - - - - - - - - - - - - - - - - - ; ; > > , , ' *   ",
"  ) # ! ! ! ! ! ! ! ! ! ! ! ! ! ! ! ! ! ! ! ! ! ! ! ! ! ! ! ! ! ! ! ! ~ ~ { { ] ^ ^ ^ / ( _ )   ",
"  : < [ [ } } } } } } } } } } } } } } } } } } } } } } } } } } } | 1 2 3 4 5 6 7 8 9 0 a b c :   ",
"  d < [ [ } e f g h i j k l m n n o p p p p p p o n n m l k q r s t u v w x y z A B C D E F d   ",
"  G - [ [ } i j l n o H I J K K L L L L M M L L L L K I N O P Q R S T U V W X Y Z `  .....+.G   ",
"  @.- [ [ } n p #.K $.L %.&.*.=.=.=.-.-.-.-.-.-.=.%.J ;.>.q ,.'.).!.~.{.].^./.(._.:.<.@ . [.@.  ",
"  }.; [ [ } K L %.*.|.=.1.2.3.4.5.6.7.7.7.7.5.8.9.0.a.b.c.d.e.f.g.h.i.j.k.l.m.n.o.p.q.+ + { }.  ",
"  r.> [ [ } %.*.=.2.3.5.7.7.s.t.t.u.v.v.s.6.w.|.x.y.z.A.B.C.D.E.F.G.H.I.J.K.L.o.M.N.O.P.Q.] r.  ",
"  R., S.S.} =.2.3.6.T.U.v.v.V.W.X.W.Y.Z.`. +.+++@+#+$+%+&+*+=+-+;+>+,+'+)+!+~+{+N.]+^+/+/+/ R.  ",
"  (+c S.S.} 3.5.7._+:+:+<+[+}+X.V.V.|+1+6.2+3+4+5+6+7+8+9+0+a+b+c+d+e+f+!+g+{+h+i+j+k+/+/+( (+  ",
"  l+c S.S.} 6.m+t.v.n+o+p+q+r+s+t+|+u+`.v+w+++x+y+z+A+B+C+D+E+F+G+H+I+J+g+K+L+M+N+O+k+/+/+[ l+  ",
"  P+Q+S.S.} 7.t.v.V.v.V.R+S+T+U+V+W+X+Y+Z+`+ @.@+@@@#@$@%@&@*@G+=@-@J+;@>@,@'@)@i+!@k+/+/+S.P+  ",
"  ~@Q+S.S.} s.{@7.6.]@`.^@6./@(@_@:@<@[@}@|@1@2@3@4@5@%@6@7@8@9@0@J+;@a@b@c@L+)@M+!@k+/+/+S.~@  ",
"  d@F S.S.1 e@f@e@.+g@++++++h@++i@j@k@k@l@m@n@o@p@q@r@s@t@u@v@w@x@y@;@a@b@c@z@A@M+N+k+/+/+B@d@  ",
"  C@D@E@E@4 y.y.F@G@#+H@I@J@K@L@M@N@O@P@Q@R@S@T@U@7@V@u@9@W@X@Y@J+Z@;@`@>@ #L+)@i+!@k+* * .#C@  ",
"  +#! .#@#6 ##$#%+%#&#%#*#=#-#;#>#,#'#)#!#!#~#{#]#u@^#/#(#X@Y@J+_#;@a@b@c@z@A@M+:#O+k+* * .#+#  ",
"  <#~ a a 9 [#}#|#1#2#3#4#5#5#6#7#/#9@^#^#^#^#9@/#W@(#X@8#x@y@Z@;@9#b@c@z@h+M+:#0#a#k+* * @#<#  ",
"  b#^ E @ c#d#e#f#e#g#h#i#j#k#x@Y@w@0@X@X@X@X@w@w@Y@x@l#_#Z@;@a@m#f#,@L+)@M+:#0#a#n#k+* * a b#  ",
"  o#b * * k+p#h+L+,@q#r#&+a@s#;@Z@Z@_#y@y@y@y@_#Z@Z@;@s#a@e#>@c@,@L+A@p#:#!@O+j+t#u#k+* * b o#  ",
"  v#b * * k+!@:#M+)@w#L+,@c@f#>@m#e#e#`@9#`@`@e#e#b@>@c@c@,@L+h+)@M+:#!@O+j+n#x#y#z#k+* * b v#  ",
"  A#E B#B#k+C#D#0#!@:#M+p#)@h+'@L+z@,@,@,@,@,@,@z@L+h+A@)@p#M+:#!@O+D#C#t#x#y#z#E#F#k+B#B#E A#  ",
"  G#..B#B#k+u#H#t#n#j+I#O+!@N+:#:#i+M+M+M+M+M+M+i+:#:#!@J#O+I#j+n#t#H#u#K#L#M#F#N#O#k+B#B#..G#  ",
"  P#..B#B#k+M#E#z#Q#u#x#H#n#n#C#j+j+a#D#D#D#D#a#j+j+C#n#t#H#x#u#Q#z#E#M#F#R#S#T#U#V#k+B#B#..P#  ",
"  W#@ B#B#k+X#N#Y#Z#Z#E#L#z#K#Q#y#u#u#u#u#u#u#u#u#y#Q#K#z#E#E#Z#F#Y#N#X#T#U#V#`# $.$k+B#B#@ W#  ",
"  +$. B#B#k+@$V#U##$T#S#N#$$Y#Y#F#Z#Z#Z#Z#%$%$%$%$%$%$%$%$%$%$%$#$U#V#@$`# $.$&$*$=$k+B#B#. +$  ",
"  -$+ B#B#k+&$.$;$ $`#`#V#V#>$U#U#U##$#$#$%$%$%$%$%$%$%$%$%$%$%$ $;$.$&$*$,$'$)$!$~$k+B#B#+ -$  ",
"  {$P.) ) k+)$]$=$,$*$^$&$/$.$($;$;$ $ $ $ $ $ $;$;$($.$/$&$^$*$,$=$]$_$!$:$<$[$}$|$k+) ) P.{$  ",
"  1$Q.) ) k+[$[$<$~$2$!$3$)$)$]$'$=$=$=$=$=$=$=$=$'$]$)$)$3$!$2$~$<$[$[$}$|$4$5$6$7$k+) ) Q.1$  ",
"  8$9$) ) k+0$5$a$b$|$}$}$c$[$[$[$d$d$<$<$<$<$d$d$[$[$[$c$}$}$|$b$a$5$0$e$7$f$g$h$i$k+) ) 9$8$  ",
"  j$/+) ) k+h$k$l$f$7$7$e$6$0$m$m$5$5$5$5$5$5$5$5$m$m$0$6$e$7$n$f$l$k$h$o$p$q$r$r$r$k+) ) /+j$  ",
"  s$* ) ) k+r$r$t$q$u$i$i$o$v$h$k$k$k$k$k$k$k$k$k$k$h$v$o$i$p$u$q$t$r$r$r$r$r$r$r$r$k+) ) * s$  ",
"  w$* ) D k+k+k+k+k+k+k+k+k+k+k+k+k+k+k+k+k+k+k+k+k+k+k+k+k+k+k+k+k+k+k+k+k+k+k+k+k+k+D ) * w$  ",
"  x$y$d ( ( ( ( ( ( ( ( ( ( ( ( ( ( ( ( ( ( ( ( ( ( ( ( ( ( ( ( ( ( ( ( ( ( ( ( ( ( ( ( d y$x$  ",
"  z$r.r.r.r.r.r.r.r.r.r.r.r.r.r.r.r.r.r.r.r.r.r.r.r.r.r.r.r.r.r.r.r.r.r.r.r.r.r.r.r.r.r.r.r.z$  ",
"  z$<#P+P+P+P+P+P+P+P+P+P+P+P+P+P+P+P+P+P+P+P+P+P+P+P+P+P+P+P+P+P+P+P+P+P+P+P+P+P+P+P+P+P+A$z$  ",
"    B$C$C$C$C$C$C$C$C$C$C$C$C$C$C$C$C$C$C$C$C$C$C$C$C$C$C$C$C$C$C$C$C$C$C$C$C$C$C$C$C$C$C$B$    ",
"                                                                                                ",
"                                                                                                ",
"                                                                                                "};
