/* XPM */
static char * xterm_16x16_xpm[] = {
"16 16 93 2",
"  	c None",
". 	c #B3B3B3",
"+ 	c #B1B1B1",
"@ 	c #B2B2B2",
"# 	c #ADADAD",
"$ 	c #D8D8D8",
"% 	c #E4E4E4",
"& 	c #D7D7D7",
"* 	c #AEAEAE",
"= 	c #A4A4A4",
"- 	c #E0E0E0",
"; 	c #1E1F1F",
"> 	c #9D9D9D",
", 	c #DADADA",
"' 	c #1F2226",
") 	c #B1B3B6",
"! 	c #4E5155",
"~ 	c #24282C",
"{ 	c #23272B",
"] 	c #222529",
"^ 	c #1F2326",
"/ 	c #1C1F22",
"( 	c #191C1E",
"_ 	c #979797",
": 	c #D5D5D5",
"< 	c #272A2F",
"[ 	c #55595E",
"} 	c #AEB0B6",
"| 	c #A5A8AD",
"1 	c #4E5257",
"2 	c #2D3237",
"3 	c #2B2F34",
"4 	c #272B30",
"5 	c #909090",
"6 	c #CECECE",
"7 	c #30353A",
"8 	c #343A40",
"9 	c #83888E",
"0 	c #CBCFD6",
"a 	c #353B41",
"b 	c #31353B",
"c 	c #2C3036",
"d 	c #23262A",
"e 	c #8A8A8A",
"f 	c #C7C7C7",
"g 	c #2A2E33",
"h 	c #52585E",
"i 	c #9EA3AB",
"j 	c #979DA4",
"k 	c #4F545A",
"l 	c #32383D",
"m 	c #2F3439",
"n 	c #262A2E",
"o 	c #838383",
"p 	c #C0C0C0",
"q 	c #8F969F",
"r 	c #484D54",
"s 	c #292D32",
"t 	c #272B2F",
"u 	c #212428",
"v 	c #1D2023",
"w 	c #7D7D7D",
"x 	c #B9B9B9",
"y 	c #1B1E21",
"z 	c #1F2225",
"A 	c #202327",
"B 	c #1E2024",
"C 	c #191B1E",
"D 	c #16181B",
"E 	c #767676",
"F 	c #121315",
"G 	c #131517",
"H 	c #141619",
"I 	c #15171A",
"J 	c #B3BBC7",
"K 	c #0D0F10",
"L 	c #6F6F6F",
"M 	c #A9A9A9",
"N 	c #080809",
"O 	c #090A0B",
"P 	c #0A0B0C",
"Q 	c #0A0C0D",
"R 	c #08090A",
"S 	c #060708",
"T 	c #040505",
"U 	c #696969",
"V 	c #A1A1A1",
"W 	c #666666",
"X 	c #8B8B8B",
"Y 	c #989898",
"Z 	c #656565",
"` 	c #5E5E5E",
" .	c #5C5C5C",
"                                ",
"  . + + + + + + + + + + + + @   ",
"# $ % % % % % % % % % % % % & * ",
"= - ; ; ; ; ; ; ; ; ; ; ; ; - = ",
"> , ; ' ) ! ~ ~ { ] ^ / ( ; , > ",
"_ : ; < [ } | 1 2 3 4 { ^ ; : _ ",
"5 6 ; 3 7 8 9 0 a b c 4 d ; 6 5 ",
"e f ; g h i j k l m 3 n ] ; f e ",
"o p ; { q r g g s t ~ u v ; p o ",
"w x ; y v z A A ' B y C D ; x w ",
"E + ; F G H I J J J J J K ; + E ",
"L M ; N O P Q Q P O R S T ; M L ",
"U V ; ; ; ; ; ; ; ; ; ; ; ; V U ",
"W X Y Y Y Y Y Y Y Y Y Y Y Y X Z ",
"  `  . . . . . . . . . . . .`   ",
"                                "};
