/* XPM */
static char * xterm_32x32_xpm[] = {
"32 32 355 2",
"  	c None",
". 	c #B5B5B5",
"+ 	c #B2B2B2",
"@ 	c #B1B1B1",
"# 	c #ADADAD",
"$ 	c #DBDBDB",
"% 	c #E1E1E1",
"& 	c #E0E0E0",
"* 	c #D9D9D9",
"= 	c #AEAEAE",
"- 	c #AAAAAA",
"; 	c #D5D5D5",
"> 	c #C5C5C5",
", 	c #C4C4C4",
"' 	c #C3C3C3",
") 	c #C2C2C2",
"! 	c #C1C1C1",
"~ 	c #C0C0C0",
"{ 	c #D2D2D2",
"] 	c #A7A7A7",
"^ 	c #D1D1D1",
"/ 	c #BEBEBE",
"( 	c #4B4C4C",
"_ 	c #4A4B4B",
": 	c #484949",
"< 	c #464747",
"[ 	c #434444",
"} 	c #414242",
"| 	c #3F4040",
"1 	c #3C3D3D",
"2 	c #393A3A",
"3 	c #B7B7B7",
"4 	c #CBCBCB",
"5 	c #A3A3A3",
"6 	c #D0D0D0",
"7 	c #47494B",
"8 	c #484A4D",
"9 	c #494B4D",
"0 	c #494C4E",
"a 	c #4A4C4F",
"b 	c #4A4D50",
"c 	c #4B4D50",
"d 	c #4B4D51",
"e 	c #4B4E51",
"f 	c #4C4E51",
"g 	c #45474A",
"h 	c #414346",
"i 	c #3F4043",
"j 	c #3B3D40",
"k 	c #37393B",
"l 	c #343639",
"m 	c #313234",
"n 	c #2C2E30",
"o 	c #333434",
"p 	c #C8C8C8",
"q 	c #A0A0A0",
"r 	c #CECECE",
"s 	c #4A4D4F",
"t 	c #4D5052",
"u 	c #4D5154",
"v 	c #4E5154",
"w 	c #4F5155",
"x 	c #4F5255",
"y 	c #505255",
"z 	c #4E5155",
"A 	c #494B4F",
"B 	c #46484B",
"C 	c #424548",
"D 	c #404245",
"E 	c #3C3F42",
"F 	c #383A3E",
"G 	c #343739",
"H 	c #313336",
"I 	c #2D3032",
"J 	c #292B2E",
"K 	c #2D2E2E",
"L 	c #B3B3B3",
"M 	c #9C9C9C",
"N 	c #CDCDCD",
"O 	c #4D5053",
"P 	c #515357",
"Q 	c #515458",
"R 	c #525559",
"S 	c #535559",
"T 	c #53565A",
"U 	c #53575A",
"V 	c #54575B",
"W 	c #4F5356",
"X 	c #4C5054",
"Y 	c #4A4C50",
"Z 	c #474A4E",
"` 	c #44464B",
" .	c #3F4346",
"..	c #3D4044",
"+.	c #393C40",
"@.	c #35393B",
"#.	c #313437",
"$.	c #2E3134",
"%.	c #2A2C30",
"&.	c #26292B",
"*.	c #282929",
"=.	c #989898",
"-.	c #BDBDBD",
";.	c #505356",
">.	c #8A8C90",
",.	c #999C9E",
"'.	c #5D6165",
").	c #55595D",
"!.	c #56595E",
"~.	c #54585C",
"{.	c #52555A",
"].	c #505459",
"^.	c #4D5156",
"/.	c #4B4E52",
"(.	c #484C51",
"_.	c #45484D",
":.	c #414549",
"<.	c #3D4245",
"[.	c #3A3E42",
"}.	c #363A3D",
"|.	c #333539",
"1.	c #2E3135",
"2.	c #2A2D31",
"3.	c #26292D",
"4.	c #222428",
"5.	c #222323",
"6.	c #959595",
"7.	c #797C7F",
"8.	c #D1D2D5",
"9.	c #DFE1E3",
"0.	c #A7AAAC",
"a.	c #676B70",
"b.	c #55585D",
"c.	c #52575B",
"d.	c #51555A",
"e.	c #4F5358",
"f.	c #4C5055",
"g.	c #494D52",
"h.	c #464A50",
"i.	c #43474C",
"j.	c #3E4347",
"k.	c #3B3F43",
"l.	c #373B40",
"m.	c #33373C",
"n.	c #2F3237",
"o.	c #2B2F33",
"p.	c #262A2E",
"q.	c #222629",
"r.	c #1E2225",
"s.	c #1E1F1F",
"t.	c #919191",
"u.	c #CACACA",
"v.	c #55585C",
"w.	c #565A5E",
"x.	c #7D8085",
"y.	c #B9BDC0",
"z.	c #DDDFE2",
"A.	c #AEB0B5",
"B.	c #6D7177",
"C.	c #50555B",
"D.	c #4E5259",
"E.	c #4B4F55",
"F.	c #464C51",
"G.	c #44494E",
"H.	c #40444A",
"I.	c #3B4045",
"J.	c #373C41",
"K.	c #33373D",
"L.	c #2F3338",
"M.	c #2B2E33",
"N.	c #272B2F",
"O.	c #24272B",
"P.	c #222529",
"Q.	c #202327",
"R.	c #8E8E8E",
"S.	c #C9C9C9",
"T.	c #515559",
"U.	c #505458",
"V.	c #4E5358",
"W.	c #676C71",
"X.	c #ABAEB4",
"Y.	c #D6D9DF",
"Z.	c #73777D",
"`.	c #4B5157",
" +	c #474D53",
".+	c #43484E",
"++	c #3F444B",
"@+	c #3B4046",
"#+	c #373C40",
"$+	c #32363C",
"%+	c #2E3237",
"&+	c #2B2F34",
"*+	c #282D31",
"=+	c #262A2F",
"-+	c #24282C",
";+	c #BCBCBC",
">+	c #8A8A8A",
",+	c #C7C7C7",
"'+	c #BBBBBB",
")+	c #454646",
"!+	c #4A4D51",
"~+	c #4A4D52",
"{+	c #484D51",
"]+	c #5C6165",
"^+	c #969BA1",
"/+	c #C7CDD4",
"(+	c #B2B7BD",
"_+	c #585E63",
":+	c #40444B",
"<+	c #3C4147",
"[+	c #383D44",
"}+	c #353B41",
"|+	c #30343A",
"1+	c #2E3238",
"2+	c #2C3035",
"3+	c #2A2E33",
"4+	c #282C30",
"5+	c #26292E",
"6+	c #ACACAC",
"7+	c #BABABA",
"8+	c #878787",
"9+	c #B9B9B9",
"0+	c #43464A",
"a+	c #42464A",
"b+	c #63676C",
"c+	c #9CA1A9",
"d+	c #C4CAD2",
"e+	c #9BA1A9",
"f+	c #595E64",
"g+	c #33383D",
"h+	c #32373D",
"i+	c #32373C",
"j+	c #31363B",
"k+	c #30353A",
"l+	c #2E3338",
"m+	c #2D3137",
"n+	c #2B3035",
"o+	c #1E2125",
"p+	c #838383",
"q+	c #2F3030",
"r+	c #2E3236",
"s+	c #696D75",
"t+	c #B8BDC8",
"u+	c #848A93",
"v+	c #44494F",
"w+	c #2C3136",
"x+	c #2D3136",
"y+	c #2D3237",
"z+	c #2A2F34",
"A+	c #292D32",
"B+	c #25292D",
"C+	c #23272B",
"D+	c #1C1F22",
"E+	c #B8B8B8",
"F+	c #808080",
"G+	c #40434A",
"H+	c #34383E",
"I+	c #282B30",
"J+	c #282C31",
"K+	c #23262A",
"L+	c #212529",
"M+	c #1D2023",
"N+	c #1B1E21",
"O+	c #191C1F",
"P+	c #7C7C7C",
"Q+	c #ABABAB",
"R+	c #1E2024",
"S+	c #1F2225",
"T+	c #212428",
"U+	c #23262B",
"V+	c #1D2024",
"W+	c #1B1D20",
"X+	c #181A1D",
"Y+	c #16191B",
"Z+	c #797979",
"`+	c #B4B4B4",
" @	c #1A1D20",
".@	c #1D1F23",
"+@	c #1E2124",
"@@	c #17191C",
"#@	c #15181A",
"$@	c #141619",
"%@	c #131517",
"&@	c #757575",
"*@	c #141618",
"=@	c #151719",
"-@	c #16181A",
";@	c #181B1E",
">@	c #191B1E",
",@	c #575C62",
"'@	c #575B62",
")@	c #565B62",
"!@	c #565B61",
"~@	c #565A61",
"{@	c #555A60",
"]@	c #2F3337",
"^@	c #131417",
"/@	c #111315",
"(@	c #101214",
"_@	c #0F1112",
":@	c #727272",
"<@	c #0F1113",
"[@	c #121416",
"}@	c #1C1F21",
"|@	c #9EA5AF",
"1@	c #9DA5AF",
"2@	c #0E1011",
"3@	c #0D0F10",
"4@	c #0C0D0F",
"5@	c #0B0C0D",
"6@	c #6E6E6E",
"7@	c #AFAFAF",
"8@	c #0C0D0E",
"9@	c #0C0E0F",
"0@	c #0D0E10",
"a@	c #0E0F11",
"b@	c #0F1012",
"c@	c #0B0D0E",
"d@	c #0A0B0C",
"e@	c #090A0B",
"f@	c #08090A",
"g@	c #070708",
"h@	c #6B6B6B",
"i@	c #060708",
"j@	c #070808",
"k@	c #080809",
"l@	c #09090A",
"m@	c #0A0A0C",
"n@	c #070809",
"o@	c #060707",
"p@	c #050606",
"q@	c #040505",
"r@	c #030404",
"s@	c #020303",
"t@	c #676767",
"u@	c #010202",
"v@	c #020203",
"w@	c #030303",
"x@	c #040405",
"y@	c #050506",
"z@	c #040404",
"A@	c #030304",
"B@	c #010101",
"C@	c #000000",
"D@	c #646464",
"E@	c #B0B0B0",
"F@	c #606060",
"G@	c #A6A6A6",
"H@	c #BFBFBF",
"I@	c #5D5D5D",
"J@	c #949494",
"K@	c #979797",
"L@	c #5C5C5C",
"M@	c #5A5A5A",
"N@	c #595959",
"                                                                ",
"                                                                ",
"                                                                ",
"                                                                ",
". + @ @ @ @ @ @ @ @ @ @ @ @ @ @ @ @ @ @ @ @ @ @ @ @ @ @ @ @ + . ",
"# $ % % % % % % % % % % % % % % % % % % % % % % % % % % % & * = ",
"- ; > > > > > > > > > > > > > > > > > > > > > > , ' ' ) ! ~ { - ",
"] ^ / ( ( ( ( ( ( ( ( ( ( ( ( ( ( ( ( ( ( _ : < [ } | 1 2 3 4 ] ",
"5 6 / ( 7 8 9 0 a b c d e f f e d c b 8 g h i j k l m n o . p 5 ",
"q r / ( s d f t u v w x x y y x z f A B C D E F G H I J K L > q ",
"M N / ( O v x P Q R S T U V R W X Y Z `  ...+.@.#.$.%.&.*.@ ) M ",
"=.N -.( ;.Q >.,.'.).!.!.~.{.].^./.(._.:.<.[.}.|.1.2.3.4.5.# ~ =.",
"6.4 -.( R T 7.8.9.0.a.b.c.d.e.f.g.h.i.j.k.l.m.n.o.p.q.r.s.# / 6.",
"t.u.-.( T v.).w.x.y.z.A.B.C.D.E.F.G.H.I.J.K.L.M.N.O.P.Q.s.# -.t.",
"R.S.-.( T.U.].U.e.V.W.X.Y.Z.`. +.+++@+#+$+%+&+*+=+-+P.Q.s.# ;+R.",
">+,+'+)+/.!+~+g.{+]+^+/+(+_+:+<+[+}+$+|+1+2+3+4+5+O.P.Q.s.6+7+>+",
"8+> 9+| 0+a+a+b+c+d+e+f+g+h+h+i+j+k+l+m+n+3+4+p.-+P.Q.o+s.6+9+8+",
"p+! . q+r+o.s+t+u+v+2+w+x+y+m+x+w+n+z+A+4+=+B+C+P.Q.o+D+s.6+E+p+",
"F+3 6+s.Q.P.G+H+B+p.N.I+J+J+J+4+I+N.p.B+-+K+L+Q.r.M+N+O+s.6+3 F+",
"P+. Q+s.D+R+S+Q.T+L+P.K+U+U+U+K+K+P.L+T+Q.r.V+D+W+O+X+Y+s.Q+. P+",
"Z+`+Q+s.X+O+ @N+D+.@V+R+o+o+o++@R+M+.@D+N+ @O+X+@@#@$@%@s.Q+`+Z+",
"&@L Q+s.*@=@-@@@@@X+;@>@>@D+,@'@'@)@!@~@{@]@=@*@^@/@(@_@s.Q+L &@",
":@@ Q+s.<@(@/@[@[@%@%@*@*@}@|@|@|@|@|@1@1@E.(@<@2@3@4@5@s.Q+@ :@",
"6@7@- s.5@8@9@0@a@a@2@b@b@_@_@b@b@2@a@a@0@4@c@5@d@e@f@g@s.- 7@6@",
"h@= - s.i@j@k@f@l@e@e@m@d@d@d@d@m@e@e@l@f@n@j@o@p@q@r@s@s.- = h@",
"t@# - s.u@v@w@r@x@x@q@y@y@y@y@y@y@q@x@z@A@w@v@u@B@C@C@C@s.- # t@",
"D@6+E@s.s.s.s.s.s.s.s.s.s.s.s.s.s.s.s.s.s.s.s.s.s.s.s.s.s.E@6+D@",
"F@G@H@H@H@H@H@H@H@H@H@H@H@H@H@H@H@H@H@H@H@H@H@H@H@H@H@H@H@H@G@F@",
"I@J@K@K@K@K@K@K@K@K@K@K@K@K@K@K@K@K@K@K@K@K@K@K@K@K@K@K@K@K@J@I@",
"L@M@N@N@N@N@N@N@N@N@N@N@N@N@N@N@N@N@N@N@N@N@N@N@N@N@N@N@N@N@M@L@",
"                                                                ",
"                                                                "};
