/* XPM */
static char * closeO_xpm[] = {
"20 44 473 2",
"  	c None",
". 	c #141312",
"+ 	c #1B1512",
"@ 	c #231912",
"# 	c #281B12",
"$ 	c #2F1D13",
"% 	c #2A1C14",
"& 	c #2C211B",
"* 	c #322C27",
"= 	c #40403B",
"- 	c #53524D",
"; 	c #242321",
"> 	c #252321",
", 	c #30231C",
"' 	c #372317",
") 	c #362317",
"! 	c #352217",
"~ 	c #332117",
"{ 	c #332116",
"] 	c #342116",
"^ 	c #342115",
"/ 	c #2F221B",
"( 	c #282724",
"_ 	c #4B4A46",
": 	c #504F4B",
"< 	c #28231F",
"[ 	c #362318",
"} 	c #3D2619",
"| 	c #9B5B37",
"1 	c #B07B5D",
"2 	c #B59683",
"3 	c #B69886",
"4 	c #B17F61",
"5 	c #A05D38",
"6 	c #3C2619",
"7 	c #342218",
"8 	c #231E1A",
"9 	c #3E3D3A",
"0 	c #4D4C48",
"a 	c #5C3823",
"b 	c #B07959",
"c 	c #B5907B",
"d 	c #B79B8B",
"e 	c #B8A397",
"f 	c #B8A598",
"g 	c #B79E8F",
"h 	c #B59481",
"i 	c #B17D5F",
"j 	c #5E3924",
"k 	c #322117",
"l 	c #201E1D",
"m 	c #464542",
"n 	c #4A4945",
"o 	c #2A2927",
"p 	c #36281F",
"q 	c #3D271B",
"r 	c #573523",
"s 	c #B27758",
"t 	c #B5876E",
"u 	c #B79380",
"v 	c #B99C8D",
"w 	c #B9A296",
"x 	c #BAA397",
"y 	c #B99F90",
"z 	c #B79683",
"A 	c #B58A73",
"B 	c #B27C5E",
"C 	c #583623",
"D 	c #392419",
"E 	c #34271D",
"F 	c #302F2D",
"G 	c #474642",
"H 	c #352F2A",
"I 	c #462D1F",
"J 	c #472D1F",
"K 	c #A8643D",
"L 	c #B37A5B",
"M 	c #B68A71",
"N 	c #B99B8B",
"O 	c #BA9F91",
"P 	c #BAA092",
"Q 	c #B68C75",
"R 	c #B37D5F",
"S 	c #AF6740",
"T 	c #442C1F",
"U 	c #422B1E",
"V 	c #332D28",
"W 	c #3F3E3A",
"X 	c #363533",
"Y 	c #43342B",
"Z 	c #503423",
"` 	c #7B4B30",
" .	c #B3714C",
"..	c #B57B59",
"+.	c #B9927A",
"@.	c #B57C5C",
"#.	c #B9927C",
"$.	c #BCA091",
"%.	c #BCA192",
"&.	c #B9927B",
"*.	c #B57B5B",
"=.	c #B9937D",
"-.	c #B57E5D",
";.	c #B3744F",
">.	c #7C4C31",
",.	c #4A3021",
"'.	c #43342C",
").	c #3B3B37",
"!.	c #3C3B39",
"~.	c #513B2D",
"{.	c #593927",
"].	c #995D3B",
"^.	c #B57652",
"/.	c #B77E5D",
"(.	c #BA9077",
"_.	c #B57551",
":.	c #9A5D3B",
"<.	c #BA8E75",
"[.	c #BA9078",
"}.	c #B78060",
"|.	c #B67754",
"1.	c #9B5E3B",
"2.	c #523625",
"3.	c #50392C",
"4.	c #3D3B3A",
"5.	c #42413F",
"6.	c #603F2E",
"7.	c #613F2B",
"8.	c #B56D45",
"9.	c #B87A57",
"0.	c #B98262",
"a.	c #BA8668",
"b.	c #BC937C",
"c.	c #B7734C",
"d.	c #805035",
"e.	c #7F4F34",
"f.	c #BC947C",
"g.	c #B98263",
"h.	c #B87B57",
"i.	c #B66E45",
"j.	c #5C3C29",
"k.	c #5E3E2C",
"l.	c #41403E",
"m.	c #484745",
"n.	c #6A4732",
"o.	c #6A442F",
"p.	c #B86F47",
"q.	c #BA7C59",
"r.	c #BB8365",
"s.	c #BC876A",
"t.	c #BE937B",
"u.	c #BB8364",
"v.	c #784B33",
"w.	c #BE917A",
"x.	c #BA7B59",
"y.	c #B76E47",
"z.	c #66412D",
"A.	c #684532",
"B.	c #464543",
"C.	c #4E4D4B",
"D.	c #6A4D3B",
"E.	c #764B34",
"F.	c #A76743",
"G.	c #BC7C5A",
"H.	c #BD8364",
"I.	c #C09077",
"J.	c #BD8667",
"K.	c #865439",
"L.	c #BB7956",
"M.	c #BB7A57",
"N.	c #875439",
"O.	c #BD8567",
"P.	c #BD8262",
"Q.	c #BB7B58",
"R.	c #A66643",
"S.	c #6E4632",
"T.	c #694C3B",
"U.	c #484644",
"V.	c #545451",
"W.	c #6A5446",
"X.	c #815338",
"Y.	c #98603F",
"Z.	c #BC7C58",
"`.	c #BE8362",
" +	c #C1957B",
".+	c #AC6B45",
"++	c #BD7F5C",
"@+	c #C3A28E",
"#+	c #BD805D",
"$+	c #B06D47",
"%+	c #C1947A",
"&+	c #BD815F",
"*+	c #BC7A54",
"=+	c #975F3F",
"-+	c #774D35",
";+	c #695345",
">+	c #474743",
",+	c #5A5A57",
"'+	c #655A52",
")+	c #8B593C",
"!+	c #85563B",
"~+	c #BD764E",
"{+	c #BF8260",
"]+	c #C29276",
"^+	c #C49E88",
"/+	c #C5A28E",
"(+	c #C49D86",
"_+	c #C5A28F",
":+	c #BF805D",
"<+	c #B9734B",
"[+	c #82543A",
"}+	c #83553A",
"|+	c #42413D",
"1+	c #60605D",
"2+	c #81604C",
"3+	c #955F41",
"4+	c #966041",
"5+	c #C0825D",
"6+	c #C28D6E",
"7+	c #C4957A",
"8+	c #C59A81",
"9+	c #C59D85",
"0+	c #C4947A",
"a+	c #C28C6C",
"b+	c #C07F5A",
"c+	c #8A593E",
"d+	c #51514F",
"e+	c #3C3B37",
"f+	c #666663",
"g+	c #696661",
"h+	c #986548",
"i+	c #9B6344",
"j+	c #A06746",
"k+	c #C38663",
"l+	c #C59376",
"m+	c #C7977C",
"n+	c #C79B81",
"o+	c #C79A80",
"p+	c #C6977C",
"q+	c #C59173",
"r+	c #C28460",
"s+	c #9F6646",
"t+	c #915F42",
"u+	c #946347",
"v+	c #64615D",
"w+	c #3E3D39",
"x+	c #6C6C69",
"y+	c #6B6B68",
"z+	c #7A6C62",
"A+	c #A26C4D",
"B+	c #A66A49",
"C+	c #A16848",
"D+	c #C27A52",
"E+	c #C58663",
"F+	c #C79173",
"G+	c #C69172",
"H+	c #C48662",
"I+	c #BF7951",
"J+	c #9D6546",
"K+	c #9E6646",
"L+	c #9E6A4C",
"M+	c #75675D",
"N+	c #72726F",
"O+	c #71716E",
"P+	c #76736E",
"Q+	c #9B735B",
"R+	c #B2724F",
"S+	c #AD6F4D",
"T+	c #A96D4C",
"U+	c #A76B4B",
"V+	c #A46A4A",
"W+	c #625E59",
"X+	c #787875",
"Y+	c #87796D",
"Z+	c #997865",
"`+	c #A7785D",
" @	c #B47856",
".@	c #A37459",
"+@	c #8C6B58",
"@@	c #6C5E52",
"#@	c #494844",
"$@	c #151412",
"%@	c #151413",
"&@	c #161515",
"*@	c #161615",
"=@	c #191818",
"-@	c #21201F",
";@	c #2F2E29",
">@	c #242320",
",@	c #242220",
"'@	c #232220",
")@	c #22211F",
"!@	c #1F1F1C",
"~@	c #282824",
"{@	c #242322",
"]@	c #262321",
"^@	c #3B302A",
"/@	c #463932",
"(@	c #4C413B",
"_@	c #4D423C",
":@	c #463A34",
"<@	c #3C312B",
"[@	c #222120",
"}@	c #1F1E1C",
"|@	c #2F2722",
"1@	c #49372E",
"2@	c #4E3E36",
"3@	c #4F433C",
"4@	c #4F4640",
"5@	c #4F4641",
"6@	c #4F443D",
"7@	c #4E4038",
"8@	c #493830",
"9@	c #2F2823",
"0@	c #1F1E1D",
"a@	c #2A2926",
"b@	c #332B26",
"c@	c #513A2F",
"d@	c #534036",
"e@	c #54443B",
"f@	c #544740",
"g@	c #544A43",
"h@	c #544841",
"i@	c #54453D",
"j@	c #534137",
"k@	c #523B31",
"l@	c #292826",
"m@	c #272624",
"n@	c #2F2F2C",
"o@	c #302F2C",
"p@	c #50382D",
"q@	c #563F33",
"r@	c #57453A",
"s@	c #584B43",
"t@	c #594D45",
"u@	c #584C44",
"v@	c #58463B",
"w@	c #574034",
"x@	c #503A2E",
"y@	c #302E2C",
"z@	c #2E2E2C",
"A@	c #2E2D2B",
"B@	c #353433",
"C@	c #453831",
"D@	c #5A3F33",
"E@	c #5C4236",
"F@	c #5B4C44",
"G@	c #4E4844",
"H@	c #554E4A",
"I@	c #5D5149",
"J@	c #544E4A",
"K@	c #4E4744",
"L@	c #5C4337",
"M@	c #5B4034",
"N@	c #463832",
"O@	c #343332",
"P@	c #3B3A39",
"Q@	c #544037",
"R@	c #604538",
"S@	c #61483B",
"T@	c #604F45",
"U@	c #514A45",
"V@	c #4A433F",
"W@	c #58514C",
"X@	c #58514D",
"Y@	c #614F45",
"Z@	c #62483B",
"`@	c #604539",
" #	c #3A3938",
".#	c #3C3B38",
"+#	c #41413F",
"@#	c #60473B",
"##	c #654B3D",
"$#	c #674D3F",
"%#	c #674F41",
"&#	c #65554A",
"*#	c #554D48",
"=#	c #4B443E",
"-#	c #4B433E",
";#	c #61473B",
">#	c #403F3D",
",#	c #41403F",
"'#	c #474645",
")#	c #474644",
"!#	c #664C40",
"~#	c #6A5042",
"{#	c #6C5244",
"]#	c #6C5446",
"^#	c #6C584C",
"/#	c #5F5650",
"(#	c #4F4741",
"_#	c #654C40",
":#	c #474643",
"<#	c #4D4C4B",
"[#	c #4D4D4A",
"}#	c #635046",
"|#	c #6E5447",
"1#	c #705749",
"2#	c #705C50",
"3#	c #645C55",
"4#	c #544E48",
"5#	c #5F5953",
"6#	c #554E48",
"7#	c #6F5649",
"8#	c #6E5446",
"9#	c #4C4C49",
"0#	c #545351",
"a#	c #61544D",
"b#	c #73594B",
"c#	c #745B4E",
"d#	c #71635A",
"e#	c #5F5954",
"f#	c #655F5A",
"g#	c #73675F",
"h#	c #5F5955",
"i#	c #745A4D",
"j#	c #72584A",
"k#	c #60544C",
"l#	c #52524F",
"m#	c #5A5856",
"n#	c #735C50",
"o#	c #785F52",
"p#	c #7A6559",
"q#	c #776A62",
"r#	c #796B63",
"s#	c #7A695E",
"t#	c #796C63",
"u#	c #776A63",
"v#	c #796559",
"w#	c #785E51",
"x#	c #735B4F",
"y#	c #595855",
"z#	c #595856",
"A#	c #60605C",
"B#	c #655E59",
"C#	c #7C6356",
"D#	c #7D675B",
"E#	c #7E6A5E",
"F#	c #7F6C61",
"G#	c #7F6D62",
"H#	c #7C6255",
"I#	c #655E58",
"J#	c #5E5E5B",
"K#	c #656562",
"L#	c #666662",
"M#	c #6B655F",
"N#	c #7E6A5F",
"O#	c #826E62",
"P#	c #837064",
"Q#	c #837166",
"R#	c #836F64",
"S#	c #826D62",
"T#	c #7E695E",
"U#	c #646461",
"V#	c #656563",
"W#	c #61615F",
"X#	c #6C6C68",
"Y#	c #6B6A67",
"Z#	c #786C66",
"`#	c #7E6F67",
" $	c #847268",
".$	c #847168",
"+$	c #7E6F66",
"@$	c #786C65",
"#$	c #6B6966",
"$$	c #6A6A67",
"%$	c #676763",
"&$	c #70706E",
"*$	c #70706D",
"=$	c #5E5D59",
"-$	c #71716F",
";$	c #666664",
">$	c #595956",
". . . . . . + @ # $ $ % & * = - - - - - ",
"; ; ; ; > , ' ) ! ~ { ~ ] ^ / ( _ : : : ",
"; ; ; < [ ) } | 1 2 3 4 5 6 ~ 7 8 9 0 0 ",
"; ; > [ ) a b c d e f g h i j { k l m n ",
"o o p q r s t u v w x y z A B C D E F G ",
"F H I J K L M N O O P P v Q R S T U V W ",
"X Y Z `  ...+.@.#.$.%.&.*.=.-.;.>.,.'.).",
"!.~.{.].^./.(._.:.<.<.]._.[.}.|.1.2.3.4.",
"5.6.7.8.9.0.a.b.c.d.e.c.f.a.g.h.i.j.k.l.",
"m.n.o.p.q.r.s.t.u.v.v.u.w.s.u.x.y.z.A.B.",
"C.D.E.F.G.H.I.J.K.L.M.N.O.I.P.Q.R.S.T.U.",
"V.W.X.Y.Z.`. +.+++@+@+#+$+%+&+*+=+-+;+>+",
",+'+)+!+~+{+]+^+/+(+(+_+^+]+:+<+[+}+'+|+",
"1+1+2+3+4+5+6+7+8+9+9+8+0+a+b+4+c+2+d+e+",
"f+f+g+h+i+j+k+l+m+n+o+p+q+r+s+t+u+v+w+e+",
"x+x+y+z+A+B+C+D+E+F+G+H+I+J+K+L+M+G e+e+",
"N+N+N+O+P+Q+R+S+T+U+V+U+T+S+Q+W+W e+e+e+",
"X+X+X+X+X+X+Y+Z+`+ @ @.@+@@@#@e+e+e+e+e+",
"e+e+e+e+e+e+e+e+e+e+e+e+e+e+e+e+e+e+e+e+",
"e+e+e+e+e+e+e+e+e+e+e+e+e+e+e+e+e+e+e+e+",
"e+e+e+e+e+e+e+e+e+e+e+e+e+e+e+e+e+e+e+e+",
"e+e+e+e+e+e+e+e+e+e+e+e+e+e+e+e+e+e+e+e+",
". . . . . . $@%@&@*@*@=@-@;@= - - - - - ",
"; ; ; ; ; ; ; >@>@,@'@> )@!@)@~@_ : : : ",
"; ; ; {@; >@]@^@/@(@_@:@<@]@,@[@}@9 0 0 ",
"; ; ; ; >@|@1@2@3@4@5@6@7@8@9@'@[@0@m n ",
"o o a@a@b@c@d@e@f@g@g@h@i@j@k@b@l@m@F G ",
"F F n@o@p@q@r@s@t@t@t@t@u@v@w@x@y@z@A@W ",
"X X B@C@D@E@F@G@H@I@I@J@K@F@L@M@N@O@X ).",
"!.!.P@Q@R@S@T@U@V@W@X@V@U@Y@Z@`@Q@ #.#4.",
"5.+#l.@###$#%#&#*#=#-#*#&#%#$###;#>#,#l.",
"m.'#)#!#~#{#]#^#/#(#(#/#^#]#{#~#_#:#'#B.",
"C.<#[#}#|#1#2#3#4#5#5#6#3#2#7#8#}#9#<#U.",
"V.V.0#a#b#c#d#e#f#g#g#f#h#d#i#j#k#l#V.>+",
",+,+,+m#n#o#p#q#r#s#s#t#u#v#w#x#y#z#,+|+",
"1+1+1+A#B#C#D#E#F#G#G#F#E#D#H#I#J#1+d+e+",
"K#f+f+f+L#M#N#O#P#Q#Q#R#S#T#M#U#V#W#w+e+",
"x+x+x+X#X#y+Y#Z#`# $.$+$@$#$$$y+%$G e+e+",
"N+N+N+N+N+N+N+O+&$*$*$*$&$O+N+=$W e+e+e+",
"X+X+X+X+X+X+X+X+X+X+X+-$;$>$#@e+e+e+e+e+",
"e+e+e+e+e+e+e+e+e+e+e+e+e+e+e+e+e+e+e+e+",
"e+e+e+e+e+e+e+e+e+e+e+e+e+e+e+e+e+e+e+e+",
"e+e+e+e+e+e+e+e+e+e+e+e+e+e+e+e+e+e+e+e+",
"e+e+e+e+e+e+e+e+e+e+e+e+e+e+e+e+e+e+e+e+"};
