/* XPM */
static char * closeI_xpm[] = {
"20 44 317 2",
"  	c None",
". 	c #141312",
"+ 	c #181715",
"@ 	c #1C1B19",
"# 	c #1F1E1D",
"$ 	c #222120",
"% 	c #201F1E",
"& 	c #232120",
"* 	c #2C2C28",
"= 	c #40403B",
"- 	c #53524D",
"; 	c #242321",
"> 	c #232220",
", 	c #201F1D",
"' 	c #1E1D1B",
") 	c #1C1C1A",
"! 	c #232320",
"~ 	c #282824",
"{ 	c #4B4A46",
"] 	c #504F4B",
"^ 	c #1D1C1B",
"/ 	c #2F2E2C",
"( 	c #383835",
"_ 	c #40403E",
": 	c #242221",
"< 	c #3E3D3A",
"[ 	c #4D4C48",
"} 	c #262523",
"| 	c #3E3E3C",
"1 	c #454542",
"2 	c #464542",
"3 	c #4A4945",
"4 	c #2A2927",
"5 	c #282825",
"6 	c #272726",
"7 	c #454543",
"8 	c #464643",
"9 	c #272624",
"0 	c #302F2D",
"a 	c #474642",
"b 	c #2B2A28",
"c 	c #242322",
"d 	c #424240",
"e 	c #484845",
"f 	c #2E2D2A",
"g 	c #3F3E3A",
"h 	c #363533",
"i 	c #353432",
"j 	c #2E2D2B",
"k 	c #383735",
"l 	c #4B4B48",
"m 	c #494947",
"n 	c #636361",
"o 	c #535351",
"p 	c #636362",
"q 	c #4A4A47",
"r 	c #3B3B37",
"s 	c #3C3B39",
"t 	c #3A3A37",
"u 	c #302F2E",
"v 	c #434241",
"w 	c #4D4D4A",
"x 	c #4C4C4A",
"y 	c #61615F",
"z 	c #878786",
"A 	c #545452",
"B 	c #3D3B3A",
"C 	c #42413F",
"D 	c #40403D",
"E 	c #323230",
"F 	c #4C4C49",
"G 	c #504F4C",
"H 	c #4F4E4B",
"I 	c #60605E",
"J 	c #959594",
"K 	c #41403E",
"L 	c #484745",
"M 	c #373735",
"N 	c #4E4E4C",
"O 	c #52524F",
"P 	c #50504E",
"Q 	c #4F4F4D",
"R 	c #555553",
"S 	c #A2A2A1",
"T 	c #464543",
"U 	c #4E4D4B",
"V 	c #3F3F3D",
"W 	c #50504D",
"X 	c #484644",
"Y 	c #545451",
"Z 	c #535350",
"` 	c #494847",
" .	c #494948",
"..	c #555452",
"+.	c #535250",
"@.	c #4F4E4C",
"#.	c #6E6E6D",
"$.	c #616160",
"%.	c #4D4C4A",
"&.	c #474743",
"*.	c #5A5A57",
"=.	c #565553",
"-.	c #464544",
";.	c #52514E",
">.	c #4F4F4B",
",.	c #4E4E4A",
"'.	c #4E4D4A",
").	c #4E4E4B",
"!.	c #42413D",
"~.	c #60605D",
"{.	c #60605C",
"].	c #555552",
"^.	c #52524E",
"/.	c #50504C",
"(.	c #51514F",
"_.	c #3C3B37",
":.	c #666663",
"<.	c #656562",
"[.	c #4F4F4C",
"}.	c #53524F",
"|.	c #51514D",
"1.	c #3E3D39",
"2.	c #6C6C69",
"3.	c #6B6B68",
"4.	c #4E4D49",
"5.	c #676764",
"6.	c #72726F",
"7.	c #6E6E6B",
"8.	c #646462",
"9.	c #5F5F5C",
"0.	c #5F5F5B",
"a.	c #787875",
"b.	c #777775",
"c.	c #767673",
"d.	c #6D6D6B",
"e.	c #494844",
"f.	c #151412",
"g.	c #151413",
"h.	c #161515",
"i.	c #161615",
"j.	c #191818",
"k.	c #21201F",
"l.	c #2F2E29",
"m.	c #242320",
"n.	c #242220",
"o.	c #252321",
"p.	c #22211F",
"q.	c #1F1F1C",
"r.	c #262321",
"s.	c #3B302A",
"t.	c #463932",
"u.	c #4C413B",
"v.	c #4D423C",
"w.	c #463A34",
"x.	c #3C312B",
"y.	c #1F1E1C",
"z.	c #2F2722",
"A.	c #49372E",
"B.	c #4E3E36",
"C.	c #4F433C",
"D.	c #4F4640",
"E.	c #4F4641",
"F.	c #4F443D",
"G.	c #4E4038",
"H.	c #493830",
"I.	c #2F2823",
"J.	c #2A2926",
"K.	c #332B26",
"L.	c #513A2F",
"M.	c #534036",
"N.	c #54443B",
"O.	c #544740",
"P.	c #544A43",
"Q.	c #544841",
"R.	c #54453D",
"S.	c #534137",
"T.	c #523B31",
"U.	c #292826",
"V.	c #2F2F2C",
"W.	c #302F2C",
"X.	c #50382D",
"Y.	c #563F33",
"Z.	c #57453A",
"`.	c #584B43",
" +	c #594D45",
".+	c #584C44",
"++	c #58463B",
"@+	c #574034",
"#+	c #503A2E",
"$+	c #302E2C",
"%+	c #2E2E2C",
"&+	c #353433",
"*+	c #453831",
"=+	c #5A3F33",
"-+	c #5C4236",
";+	c #5B4C44",
">+	c #4E4844",
",+	c #554E4A",
"'+	c #5D5149",
")+	c #544E4A",
"!+	c #4E4744",
"~+	c #5C4337",
"{+	c #5B4034",
"]+	c #463832",
"^+	c #343332",
"/+	c #3B3A39",
"(+	c #544037",
"_+	c #604538",
":+	c #61483B",
"<+	c #604F45",
"[+	c #514A45",
"}+	c #4A433F",
"|+	c #58514C",
"1+	c #58514D",
"2+	c #614F45",
"3+	c #62483B",
"4+	c #604539",
"5+	c #3A3938",
"6+	c #3C3B38",
"7+	c #41413F",
"8+	c #60473B",
"9+	c #654B3D",
"0+	c #674D3F",
"a+	c #674F41",
"b+	c #65554A",
"c+	c #554D48",
"d+	c #4B443E",
"e+	c #4B433E",
"f+	c #61473B",
"g+	c #403F3D",
"h+	c #41403F",
"i+	c #474645",
"j+	c #474644",
"k+	c #664C40",
"l+	c #6A5042",
"m+	c #6C5244",
"n+	c #6C5446",
"o+	c #6C584C",
"p+	c #5F5650",
"q+	c #4F4741",
"r+	c #654C40",
"s+	c #474643",
"t+	c #4D4C4B",
"u+	c #635046",
"v+	c #6E5447",
"w+	c #705749",
"x+	c #705C50",
"y+	c #645C55",
"z+	c #544E48",
"A+	c #5F5953",
"B+	c #554E48",
"C+	c #6F5649",
"D+	c #6E5446",
"E+	c #545351",
"F+	c #61544D",
"G+	c #73594B",
"H+	c #745B4E",
"I+	c #71635A",
"J+	c #5F5954",
"K+	c #655F5A",
"L+	c #73675F",
"M+	c #5F5955",
"N+	c #745A4D",
"O+	c #72584A",
"P+	c #60544C",
"Q+	c #5A5856",
"R+	c #735C50",
"S+	c #785F52",
"T+	c #7A6559",
"U+	c #776A62",
"V+	c #796B63",
"W+	c #7A695E",
"X+	c #796C63",
"Y+	c #776A63",
"Z+	c #796559",
"`+	c #785E51",
" @	c #735B4F",
".@	c #595855",
"+@	c #595856",
"@@	c #655E59",
"#@	c #7C6356",
"$@	c #7D675B",
"%@	c #7E6A5E",
"&@	c #7F6C61",
"*@	c #7F6D62",
"=@	c #7C6255",
"-@	c #655E58",
";@	c #5E5E5B",
">@	c #666662",
",@	c #6B655F",
"'@	c #7E6A5F",
")@	c #826E62",
"!@	c #837064",
"~@	c #837166",
"{@	c #836F64",
"]@	c #826D62",
"^@	c #7E695E",
"/@	c #646461",
"(@	c #656563",
"_@	c #6C6C68",
":@	c #6B6A67",
"<@	c #786C66",
"[@	c #7E6F67",
"}@	c #847268",
"|@	c #847168",
"1@	c #7E6F66",
"2@	c #786C65",
"3@	c #6B6966",
"4@	c #6A6A67",
"5@	c #676763",
"6@	c #71716E",
"7@	c #70706E",
"8@	c #70706D",
"9@	c #5E5D59",
"0@	c #71716F",
"a@	c #666664",
"b@	c #595956",
". . . . . . + @ # $ $ % & * = - - - - - ",
"; ; ; ; ; ; > , ' ) ) ' , > ! ~ { ] ] ] ",
"; ; ; ; ; % ^ / ( _ _ ( / ^ % : # < [ [ ",
"; ; ; ; ' } | 1 1 1 1 1 1 | } ' : # 2 3 ",
"4 4 5 > 6 7 8 8 8 8 8 8 8 8 7 6 > 9 0 a ",
"0 / b c d e e e e e e e e e e d c b f g ",
"h i j k l l m n o l l o p q l l k j i r ",
"s t u v w w x y z A A z y x w w v u t B ",
"C D E F G G G H I J J I H G G G F E D K ",
"L 8 M N O O P Q R S S R Q P O O N M 8 T ",
"U w V x o O W A z p p z A W O o x V w X ",
"Y Z `  ...+.@.#.$.%.%.$.#.@.+... .` Z &.",
"*.*.=.-.+.Z ;.>.H ,.,.'.).;.Z +.-.=.*.!.",
"~.~.{.].F Z ^./.H '.'.H /.^.Z F ].{.(._.",
":.:.:.<.Y [.}.|.] ,.,.] |.}.[.Y <.y 1._.",
"2.2.2.2.3.~.o O W 4.4.W O o ~.3.5.a _._.",
"6.6.6.6.6.6.7.8.9.*.*.9.8.7.6.0.g _._._.",
"a.a.a.a.a.a.a.b.a.a.a.c.d.9.e._._._._._.",
"_._._._._._._._._._._._._._._._._._._._.",
"_._._._._._._._._._._._._._._._._._._._.",
"_._._._._._._._._._._._._._._._._._._._.",
"_._._._._._._._._._._._._._._._._._._._.",
". . . . . . f.g.h.i.i.j.k.l.= - - - - - ",
"; ; ; ; ; ; ; m.m.n.> o.p.q.p.~ { ] ] ] ",
"; ; ; c ; m.r.s.t.u.v.w.x.r.n.$ y.< [ [ ",
"; ; ; ; m.z.A.B.C.D.E.F.G.H.I.> $ # 2 3 ",
"4 4 J.J.K.L.M.N.O.P.P.Q.R.S.T.K.U.9 0 a ",
"0 0 V.W.X.Y.Z.`. + + + +.+++@+#+$+%+j g ",
"h h &+*+=+-+;+>+,+'+'+)+!+;+~+{+]+^+h r ",
"s s /+(+_+:+<+[+}+|+1+}+[+2+3+4+(+5+6+B ",
"C 7+K 8+9+0+a+b+c+d+e+c+b+a+0+9+f+g+h+K ",
"L i+j+k+l+m+n+o+p+q+q+p+o+n+m+l+r+s+i+T ",
"U t+w u+v+w+x+y+z+A+A+B+y+x+C+D+u+F t+X ",
"Y Y E+F+G+H+I+J+K+L+L+K+M+I+N+O+P+O Y &.",
"*.*.*.Q+R+S+T+U+V+W+W+X+Y+Z+`+ @.@+@*.!.",
"~.~.~.{.@@#@$@%@&@*@*@&@%@$@=@-@;@~.(._.",
"<.:.:.:.>@,@'@)@!@~@~@{@]@^@,@/@(@y 1._.",
"2.2.2._@_@3.:@<@[@}@|@1@2@3@4@3.5@a _._.",
"6.6.6.6.6.6.6.6@7@8@8@8@7@6@6.9@g _._._.",
"a.a.a.a.a.a.a.a.a.a.a.0@a@b@e._._._._._.",
"_._._._._._._._._._._._._._._._._._._._.",
"_._._._._._._._._._._._._._._._._._._._.",
"_._._._._._._._._._._._._._._._._._._._.",
"_._._._._._._._._._._._._._._._._._._._."};
