/* XPM */
static char * closeA_xpm[] = {
"20 44 435 2",
"  	c None",
". 	c #141312",
"+ 	c #181715",
"@ 	c #1C1B19",
"# 	c #1F1E1D",
"$ 	c #222120",
"% 	c #201F1E",
"& 	c #232120",
"* 	c #2C2C28",
"= 	c #40403B",
"- 	c #53524D",
"; 	c #242321",
"> 	c #232220",
", 	c #22211F",
"' 	c #21201E",
") 	c #20201E",
"! 	c #232320",
"~ 	c #282824",
"{ 	c #4B4A46",
"] 	c #504F4B",
"^ 	c #2D2522",
"/ 	c #986450",
"( 	c #CB927A",
"_ 	c #EDBAA6",
": 	c #EEBDA9",
"< 	c #CE9780",
"[ 	c #9A6955",
"} 	c #2C2522",
"| 	c #232221",
"1 	c #3E3D3A",
"2 	c #4D4C48",
"3 	c #58382A",
"4 	c #DC8765",
"5 	c #F4AC8E",
"6 	c #F8C1A9",
"7 	c #FAD0BD",
"8 	c #FAD2C1",
"9 	c #F9C6AF",
"0 	c #F6B396",
"a 	c #DE8E6E",
"b 	c #593A2D",
"c 	c #464542",
"d 	c #4A4945",
"e 	c #2A2927",
"f 	c #282825",
"g 	c #272624",
"h 	c #543224",
"i 	c #EC7D50",
"j 	c #F39973",
"k 	c #F8AF8E",
"l 	c #FAC0A6",
"m 	c #FCCBB4",
"n 	c #FCCDB6",
"o 	c #FBC4A9",
"p 	c #F9B394",
"q 	c #F59F79",
"r 	c #EE8459",
"s 	c #553324",
"t 	c #232321",
"u 	c #302F2D",
"v 	c #474642",
"w 	c #2F2E2C",
"x 	c #2D2C2A",
"y 	c #322B26",
"z 	c #D05C2E",
"A 	c #F17D4B",
"B 	c #F7996E",
"C 	c #FBBA9B",
"D 	c #FDC1A4",
"E 	c #FDC1A3",
"F 	c #FDC3A5",
"G 	c #FDC3A7",
"H 	c #FBBD9F",
"I 	c #F89E74",
"J 	c #F38251",
"K 	c #D36233",
"L 	c #302A26",
"M 	c #2E2D2A",
"N 	c #3F3E3A",
"O 	c #363533",
"P 	c #353432",
"Q 	c #343331",
"R 	c #844429",
"S 	c #ED6930",
"T 	c #F47942",
"U 	c #EEA886",
"V 	c #AF9486",
"W 	c #D0B3A5",
"X 	c #FCC1A1",
"Y 	c #FCC2A2",
"Z 	c #CFB3A5",
"` 	c #AE9386",
" .	c #EFAA87",
"..	c #F67E48",
"+.	c #EF6D35",
"@.	c #85452B",
"#.	c #3B3B37",
"$.	c #3C3B39",
"%.	c #3A3A37",
"&.	c #393836",
"*.	c #B2532B",
"=.	c #F06E34",
"-.	c #F77B41",
";.	c #F29F74",
">.	c #A78574",
",.	c #826454",
"'.	c #C9AA98",
").	c #C9AA99",
"!.	c #816454",
"~.	c #F3A075",
"{.	c #F87E43",
"].	c #F17036",
"^.	c #B2542D",
"/.	c #393936",
"(.	c #3D3B3A",
"_.	c #42413F",
":.	c #40403D",
"<.	c #3D3D3B",
"[.	c #D9602E",
"}.	c #F27137",
"|.	c #F97E43",
"1.	c #FB864B",
"2.	c #F2A379",
"3.	c #A17F6C",
"4.	c #6E4E3B",
"5.	c #6D4D3A",
"6.	c #F2A479",
"7.	c #F97F43",
"8.	c #F27238",
"9.	c #DA612E",
"0.	c #393937",
"a.	c #41403E",
"b.	c #484745",
"c.	c #464643",
"d.	c #434340",
"e.	c #FB864A",
"f.	c #FA9D69",
"g.	c #B9937E",
"h.	c #674633",
"i.	c #B9937F",
"j.	c #FA9B68",
"k.	c #3F3F3C",
"l.	c #444441",
"m.	c #464543",
"n.	c #4E4D4B",
"o.	c #4D4D4A",
"p.	c #4B4B48",
"q.	c #B75932",
"r.	c #F87C41",
"s.	c #FA9563",
"t.	c #BD947E",
"u.	c #704F3C",
"v.	c #A38574",
"w.	c #A48675",
"x.	c #71503E",
"y.	c #BC947E",
"z.	c #F99562",
"A.	c #F77A3F",
"B.	c #B75830",
"C.	c #444442",
"D.	c #484644",
"E.	c #545451",
"F.	c #535351",
"G.	c #535250",
"H.	c #94543A",
"I.	c #EF6C33",
"J.	c #F5783F",
"K.	c #E5A07D",
"L.	c #8A6D5E",
"M.	c #A88A7B",
"N.	c #F2B594",
"O.	c #A98C7C",
"P.	c #8D7062",
"Q.	c #E59E7D",
"R.	c #F3753B",
"S.	c #ED682F",
"T.	c #935338",
"U.	c #4B4A48",
"V.	c #535350",
"W.	c #474743",
"X.	c #5A5A57",
"Y.	c #595856",
"Z.	c #595250",
"`.	c #D86432",
" +	c #F1743D",
".+	c #F89060",
"++	c #E9AC8E",
"@+	c #F3B18F",
"#+	c #FCA477",
"$+	c #FCA478",
"%+	c #F3B291",
"&+	c #E9AC90",
"*+	c #F69060",
"=+	c #F07039",
"-+	c #D55F2F",
";+	c #57504B",
">+	c #535251",
",+	c #42413D",
"'+	c #60605D",
")+	c #60605C",
"!+	c #5F5F5C",
"~+	c #785749",
"{+	c #EC6F3B",
"]+	c #F28454",
"^+	c #F69365",
"/+	c #F89C71",
"(+	c #F9A177",
"_+	c #F89B71",
":+	c #F59265",
"<+	c #F18253",
"[+	c #EA6B37",
"}+	c #795748",
"|+	c #565654",
"1+	c #51514F",
"2+	c #3C3B37",
"3+	c #666663",
"4+	c #656562",
"5+	c #62625F",
"6+	c #7E5E4F",
"7+	c #DD7950",
"8+	c #F18C60",
"9+	c #F3946B",
"0+	c #F59A72",
"a+	c #F49971",
"b+	c #F3936A",
"c+	c #F0885E",
"d+	c #DB754B",
"e+	c #7E5D4E",
"f+	c #5B5B58",
"g+	c #626260",
"h+	c #61615F",
"i+	c #3E3D39",
"j+	c #6C6C69",
"k+	c #6B6B68",
"l+	c #696966",
"m+	c #6A645E",
"n+	c #A97058",
"o+	c #CA7D5D",
"p+	c #E48A64",
"q+	c #E48863",
"r+	c #C97B5B",
"s+	c #A96E56",
"t+	c #67605B",
"u+	c #636360",
"v+	c #696967",
"w+	c #676764",
"x+	c #72726F",
"y+	c #6E6E6B",
"z+	c #5F5F5B",
"A+	c #787875",
"B+	c #767673",
"C+	c #494844",
"D+	c #151412",
"E+	c #151413",
"F+	c #161515",
"G+	c #161615",
"H+	c #191818",
"I+	c #21201F",
"J+	c #2F2E29",
"K+	c #242320",
"L+	c #242220",
"M+	c #252321",
"N+	c #1F1F1C",
"O+	c #242322",
"P+	c #262321",
"Q+	c #3B302A",
"R+	c #463932",
"S+	c #4C413B",
"T+	c #4D423C",
"U+	c #463A34",
"V+	c #3C312B",
"W+	c #1F1E1C",
"X+	c #2F2722",
"Y+	c #49372E",
"Z+	c #4E3E36",
"`+	c #4F433C",
" @	c #4F4640",
".@	c #4F4641",
"+@	c #4F443D",
"@@	c #4E4038",
"#@	c #493830",
"$@	c #2F2823",
"%@	c #2A2926",
"&@	c #332B26",
"*@	c #513A2F",
"=@	c #534036",
"-@	c #54443B",
";@	c #544740",
">@	c #544A43",
",@	c #544841",
"'@	c #54453D",
")@	c #534137",
"!@	c #523B31",
"~@	c #292826",
"{@	c #2F2F2C",
"]@	c #302F2C",
"^@	c #50382D",
"/@	c #563F33",
"(@	c #57453A",
"_@	c #584B43",
":@	c #594D45",
"<@	c #584C44",
"[@	c #58463B",
"}@	c #574034",
"|@	c #503A2E",
"1@	c #302E2C",
"2@	c #2E2E2C",
"3@	c #2E2D2B",
"4@	c #353433",
"5@	c #453831",
"6@	c #5A3F33",
"7@	c #5C4236",
"8@	c #5B4C44",
"9@	c #4E4844",
"0@	c #554E4A",
"a@	c #5D5149",
"b@	c #544E4A",
"c@	c #4E4744",
"d@	c #5C4337",
"e@	c #5B4034",
"f@	c #463832",
"g@	c #343332",
"h@	c #3B3A39",
"i@	c #544037",
"j@	c #604538",
"k@	c #61483B",
"l@	c #604F45",
"m@	c #514A45",
"n@	c #4A433F",
"o@	c #58514C",
"p@	c #58514D",
"q@	c #614F45",
"r@	c #62483B",
"s@	c #604539",
"t@	c #3A3938",
"u@	c #3C3B38",
"v@	c #41413F",
"w@	c #60473B",
"x@	c #654B3D",
"y@	c #674D3F",
"z@	c #674F41",
"A@	c #65554A",
"B@	c #554D48",
"C@	c #4B443E",
"D@	c #4B433E",
"E@	c #61473B",
"F@	c #403F3D",
"G@	c #41403F",
"H@	c #474645",
"I@	c #474644",
"J@	c #664C40",
"K@	c #6A5042",
"L@	c #6C5244",
"M@	c #6C5446",
"N@	c #6C584C",
"O@	c #5F5650",
"P@	c #4F4741",
"Q@	c #654C40",
"R@	c #474643",
"S@	c #4D4C4B",
"T@	c #635046",
"U@	c #6E5447",
"V@	c #705749",
"W@	c #705C50",
"X@	c #645C55",
"Y@	c #544E48",
"Z@	c #5F5953",
"`@	c #554E48",
" #	c #6F5649",
".#	c #6E5446",
"+#	c #4C4C49",
"@#	c #545351",
"##	c #61544D",
"$#	c #73594B",
"%#	c #745B4E",
"&#	c #71635A",
"*#	c #5F5954",
"=#	c #655F5A",
"-#	c #73675F",
";#	c #5F5955",
">#	c #745A4D",
",#	c #72584A",
"'#	c #60544C",
")#	c #52524F",
"!#	c #5A5856",
"~#	c #735C50",
"{#	c #785F52",
"]#	c #7A6559",
"^#	c #776A62",
"/#	c #796B63",
"(#	c #7A695E",
"_#	c #796C63",
":#	c #776A63",
"<#	c #796559",
"[#	c #785E51",
"}#	c #735B4F",
"|#	c #595855",
"1#	c #655E59",
"2#	c #7C6356",
"3#	c #7D675B",
"4#	c #7E6A5E",
"5#	c #7F6C61",
"6#	c #7F6D62",
"7#	c #7C6255",
"8#	c #655E58",
"9#	c #5E5E5B",
"0#	c #666662",
"a#	c #6B655F",
"b#	c #7E6A5F",
"c#	c #826E62",
"d#	c #837064",
"e#	c #837166",
"f#	c #836F64",
"g#	c #826D62",
"h#	c #7E695E",
"i#	c #646461",
"j#	c #656563",
"k#	c #6C6C68",
"l#	c #6B6A67",
"m#	c #786C66",
"n#	c #7E6F67",
"o#	c #847268",
"p#	c #847168",
"q#	c #7E6F66",
"r#	c #786C65",
"s#	c #6B6966",
"t#	c #6A6A67",
"u#	c #676763",
"v#	c #71716E",
"w#	c #70706E",
"x#	c #70706D",
"y#	c #5E5D59",
"z#	c #71716F",
"A#	c #666664",
"B#	c #595956",
". . . . . . + @ # $ $ % & * = - - - - - ",
"; ; ; ; ; ; ; > , ' ) ' , > ! ~ { ] ] ] ",
"; ; ; ; ; > ^ / ( _ : < [ } ' | # 1 2 2 ",
"; ; ; ; > 3 4 5 6 7 8 9 0 a b ) $ # c d ",
"e e f g h i j k l m n o p q r s t g u v ",
"u w x y z A B C D E F G H I J K L e M N ",
"O P Q R S T U V W X Y Z `  ...+.@.w P #.",
"$.%.&.*.=.-.;.>.,.'.).!.>.~.{.].^.Q /.(.",
"_.:.<.[.}.|.1.2.3.4.5.3.6.1.7.8.9.0.<.a.",
"b.c.d.9.8.7.e.f.g.h.h.i.j.e.|.}.[.k.l.m.",
"n.o.p.q.].r.s.t.u.v.w.x.y.z.A.=.B.C.p.D.",
"E.F.G.H.I.J.K.L.M.N.N.O.P.Q.R.S.T.U.V.W.",
"X.X.Y.Z.`. +.+++@+#+$+%+&+*+=+-+;+>+X.,+",
"'+'+)+!+~+{+]+^+/+(+(+_+:+<+[+}+|+)+1+2+",
"3+3+3+4+5+6+7+8+9+0+a+b+c+d+e+f+g+h+i+2+",
"j+j+j+j+k+l+m+n+o+p+q+r+s+t+u+v+w+v 2+2+",
"x+x+x+x+x+x+x+y+k+l+w+l+k+y+x+z+N 2+2+2+",
"A+A+A+A+A+A+A+A+A+A+A+B+y+!+C+2+2+2+2+2+",
"2+2+2+2+2+2+2+2+2+2+2+2+2+2+2+2+2+2+2+2+",
"2+2+2+2+2+2+2+2+2+2+2+2+2+2+2+2+2+2+2+2+",
"2+2+2+2+2+2+2+2+2+2+2+2+2+2+2+2+2+2+2+2+",
"2+2+2+2+2+2+2+2+2+2+2+2+2+2+2+2+2+2+2+2+",
". . . . . . D+E+F+G+G+H+I+J+= - - - - - ",
"; ; ; ; ; ; ; K+K+L+> M+, N+, ~ { ] ] ] ",
"; ; ; O+; K+P+Q+R+S+T+U+V+P+L+$ W+1 2 2 ",
"; ; ; ; K+X+Y+Z+`+ @.@+@@@#@$@> $ # c d ",
"e e %@%@&@*@=@-@;@>@>@,@'@)@!@&@~@g u v ",
"u u {@]@^@/@(@_@:@:@:@:@<@[@}@|@1@2@3@N ",
"O O 4@5@6@7@8@9@0@a@a@b@c@8@d@e@f@g@O #.",
"$.$.h@i@j@k@l@m@n@o@p@n@m@q@r@s@i@t@u@(.",
"_.v@a.w@x@y@z@A@B@C@D@B@A@z@y@x@E@F@G@a.",
"b.H@I@J@K@L@M@N@O@P@P@O@N@M@L@K@Q@R@H@m.",
"n.S@o.T@U@V@W@X@Y@Z@Z@`@X@W@ #.#T@+#S@D.",
"E.E.@###$#%#&#*#=#-#-#=#;#&#>#,#'#)#E.W.",
"X.X.X.!#~#{#]#^#/#(#(#_#:#<#[#}#|#Y.X.,+",
"'+'+'+)+1#2#3#4#5#6#6#5#4#3#7#8#9#'+1+2+",
"4+3+3+3+0#a#b#c#d#e#e#f#g#h#a#i#j#h+i+2+",
"j+j+j+k#k#k+l#m#n#o#p#q#r#s#t#k+u#v 2+2+",
"x+x+x+x+x+x+x+v#w#x#x#x#w#v#x+y#N 2+2+2+",
"A+A+A+A+A+A+A+A+A+A+A+z#A#B#C+2+2+2+2+2+",
"2+2+2+2+2+2+2+2+2+2+2+2+2+2+2+2+2+2+2+2+",
"2+2+2+2+2+2+2+2+2+2+2+2+2+2+2+2+2+2+2+2+",
"2+2+2+2+2+2+2+2+2+2+2+2+2+2+2+2+2+2+2+2+",
"2+2+2+2+2+2+2+2+2+2+2+2+2+2+2+2+2+2+2+2+"};
