/* XPM */
static char * frameATL_xpm[] = {
"5 27 14 1",
" 	c None",
".	c #696051",
"+	c #575651",
"@	c #54534F",
"#	c #52514C",
"$	c #504E4A",
"%	c #4D4C47",
"&	c #4B4A45",
"*	c #484743",
"=	c #464540",
"-	c #43423E",
";	c #41403C",
">	c #3E3D39",
",	c #3C3B37",
"     ",
"   ..",
"  .++",
" .@@@",
" .###",
".$$$$",
".%%%%",
".&&&&",
".****",
".====",
".----",
".;;;;",
".>>>>",
".,,,,",
".,,,,",
".,,,,",
".,,,,",
".,,,,",
".,,,,",
".,,,,",
".,,,,",
".,,,,",
".,,,,",
".,,,,",
".,,,,",
".,,,,",
".,,,,"};
