/* XPM */
static char * maximizeI_xpm[] = {
"20 44 175 2",
"  	c None",
". 	c #141312",
"+ 	c #181715",
"@ 	c #1C1B19",
"# 	c #1F1E1D",
"$ 	c #222120",
"% 	c #242321",
"& 	c #232220",
"* 	c #201F1D",
"= 	c #1E1D1B",
"- 	c #1C1C1A",
"; 	c #201F1E",
"> 	c #1D1C1B",
", 	c #2F2E2C",
"' 	c #383835",
") 	c #40403E",
"! 	c #262523",
"~ 	c #3E3E3C",
"{ 	c #454542",
"] 	c #2A2927",
"^ 	c #282825",
"/ 	c #272726",
"( 	c #454543",
"_ 	c #464643",
": 	c #302F2D",
"< 	c #2B2A28",
"[ 	c #242322",
"} 	c #424240",
"| 	c #484845",
"1 	c #363533",
"2 	c #353432",
"3 	c #2E2D2B",
"4 	c #383735",
"5 	c #4B4B48",
"6 	c #5B5B59",
"7 	c #5B5B5A",
"8 	c #3C3B39",
"9 	c #3A3A37",
"0 	c #302F2E",
"a 	c #434241",
"b 	c #4D4D4A",
"c 	c #4C4C49",
"d 	c #656564",
"e 	c #8C8C8B",
"f 	c #42413F",
"g 	c #40403D",
"h 	c #323230",
"i 	c #504F4C",
"j 	c #71706F",
"k 	c #8A8989",
"l 	c #575755",
"m 	c #4E4E4B",
"n 	c #484745",
"o 	c #373735",
"p 	c #4E4E4C",
"q 	c #52524F",
"r 	c #50504E",
"s 	c #767676",
"t 	c #838383",
"u 	c #535351",
"v 	c #767675",
"w 	c #4E4D4B",
"x 	c #3F3F3D",
"y 	c #4C4C4A",
"z 	c #4F4F4D",
"A 	c #646462",
"B 	c #646463",
"C 	c #545451",
"D 	c #535350",
"E 	c #494847",
"F 	c #494948",
"G 	c #555452",
"H 	c #535250",
"I 	c #51504E",
"J 	c #504F4D",
"K 	c #4F4E4C",
"L 	c #5A5A57",
"M 	c #565553",
"N 	c #464544",
"O 	c #52514E",
"P 	c #50504C",
"Q 	c #4F4E4B",
"R 	c #4E4E4A",
"S 	c #60605D",
"T 	c #60605C",
"U 	c #555552",
"V 	c #52524E",
"W 	c #4E4D4A",
"X 	c #666663",
"Y 	c #656562",
"Z 	c #4F4F4C",
"` 	c #53524F",
" .	c #51514D",
"..	c #504F4B",
"+.	c #6C6C69",
"@.	c #6B6B68",
"#.	c #50504D",
"$.	c #4E4D49",
"%.	c #72726F",
"&.	c #6E6E6B",
"*.	c #5F5F5C",
"=.	c #787875",
"-.	c #777775",
";.	c #3C3B37",
">.	c #151412",
",.	c #151413",
"'.	c #161515",
").	c #161615",
"!.	c #252321",
"~.	c #252421",
"{.	c #272624",
"].	c #393835",
"^.	c #43423F",
"/.	c #4B4A48",
"(.	c #252422",
"_.	c #302F2C",
":.	c #4A4946",
"<.	c #504E4C",
"[.	c #2A2926",
"}.	c #2B2A27",
"|.	c #545350",
"1.	c #545351",
"2.	c #2F2F2D",
"3.	c #333330",
"4.	c #585855",
"5.	c #363534",
"6.	c #494746",
"7.	c #5D5B5A",
"8.	c #5B5A58",
"9.	c #504E4D",
"0.	c #3D3C3A",
"a.	c #575553",
"b.	c #62605E",
"c.	c #5F5E5C",
"d.	c #52514F",
"e.	c #4A4948",
"f.	c #41413F",
"g.	c #434240",
"h.	c #63615F",
"i.	c #676562",
"j.	c #63615E",
"k.	c #5C5A58",
"l.	c #474645",
"m.	c #494845",
"n.	c #676662",
"o.	c #6B6966",
"p.	c #686663",
"q.	c #585754",
"r.	c #62615E",
"s.	c #585654",
"t.	c #4D4C4B",
"u.	c #646360",
"v.	c #6E6D69",
"w.	c #6A6A66",
"x.	c #686864",
"y.	c #72716D",
"z.	c #73726E",
"A.	c #777671",
"B.	c #656561",
"C.	c #7B7A74",
"D.	c #646461",
"E.	c #6A6A65",
"F.	c #7C7B75",
"G.	c #807E78",
"H.	c #636360",
"I.	c #6C6C68",
"J.	c #696967",
"K.	c #686866",
"L.	c #74736F",
"M.	c #7A7975",
"N.	c #807F7A",
"O.	c #71716E",
"P.	c #6F6F6C",
"Q.	c #6D6D6B",
"R.	c #6C6C6A",
". . . . . . + @ # $ $ # @ + . . . . . . ",
"% % % % % % & * = - - = * & % % % % % % ",
"% % % % % ; > , ' ) ) ' , > ; % % % % % ",
"% % % % = ! ~ { { { { { { ~ ! = % % % % ",
"] ] ^ & / ( _ _ _ _ _ _ _ _ ( / & ^ ] ] ",
": , < [ } | | | | | | | | | | } [ < , : ",
"1 2 3 4 5 5 5 5 5 6 7 5 5 5 5 5 4 3 2 1 ",
"8 9 0 a b b b c d e e d c b b b a 0 9 8 ",
"f g h c i i b j k l l k j m i i c h g f ",
"n _ o p q r s t u b b u t v r q p o _ n ",
"w b x y u z A z m m m m z B z u y x b w ",
"C D E F G H I J K w w K J I H G F E D C ",
"L L M N H D O P Q R R Q P O D H N M L L ",
"S S T U c D V P Q W W Q P V D c U T S S ",
"X X X Y C Z `  ...R R .. .` Z C Y X X X ",
"+.+.+.+.@.S u q #.$.$.#.q u S @.+.+.+.+.",
"%.%.%.%.%.%.&.A *.L L *.A &.%.%.%.%.%.%.",
"=.=.=.=.=.=.=.-.=.=.=.=.-.=.=.=.=.=.=.=.",
";.;.;.;.;.;.;.;.;.;.;.;.;.;.;.;.;.;.;.;.",
";.;.;.;.;.;.;.;.;.;.;.;.;.;.;.;.;.;.;.;.",
";.;.;.;.;.;.;.;.;.;.;.;.;.;.;.;.;.;.;.;.",
";.;.;.;.;.;.;.;.;.;.;.;.;.;.;.;.;.;.;.;.",
". . . . . . >.,.'.).).'.,.>.. . . . . . ",
"% % % % % % % !.!.~.~.!.!.% % % % % % % ",
"% % % [ % ~.{.].^././.^.].{.~.% [ % % % ",
"% % % % (._.:.<.<.<.<.<.<.:._.(.% % % % ",
"] ] [.}.2 |.1.1.1.1.1.1.1.1.|.2 }.[.] ] ",
": : 2.3.D 4.4.4.4.4.4.4.4.4.4.D 3.2.: : ",
"1 1 5.6.7.7.7.7.8.J 9.8.7.7.7.7.6.5.1 1 ",
"8 8 0.a.b.b.b.c.d.e.e.d.c.b.b.b.a.0.8 8 ",
"f f.g.h.i.i.j.1.K k.k.K 1.j.i.i.h.g.f.f ",
"n l.m.n.o.p.q.G r.o.o.r.G s.p.o.n.m.l.n ",
"w t.m u.v.w.S x.v.v.v.v.x.S w.v.u.m t.w ",
"C C u r.y.y.y.y.y.y.y.y.y.y.y.y.r.u C C ",
"L L L L z.A.A.A.A.A.A.A.A.A.A.z.L L L L ",
"S S S *.B.C.C.C.C.C.C.C.C.C.C.B.*.S S S ",
"X X X X D.E.F.G.G.G.G.G.G.F.E.H.X X X X ",
"+.+.+.I.I.J.K.L.M.N.N.M.L.K.J.@.+.+.+.+.",
"%.%.%.%.%.%.O.P.Q.R.R.Q.P.O.%.%.%.%.%.%.",
"=.=.=.=.=.=.=.=.=.=.=.=.=.=.=.=.=.=.=.=.",
";.;.;.;.;.;.;.;.;.;.;.;.;.;.;.;.;.;.;.;.",
";.;.;.;.;.;.;.;.;.;.;.;.;.;.;.;.;.;.;.;.",
";.;.;.;.;.;.;.;.;.;.;.;.;.;.;.;.;.;.;.;.",
";.;.;.;.;.;.;.;.;.;.;.;.;.;.;.;.;.;.;.;."};
