/* XPM */
static char * maximizeO_xpm[] = {
"20 44 189 2",
"  	c None",
". 	c #141312",
"+ 	c #171614",
"@ 	c #191917",
"# 	c #1B1B19",
"$ 	c #1E1D1C",
"% 	c #242321",
"& 	c #242421",
"* 	c #252422",
"= 	c #262522",
"- 	c #262623",
"; 	c #242322",
"> 	c #2F2E2C",
", 	c #6D6C6A",
"' 	c #8E8E8B",
") 	c #ADACAA",
"! 	c #282826",
"~ 	c #4D4C4A",
"{ 	c #A8A7A5",
"] 	c #BCBBB8",
"^ 	c #2A2927",
"/ 	c #292826",
"( 	c #2C2A29",
"_ 	c #51504E",
": 	c #BCB9B8",
"< 	c #BDBBB9",
"[ 	c #302F2D",
"} 	c #302F2C",
"| 	c #2F2E2D",
"1 	c #3B3A39",
"2 	c #ABAAA8",
"3 	c #BDBCBA",
"4 	c #363533",
"5 	c #353433",
"6 	c #383735",
"7 	c #787774",
"8 	c #BFBCB9",
"9 	c #B9B7B4",
"0 	c #91908E",
"a 	c #908F8D",
"b 	c #3C3B39",
"c 	c #3B3B39",
"d 	c #3F3E3C",
"e 	c #999794",
"f 	c #C0BEBA",
"g 	c #B7B5B2",
"h 	c #888785",
"i 	c #6C6B6A",
"j 	c #42413F",
"k 	c #403F3E",
"l 	c #464542",
"m 	c #B5B2AF",
"n 	c #C1BEBB",
"o 	c #B4B2AE",
"p 	c #81807E",
"q 	c #70706F",
"r 	c #9B9A97",
"s 	c #484745",
"t 	c #474744",
"u 	c #4A4947",
"v 	c #B4B1AC",
"w 	c #C0BDB8",
"x 	c #B7B3AF",
"y 	c #7D7C7B",
"z 	c #767473",
"A 	c #A29F9C",
"B 	c #C0BCB8",
"C 	c #7D7C7A",
"D 	c #4E4D4B",
"E 	c #4D4D4A",
"F 	c #9D9A95",
"G 	c #C0BCB5",
"H 	c #B3B0AA",
"I 	c #8F8C89",
"J 	c #ABA8A3",
"K 	c #545451",
"L 	c #525250",
"M 	c #84827D",
"N 	c #BEBBB3",
"O 	c #5A5A57",
"P 	c #595856",
"Q 	c #595957",
"R 	c #B0ADA5",
"S 	c #BEBAB1",
"T 	c #60605D",
"U 	c #5D5D59",
"V 	c #706F6B",
"W 	c #BEB9AF",
"X 	c #BEB9B0",
"Y 	c #666663",
"Z 	c #646461",
"` 	c #5E5E5B",
" .	c #73716C",
"..	c #B1ADA3",
"+.	c #BEB9AE",
"@.	c #6C6C69",
"#.	c #6B6B68",
"$.	c #656562",
"%.	c #61615D",
"&.	c #898680",
"*.	c #9F9C92",
"=.	c #B4AFA4",
"-.	c #72726F",
";.	c #737370",
">.	c #73736F",
",.	c #6E6E6C",
"'.	c #676765",
").	c #626261",
"!.	c #5F5F5D",
"~.	c #787875",
"{.	c #797975",
"].	c #777775",
"^.	c #3C3B37",
"/.	c #151412",
"(.	c #151413",
"_.	c #161515",
":.	c #161615",
"<.	c #252321",
"[.	c #252421",
"}.	c #272624",
"|.	c #393835",
"1.	c #43423F",
"2.	c #4B4A48",
"3.	c #4A4946",
"4.	c #504E4C",
"5.	c #2A2926",
"6.	c #2B2A27",
"7.	c #353432",
"8.	c #545350",
"9.	c #545351",
"0.	c #2F2F2D",
"a.	c #333330",
"b.	c #535350",
"c.	c #585855",
"d.	c #363534",
"e.	c #494746",
"f.	c #5D5B5A",
"g.	c #5B5A58",
"h.	c #504F4D",
"i.	c #504E4D",
"j.	c #3D3C3A",
"k.	c #575553",
"l.	c #62605E",
"m.	c #5F5E5C",
"n.	c #52514F",
"o.	c #4A4948",
"p.	c #41413F",
"q.	c #434240",
"r.	c #63615F",
"s.	c #676562",
"t.	c #63615E",
"u.	c #4F4E4C",
"v.	c #5C5A58",
"w.	c #474645",
"x.	c #494845",
"y.	c #676662",
"z.	c #6B6966",
"A.	c #686663",
"B.	c #585754",
"C.	c #555452",
"D.	c #62615E",
"E.	c #585654",
"F.	c #4D4C4B",
"G.	c #4E4E4B",
"H.	c #646360",
"I.	c #6E6D69",
"J.	c #6A6A66",
"K.	c #686864",
"L.	c #535351",
"M.	c #72716D",
"N.	c #73726E",
"O.	c #777671",
"P.	c #5F5F5C",
"Q.	c #656561",
"R.	c #7B7A74",
"S.	c #6A6A65",
"T.	c #7C7B75",
"U.	c #807E78",
"V.	c #636360",
"W.	c #6C6C68",
"X.	c #696967",
"Y.	c #686866",
"Z.	c #74736F",
"`.	c #7A7975",
" +	c #807F7A",
".+	c #71716E",
"++	c #6F6F6C",
"@+	c #6D6D6B",
"#+	c #6C6C6A",
". . . . . . + @ # $ $ # @ + . . . . . . ",
"% % % % % & * = = - - = = * & % % % % % ",
"% % % ; % - > , ' ) ) ' , > - % ; % % % ",
"% % % % ! ~ { ] ] ] ] ] ] { ~ ! % % % % ",
"^ ^ / ( _ : < < < < < < < < : _ ( / ^ ^ ",
"[ } | 1 2 3 3 3 3 3 3 3 3 3 3 2 1 | } [ ",
"4 5 6 7 8 8 8 8 9 0 a 9 8 8 8 8 7 6 5 4 ",
"b c d e f f f g h i i h g f f f e d c b ",
"j k l m n n o p q r r q p o n n m l k j ",
"s t u v w x y z A B B A z C x w v u t s ",
"D E D F G H I J G G G G J I H G F D E D ",
"K K L M N N N N N N N N N N N N M L K K ",
"O O P Q R S S S S S S S S S S R Q P O O ",
"T T T U V W X X X X X X X X W V U T T T ",
"Y Y Y Z `  ...+.+.+.+.+.+... .` Z Y Y Y ",
"@.@.@.@.#.$.%.&.*.=.=.*.&.%.$.#.@.@.#.@.",
"-.-.-.-.;.>.,.'.).!.!.).'.,.>.;.-.-.-.-.",
"~.~.~.~.~.~.{.].~.~.~.~.].{.~.~.~.~.~.~.",
"^.^.^.^.^.^.^.^.^.^.^.^.^.^.^.^.^.^.^.^.",
"^.^.^.^.^.^.^.^.^.^.^.^.^.^.^.^.^.^.^.^.",
"^.^.^.^.^.^.^.^.^.^.^.^.^.^.^.^.^.^.^.^.",
"^.^.^.^.^.^.^.^.^.^.^.^.^.^.^.^.^.^.^.^.",
". . . . . . /.(._.:.:._.(./.. . . . . . ",
"% % % % % % % <.<.[.[.<.<.% % % % % % % ",
"% % % ; % [.}.|.1.2.2.1.|.}.[.% ; % % % ",
"% % % % * } 3.4.4.4.4.4.4.3.} * % % % % ",
"^ ^ 5.6.7.8.9.9.9.9.9.9.9.9.8.7.6.5.^ ^ ",
"[ [ 0.a.b.c.c.c.c.c.c.c.c.c.c.b.a.0.[ [ ",
"4 4 d.e.f.f.f.f.g.h.i.g.f.f.f.f.e.d.4 4 ",
"b b j.k.l.l.l.m.n.o.o.n.m.l.l.l.k.j.b b ",
"j p.q.r.s.s.t.9.u.v.v.u.9.t.s.s.r.q.p.j ",
"s w.x.y.z.A.B.C.D.z.z.D.C.E.A.z.y.x.w.s ",
"D F.G.H.I.J.T K.I.I.I.I.K.T J.I.H.G.F.D ",
"K K L.D.M.M.M.M.M.M.M.M.M.M.M.M.D.L.K K ",
"O O O O N.O.O.O.O.O.O.O.O.O.O.N.O O O O ",
"T T T P.Q.R.R.R.R.R.R.R.R.R.R.Q.P.T T T ",
"Y Y Y Y Z S.T.U.U.U.U.U.U.T.S.V.Y Y Y Y ",
"@.@.@.W.W.X.Y.Z.`. + +`.Z.Y.X.#.@.@.@.@.",
"-.-.-.-.-.-..+++@+#+#+@+++.+-.-.-.-.-.-.",
"~.~.~.~.~.~.~.~.~.~.~.~.~.~.~.~.~.~.~.~.",
"^.^.^.^.^.^.^.^.^.^.^.^.^.^.^.^.^.^.^.^.",
"^.^.^.^.^.^.^.^.^.^.^.^.^.^.^.^.^.^.^.^.",
"^.^.^.^.^.^.^.^.^.^.^.^.^.^.^.^.^.^.^.^.",
"^.^.^.^.^.^.^.^.^.^.^.^.^.^.^.^.^.^.^.^."};
