/* XPM */
static char * maximizeA_xpm[] = {
"20 44 183 2",
"  	c None",
". 	c #141312",
"+ 	c #181715",
"@ 	c #1C1B19",
"# 	c #1F1E1D",
"$ 	c #222120",
"% 	c #242321",
"& 	c #252422",
"* 	c #262523",
"= 	c #272624",
"- 	c #333231",
"; 	c #8D8B89",
"> 	c #BCBCB9",
", 	c #E8E7E5",
"' 	c #2A2928",
") 	c #5F5D5C",
"! 	c #E1E0DE",
"~ 	c #FDFCF9",
"{ 	c #2A2927",
"] 	c #282825",
"^ 	c #2C2B29",
"/ 	c #61615E",
"( 	c #FAF8F6",
"_ 	c #FCFAF8",
": 	c #302F2D",
"< 	c #2F2E2C",
"[ 	c #403F3D",
"} 	c #E1DFDC",
"| 	c #FBF9F6",
"1 	c #363533",
"2 	c #353432",
"3 	c #393836",
"4 	c #959391",
"5 	c #FAF7F4",
"6 	c #F2EFED",
"7 	c #B9B8B6",
"8 	c #B8B6B5",
"9 	c #3C3B39",
"0 	c #3A3A37",
"a 	c #403F3E",
"b 	c #C1BEBB",
"c 	c #F9F6F2",
"d 	c #EDEAE6",
"e 	c #A9A8A6",
"f 	c #818080",
"g 	c #42413F",
"h 	c #40403D",
"i 	c #474644",
"j 	c #E6E2DF",
"k 	c #F8F4F0",
"l 	c #E5E2DE",
"m 	c #9C9B9A",
"n 	c #848484",
"o 	c #C2C0BD",
"p 	c #484745",
"q 	c #464643",
"r 	c #4B4B48",
"s 	c #E3E0D9",
"t 	c #F4F0EA",
"u 	c #E6E3DD",
"v 	c #949492",
"w 	c #898887",
"x 	c #C9C6C2",
"y 	c #F3EFE9",
"z 	c #949391",
"A 	c #4E4D4B",
"B 	c #4D4D4A",
"C 	c #4E4E4B",
"D 	c #BEBBB5",
"E 	c #F0ECE3",
"F 	c #DEDBD3",
"G 	c #AAA8A4",
"H 	c #D3D0C9",
"I 	c #545451",
"J 	c #535351",
"K 	c #525150",
"L 	c #9A9691",
"M 	c #EDE8DE",
"N 	c #5A5A57",
"O 	c #595856",
"P 	c #595957",
"Q 	c #D6D1C7",
"R 	c #EAE4D9",
"S 	c #60605D",
"T 	c #60605C",
"U 	c #5B5B58",
"V 	c #777671",
"W 	c #E6DFD3",
"X 	c #E7E0D4",
"Y 	c #666663",
"Z 	c #646461",
"` 	c #5A5A58",
" .	c #787670",
"..	c #D1CBBE",
"+.	c #E4DDCF",
"@.	c #6C6C69",
"#.	c #6A6A67",
"$.	c #61615F",
"%.	c #5C5B58",
"&.	c #959189",
"*.	c #B5B0A4",
"=.	c #D3CCBD",
"-.	c #72726F",
";.	c #6D6D6A",
">.	c #636360",
",.	c #5C5C5A",
"'.	c #575755",
").	c #787875",
"!.	c #777775",
"~.	c #3C3B37",
"{.	c #151412",
"].	c #151413",
"^.	c #161515",
"/.	c #161615",
"(.	c #252321",
"_.	c #252421",
":.	c #242322",
"<.	c #393835",
"[.	c #43423F",
"}.	c #4B4A48",
"|.	c #302F2C",
"1.	c #4A4946",
"2.	c #504E4C",
"3.	c #2A2926",
"4.	c #2B2A27",
"5.	c #545350",
"6.	c #545351",
"7.	c #2F2F2D",
"8.	c #333330",
"9.	c #535350",
"0.	c #585855",
"a.	c #363534",
"b.	c #494746",
"c.	c #5D5B5A",
"d.	c #5B5A58",
"e.	c #504F4D",
"f.	c #504E4D",
"g.	c #3D3C3A",
"h.	c #575553",
"i.	c #62605E",
"j.	c #5F5E5C",
"k.	c #52514F",
"l.	c #4A4948",
"m.	c #41413F",
"n.	c #434240",
"o.	c #63615F",
"p.	c #676562",
"q.	c #63615E",
"r.	c #4F4E4C",
"s.	c #5C5A58",
"t.	c #474645",
"u.	c #494845",
"v.	c #676662",
"w.	c #6B6966",
"x.	c #686663",
"y.	c #585754",
"z.	c #555452",
"A.	c #62615E",
"B.	c #585654",
"C.	c #4D4C4B",
"D.	c #646360",
"E.	c #6E6D69",
"F.	c #6A6A66",
"G.	c #686864",
"H.	c #72716D",
"I.	c #73726E",
"J.	c #5F5F5C",
"K.	c #656561",
"L.	c #7B7A74",
"M.	c #6A6A65",
"N.	c #7C7B75",
"O.	c #807E78",
"P.	c #6C6C68",
"Q.	c #696967",
"R.	c #686866",
"S.	c #74736F",
"T.	c #7A7975",
"U.	c #807F7A",
"V.	c #6B6B68",
"W.	c #71716E",
"X.	c #6F6F6C",
"Y.	c #6D6D6B",
"Z.	c #6C6C6A",
". . . . . . + @ # $ $ # @ + . . . . . . ",
"% % % % % % & * * = = * * & % % % % % % ",
"% % % % % = - ; > , , > ; - = % % % % % ",
"% % % % ' ) ! ~ ~ ~ ~ ~ ~ ! ) ' % % % % ",
"{ { ] ^ / ( _ _ _ _ _ _ _ _ ( / ^ ] { { ",
": < < [ } | | | | | | | | | | } [ < < : ",
"1 2 3 4 5 5 5 5 6 7 8 6 5 5 5 5 4 3 2 1 ",
"9 0 a b c c c d e f f e d c c c b a 0 9 ",
"g h i j k k l m n o o n m l k k j i h g ",
"p q r s t u v w x y y x w z u t s r q p ",
"A B C D E F G H E E E E H G F E D C B A ",
"I J K L M M M M M M M M M M M M L K J I ",
"N N O P Q R R R R R R R R R R Q P O N N ",
"S S T U V W X X X X X X X X W V U T S S ",
"Y Y Y Z `  ...+.+.+.+.+.+... .` Z Y Y Y ",
"@.@.@.@.#.$.%.&.*.=.=.*.&.%.$.#.@.@.@.@.",
"-.-.-.-.-.-.;.>.,.'.'.,.>.;.-.-.-.-.-.-.",
").).).).).).).!.).).).).!.).).).).).).).",
"~.~.~.~.~.~.~.~.~.~.~.~.~.~.~.~.~.~.~.~.",
"~.~.~.~.~.~.~.~.~.~.~.~.~.~.~.~.~.~.~.~.",
"~.~.~.~.~.~.~.~.~.~.~.~.~.~.~.~.~.~.~.~.",
"~.~.~.~.~.~.~.~.~.~.~.~.~.~.~.~.~.~.~.~.",
". . . . . . {.].^././.^.].{.. . . . . . ",
"% % % % % % % (.(._._.(.(.% % % % % % % ",
"% % % :.% _.= <.[.}.}.[.<.= _.% :.% % % ",
"% % % % & |.1.2.2.2.2.2.2.1.|.& % % % % ",
"{ { 3.4.2 5.6.6.6.6.6.6.6.6.5.2 4.3.{ { ",
": : 7.8.9.0.0.0.0.0.0.0.0.0.0.9.8.7.: : ",
"1 1 a.b.c.c.c.c.d.e.f.d.c.c.c.c.b.a.1 1 ",
"9 9 g.h.i.i.i.j.k.l.l.k.j.i.i.i.h.g.9 9 ",
"g m.n.o.p.p.q.6.r.s.s.r.6.q.p.p.o.n.m.g ",
"p t.u.v.w.x.y.z.A.w.w.A.z.B.x.w.v.u.t.p ",
"A C.C D.E.F.S G.E.E.E.E.G.S F.E.D.C C.A ",
"I I J A.H.H.H.H.H.H.H.H.H.H.H.H.A.J I I ",
"N N N N I.V V V V V V V V V V I.N N N N ",
"S S S J.K.L.L.L.L.L.L.L.L.L.L.K.J.S S S ",
"Y Y Y Y Z M.N.O.O.O.O.O.O.N.M.>.Y Y Y Y ",
"@.@.@.P.P.Q.R.S.T.U.U.T.S.R.Q.V.@.@.@.@.",
"-.-.-.-.-.-.W.X.Y.Z.Z.Y.X.W.-.-.-.-.-.-.",
").).).).).).).).).).).).).).).).).).).).",
"~.~.~.~.~.~.~.~.~.~.~.~.~.~.~.~.~.~.~.~.",
"~.~.~.~.~.~.~.~.~.~.~.~.~.~.~.~.~.~.~.~.",
"~.~.~.~.~.~.~.~.~.~.~.~.~.~.~.~.~.~.~.~.",
"~.~.~.~.~.~.~.~.~.~.~.~.~.~.~.~.~.~.~.~."};
