/* XPM */
static char * menuButtonA_xpm[] = {
"22 44 97 2",
"  	c None",
". 	c #504E4A",
"+ 	c #4D4C47",
"@ 	c #4B4A45",
"# 	c #484743",
"$ 	c #454440",
"% 	c #3D3C39",
"& 	c #333230",
"* 	c #343431",
"= 	c #444340",
"- 	c #464540",
"; 	c #3F3E39",
"> 	c #2C2C28",
", 	c #2B2A27",
"' 	c #2E2E2A",
") 	c #2F2E2B",
"! 	c #2C2B28",
"~ 	c #3F3F3A",
"{ 	c #43423E",
"] 	c #3B3A37",
"^ 	c #272624",
"/ 	c #32312E",
"( 	c #40413D",
"_ 	c #41403E",
": 	c #393936",
"< 	c #33322F",
"[ 	c #292926",
"} 	c #3C3B37",
"| 	c #41403C",
"1 	c #3C3B38",
"2 	c #2D2C29",
"3 	c #31302D",
"4 	c #3A3936",
"5 	c #979692",
"6 	c #CCC7C1",
"7 	c #999692",
"8 	c #3A3A36",
"9 	c #3E3D39",
"0 	c #34332F",
"a 	c #2A2927",
"b 	c #383734",
"c 	c #9C9995",
"d 	c #C8C3BC",
"e 	c #C1BCB5",
"f 	c #9A9893",
"g 	c #373633",
"h 	c #302F2C",
"i 	c #2D2D2A",
"j 	c #CEC9C2",
"k 	c #C0BAB4",
"l 	c #C2BDB6",
"m 	c #C1BBB4",
"n 	c #CDC7C1",
"o 	c #3C3A38",
"p 	c #2E2D2A",
"q 	c #32322E",
"r 	c #3C3C38",
"s 	c #CFCAC3",
"t 	c #BFBAB3",
"u 	c #C1BCB4",
"v 	c #31312D",
"w 	c #383733",
"x 	c #353430",
"y 	c #A09D99",
"z 	c #373733",
"A 	c #343330",
"B 	c #42413D",
"C 	c #393834",
"D 	c #3A3935",
"E 	c #373632",
"F 	c #96938F",
"G 	c #CBC6C0",
"H 	c #969490",
"I 	c #403F3C",
"J 	c #4B4A47",
"K 	c #53524F",
"L 	c #464542",
"M 	c #464442",
"N 	c #3B3A36",
"O 	c #52514E",
"P 	c #4B4A46",
"Q 	c #3D3C38",
"R 	c #474642",
"S 	c #6B6A67",
"T 	c #61615D",
"U 	c #5D5D59",
"V 	c #63625F",
"W 	c #605F5C",
"X 	c #666562",
"Y 	c #484744",
"Z 	c #464541",
"` 	c #5E5D5A",
" .	c #82827F",
"..	c #979694",
"+.	c #999896",
"@.	c #81807E",
"#.	c #5D5C59",
". . . . . . . . . . . . . . . . . . . . . . ",
"+ + + + + + + + + + + + + + + + + + + + + + ",
"@ @ @ @ @ @ @ @ @ @ @ @ @ @ @ @ @ @ @ @ @ @ ",
"# # # # # # # # $ % & * % = # # # # # # # # ",
"- - - - - - - ; > , ' ) ! ) ~ - - - - - - - ",
"{ { { { { { ] ^ / ] ( _ : < [ } { { { { { { ",
"| | | | | 1 2 3 4 5 6 6 7 8 3 ! 9 | | | | | ",
"9 9 9 9 9 0 a b c d e e d f g a 0 9 9 9 9 9 ",
"} } } } } h i } j k l l m n o p ) } } } } } ",
"} } } } } q 3 r s t l l u 6 1 v q } } } } } ",
"} } } } } w x b y d e e d f z A w } } } } } ",
"} } } } } B C D E F G G H E D C I } } } } } ",
"} } } } } J K D } } L M ] } N O P } } } } } ",
"} } } } } Q R S T U V V U W X Y Q } } } } } ",
"} } } } } } } Z `  ...+.@.#.R } } } } } } } ",
"} } } } } } } } } } } } } } } } } } } } } } ",
"} } } } } } } } } } } } } } } } } } } } } } ",
"} } } } } } } } } } } } } } } } } } } } } } ",
"} } } } } } } } } } } } } } } } } } } } } } ",
"} } } } } } } } } } } } } } } } } } } } } } ",
"} } } } } } } } } } } } } } } } } } } } } } ",
"} } } } } } } } } } } } } } } } } } } } } } ",
". . . . . . . . . . . . . . . . . . . . . . ",
"+ + + + + + + + + + + + + + + + + + + + + + ",
"@ @ @ @ @ @ @ @ @ @ @ @ @ @ @ @ @ @ @ @ @ @ ",
"# # # # # # # # $ % & * % = # # # # # # # # ",
"- - - - - - - ; > , ' ) ! ) ~ - - - - - - - ",
"{ { { { { { ] ^ / ] ( _ : < [ } { { { { { { ",
"| | | | | 1 2 3 4 5 6 6 7 8 3 ! 9 | | | | | ",
"9 9 9 9 9 0 a b c d e e d f g a 0 9 9 9 9 9 ",
"} } } } } h i } j k l l m n o p ) } } } } } ",
"} } } } } q 3 r s t l l u 6 1 v q } } } } } ",
"} } } } } w x b y d e e d f z A w } } } } } ",
"} } } } } B C D E F G G H E D C I } } } } } ",
"} } } } } J K D } } L M ] } N O P } } } } } ",
"} } } } } Q R S T U V V U W X Y Q } } } } } ",
"} } } } } } } Z `  ...+.@.#.R } } } } } } } ",
"} } } } } } } } } } } } } } } } } } } } } } ",
"} } } } } } } } } } } } } } } } } } } } } } ",
"} } } } } } } } } } } } } } } } } } } } } } ",
"} } } } } } } } } } } } } } } } } } } } } } ",
"} } } } } } } } } } } } } } } } } } } } } } ",
"} } } } } } } } } } } } } } } } } } } } } } ",
"} } } } } } } } } } } } } } } } } } } } } } "};
