/* XPM */
static char * menuButtonO_xpm[] = {
"22 44 112 2",
"  	c None",
". 	c #504E4A",
"+ 	c #4D4C47",
"@ 	c #4B4A45",
"# 	c #484743",
"$ 	c #454440",
"% 	c #3D3C39",
"& 	c #333230",
"* 	c #343431",
"= 	c #444340",
"- 	c #464540",
"; 	c #3F3E39",
"> 	c #2C2C28",
", 	c #2B2A27",
"' 	c #2E2E2A",
") 	c #2F2E2B",
"! 	c #2C2B28",
"~ 	c #3F3F3A",
"{ 	c #43423E",
"] 	c #3B3A37",
"^ 	c #272624",
"/ 	c #32312E",
"( 	c #40413D",
"_ 	c #41403E",
": 	c #393936",
"< 	c #33322F",
"[ 	c #292926",
"} 	c #3C3B37",
"| 	c #41403C",
"1 	c #3C3B38",
"2 	c #2D2C29",
"3 	c #31302D",
"4 	c #3D3B39",
"5 	c #767571",
"6 	c #696663",
"7 	c #777471",
"8 	c #3E3D39",
"9 	c #34332F",
"0 	c #2A2927",
"a 	c #383734",
"b 	c #787574",
"c 	c #555351",
"d 	c #787572",
"e 	c #373633",
"f 	c #302F2C",
"g 	c #2D2D2A",
"h 	c #696664",
"i 	c #3C3A38",
"j 	c #2E2D2A",
"k 	c #32322E",
"l 	c #3C3C38",
"m 	c #696764",
"n 	c #31312D",
"o 	c #383733",
"p 	c #353430",
"q 	c #7A7875",
"r 	c #777572",
"s 	c #373733",
"t 	c #343330",
"u 	c #42413D",
"v 	c #393834",
"w 	c #3A3935",
"x 	c #76736F",
"y 	c #686663",
"z 	c #767371",
"A 	c #3A3835",
"B 	c #403F3C",
"C 	c #4B4A47",
"D 	c #53524F",
"E 	c #464542",
"F 	c #464442",
"G 	c #3B3A36",
"H 	c #52514E",
"I 	c #4B4A46",
"J 	c #3D3C38",
"K 	c #474642",
"L 	c #6B6A67",
"M 	c #61615D",
"N 	c #5D5D59",
"O 	c #63625F",
"P 	c #605F5C",
"Q 	c #666562",
"R 	c #484744",
"S 	c #464541",
"T 	c #5E5D5A",
"U 	c #82827F",
"V 	c #979694",
"W 	c #999896",
"X 	c #81807E",
"Y 	c #5D5C59",
"Z 	c #3A3936",
"` 	c #979692",
" .	c #CCC7C1",
"..	c #999692",
"+.	c #3A3A36",
"@.	c #9C9995",
"#.	c #C8C3BC",
"$.	c #C1BCB5",
"%.	c #9A9893",
"&.	c #CEC9C2",
"*.	c #C0BAB4",
"=.	c #C2BDB6",
"-.	c #C1BBB4",
";.	c #CDC7C1",
">.	c #CFCAC3",
",.	c #BFBAB3",
"'.	c #C1BCB4",
").	c #A09D99",
"!.	c #373632",
"~.	c #96938F",
"{.	c #CBC6C0",
"].	c #969490",
". . . . . . . . . . . . . . . . . . . . . . ",
"+ + + + + + + + + + + + + + + + + + + + + + ",
"@ @ @ @ @ @ @ @ @ @ @ @ @ @ @ @ @ @ @ @ @ @ ",
"# # # # # # # # $ % & * % = # # # # # # # # ",
"- - - - - - - ; > , ' ) ! ) ~ - - - - - - - ",
"{ { { { { { ] ^ / ] ( _ : < [ } { { { { { { ",
"| | | | | 1 2 3 4 5 6 6 7 % 3 ! 8 | | | | | ",
"8 8 8 8 8 9 0 a b c c c c d e 0 9 8 8 8 8 8 ",
"} } } } } f g } h c c c c 6 i j ) } } } } } ",
"} } } } } k 3 l m c c c c 6 1 n k } } } } } ",
"} } } } } o p a q c c c c r s t o } } } } } ",
"} } } } } u v w w x y y z A w v B } } } } } ",
"} } } } } C D w } } E F ] } G H I } } } } } ",
"} } } } } J K L M N O O N P Q R J } } } } } ",
"} } } } } } } S T U V W X Y K } } } } } } } ",
"} } } } } } } } } } } } } } } } } } } } } } ",
"} } } } } } } } } } } } } } } } } } } } } } ",
"} } } } } } } } } } } } } } } } } } } } } } ",
"} } } } } } } } } } } } } } } } } } } } } } ",
"} } } } } } } } } } } } } } } } } } } } } } ",
"} } } } } } } } } } } } } } } } } } } } } } ",
"} } } } } } } } } } } } } } } } } } } } } } ",
". . . . . . . . . . . . . . . . . . . . . . ",
"+ + + + + + + + + + + + + + + + + + + + + + ",
"@ @ @ @ @ @ @ @ @ @ @ @ @ @ @ @ @ @ @ @ @ @ ",
"# # # # # # # # $ % & * % = # # # # # # # # ",
"- - - - - - - ; > , ' ) ! ) ~ - - - - - - - ",
"{ { { { { { ] ^ / ] ( _ : < [ } { { { { { { ",
"| | | | | 1 2 3 Z `  . ...+.3 ! 8 | | | | | ",
"8 8 8 8 8 9 0 a @.#.$.$.#.%.e 0 9 8 8 8 8 8 ",
"} } } } } f g } &.*.=.=.-.;.i j ) } } } } } ",
"} } } } } k 3 l >.,.=.=.'. .1 n k } } } } } ",
"} } } } } o p a ).#.$.$.#.%.s t o } } } } } ",
"} } } } } u v w !.~.{.{.].!.w v B } } } } } ",
"} } } } } C D w } } E F ] } G H I } } } } } ",
"} } } } } J K L M N O O N P Q R J } } } } } ",
"} } } } } } } S T U V W X Y K } } } } } } } ",
"} } } } } } } } } } } } } } } } } } } } } } ",
"} } } } } } } } } } } } } } } } } } } } } } ",
"} } } } } } } } } } } } } } } } } } } } } } ",
"} } } } } } } } } } } } } } } } } } } } } } ",
"} } } } } } } } } } } } } } } } } } } } } } ",
"} } } } } } } } } } } } } } } } } } } } } } ",
"} } } } } } } } } } } } } } } } } } } } } } "};
