/* XPM */
static char * menusep_xpm[] = {
"240 3 39 1",
" 	c None",
".	c #3C3B37",
"+	c #3D3C37",
"@	c #3D3C38",
"#	c #3D3B38",
"$	c #3E3C38",
"%	c #3F3D38",
"&	c #3F3D39",
"*	c #403D39",
"=	c #403E39",
"-	c #413E39",
";	c #403F39",
">	c #413F3A",
",	c #423F3A",
"'	c #433F3A",
")	c #43403A",
"!	c #44403B",
"~	c #43403B",
"{	c #44403C",
"]	c #44413B",
"^	c #44413C",
"/	c #45413B",
"(	c #45413C",
"_	c #45423C",
":	c #46423C",
"<	c #46423D",
"[	c #47423D",
"}	c #47433D",
"|	c #48433E",
"1	c #48443E",
"2	c #49443E",
"3	c #49443D",
"4	c #48443D",
"5	c #48433D",
"6	c #46413C",
"7	c #42403B",
"8	c #413E3A",
"9	c #403E3A",
"0	c #3F3E39",
"................................................................................................................................................................................................................................................",
".........++@#@@$$$%%&&*===-;;>>>,,,'')!!~{]^^/(_:<<[}[[[}}||11222222222222222222222222222222222222222222222222222222222222222222222222222222222222222222222222222222222222222222|234455}}}::::6(6((/]]]~~~~7'',,,88899*0000&&&&$$$@+#...........",
"................................................................................................................................................................................................................................................"};
