/* XPM */
static char * menusel_xpm[] = {
"1 32 31 1",
" 	c None",
".	c #C9BCAA",
"+	c #C7BAA9",
"@	c #C6B8A6",
"#	c #C4B6A4",
"$	c #C2B4A3",
"%	c #C0B2A0",
"&	c #C0B19E",
"*	c #BEAF9D",
"=	c #BCAD9A",
"-	c #BBAC98",
";	c #B9AA96",
">	c #B8A894",
",	c #B6A792",
"'	c #B5A590",
")	c #B3A38E",
"!	c #B2A28D",
"~	c #B1A18D",
"{	c #B0A18B",
"]	c #AFA08A",
"^	c #AF9F89",
"/	c #AE9E88",
"(	c #AD9D87",
"_	c #AC9C87",
":	c #AB9B86",
"<	c #AA9B85",
"[	c #AA9A84",
"}	c #AA9982",
"|	c #A99881",
"1	c #A89781",
"2	c #A79680",
".",
"+",
"@",
"#",
"$",
"%",
"&",
"*",
"=",
"-",
";",
">",
",",
"'",
")",
"!",
"~",
"{",
"]",
"^",
"/",
"(",
"_",
":",
"<",
"[",
"}",
"|",
"1",
"2",
"2",
"2"};
