/* XPM */
static char * minimizeA_xpm[] = {
"20 44 222 2",
"  	c None",
". 	c #53524D",
"+ 	c #40403B",
"@ 	c #2C2C28",
"# 	c #232120",
"$ 	c #201F1E",
"% 	c #222120",
"& 	c #1F1E1D",
"* 	c #1C1B19",
"= 	c #181715",
"- 	c #141312",
"; 	c #504F4B",
"> 	c #4B4A46",
", 	c #282824",
"' 	c #232320",
") 	c #252422",
"! 	c #262523",
"~ 	c #272624",
"{ 	c #242321",
"] 	c #4D4C48",
"^ 	c #3E3D3A",
"/ 	c #242221",
"( 	c #333231",
"_ 	c #8D8B89",
": 	c #BCBCB9",
"< 	c #E8E7E5",
"[ 	c #4A4945",
"} 	c #464542",
"| 	c #2A2928",
"1 	c #5F5D5C",
"2 	c #E1E0DE",
"3 	c #FDFCF9",
"4 	c #474642",
"5 	c #302F2D",
"6 	c #2C2B29",
"7 	c #61615E",
"8 	c #FAF8F6",
"9 	c #FCFAF8",
"0 	c #282825",
"a 	c #2A2927",
"b 	c #3F3E3A",
"c 	c #2E2D2A",
"d 	c #2F2E2C",
"e 	c #403F3D",
"f 	c #E1DFDC",
"g 	c #FBF9F6",
"h 	c #3B3B37",
"i 	c #353432",
"j 	c #393836",
"k 	c #959391",
"l 	c #FAF7F4",
"m 	c #363533",
"n 	c #3D3B3A",
"o 	c #3A3A37",
"p 	c #403F3E",
"q 	c #C1BEBB",
"r 	c #F9F6F2",
"s 	c #E6E3E0",
"t 	c #AEACAB",
"u 	c #D9D7D4",
"v 	c #ADACAB",
"w 	c #3C3B39",
"x 	c #41403E",
"y 	c #40403D",
"z 	c #474644",
"A 	c #E6E2DF",
"B 	c #F8F4F0",
"C 	c #EBE7E4",
"D 	c #969595",
"E 	c #898988",
"F 	c #CBC9C6",
"G 	c #F7F3EF",
"H 	c #42413F",
"I 	c #464543",
"J 	c #464643",
"K 	c #4B4B48",
"L 	c #E3E0D9",
"M 	c #F4F0EA",
"N 	c #E2DFDA",
"O 	c #9C9B99",
"P 	c #848483",
"Q 	c #C0BDBA",
"R 	c #484745",
"S 	c #484644",
"T 	c #4D4D4A",
"U 	c #4E4E4B",
"V 	c #BEBBB5",
"W 	c #F0ECE3",
"X 	c #E5E2D9",
"Y 	c #A6A5A1",
"Z 	c #80807F",
"` 	c #4E4D4B",
" .	c #474743",
"..	c #535351",
"+.	c #525150",
"@.	c #9A9691",
"#.	c #EDE8DE",
"$.	c #E8E3DA",
"%.	c #B2AFAA",
"&.	c #B3B0AB",
"*.	c #545451",
"=.	c #42413D",
"-.	c #5A5A57",
";.	c #595856",
">.	c #595957",
",.	c #D6D1C7",
"'.	c #EAE4D9",
").	c #3C3B37",
"!.	c #51514F",
"~.	c #60605C",
"{.	c #5B5B58",
"].	c #777671",
"^.	c #E6DFD3",
"/.	c #E7E0D4",
"(.	c #60605D",
"_.	c #3E3D39",
":.	c #61615F",
"<.	c #646461",
"[.	c #5A5A58",
"}.	c #787670",
"|.	c #D1CBBE",
"1.	c #E4DDCF",
"2.	c #666663",
"3.	c #676764",
"4.	c #6A6A67",
"5.	c #5C5B58",
"6.	c #959189",
"7.	c #B5B0A4",
"8.	c #D3CCBD",
"9.	c #6C6C69",
"0.	c #5F5F5B",
"a.	c #72726F",
"b.	c #6D6D6A",
"c.	c #636360",
"d.	c #5C5C5A",
"e.	c #575755",
"f.	c #494844",
"g.	c #5F5F5C",
"h.	c #6D6D6B",
"i.	c #767673",
"j.	c #787875",
"k.	c #777775",
"l.	c #2F2E29",
"m.	c #21201F",
"n.	c #191818",
"o.	c #161615",
"p.	c #161515",
"q.	c #151413",
"r.	c #151412",
"s.	c #22211F",
"t.	c #1F1F1D",
"u.	c #262422",
"v.	c #252421",
"w.	c #252321",
"x.	c #1F1E1C",
"y.	c #393835",
"z.	c #43423F",
"A.	c #4B4A48",
"B.	c #242322",
"C.	c #302F2C",
"D.	c #4A4946",
"E.	c #504E4C",
"F.	c #2B2A27",
"G.	c #545350",
"H.	c #545351",
"I.	c #2A2926",
"J.	c #2E2D2B",
"K.	c #2F2F2D",
"L.	c #333330",
"M.	c #535350",
"N.	c #585855",
"O.	c #363534",
"P.	c #494746",
"Q.	c #5D5B5A",
"R.	c #3D3C3A",
"S.	c #575553",
"T.	c #62605E",
"U.	c #5E5C5B",
"V.	c #535150",
"W.	c #5B5A58",
"X.	c #41413F",
"Y.	c #434240",
"Z.	c #63615F",
"`.	c #676562",
" +	c #646260",
".+	c #535250",
"++	c #504F4D",
"@+	c #5E5C5A",
"#+	c #666562",
"$+	c #474645",
"%+	c #494845",
"&+	c #676662",
"*+	c #6B6966",
"=+	c #676663",
"-+	c #605F5C",
";+	c #4D4C4B",
">+	c #646360",
",+	c #6E6D69",
"'+	c #6C6B67",
")+	c #62615E",
"!+	c #72716D",
"~+	c #71706D",
"{+	c #73726E",
"]+	c #656561",
"^+	c #7B7A74",
"/+	c #6A6A65",
"(+	c #7C7B75",
"_+	c #807E78",
":+	c #666662",
"<+	c #6B6B68",
"[+	c #696967",
"}+	c #686866",
"|+	c #74736F",
"1+	c #7A7975",
"2+	c #807F7A",
"3+	c #6C6C68",
"4+	c #71716E",
"5+	c #6F6F6C",
"6+	c #6C6C6A",
"7+	c #595956",
"8+	c #676763",
"9+	c #71716F",
". . . . . + @ # $ % % & * = - - - - - - ",
"; ; ; > , ' ) ! ! ~ ~ ! ! ) { { { { { { ",
"] ] ^ & / ~ ( _ : < < : _ ( ~ { { { { { ",
"[ } & / | 1 2 3 3 3 3 3 3 2 1 | { { { { ",
"4 5 ~ 6 7 8 9 9 9 9 9 9 9 9 8 7 6 0 a a ",
"b c d e f g g g g g g g g g g f e d d 5 ",
"h i j k l l l l l l l l l l l l k j i m ",
"n o p q r s t u r r r r u v s r q p o w ",
"x y z A B C D E F G G F E D C B A z y H ",
"I J K L M M N O P Q Q P O N M M L K J R ",
"S T U V W W W X Y Z Z Y X W W W V U T ` ",
" ...+.@.#.#.#.#.$.%.&.$.#.#.#.#.@.+...*.",
"=.-.;.>.,.'.'.'.'.'.'.'.'.'.'.,.>.;.-.-.",
").!.~.{.].^././././././././.^.].{.~.(.(.",
")._.:.<.[.}.|.1.1.1.1.1.1.|.}.[.<.2.2.2.",
").).4 3.4.:.5.6.7.8.8.7.6.5.:.4.9.9.9.9.",
").).).b 0.a.b.c.d.e.e.d.c.b.a.a.a.a.a.a.",
").).).).).f.g.h.i.j.j.j.k.j.j.j.j.j.j.j.",
").).).).).).).).).).).).).).).).).).).).",
").).).).).).).).).).).).).).).).).).).).",
").).).).).).).).).).).).).).).).).).).).",
").).).).).).).).).).).).).).).).).).).).",
". . . . . + l.m.n.o.o.p.q.r.- - - - - - ",
"; ; ; > , s.t.# u.v.v.w.w.{ { { { { { { ",
"] ] ^ x.% v.~ y.z.A.A.z.y.~ v.{ B.{ { { ",
"[ } & % ) C.D.E.E.E.E.E.E.D.C.) { { { { ",
"4 5 ~ F.i G.H.H.H.H.H.H.H.H.G.i F.I.a a ",
"b J.K.L.M.N.N.N.N.N.N.N.N.N.N.M.L.K.5 5 ",
"h m O.P.Q.Q.Q.Q.Q.Q.Q.Q.Q.Q.Q.Q.P.O.m m ",
"n w R.S.T.U.V.W.T.T.T.T.W.V.U.T.S.R.w w ",
"x X.Y.Z.`. +.+++@+#+#+@+++.+ +`.Z.Y.X.H ",
"I $+%+&+*+*+=+;.H.-+-+H.;.=+*+*+&+%+$+R ",
"S ;+U >+,+,+,+'+g.N.N.g.'+,+,+,+>+U ;+` ",
" .*...)+!+!+!+!+~+=+=+~+!+!+!+!+)+..*.*.",
"=.-.-.-.{+].].].].].].].].].].{+-.-.-.-.",
").!.(.g.]+^+^+^+^+^+^+^+^+^+^+]+g.(.(.(.",
")._.:.2.<./+(+_+_+_+_+_+_+(+/+<.2.2.2.2.",
").).4 :+<+[+}+|+1+2+2+1+|+}+[+3+3+9.9.9.",
").).).b 0.a.4+5+h.6+6+h.5+4+a.a.a.a.a.a.",
").).).).).f.7+8+9+j.j.j.j.j.j.j.j.j.j.j.",
").).).).).).).).).).).).).).).).).).).).",
").).).).).).).).).).).).).).).).).).).).",
").).).).).).).).).).).).).).).).).).).).",
").).).).).).).).).).).).).).).).).).).)."};
