/* XPM */
static char * minimizeI_xpm[] = {
"20 44 212 2",
"  	c None",
". 	c #53524D",
"+ 	c #40403B",
"@ 	c #2C2C28",
"# 	c #232120",
"$ 	c #201F1E",
"% 	c #222120",
"& 	c #1F1E1D",
"* 	c #1C1B19",
"= 	c #181715",
"- 	c #141312",
"; 	c #504F4B",
"> 	c #4B4A46",
", 	c #282824",
"' 	c #232320",
") 	c #232220",
"! 	c #201F1D",
"~ 	c #1E1D1B",
"{ 	c #1C1C1A",
"] 	c #242321",
"^ 	c #4D4C48",
"/ 	c #3E3D3A",
"( 	c #242221",
"_ 	c #1D1C1B",
": 	c #2F2E2C",
"< 	c #383835",
"[ 	c #40403E",
"} 	c #4A4945",
"| 	c #464542",
"1 	c #262523",
"2 	c #3E3E3C",
"3 	c #454542",
"4 	c #474642",
"5 	c #302F2D",
"6 	c #272624",
"7 	c #272726",
"8 	c #454543",
"9 	c #464643",
"0 	c #282825",
"a 	c #2A2927",
"b 	c #3F3E3A",
"c 	c #2E2D2A",
"d 	c #2B2A28",
"e 	c #242322",
"f 	c #424240",
"g 	c #484845",
"h 	c #3B3B37",
"i 	c #353432",
"j 	c #2E2D2B",
"k 	c #383735",
"l 	c #4B4B48",
"m 	c #363533",
"n 	c #3D3B3A",
"o 	c #3A3A37",
"p 	c #302F2E",
"q 	c #434241",
"r 	c #4D4D4A",
"s 	c #636362",
"t 	c #4E4E4B",
"u 	c #626261",
"v 	c #3C3B39",
"w 	c #41403E",
"x 	c #40403D",
"y 	c #323230",
"z 	c #4C4C49",
"A 	c #504F4C",
"B 	c #4F4E4B",
"C 	c #777776",
"D 	c #838383",
"E 	c #535250",
"F 	c #4E4D4A",
"G 	c #767675",
"H 	c #42413F",
"I 	c #464543",
"J 	c #373735",
"K 	c #4E4E4C",
"L 	c #52524F",
"M 	c #4E4E4D",
"N 	c #717170",
"O 	c #8A8A89",
"P 	c #575755",
"Q 	c #484745",
"R 	c #484644",
"S 	c #3F3F3D",
"T 	c #4C4C4A",
"U 	c #535351",
"V 	c #50504D",
"W 	c #676766",
"X 	c #8C8C8B",
"Y 	c #4E4D4B",
"Z 	c #474743",
"` 	c #535350",
" .	c #494847",
"..	c #494948",
"+.	c #555452",
"@.	c #51504E",
"#.	c #504F4D",
"$.	c #5C5C5B",
"%.	c #5D5C5B",
"&.	c #545451",
"*.	c #42413D",
"=.	c #5A5A57",
"-.	c #565553",
";.	c #464544",
">.	c #52514E",
",.	c #50504C",
"'.	c #4E4E4A",
").	c #3C3B37",
"!.	c #51514F",
"~.	c #60605C",
"{.	c #555552",
"].	c #52524E",
"^.	c #60605D",
"/.	c #3E3D39",
"(.	c #61615F",
"_.	c #656562",
":.	c #4F4F4C",
"<.	c #53524F",
"[.	c #51514D",
"}.	c #666663",
"|.	c #676764",
"1.	c #6B6B68",
"2.	c #4E4D49",
"3.	c #6C6C69",
"4.	c #5F5F5B",
"5.	c #72726F",
"6.	c #6E6E6B",
"7.	c #646462",
"8.	c #5F5F5C",
"9.	c #494844",
"0.	c #6D6D6B",
"a.	c #767673",
"b.	c #787875",
"c.	c #777775",
"d.	c #2F2E29",
"e.	c #21201F",
"f.	c #191818",
"g.	c #161615",
"h.	c #161515",
"i.	c #151413",
"j.	c #151412",
"k.	c #22211F",
"l.	c #1F1F1D",
"m.	c #262422",
"n.	c #252421",
"o.	c #252321",
"p.	c #1F1E1C",
"q.	c #393835",
"r.	c #43423F",
"s.	c #4B4A48",
"t.	c #252422",
"u.	c #302F2C",
"v.	c #4A4946",
"w.	c #504E4C",
"x.	c #2B2A27",
"y.	c #545350",
"z.	c #545351",
"A.	c #2A2926",
"B.	c #2F2F2D",
"C.	c #333330",
"D.	c #585855",
"E.	c #363534",
"F.	c #494746",
"G.	c #5D5B5A",
"H.	c #3D3C3A",
"I.	c #575553",
"J.	c #62605E",
"K.	c #5E5C5B",
"L.	c #535150",
"M.	c #5B5A58",
"N.	c #41413F",
"O.	c #434240",
"P.	c #63615F",
"Q.	c #676562",
"R.	c #646260",
"S.	c #5E5C5A",
"T.	c #666562",
"U.	c #474645",
"V.	c #494845",
"W.	c #676662",
"X.	c #6B6966",
"Y.	c #676663",
"Z.	c #595856",
"`.	c #605F5C",
" +	c #4D4C4B",
".+	c #646360",
"++	c #6E6D69",
"@+	c #6C6B67",
"#+	c #62615E",
"$+	c #72716D",
"%+	c #71706D",
"&+	c #73726E",
"*+	c #777671",
"=+	c #656561",
"-+	c #7B7A74",
";+	c #646461",
">+	c #6A6A65",
",+	c #7C7B75",
"'+	c #807E78",
")+	c #666662",
"!+	c #696967",
"~+	c #686866",
"{+	c #74736F",
"]+	c #7A7975",
"^+	c #807F7A",
"/+	c #6C6C68",
"(+	c #71716E",
"_+	c #6F6F6C",
":+	c #6C6C6A",
"<+	c #595956",
"[+	c #676763",
"}+	c #71716F",
". . . . . + @ # $ % % & * = - - - - - - ",
"; ; ; > , ' ) ! ~ { { ~ ! ) ] ] ] ] ] ] ",
"^ ^ / & ( $ _ : < [ [ < : _ $ ] ] ] ] ] ",
"} | & ( ~ 1 2 3 3 3 3 3 3 2 1 ~ ] ] ] ] ",
"4 5 6 ) 7 8 9 9 9 9 9 9 9 9 8 7 ) 0 a a ",
"b c d e f g g g g g g g g g g f e d : 5 ",
"h i j k l l l l l l l l l l l l k j i m ",
"n o p q r l s t r r r r t u l r q p o v ",
"w x y z A B C D E F F E D G B A z y x H ",
"I 9 J K L L M N O P P O N M L L K J 9 Q ",
"R r S T U L V t W X X W t V L U T S r Y ",
"Z `  ...+.E @.#.Y $.%.Y #.@.E +... .` &.",
"*.=.-.;.E ` >.,.B '.'.B ,.>.` E ;.-.=.=.",
").!.~.{.z ` ].,.B F F B ,.].` z {.~.^.^.",
")./.(._.&.:.<.[.; '.'.; [.<.:.&._.}.}.}.",
").).4 |.1.^.U L V 2.2.V L U ^.1.3.3.3.3.",
").).).b 4.5.6.7.8.=.=.8.7.6.5.5.5.5.5.5.",
").).).).).9.8.0.a.b.b.b.c.b.b.b.b.b.b.b.",
").).).).).).).).).).).).).).).).).).).).",
").).).).).).).).).).).).).).).).).).).).",
").).).).).).).).).).).).).).).).).).).).",
").).).).).).).).).).).).).).).).).).).).",
". . . . . + d.e.f.g.g.h.i.j.- - - - - - ",
"; ; ; > , k.l.# m.n.n.o.o.] ] ] ] ] ] ] ",
"^ ^ / p.% n.6 q.r.s.s.r.q.6 n.] e ] ] ] ",
"} | & % t.u.v.w.w.w.w.w.w.v.u.t.] ] ] ] ",
"4 5 6 x.i y.z.z.z.z.z.z.z.z.y.i x.A.a a ",
"b j B.C.` D.D.D.D.D.D.D.D.D.D.` C.B.5 5 ",
"h m E.F.G.G.G.G.G.G.G.G.G.G.G.G.F.E.m m ",
"n v H.I.J.K.L.M.J.J.J.J.M.L.K.J.I.H.v v ",
"w N.O.P.Q.R.E #.S.T.T.S.#.E R.Q.P.O.N.H ",
"I U.V.W.X.X.Y.Z.z.`.`.z.Z.Y.X.X.W.V.U.Q ",
"R  +t .+++++++@+8.D.D.8.@+++++++.+t  +Y ",
"Z &.U #+$+$+$+$+%+Y.Y.%+$+$+$+$+#+U &.&.",
"*.=.=.=.&+*+*+*+*+*+*+*+*+*+*+&+=.=.=.=.",
").!.^.8.=+-+-+-+-+-+-+-+-+-+-+=+8.^.^.^.",
")./.(.}.;+>+,+'+'+'+'+'+'+,+>+;+}.}.}.}.",
").).4 )+1.!+~+{+]+^+^+]+{+~+!+/+/+3.3.3.",
").).).b 4.5.(+_+0.:+:+0._+(+5.5.5.5.5.5.",
").).).).).9.<+[+}+b.b.b.b.b.b.b.b.b.b.b.",
").).).).).).).).).).).).).).).).).).).).",
").).).).).).).).).).).).).).).).).).).).",
").).).).).).).).).).).).).).).).).).).).",
").).).).).).).).).).).).).).).).).).).)."};
