/* XPM */
static char * minimizeO_xpm[] = {
"20 44 234 2",
"  	c None",
". 	c #53524D",
"+ 	c #40403B",
"@ 	c #2E2D29",
"# 	c #222120",
"$ 	c #1D1C1B",
"% 	c #1E1D1C",
"& 	c #1B1B19",
"* 	c #191917",
"= 	c #171614",
"- 	c #141312",
"; 	c #504F4B",
"> 	c #4B4A46",
", 	c #272724",
"' 	c #232320",
") 	c #232220",
"! 	c #252421",
"~ 	c #262522",
"{ 	c #262623",
"] 	c #252422",
"^ 	c #242421",
"/ 	c #242321",
"( 	c #4D4C48",
"_ 	c #3E3D3A",
": 	c #1F1E1D",
"< 	c #232221",
"[ 	c #2F2E2C",
"} 	c #6D6C6A",
"| 	c #8E8E8B",
"1 	c #ADACAA",
"2 	c #242322",
"3 	c #4A4945",
"4 	c #464542",
"5 	c #282826",
"6 	c #4D4C4A",
"7 	c #A8A7A5",
"8 	c #BCBBB8",
"9 	c #474642",
"0 	c #302F2D",
"a 	c #2C2A29",
"b 	c #51504E",
"c 	c #BCB9B8",
"d 	c #BDBBB9",
"e 	c #292826",
"f 	c #2A2927",
"g 	c #3F3E3A",
"h 	c #2E2D2A",
"i 	c #2F2E2D",
"j 	c #3B3A39",
"k 	c #ABAAA8",
"l 	c #BDBCBA",
"m 	c #302F2C",
"n 	c #3B3B37",
"o 	c #353433",
"p 	c #383735",
"q 	c #787774",
"r 	c #BFBCB9",
"s 	c #363533",
"t 	c #3D3B3A",
"u 	c #3B3B39",
"v 	c #3F3E3C",
"w 	c #999794",
"x 	c #C0BEBA",
"y 	c #B3B0AD",
"z 	c #8B8A88",
"A 	c #A9A8A5",
"B 	c #3C3B39",
"C 	c #41403E",
"D 	c #403F3E",
"E 	c #B5B2AF",
"F 	c #C1BEBB",
"G 	c #B8B5B2",
"H 	c #7D7C7B",
"I 	c #747472",
"J 	c #A2A09D",
"K 	c #42413F",
"L 	c #464543",
"M 	c #474744",
"N 	c #4A4947",
"O 	c #B4B1AC",
"P 	c #C0BDB8",
"Q 	c #B4B1AD",
"R 	c #838180",
"S 	c #727170",
"T 	c #9C9997",
"U 	c #484745",
"V 	c #484644",
"W 	c #4D4D4A",
"X 	c #4E4D4B",
"Y 	c #9D9A95",
"Z 	c #C0BCB5",
"` 	c #B8B5AE",
" .	c #8C8A87",
"..	c #717070",
"+.	c #474743",
"@.	c #545451",
"#.	c #525250",
"$.	c #84827D",
"%.	c #BEBBB3",
"&.	c #BBB7B0",
"*.	c #95938F",
"=.	c #96948F",
"-.	c #42413D",
";.	c #5A5A57",
">.	c #595856",
",.	c #595957",
"'.	c #B0ADA5",
").	c #BEBAB1",
"!.	c #3C3B37",
"~.	c #51514F",
"{.	c #60605D",
"].	c #5D5D59",
"^.	c #706F6B",
"/.	c #BEB9AF",
"(.	c #BEB9B0",
"_.	c #3E3D39",
":.	c #60605E",
"<.	c #646461",
"[.	c #5E5E5B",
"}.	c #73716C",
"|.	c #B1ADA3",
"1.	c #BEB9AE",
"2.	c #666663",
"3.	c #676764",
"4.	c #6A6A67",
"5.	c #656562",
"6.	c #61615D",
"7.	c #898680",
"8.	c #9F9C92",
"9.	c #B4AFA4",
"0.	c #6B6B68",
"a.	c #6C6C69",
"b.	c #5F5E5B",
"c.	c #73736F",
"d.	c #6E6E6C",
"e.	c #676765",
"f.	c #626261",
"g.	c #5F5F5D",
"h.	c #737370",
"i.	c #72726F",
"j.	c #494844",
"k.	c #5E5E5A",
"l.	c #6B6B69",
"m.	c #747471",
"n.	c #787875",
"o.	c #777775",
"p.	c #797975",
"q.	c #2F2E29",
"r.	c #21201F",
"s.	c #191818",
"t.	c #161615",
"u.	c #161515",
"v.	c #151413",
"w.	c #151412",
"x.	c #282824",
"y.	c #22211F",
"z.	c #1F1F1D",
"A.	c #232120",
"B.	c #262422",
"C.	c #252321",
"D.	c #1F1E1C",
"E.	c #272624",
"F.	c #393835",
"G.	c #43423F",
"H.	c #4B4A48",
"I.	c #4A4946",
"J.	c #504E4C",
"K.	c #2B2A27",
"L.	c #353432",
"M.	c #545350",
"N.	c #545351",
"O.	c #2A2926",
"P.	c #2E2D2B",
"Q.	c #2F2F2D",
"R.	c #333330",
"S.	c #535350",
"T.	c #585855",
"U.	c #363534",
"V.	c #494746",
"W.	c #5D5B5A",
"X.	c #3D3C3A",
"Y.	c #575553",
"Z.	c #62605E",
"`.	c #5E5C5B",
" +	c #535150",
".+	c #5B5A58",
"++	c #41413F",
"@+	c #434240",
"#+	c #63615F",
"$+	c #676562",
"%+	c #646260",
"&+	c #535250",
"*+	c #504F4D",
"=+	c #5E5C5A",
"-+	c #666562",
";+	c #474645",
">+	c #494845",
",+	c #676662",
"'+	c #6B6966",
")+	c #676663",
"!+	c #605F5C",
"~+	c #4D4C4B",
"{+	c #4E4E4B",
"]+	c #646360",
"^+	c #6E6D69",
"/+	c #6C6B67",
"(+	c #5F5F5C",
"_+	c #535351",
":+	c #62615E",
"<+	c #72716D",
"[+	c #71706D",
"}+	c #73726E",
"|+	c #777671",
"1+	c #656561",
"2+	c #7B7A74",
"3+	c #61615F",
"4+	c #6A6A65",
"5+	c #7C7B75",
"6+	c #807E78",
"7+	c #666662",
"8+	c #696967",
"9+	c #686866",
"0+	c #74736F",
"a+	c #7A7975",
"b+	c #807F7A",
"c+	c #6C6C68",
"d+	c #5F5F5B",
"e+	c #71716E",
"f+	c #6F6F6C",
"g+	c #6D6D6B",
"h+	c #6C6C6A",
"i+	c #595956",
"j+	c #676763",
"k+	c #71716F",
". . . . . + @ # $ % % & * = - - - - - - ",
"; ; ; > , ' ) ! ~ { { ~ ~ ] ^ / / / / / ",
"( ( _ : < { [ } | 1 1 | } [ { / 2 / / / ",
"3 4 : < 5 6 7 8 8 8 8 8 8 7 6 5 / / / / ",
"9 0 , a b c d d d d d d d d c b a e f f ",
"g h i j k l l l l l l l l l l k j i m 0 ",
"n o p q r r r r r r r r r r r r q p o s ",
"t u v w x y z A x x x x A z y x w v u B ",
"C D 4 E F G H I J x x J I H G F E 4 D K ",
"L M N O P P Q R S T T S R Q P P O N M U ",
"V W X Y Z Z Z `  ..... .` Z Z Z Y X W X ",
"+.@.#.$.%.%.%.%.&.*.=.&.%.%.%.%.$.#.@.@.",
"-.;.>.,.'.).).).).).).).).).).'.,.>.;.;.",
"!.~.{.].^./.(.(.(.(.(.(.(.(./.^.].{.{.{.",
"!._.:.<.[.}.|.1.1.1.1.1.1.|.}.[.<.2.2.2.",
"!.!.9 3.4.5.6.7.8.9.9.8.7.6.5.0.a.a.a.a.",
"!.!.!.g b.c.d.e.f.g.g.f.e.d.c.h.i.i.i.i.",
"!.!.!.!.!.j.k.l.m.n.n.n.o.p.n.n.n.n.n.n.",
"!.!.!.!.!.!.!.!.!.!.!.!.!.!.!.!.!.!.!.!.",
"!.!.!.!.!.!.!.!.!.!.!.!.!.!.!.!.!.!.!.!.",
"!.!.!.!.!.!.!.!.!.!.!.!.!.!.!.!.!.!.!.!.",
"!.!.!.!.!.!.!.!.!.!.!.!.!.!.!.!.!.!.!.!.",
". . . . . + q.r.s.t.t.u.v.w.- - - - - - ",
"; ; ; > x.y.z.A.B.! ! C.C./ / / / / / / ",
"( ( _ D.# ! E.F.G.H.H.G.F.E.! / 2 / / / ",
"3 4 : # ] m I.J.J.J.J.J.J.I.m ] / / / / ",
"9 0 E.K.L.M.N.N.N.N.N.N.N.N.M.L.K.O.f f ",
"g P.Q.R.S.T.T.T.T.T.T.T.T.T.T.S.R.Q.0 0 ",
"n s U.V.W.W.W.W.W.W.W.W.W.W.W.W.V.U.s s ",
"t B X.Y.Z.`. +.+Z.Z.Z.Z..+ +`.Z.Y.X.B B ",
"C ++@+#+$+%+&+*+=+-+-+=+*+&+%+$+#+@+++K ",
"L ;+>+,+'+'+)+>.N.!+!+N.>.)+'+'+,+>+;+U ",
"V ~+{+]+^+^+^+/+(+T.T.(+/+^+^+^+]+{+~+X ",
"+.@._+:+<+<+<+<+[+)+)+[+<+<+<+<+:+_+@.@.",
"-.;.;.;.}+|+|+|+|+|+|+|+|+|+|+}+;.;.;.;.",
"!.~.{.(+1+2+2+2+2+2+2+2+2+2+2+1+(+{.{.{.",
"!._.3+2.<.4+5+6+6+6+6+6+6+5+4+<.2.2.2.2.",
"!.!.9 7+0.8+9+0+a+b+b+a+0+9+8+c+c+a.a.a.",
"!.!.!.g d+i.e+f+g+h+h+g+f+e+i.i.i.i.i.i.",
"!.!.!.!.!.j.i+j+k+n.n.n.n.n.n.n.n.n.n.n.",
"!.!.!.!.!.!.!.!.!.!.!.!.!.!.!.!.!.!.!.!.",
"!.!.!.!.!.!.!.!.!.!.!.!.!.!.!.!.!.!.!.!.",
"!.!.!.!.!.!.!.!.!.!.!.!.!.!.!.!.!.!.!.!.",
"!.!.!.!.!.!.!.!.!.!.!.!.!.!.!.!.!.!.!.!."};
