/* XPM */
static char * restoreI_xpm[] = {
"20 44 172 2",
"  	c None",
". 	c #141312",
"+ 	c #181715",
"@ 	c #1C1B19",
"# 	c #1F1E1D",
"$ 	c #222120",
"% 	c #242321",
"& 	c #232220",
"* 	c #201F1D",
"= 	c #1E1D1B",
"- 	c #1C1C1A",
"; 	c #201F1E",
"> 	c #1D1C1B",
", 	c #2F2E2C",
"' 	c #383835",
") 	c #40403E",
"! 	c #262523",
"~ 	c #3E3E3C",
"{ 	c #454542",
"] 	c #2A2927",
"^ 	c #282825",
"/ 	c #272726",
"( 	c #454543",
"_ 	c #464643",
": 	c #302F2D",
"< 	c #2B2A28",
"[ 	c #242322",
"} 	c #424240",
"| 	c #484845",
"1 	c #474745",
"2 	c #363533",
"3 	c #353432",
"4 	c #2E2D2B",
"5 	c #383735",
"6 	c #4B4B48",
"7 	c #494947",
"8 	c #8B8B8B",
"9 	c #7A7A7A",
"0 	c #3C3B39",
"a 	c #3A3A37",
"b 	c #302F2E",
"c 	c #434241",
"d 	c #4D4D4A",
"e 	c #42413F",
"f 	c #40403D",
"g 	c #323230",
"h 	c #4C4C49",
"i 	c #504F4C",
"j 	c #4D4C4A",
"k 	c #4F4E4B",
"l 	c #484745",
"m 	c #373735",
"n 	c #4E4E4C",
"o 	c #52524F",
"p 	c #4D4D4C",
"q 	c #4C4C4A",
"r 	c #4E4E4B",
"s 	c #4E4D4B",
"t 	c #3F3F3D",
"u 	c #535351",
"v 	c #4D4D4B",
"w 	c #4A4A48",
"x 	c #545451",
"y 	c #535350",
"z 	c #494847",
"A 	c #494948",
"B 	c #555452",
"C 	c #535250",
"D 	c #4E4D4C",
"E 	c #5A5A57",
"F 	c #565553",
"G 	c #464544",
"H 	c #51514E",
"I 	c #4C4C48",
"J 	c #60605D",
"K 	c #60605C",
"L 	c #555552",
"M 	c #52524E",
"N 	c #50504C",
"O 	c #4E4D4A",
"P 	c #666663",
"Q 	c #656562",
"R 	c #4F4F4C",
"S 	c #53524F",
"T 	c #51514D",
"U 	c #504F4B",
"V 	c #4E4E4A",
"W 	c #6C6C69",
"X 	c #6B6B68",
"Y 	c #50504D",
"Z 	c #4E4D49",
"` 	c #72726F",
" .	c #6E6E6B",
"..	c #646462",
"+.	c #5F5F5C",
"@.	c #787875",
"#.	c #777775",
"$.	c #3C3B37",
"%.	c #151412",
"&.	c #151413",
"*.	c #161515",
"=.	c #161615",
"-.	c #252321",
";.	c #252421",
">.	c #272624",
",.	c #393835",
"'.	c #43423F",
").	c #4B4A48",
"!.	c #252422",
"~.	c #302F2C",
"{.	c #4A4946",
"].	c #504E4C",
"^.	c #2A2926",
"/.	c #2B2A27",
"(.	c #545350",
"_.	c #545351",
":.	c #2F2F2D",
"<.	c #333330",
"[.	c #585855",
"}.	c #575654",
"|.	c #363534",
"1.	c #494746",
"2.	c #5D5B5A",
"3.	c #4A4948",
"4.	c #3D3C3A",
"5.	c #575553",
"6.	c #62605E",
"7.	c #5C5A59",
"8.	c #484746",
"9.	c #595756",
"0.	c #41413F",
"a.	c #434240",
"b.	c #63615F",
"c.	c #676562",
"d.	c #615F5C",
"e.	c #474645",
"f.	c #494845",
"g.	c #676662",
"h.	c #6B6966",
"i.	c #656361",
"j.	c #52514F",
"k.	c #4D4C4B",
"l.	c #646360",
"m.	c #6E6D69",
"n.	c #686864",
"o.	c #565654",
"p.	c #666562",
"q.	c #62615E",
"r.	c #72716D",
"s.	c #6D6C69",
"t.	c #61615F",
"u.	c #5B5B59",
"v.	c #73726E",
"w.	c #777671",
"x.	c #757470",
"y.	c #656561",
"z.	c #7B7A74",
"A.	c #646461",
"B.	c #6A6A65",
"C.	c #7C7B75",
"D.	c #807E78",
"E.	c #636360",
"F.	c #6C6C68",
"G.	c #696967",
"H.	c #686866",
"I.	c #74736F",
"J.	c #7A7975",
"K.	c #807F7A",
"L.	c #71716E",
"M.	c #6F6F6C",
"N.	c #6D6D6B",
"O.	c #6C6C6A",
". . . . . . + @ # $ $ # @ + . . . . . . ",
"% % % % % % & * = - - = * & % % % % % % ",
"% % % % % ; > , ' ) ) ' , > ; % % % % % ",
"% % % % = ! ~ { { { { { { ~ ! = % % % % ",
"] ] ^ & / ( _ _ _ _ _ _ _ _ ( / & ^ ] ] ",
": , < [ } | | 1 1 1 1 1 1 | | } [ < , : ",
"2 3 4 5 6 6 7 8 9 9 9 9 8 7 6 6 5 4 3 2 ",
"0 a b c d d 6 9 7 6 6 7 9 6 d d c b a 0 ",
"e f g h i i j 9 h k k h 9 j i i h g f e ",
"l _ m n o o p 9 q r r q 9 p o o n m _ l ",
"s d t q u o v 9 w h h w 9 v o u q t d s ",
"x y z A B C D 8 9 9 9 9 8 D C B A z y x ",
"E E F G C y H d h I I h d H y C G F E E ",
"J J K L h y M N k O O k N M y h L K J J ",
"P P P Q x R S T U V V U T S R x Q P P P ",
"W W W W X J u o Y Z Z Y o u J X W W W W ",
"` ` ` ` ` `  ...+.E E +... .` ` ` ` ` ` ",
"@.@.@.@.@.@.@.#.@.@.@.@.#.@.@.@.@.@.@.@.",
"$.$.$.$.$.$.$.$.$.$.$.$.$.$.$.$.$.$.$.$.",
"$.$.$.$.$.$.$.$.$.$.$.$.$.$.$.$.$.$.$.$.",
"$.$.$.$.$.$.$.$.$.$.$.$.$.$.$.$.$.$.$.$.",
"$.$.$.$.$.$.$.$.$.$.$.$.$.$.$.$.$.$.$.$.",
". . . . . . %.&.*.=.=.*.&.%.. . . . . . ",
"% % % % % % % -.-.;.;.-.-.% % % % % % % ",
"% % % [ % ;.>.,.'.).).'.,.>.;.% [ % % % ",
"% % % % !.~.{.].].].].].].{.~.!.% % % % ",
"] ] ^./.3 (._._._._._._._._.(.3 /.^.] ] ",
": : :.<.y [.}.o o o o o o }.[.y <.:.: : ",
"2 2 |.1.2.2.}.3.c c c c 3.}.2.2.1.|.2 2 ",
"0 0 4.5.6.6.7.8.9.7.7.9.8.7.6.6.5.4.0 0 ",
"e 0.a.b.c.c.d.j d.c.c.d.j d.c.c.b.a.0.e ",
"l e.f.g.h.h.i.j.i.h.h.i.j.i.h.h.g.f.e.l ",
"s k.r l.m.m.n.o.p.n.n.p.o.n.m.m.l.r k.s ",
"x x u q.r.r.s.t.u.u.u.u.t.s.r.r.q.u x x ",
"E E E E v.w.x.r.r.r.r.r.r.x.w.v.E E E E ",
"J J J +.y.z.z.z.z.z.z.z.z.z.z.y.+.J J J ",
"P P P P A.B.C.D.D.D.D.D.D.C.B.E.P P P P ",
"W W W F.F.G.H.I.J.K.K.J.I.H.G.X W W W W ",
"` ` ` ` ` ` L.M.N.O.O.N.M.L.` ` ` ` ` ` ",
"@.@.@.@.@.@.@.@.@.@.@.@.@.@.@.@.@.@.@.@.",
"$.$.$.$.$.$.$.$.$.$.$.$.$.$.$.$.$.$.$.$.",
"$.$.$.$.$.$.$.$.$.$.$.$.$.$.$.$.$.$.$.$.",
"$.$.$.$.$.$.$.$.$.$.$.$.$.$.$.$.$.$.$.$.",
"$.$.$.$.$.$.$.$.$.$.$.$.$.$.$.$.$.$.$.$."};
