/* XPM */
static char * restoreA_xpm[] = {
"20 44 181 2",
"  	c None",
". 	c #141312",
"+ 	c #181715",
"@ 	c #1C1B19",
"# 	c #1F1E1D",
"$ 	c #222120",
"% 	c #242321",
"& 	c #252422",
"* 	c #262523",
"= 	c #272624",
"- 	c #333231",
"; 	c #8D8B89",
"> 	c #BCBCB9",
", 	c #E8E7E5",
"' 	c #2A2928",
") 	c #5F5D5C",
"! 	c #E1E0DE",
"~ 	c #FDFCF9",
"{ 	c #2A2927",
"] 	c #282825",
"^ 	c #2C2B29",
"/ 	c #61615E",
"( 	c #FAF8F6",
"_ 	c #FCFAF8",
": 	c #302F2D",
"< 	c #2F2E2C",
"[ 	c #403F3D",
"} 	c #E1DFDC",
"| 	c #FBF9F6",
"1 	c #F3F1EF",
"2 	c #DDDBD9",
"3 	c #363533",
"4 	c #353432",
"5 	c #393836",
"6 	c #959391",
"7 	c #FAF7F4",
"8 	c #DCDAD8",
"9 	c #9C9C9C",
"0 	c #7A7A7A",
"a 	c #3C3B39",
"b 	c #3A3A37",
"c 	c #403F3E",
"d 	c #C1BEBB",
"e 	c #F9F6F2",
"f 	c #DBD9D6",
"g 	c #CCCAC7",
"h 	c #42413F",
"i 	c #40403D",
"j 	c #474644",
"k 	c #E6E2DF",
"l 	c #F8F4F0",
"m 	c #DBD8D4",
"n 	c #484745",
"o 	c #464643",
"p 	c #4B4B48",
"q 	c #E3E0D9",
"r 	c #F4F0EA",
"s 	c #D8D4D0",
"t 	c #4E4D4B",
"u 	c #4D4D4A",
"v 	c #4E4E4B",
"w 	c #BEBBB5",
"x 	c #F0ECE3",
"y 	c #D4D1CA",
"z 	c #C6C3BE",
"A 	c #545451",
"B 	c #535351",
"C 	c #525150",
"D 	c #9A9691",
"E 	c #EDE8DE",
"F 	c #D2CEC7",
"G 	c #949494",
"H 	c #5A5A57",
"I 	c #595856",
"J 	c #595957",
"K 	c #D6D1C7",
"L 	c #EAE4D9",
"M 	c #E3DED3",
"N 	c #D0CBC3",
"O 	c #60605D",
"P 	c #60605C",
"Q 	c #5B5B58",
"R 	c #777671",
"S 	c #E6DFD3",
"T 	c #E7E0D4",
"U 	c #666663",
"V 	c #646461",
"W 	c #5A5A58",
"X 	c #787670",
"Y 	c #D1CBBE",
"Z 	c #E4DDCF",
"` 	c #6C6C69",
" .	c #6A6A67",
"..	c #61615F",
"+.	c #5C5B58",
"@.	c #959189",
"#.	c #B5B0A4",
"$.	c #D3CCBD",
"%.	c #72726F",
"&.	c #6D6D6A",
"*.	c #636360",
"=.	c #5C5C5A",
"-.	c #575755",
";.	c #787875",
">.	c #777775",
",.	c #3C3B37",
"'.	c #151412",
").	c #151413",
"!.	c #161515",
"~.	c #161615",
"{.	c #252321",
"].	c #252421",
"^.	c #242322",
"/.	c #393835",
"(.	c #43423F",
"_.	c #4B4A48",
":.	c #302F2C",
"<.	c #4A4946",
"[.	c #504E4C",
"}.	c #2A2926",
"|.	c #2B2A27",
"1.	c #545350",
"2.	c #545351",
"3.	c #2F2F2D",
"4.	c #333330",
"5.	c #535350",
"6.	c #585855",
"7.	c #575654",
"8.	c #52524F",
"9.	c #363534",
"0.	c #494746",
"a.	c #5D5B5A",
"b.	c #4A4948",
"c.	c #434241",
"d.	c #3D3C3A",
"e.	c #575553",
"f.	c #62605E",
"g.	c #5C5A59",
"h.	c #484746",
"i.	c #595756",
"j.	c #41413F",
"k.	c #434240",
"l.	c #63615F",
"m.	c #676562",
"n.	c #615F5C",
"o.	c #4D4C4A",
"p.	c #474645",
"q.	c #494845",
"r.	c #676662",
"s.	c #6B6966",
"t.	c #656361",
"u.	c #52514F",
"v.	c #4D4C4B",
"w.	c #646360",
"x.	c #6E6D69",
"y.	c #686864",
"z.	c #565654",
"A.	c #666562",
"B.	c #62615E",
"C.	c #72716D",
"D.	c #6D6C69",
"E.	c #5B5B59",
"F.	c #73726E",
"G.	c #757470",
"H.	c #5F5F5C",
"I.	c #656561",
"J.	c #7B7A74",
"K.	c #6A6A65",
"L.	c #7C7B75",
"M.	c #807E78",
"N.	c #6C6C68",
"O.	c #696967",
"P.	c #686866",
"Q.	c #74736F",
"R.	c #7A7975",
"S.	c #807F7A",
"T.	c #6B6B68",
"U.	c #71716E",
"V.	c #6F6F6C",
"W.	c #6D6D6B",
"X.	c #6C6C6A",
". . . . . . + @ # $ $ # @ + . . . . . . ",
"% % % % % % & * * = = * * & % % % % % % ",
"% % % % % = - ; > , , > ; - = % % % % % ",
"% % % % ' ) ! ~ ~ ~ ~ ~ ~ ! ) ' % % % % ",
"{ { ] ^ / ( _ _ _ _ _ _ _ _ ( / ^ ] { { ",
": < < [ } | 1 2 2 2 2 2 2 1 | } [ < < : ",
"3 4 5 6 7 7 8 9 0 0 0 0 9 8 7 7 6 5 4 3 ",
"a b c d e e f 0 g f f g 0 f e e d c b a ",
"h i j k l l m 0 m l l m 0 m l l k j i h ",
"n o p q r r s 0 s r r s 0 s r r q p o n ",
"t u v w x x y 0 z y y z 0 y x x w v u t ",
"A B C D E E F G 0 0 0 0 G F E E D C B A ",
"H H I J K L M N N N N N N M L K J I H H ",
"O O P Q R S T T T T T T T T S R Q P O O ",
"U U U V W X Y Z Z Z Z Z Z Y X W V U U U ",
"` ` ` `  ...+.@.#.$.$.#.@.+... .` ` ` ` ",
"%.%.%.%.%.%.&.*.=.-.-.=.*.&.%.%.%.%.%.%.",
";.;.;.;.;.;.;.>.;.;.;.;.>.;.;.;.;.;.;.;.",
",.,.,.,.,.,.,.,.,.,.,.,.,.,.,.,.,.,.,.,.",
",.,.,.,.,.,.,.,.,.,.,.,.,.,.,.,.,.,.,.,.",
",.,.,.,.,.,.,.,.,.,.,.,.,.,.,.,.,.,.,.,.",
",.,.,.,.,.,.,.,.,.,.,.,.,.,.,.,.,.,.,.,.",
". . . . . . '.).!.~.~.!.).'.. . . . . . ",
"% % % % % % % {.{.].].{.{.% % % % % % % ",
"% % % ^.% ].= /.(._._.(./.= ].% ^.% % % ",
"% % % % & :.<.[.[.[.[.[.[.<.:.& % % % % ",
"{ { }.|.4 1.2.2.2.2.2.2.2.2.1.4 |.}.{ { ",
": : 3.4.5.6.7.8.8.8.8.8.8.7.6.5.4.3.: : ",
"3 3 9.0.a.a.7.b.c.c.c.c.b.7.a.a.0.9.3 3 ",
"a a d.e.f.f.g.h.i.g.g.i.h.g.f.f.e.d.a a ",
"h j.k.l.m.m.n.o.n.m.m.n.o.n.m.m.l.k.j.h ",
"n p.q.r.s.s.t.u.t.s.s.t.u.t.s.s.r.q.p.n ",
"t v.v w.x.x.y.z.A.y.y.A.z.y.x.x.w.v v.t ",
"A A B B.C.C.D...E.E.E.E...D.C.C.B.B A A ",
"H H H H F.R G.C.C.C.C.C.C.G.R F.H H H H ",
"O O O H.I.J.J.J.J.J.J.J.J.J.J.I.H.O O O ",
"U U U U V K.L.M.M.M.M.M.M.L.K.*.U U U U ",
"` ` ` N.N.O.P.Q.R.S.S.R.Q.P.O.T.` ` ` ` ",
"%.%.%.%.%.%.U.V.W.X.X.W.V.U.%.%.%.%.%.%.",
";.;.;.;.;.;.;.;.;.;.;.;.;.;.;.;.;.;.;.;.",
",.,.,.,.,.,.,.,.,.,.,.,.,.,.,.,.,.,.,.,.",
",.,.,.,.,.,.,.,.,.,.,.,.,.,.,.,.,.,.,.,.",
",.,.,.,.,.,.,.,.,.,.,.,.,.,.,.,.,.,.,.,.",
",.,.,.,.,.,.,.,.,.,.,.,.,.,.,.,.,.,.,.,."};
