/* XPM */
static char * restoreO_xpm[] = {
"20 44 191 2",
"  	c None",
". 	c #141312",
"+ 	c #171614",
"@ 	c #191917",
"# 	c #1B1B19",
"$ 	c #1E1D1C",
"% 	c #242321",
"& 	c #242421",
"* 	c #252422",
"= 	c #262522",
"- 	c #262623",
"; 	c #242322",
"> 	c #2F2E2C",
", 	c #6D6C6A",
"' 	c #8E8E8B",
") 	c #ADACAA",
"! 	c #282826",
"~ 	c #4D4C4A",
"{ 	c #A8A7A5",
"] 	c #BCBBB8",
"^ 	c #2A2927",
"/ 	c #292826",
"( 	c #2C2A29",
"_ 	c #51504E",
": 	c #BCB9B8",
"< 	c #BDBBB9",
"[ 	c #302F2D",
"} 	c #302F2C",
"| 	c #2F2E2D",
"1 	c #3B3A39",
"2 	c #ABAAA8",
"3 	c #BDBCBA",
"4 	c #B8B6B5",
"5 	c #363533",
"6 	c #353433",
"7 	c #383735",
"8 	c #787774",
"9 	c #BFBCB9",
"0 	c #AAA8A6",
"a 	c #7D7D7C",
"b 	c #656564",
"c 	c #3C3B39",
"d 	c #3B3B39",
"e 	c #3F3E3C",
"f 	c #999794",
"g 	c #C0BEBA",
"h 	c #ABA9A6",
"i 	c #676766",
"j 	c #A09F9C",
"k 	c #42413F",
"l 	c #403F3E",
"m 	c #464542",
"n 	c #B5B2AF",
"o 	c #C1BEBB",
"p 	c #ADABA7",
"q 	c #696968",
"r 	c #484745",
"s 	c #474744",
"t 	c #4A4947",
"u 	c #B4B1AC",
"v 	c #C0BDB8",
"w 	c #ADA9A6",
"x 	c #6B6A6A",
"y 	c #4E4D4B",
"z 	c #4D4D4A",
"A 	c #9D9A95",
"B 	c #C0BCB5",
"C 	c #ACA9A4",
"D 	c #6D6C6C",
"E 	c #A29F9C",
"F 	c #545451",
"G 	c #525250",
"H 	c #84827D",
"I 	c #BEBBB3",
"J 	c #ACA9A3",
"K 	c #80807F",
"L 	c #6E6E6D",
"M 	c #5A5A57",
"N 	c #595856",
"O 	c #595957",
"P 	c #B0ADA5",
"Q 	c #BEBAB1",
"R 	c #B9B6AD",
"S 	c #ACA9A2",
"T 	c #60605D",
"U 	c #5D5D59",
"V 	c #706F6B",
"W 	c #BEB9AF",
"X 	c #BEB9B0",
"Y 	c #666663",
"Z 	c #646461",
"` 	c #5E5E5B",
" .	c #73716C",
"..	c #B1ADA3",
"+.	c #BEB9AE",
"@.	c #6C6C69",
"#.	c #6B6B68",
"$.	c #656562",
"%.	c #61615D",
"&.	c #898680",
"*.	c #9F9C92",
"=.	c #B4AFA4",
"-.	c #72726F",
";.	c #737370",
">.	c #73736F",
",.	c #6E6E6C",
"'.	c #676765",
").	c #626261",
"!.	c #5F5F5D",
"~.	c #787875",
"{.	c #797975",
"].	c #777775",
"^.	c #3C3B37",
"/.	c #151412",
"(.	c #151413",
"_.	c #161515",
":.	c #161615",
"<.	c #252321",
"[.	c #252421",
"}.	c #272624",
"|.	c #393835",
"1.	c #43423F",
"2.	c #4B4A48",
"3.	c #4A4946",
"4.	c #504E4C",
"5.	c #2A2926",
"6.	c #2B2A27",
"7.	c #353432",
"8.	c #545350",
"9.	c #545351",
"0.	c #2F2F2D",
"a.	c #333330",
"b.	c #535350",
"c.	c #585855",
"d.	c #575654",
"e.	c #52524F",
"f.	c #363534",
"g.	c #494746",
"h.	c #5D5B5A",
"i.	c #4A4948",
"j.	c #434241",
"k.	c #3D3C3A",
"l.	c #575553",
"m.	c #62605E",
"n.	c #5C5A59",
"o.	c #484746",
"p.	c #595756",
"q.	c #41413F",
"r.	c #434240",
"s.	c #63615F",
"t.	c #676562",
"u.	c #615F5C",
"v.	c #474645",
"w.	c #494845",
"x.	c #676662",
"y.	c #6B6966",
"z.	c #656361",
"A.	c #52514F",
"B.	c #4D4C4B",
"C.	c #4E4E4B",
"D.	c #646360",
"E.	c #6E6D69",
"F.	c #686864",
"G.	c #565654",
"H.	c #666562",
"I.	c #535351",
"J.	c #62615E",
"K.	c #72716D",
"L.	c #6D6C69",
"M.	c #61615F",
"N.	c #5B5B59",
"O.	c #73726E",
"P.	c #777671",
"Q.	c #757470",
"R.	c #5F5F5C",
"S.	c #656561",
"T.	c #7B7A74",
"U.	c #6A6A65",
"V.	c #7C7B75",
"W.	c #807E78",
"X.	c #636360",
"Y.	c #6C6C68",
"Z.	c #696967",
"`.	c #686866",
" +	c #74736F",
".+	c #7A7975",
"++	c #807F7A",
"@+	c #71716E",
"#+	c #6F6F6C",
"$+	c #6D6D6B",
"%+	c #6C6C6A",
". . . . . . + @ # $ $ # @ + . . . . . . ",
"% % % % % & * = = - - = = * & % % % % % ",
"% % % ; % - > , ' ) ) ' , > - % ; % % % ",
"% % % % ! ~ { ] ] ] ] ] ] { ~ ! % % % % ",
"^ ^ / ( _ : < < < < < < < < : _ ( / ^ ^ ",
"[ } | 1 2 3 4 { { { { { { 4 3 2 1 | } [ ",
"5 6 7 8 9 9 0 a b b b b a 0 9 9 8 7 6 5 ",
"c d e f g g h i j h h j i h g g f e d c ",
"k l m n o o p q p o o p q p o o n m l k ",
"r s t u v v w x w v v w x w v v u t s r ",
"y z y A B B C D E C C E D C B B A y z y ",
"F F G H I I J K L L L L K J I I H G F F ",
"M M N O P Q R S S S S S S R Q P O N M M ",
"T T T U V W X X X X X X X X W V U T T T ",
"Y Y Y Z `  ...+.+.+.+.+.+... .` Z Y Y Y ",
"@.@.@.@.#.$.%.&.*.=.=.*.&.%.$.#.@.@.#.@.",
"-.-.-.-.;.>.,.'.).!.!.).'.,.>.;.-.-.-.-.",
"~.~.~.~.~.~.{.].~.~.~.~.].{.~.~.~.~.~.~.",
"^.^.^.^.^.^.^.^.^.^.^.^.^.^.^.^.^.^.^.^.",
"^.^.^.^.^.^.^.^.^.^.^.^.^.^.^.^.^.^.^.^.",
"^.^.^.^.^.^.^.^.^.^.^.^.^.^.^.^.^.^.^.^.",
"^.^.^.^.^.^.^.^.^.^.^.^.^.^.^.^.^.^.^.^.",
". . . . . . /.(._.:.:._.(./.. . . . . . ",
"% % % % % % % <.<.[.[.<.<.% % % % % % % ",
"% % % ; % [.}.|.1.2.2.1.|.}.[.% ; % % % ",
"% % % % * } 3.4.4.4.4.4.4.3.} * % % % % ",
"^ ^ 5.6.7.8.9.9.9.9.9.9.9.9.8.7.6.5.^ ^ ",
"[ [ 0.a.b.c.d.e.e.e.e.e.e.d.c.b.a.0.[ [ ",
"5 5 f.g.h.h.d.i.j.j.j.j.i.d.h.h.g.f.5 5 ",
"c c k.l.m.m.n.o.p.n.n.p.o.n.m.m.l.k.c c ",
"k q.r.s.t.t.u.~ u.t.t.u.~ u.t.t.s.r.q.k ",
"r v.w.x.y.y.z.A.z.y.y.z.A.z.y.y.x.w.v.r ",
"y B.C.D.E.E.F.G.H.F.F.H.G.F.E.E.D.C.B.y ",
"F F I.J.K.K.L.M.N.N.N.N.M.L.K.K.J.I.F F ",
"M M M M O.P.Q.K.K.K.K.K.K.Q.P.O.M M M M ",
"T T T R.S.T.T.T.T.T.T.T.T.T.T.S.R.T T T ",
"Y Y Y Y Z U.V.W.W.W.W.W.W.V.U.X.Y Y Y Y ",
"@.@.@.Y.Y.Z.`. +.+++++.+ +`.Z.#.@.@.@.@.",
"-.-.-.-.-.-.@+#+$+%+%+$+#+@+-.-.-.-.-.-.",
"~.~.~.~.~.~.~.~.~.~.~.~.~.~.~.~.~.~.~.~.",
"^.^.^.^.^.^.^.^.^.^.^.^.^.^.^.^.^.^.^.^.",
"^.^.^.^.^.^.^.^.^.^.^.^.^.^.^.^.^.^.^.^.",
"^.^.^.^.^.^.^.^.^.^.^.^.^.^.^.^.^.^.^.^.",
"^.^.^.^.^.^.^.^.^.^.^.^.^.^.^.^.^.^.^.^."};
