/* XPM */
static char * collapse_xpm[] = {
"12 25 20 1",
" 	c None",
".	c #5C5B56",
"+	c #595853",
"@	c #575652",
"#	c #565550",
"$	c #53524E",
"%	c #52514C",
"&	c #51504B",
"*	c #2C2C29",
"=	c #4E4D48",
"-	c #4D4C47",
";	c #4B4A46",
">	c #4A4945",
",	c #474642",
"'	c #464541",
")	c #45443F",
"!	c #42413D",
"~	c #41403B",
"{	c #3F3E3A",
"]	c #3C3B37",
"............",
"............",
"++++++++++++",
"++++++++++++",
"@@@@@@@@@@@@",
"############",
"$$$$$$$$$$$$",
"%%%%%%%%%%%%",
"&&&&&&&&&&&&",
"&&&&****&&&&",
"============",
"------------",
";;;;****;;;;",
">>>>>>>>>>>>",
",,,,,,,,,,,,",
",,,,****,,,,",
"''''''''''''",
"))))))))))))",
"!!!!!!!!!!!!",
"~~~~~~~~~~~~",
"{{{{{{{{{{{{",
"{{{{{{{{{{{{",
"]]]]]]]]]]]]",
"]]]]]]]]]]]]",
"]]]]]]]]]]]]"};
