/* XPM */
static char * desktop_xpm[] = {
"16 16 123 2",
"  	c None",
". 	c #AA9B93",
"+ 	c #A9A88E",
"@ 	c #A8A88D",
"# 	c #AB9B94",
"$ 	c #898867",
"% 	c #E4E3D1",
"& 	c #E9E8D6",
"* 	c #E3E2CF",
"= 	c #8A8867",
"- 	c #67683D",
"; 	c #D8D6B9",
"> 	c #626337",
", 	c #893080",
"' 	c #7D5E8C",
") 	c #D7D7D7",
"! 	c #C1B3C4",
"~ 	c #7C3386",
"{ 	c #88368F",
"] 	c #913B96",
"^ 	c #974099",
"/ 	c #9A459C",
"( 	c #9E479E",
"_ 	c #A049A0",
": 	c #9E479F",
"< 	c #9B459C",
"[ 	c #AD6FAF",
"} 	c #852C7C",
"| 	c #8C629B",
"1 	c #963C9E",
"2 	c #A142A6",
"3 	c #A949AB",
"4 	c #AF4FB0",
"5 	c #B555B4",
"6 	c #BA59B7",
"7 	c #BC5CB8",
"8 	c #BD5CB8",
"9 	c #BA5AB7",
"0 	c #B655B4",
"a 	c #C47CC4",
"b 	c #812878",
"c 	c #8C5D9B",
"d 	c #9E3FA4",
"e 	c #A747AA",
"f 	c #AF4FAF",
"g 	c #B757B5",
"h 	c #BE5EB9",
"i 	c #C463BD",
"j 	c #C769BE",
"k 	c #C564BE",
"l 	c #BF5EBA",
"m 	c #C77BC5",
"n 	c #7D2474",
"o 	c #8B5799",
"p 	c #82368F",
"q 	c #933B9C",
"r 	c #AA4AAC",
"s 	c #B353B2",
"t 	c #BC5BB8",
"u 	c #CA71BE",
"v 	c #CE7BBF",
"w 	c #CF7BBF",
"x 	c #CB72BF",
"y 	c #C565BE",
"z 	c #C97AC5",
"A 	c #792070",
"B 	c #875095",
"C 	c #C9B6CB",
"D 	c #A243A7",
"E 	c #AB4BAD",
"F 	c #B554B3",
"G 	c #BE5DB9",
"H 	c #C668BE",
"I 	c #CD77BF",
"J 	c #D386C0",
"K 	c #CD78BF",
"L 	c #C876C4",
"M 	c #751C6C",
"N 	c #80488F",
"O 	c #A141A6",
"P 	c #CA6FBE",
"Q 	c #CE79BF",
"R 	c #CA70BE",
"S 	c #C46EC0",
"T 	c #711968",
"U 	c #784189",
"V 	c #9D3EA4",
"W 	c #A646A9",
"X 	c #AE4EAF",
"Y 	c #B656B4",
"Z 	c #BD5DB9",
"` 	c #C362BC",
" .	c #C666BE",
"..	c #C362BD",
"+.	c #BC64BA",
"@.	c #6D1464",
"#.	c #6D3980",
"$.	c #753285",
"%.	c #853791",
"&.	c #943B9D",
"*.	c #A041A6",
"=.	c #A748AB",
"-.	c #B454B3",
";.	c #B858B6",
">.	c #BB5AB7",
",.	c #B258B3",
"'.	c #691361",
").	c #622870",
"!.	c #6D327F",
"~.	c #7C378B",
"{.	c #8A3B96",
"].	c #973EA0",
"^.	c #A143A6",
"/.	c #A649AA",
"(.	c #AB4DAD",
"_.	c #AE51AF",
":.	c #B052B1",
"<.	c #AF51B0",
"[.	c #973A98",
"}.	c #6C1364",
"|.	c #640E5D",
"1.	c #650D5C",
"2.	c #680F5F",
"                                ",
". + @ @ @ @ @ @ @ @ @ @ @ @ + # ",
"$ % & & & & & & & & & & & & * = ",
"- ; ; ; ; ; ; ; ; ; ; ; ; ; ; - ",
"> > > > > > > > > > > > > > > > ",
", ' ) ! ~ { ] ^ / ( _ _ : < [ , ",
"} | ) ) 1 2 3 4 5 6 7 8 9 0 a } ",
"b c ) ) d e f g h i j j k l m b ",
"n o p q 2 r s t k u v w x y z n ",
"A B ) C D E F G H I J J K j L A ",
"M N ) ) O r s t i P K Q R k S M ",
"T U ) ) V W X Y Z `  . ...Z +.T ",
"@.#.$.%.&.*.=.X -.;.>.>.;.-.,.@.",
"'.).!.~.{.].^./.(._.:.:.<.(.[.}.",
"  |.1.1.1.1.1.1.1.1.1.1.1.1.2.  ",
"                                "};
