/* XPM */
static char * linux_Ensibull_xpm[] = {
"93 24 304 2",
"  	c None",
". 	c #5C5B56",
"+ 	c #585752",
"@ 	c #3F3E3B",
"# 	c #181817",
"$ 	c #070707",
"% 	c #020202",
"& 	c #1C1C1A",
"* 	c #42423E",
"= 	c #595853",
"- 	c #565551",
"; 	c #35312F",
"> 	c #010101",
", 	c #000000",
"' 	c #030302",
") 	c #363633",
"! 	c #51504B",
"~ 	c #0A0A0A",
"{ 	c #1A0404",
"] 	c #5D0D0F",
"^ 	c #540C0D",
"/ 	c #3E090A",
"( 	c #4F0B0D",
"_ 	c #680E11",
": 	c #520B0D",
"< 	c #0C0202",
"[ 	c #111110",
"} 	c #54534F",
"| 	c #575652",
"1 	c #4F4E4B",
"2 	c #040404",
"3 	c #060101",
"4 	c #040101",
"5 	c #CF1C21",
"6 	c #E92025",
"7 	c #E72025",
"8 	c #881316",
"9 	c #C41B1F",
"0 	c #090908",
"a 	c #53524E",
"b 	c #565550",
"c 	c #54534E",
"d 	c #0A0A09",
"e 	c #050101",
"f 	c #45090B",
"g 	c #D21D21",
"h 	c #D41D22",
"i 	c #E51F24",
"j 	c #6B0F11",
"k 	c #131312",
"l 	c #2C2C29",
"m 	c #731012",
"n 	c #D31D22",
"o 	c #490A0C",
"p 	c #901417",
"q 	c #CA1C20",
"r 	c #010000",
"s 	c #3B3936",
"t 	c #76736C",
"u 	c #DFD8C8",
"v 	c #5D5C57",
"w 	c #52514C",
"x 	c #4E4D48",
"y 	c #1B0404",
"z 	c #4C0A0C",
"A 	c #4E0B0C",
"B 	c #861215",
"C 	c #370809",
"D 	c #040403",
"E 	c #75726B",
"F 	c #68665F",
"G 	c #55544E",
"H 	c #5F5D57",
"I 	c #5D5B55",
"J 	c #32312E",
"K 	c #390809",
"L 	c #E31F24",
"M 	c #2E0607",
"N 	c #BC1A1E",
"O 	c #700F12",
"P 	c #3B3A37",
"Q 	c #74726A",
"R 	c #5E5C56",
"S 	c #5C5A54",
"T 	c #0F0F0E",
"U 	c #5F0D0F",
"V 	c #B8191D",
"W 	c #2D0607",
"X 	c #1C0404",
"Y 	c #690E11",
"Z 	c #E21F24",
"` 	c #971518",
" .	c #7A1113",
"..	c #150303",
"+.	c #1B1B19",
"@.	c #77756D",
"#.	c #C3BDAF",
"$.	c #DBD4C5",
"%.	c #C2BCAE",
"&.	c #66645E",
"*.	c #8A867D",
"=.	c #CEC8B9",
"-.	c #DDD6C6",
";.	c #D0CABB",
">.	c #8F8C82",
",.	c #76746C",
"'.	c #BFB9AC",
").	c #DBD4C4",
"!.	c #8D897F",
"~.	c #595852",
"{.	c #0B0B0B",
"].	c #060303",
"^.	c #AB171B",
"/.	c #530B0D",
"(.	c #080101",
"_.	c #8F1417",
":.	c #D91E22",
"<.	c #300708",
"[.	c #726F68",
"}.	c #595752",
"|.	c #BEB8AA",
"1.	c #6D6B64",
"2.	c #64625C",
"3.	c #BFB9AB",
"4.	c #BAB5A7",
"5.	c #605E58",
"6.	c #DED7C7",
"7.	c #928E84",
"8.	c #6B6962",
"9.	c #79766E",
"0.	c #CAC4B5",
"a.	c #86837A",
"b.	c #858178",
"c.	c #575550",
"d.	c #4D4C47",
"e.	c #060404",
"f.	c #8C191C",
"g.	c #DD1E23",
"h.	c #716F67",
"i.	c #D8D1C2",
"j.	c #CFC9BA",
"k.	c #726F67",
"l.	c #7E7B72",
"m.	c #DCD5C5",
"n.	c #4F4E49",
"o.	c #6A6861",
"p.	c #67655E",
"q.	c #585651",
"r.	c #827F76",
"s.	c #9B978C",
"t.	c #C8C2B3",
"u.	c #56544F",
"v.	c #4B4A46",
"w.	c #6C3536",
"x.	c #D01F24",
"y.	c #706D66",
"z.	c #696761",
"A.	c #5F5E58",
"B.	c #575651",
"C.	c #53524D",
"D.	c #4D4C48",
"E.	c #C0BAAC",
"F.	c #D6CFC0",
"G.	c #A9A499",
"H.	c #7C7971",
"I.	c #4C4B47",
"J.	c #5C5A55",
"K.	c #75736B",
"L.	c #74716A",
"M.	c #54524E",
"N.	c #4A4945",
"O.	c #080808",
"P.	c #222222",
"Q.	c #FCFCFC",
"R.	c #AC9696",
"S.	c #6B2A2C",
"T.	c #D11D21",
"U.	c #B2181C",
"V.	c #060606",
"W.	c #6F6C65",
"X.	c #55544F",
"Y.	c #53514D",
"Z.	c #A09B91",
"`.	c #D5CEBF",
" +	c #B0AB9E",
".+	c #5A5953",
"++	c #727068",
"@+	c #706E66",
"#+	c #474642",
"$+	c #171716",
"%+	c #0E0E0E",
"&+	c #333333",
"*+	c #313131",
"=+	c #141414",
"-+	c #E7E7E7",
";+	c #FFFFFF",
">+	c #E9E9E9",
",+	c #614B4B",
"'+	c #451E1F",
")+	c #961C1F",
"!+	c #CE1C21",
"~+	c #E82025",
"{+	c #751013",
"]+	c #070101",
"^+	c #151513",
"/+	c #6D6A63",
"(+	c #504F4A",
"_+	c #4C4B46",
":+	c #7D7A72",
"<+	c #989389",
"[+	c #C7C1B2",
"}+	c #64625B",
"|+	c #5E5C57",
"1+	c #88847B",
"2+	c #2A2A27",
"3+	c #474747",
"4+	c #CFCFCF",
"5+	c #5B5B5B",
"6+	c #FEFEFE",
"7+	c #828282",
"8+	c #555353",
"9+	c #534141",
"0+	c #4D3435",
"a+	c #7B5354",
"b+	c #603B3C",
"c+	c #472C2C",
"d+	c #55534E",
"e+	c #67645E",
"f+	c #87837A",
"g+	c #A7A297",
"h+	c #C8C2B4",
"i+	c #737069",
"j+	c #817E75",
"k+	c #DAD3C3",
"l+	c #827E76",
"m+	c #D3CCBD",
"n+	c #A9A498",
"o+	c #5A5852",
"p+	c #CAC3B5",
"q+	c #464541",
"r+	c #41403C",
"s+	c #EDEDED",
"t+	c #969696",
"u+	c #44433F",
"v+	c #6C6962",
"w+	c #716E67",
"x+	c #52504B",
"y+	c #B8B2A5",
"z+	c #D7D0C1",
"A+	c #66645D",
"B+	c #DAD3C4",
"C+	c #CDC7B8",
"D+	c #B7B1A5",
"E+	c #45443F",
"F+	c #292926",
"G+	c #606060",
"H+	c #D5D5D5",
"I+	c #9B9B9B",
"J+	c #FBFBFB",
"K+	c #5C5C5C",
"L+	c #2D2C29",
"M+	c #42413D",
"N+	c #403F3B",
"O+	c #141313",
"P+	c #9D9D9D",
"Q+	c #C7C7C7",
"R+	c #101010",
"S+	c #B8B8B8",
"T+	c #F0F0F0",
"U+	c #717170",
"V+	c #41403B",
"W+	c #393834",
"X+	c #F4F4F4",
"Y+	c #E8E8E8",
"Z+	c #7C7C7C",
"`+	c #100F0F",
" @	c #3D3C37",
".@	c #3F3E3A",
"+@	c #363532",
"@@	c #565655",
"#@	c #E4E4E4",
"$@	c #F7F7F7",
"%@	c #D9D9D9",
"&@	c #3F3E3E",
"*@	c #151414",
"=@	c #222120",
"-@	c #090909",
";@	c #545454",
">@	c #B1B1B1",
",@	c #E1E1E1",
"'@	c #F8F8F8",
")@	c #DDDDDD",
"!@	c #A9A9A9",
"~@	c #232220",
"{@	c #3D3C38",
"]@	c #3C3B37",
"^@	c #363531",
"/@	c #232320",
"(@	c #1B1B1A",
"_@	c #030303",
":@	c #0F0F0F",
"<@	c #252522",
"[@	c #383733",
"}@	c #32322D",
". . . . . . . . . . . . . . . . . . . . . . . . . . . . . . . . . . . . . . . . . . . . . . . . . . . . . . . . . . . . . . . . . . . . . . . . . . . . . . . . . . . . . . . . . . . . . ",
". . . . . . . . . . . . + @ # $ % % $ & * = . . . . . . . . . . . . . . . . . . . . . . . . . . . . . . . . . . . . . . . . . . . . . . . . . . . . . . . . . . . . . . . . . . . . . . . ",
"= = = = = = = = = = - ; > , , , , , , , , ' ) + = = = = = = = = = = = = = = = = = = = = = = = = = = = = = = = = = = = = = = = = = = = = = = = = = = = = = = = = = = = = = = = = = = = = = ",
"= = = = = = = = = ! ~ , , { ] ^ / ( _ : < , , [ } = = = = = = = = = = = = = = = = = = = = = = = = = = = = = = = = = = = = = = = = = = = = = = = = = = = = = = = = = = = = = = = = = = = = ",
"| | | | | | | | 1 2 3 , 4 5 6 6 6 6 7 8 9 < , , 0 a | | | | | | | | | | | | | | | | | | | | | | | | | | | | | | | | | | | | | | | | | | | | | | | | | | | | | | | | | | | | | | | | | | | ",
"b b b b b b b c d e , , f g h 6 6 6 6 i 6 j , , , k b b b b b b b b b b b b b b b b b b b b b b b b b b b b b b b b b b b b b b b b b b b b b b b b b b b b b b b b b b b b b b b b b b b ",
"a a a a a a a l , , , , m n o p g 6 6 6 6 q r , , , s a a a a a a a a a a a a a a a a a a a a a a a a a a a a a a a a t u v a t u v a a a a a a a a a a a a a a a t u v a t u v a a a a a ",
"w w w w w w x > , y z A B 6 6 6 6 6 6 6 6 6 C , , , D ! w w w w w w E u u u u u u F w w w w w w w w w w w w w w w w w G H w w E u I w w w w w w w w w w w w w w w E u I w E u I w w w w w ",
"! ! ! ! ! ! J , K L 6 6 M _ N 6 6 6 6 6 6 6 O , , , , P ! ! ! ! ! ! Q u F R R R R w ! ! ! ! ! ! ! ! ! ! ! ! ! ! ! ! ! ! ! ! ! Q u S ! ! ! ! ! ! ! ! ! ! ! ! ! ! ! Q u S ! Q u S ! ! ! ! ! ",
"! ! ! ! ! ! T , U 6 6 6 V W , X Y Z 6 6 6 6 `  ..., , +.! ! ! ! ! ! Q u S ! ! ! ! ! ! Q u @.#.$.%.&.! ! *.=.-.;.>.! ! Q u S ! Q u ,.'.).=.!.! Q u S ! ! Q u ~.! ! Q u S ! Q u S ! ! ! ! ! ",
"x x x x x x {., ].^.6 6 6 6 ^./.(._.6 6 6 6 Z 6 :.<., $ x x x x x x [.u }.x x x x x x [.u |.1.2.3.4.x 5.6.7.H 8.9.x x [.u }.x [.u 0.9.H a.).b.[.u }.x x [.u c.x x [.u }.x [.u }.x x x x x ",
"d.d.d.d.d.d.% , , e.f.6 6 6 6 6 g.9 6 6 6 6 6 6 6 _., % d.d.d.d.d.d.h.u i.i.i.i.j.d.d.h.u k.d.d.l.m.n.o.u p.d.d.d.d.d.h.u q.d.h.u r.d.d.d.s.t.h.u q.d.d.h.u u.d.d.h.u q.d.h.u q.d.d.d.d.d.",
"v.v.v.v.v.v.> , , , , w.x.6 6 6 6 6 6 6 6 6 6 6 6 Y , % v.v.v.v.v.v.y.u z.A.A.A.R v.v.y.u B.v.v.y.u C.D.E.F.G.H.I.v.v.y.u b v.y.u J.v.v.v.K.u L.u b v.v.y.u M.v.v.y.u b v.y.u b v.v.v.v.v.",
"N.N.N.N.N.N.O., , , P.Q.R.S.T.6 6 6 6 6 6 6 6 6 U.e , V.N.N.N.N.N.N.W.u X.N.N.N.N.N.N.W.u X.N.N.W.u Y.N.I.t Z.`. +N.N.W.u X.N.W.u .+N.N.N.E u ++u X.N.N.@+u Y.N.N.W.u X.N.W.u X.N.N.N.N.N.",
"#+#+#+#+#+#+$+%+&+*+=+-+;+>+,+'+)+!+~+6 6 6 5 {+]+, , ^+#+#+#+#+#+#+/+u w #+#+#+#+#+#+/+u w #+#+/+u (+#+#+#+#+9.u _+#+/+u w #+/+u :+#+#+#+<+[+}+u |+#+#+1+u (+#+#+/+u w #+/+u w #+#+#+#+#+",
"#+#+#+#+#+#+2+3+;+;+4+5+6+;+Q.7+8+9+0+a+b+c+, , , , , J #+#+#+#+#+#+/+u 5.d+d+d+d+N.#+/+u w #+#+/+u (+e+f+|+S g+=.#+#+/+u w #+/+u h+i+q.j+k+l+N.m+n+o+h.p+u (+#+#+/+u w #+/+u w #+#+#+#+#+",
"q+q+q+q+q+q+r+=+s+;+;+;+;+;+;+;+;+;+;+;+;+t+, , , , % u+q+q+q+q+q+q+v+u u u u u u w+q+v+u x+q+q+v+u n.R y+z+m.|.A+q+q+v+u x+q+v+u y.|.B+C+1+q+q+y.p+B+D+:+u n.q+q+v+u x+q+v+u x+q+q+q+q+q+",
"E+E+E+E+E+E+E+F+G+;+;+;+;+;+;+;+;+H+I+J+;+K+, , , {.L+E+E+E+E+E+E+E+E+E+E+E+E+E+E+E+E+E+E+E+E+E+E+E+E+E+E+E+E+E+E+E+E+E+E+E+E+E+E+E+E+E+E+E+E+E+E+E+E+E+E+E+E+E+E+E+E+E+E+E+E+E+E+E+E+E+E+",
"M+M+M+M+M+M+M+N+O+P+;+;+;+;+;+;+;+;+;+;+Q+R+S+T+U+# r+M+M+M+M+M+M+M+M+M+M+M+M+M+M+M+M+M+M+M+M+M+M+M+M+M+M+M+M+M+M+M+M+M+M+M+M+M+M+M+M+M+M+M+M+M+M+M+M+M+M+M+M+M+M+M+M+M+M+M+M+M+M+M+M+M+M+",
"V+V+V+V+V+V+V+V+W+%+t+;+;+;+;+;+;+;+;+X+5+Y+6+Z+`+ @V+V+V+V+V+V+V+V+V+V+V+V+V+V+V+V+V+V+V+V+V+V+V+V+V+V+V+V+V+V+V+V+V+V+V+V+V+V+V+V+V+V+V+V+V+V+V+V+V+V+V+V+V+V+V+V+V+V+V+V+V+V+V+V+V+V+V+",
".@.@.@.@.@.@.@.@.@+@[ @@#@;+;+;+;+;+;+s+$@%@&@*@W+.@.@.@.@.@.@.@.@.@.@.@.@.@.@.@.@.@.@.@.@.@.@.@.@.@.@.@.@.@.@.@.@.@.@.@.@.@.@.@.@.@.@.@.@.@.@.@.@.@.@.@.@.@.@.@.@.@.@.@.@.@.@.@.@.@.@.@.@",
".@.@.@.@.@.@.@.@.@.@P =@-@;@>@,@'@$@)@!@3+d ~@{@.@.@.@.@.@.@.@.@.@.@.@.@.@.@.@.@.@.@.@.@.@.@.@.@.@.@.@.@.@.@.@.@.@.@.@.@.@.@.@.@.@.@.@.@.@.@.@.@.@.@.@.@.@.@.@.@.@.@.@.@.@.@.@.@.@.@.@.@.@",
"]@]@]@]@]@]@]@]@]@]@]@]@^@/@(@%+_@2 :@(@<@[@]@]@]@]@]@]@]@]@]@]@]@]@]@]@]@]@]@]@]@]@]@]@]@]@]@]@]@]@]@]@]@]@]@]@]@]@]@]@]@]@]@]@]@]@]@]@]@]@]@]@]@]@]@]@]@]@]@]@]@]@]@]@]@]@]@]@]@]@]@]@]@",
"}@}@}@}@}@}@}@}@}@}@}@}@}@}@}@}@}@}@}@}@}@}@}@}@}@}@}@}@}@}@}@}@}@}@}@}@}@}@}@}@}@}@}@}@}@}@}@}@}@}@}@}@}@}@}@}@}@}@}@}@}@}@}@}@}@}@}@}@}@}@}@}@}@}@}@}@}@}@}@}@}@}@}@}@}@}@}@}@}@}@}@}@}@"};
