/* XPM */
static char * linux_Ensipsys_xpm[] = {
"97 24 550 2",
"  	c None",
". 	c #5C5B56",
"+ 	c #5C5954",
"@ 	c #695651",
"# 	c #6A5C56",
"$ 	c #5D5A55",
"% 	c #605F5B",
"& 	c #6A6964",
"* 	c #6F6E6A",
"= 	c #6A6965",
"- 	c #60605B",
"; 	c #5F5953",
"> 	c #6D5B56",
", 	c #68514C",
"' 	c #5C5853",
") 	c #595853",
"! 	c #6D3A37",
"~ 	c #A71C19",
"{ 	c #DF9691",
"] 	c #D4978E",
"^ 	c #896658",
"/ 	c #686763",
"( 	c #B7B7B5",
"_ 	c #DDDDDB",
": 	c #EDEDEC",
"< 	c #F4F4F3",
"[ 	c #F4F2F2",
"} 	c #ECE5E5",
"| 	c #DCDBDA",
"1 	c #B8B8B6",
"2 	c #686863",
"3 	c #9B7A6D",
"4 	c #DDACA5",
"5 	c #E2908B",
"6 	c #A1100C",
"7 	c #6C3B38",
"8 	c #723936",
"9 	c #940200",
"0 	c #C8241B",
"a 	c #F9A09A",
"b 	c #FDC8BA",
"c 	c #E5CEC1",
"d 	c #FEFDFD",
"e 	c #FFFFFD",
"f 	c #FFFEFD",
"g 	c #FEFEFC",
"h 	c #FEFEFD",
"i 	c #FCF8F8",
"j 	c #F6DCDB",
"k 	c #F4D2CF",
"l 	c #E3A4A3",
"m 	c #F8E3D8",
"n 	c #EFD8C7",
"o 	c #FFEEEA",
"p 	c #FACCC9",
"q 	c #CC4039",
"r 	c #930200",
"s 	c #6E3F3C",
"t 	c #575652",
"u 	c #634D4A",
"v 	c #8E0706",
"w 	c #AE0701",
"x 	c #E53C32",
"y 	c #FCE2DD",
"z 	c #FDFEFE",
"A 	c #FEFBF9",
"B 	c #FEFDFA",
"C 	c #FEFCF4",
"D 	c #FEF9F6",
"E 	c #FDF8F9",
"F 	c #FDF9FA",
"G 	c #FBF7F7",
"H 	c #E4B6B5",
"I 	c #CA5E4A",
"J 	c #FCF2EB",
"K 	c #FFF9F7",
"L 	c #FFD3CE",
"M 	c #E8635B",
"N 	c #AA0903",
"O 	c #921716",
"P 	c #63524F",
"Q 	c #565550",
"R 	c #575550",
"S 	c #973030",
"T 	c #991613",
"U 	c #EBC6C4",
"V 	c #FEFAF8",
"W 	c #FDF3F1",
"X 	c #FFF6F3",
"Y 	c #FCF0EE",
"Z 	c #FDF1E0",
"` 	c #FCEFEA",
" .	c #FCEEED",
"..	c #FBEEE8",
"+.	c #FCF0E3",
"@.	c #F8E9DC",
"#.	c #F3C5B5",
"$.	c #FFFDFD",
"%.	c #FFE8E4",
"&.	c #F56F66",
"*.	c #C20300",
"=.	c #900502",
"-.	c #A55B59",
";.	c #53524E",
">.	c #735451",
",.	c #CB8F8F",
"'.	c #FFFBF7",
").	c #FCEEE8",
"!.	c #FEF9F7",
"~.	c #FEF3EB",
"{.	c #FBE1E2",
"].	c #FCDECE",
"^.	c #FBDCCF",
"/.	c #FBDDC5",
"(.	c #FBDEC4",
"_.	c #F6DCD4",
":.	c #F2DBDB",
"<.	c #E0A399",
"[.	c #FEAB9A",
"}.	c #FA5A4C",
"|.	c #D40A00",
"1.	c #A10300",
"2.	c #B65A59",
"3.	c #6E5754",
"4.	c #76736C",
"5.	c #DFD8C8",
"6.	c #5D5C57",
"7.	c #52514C",
"8.	c #6A6A65",
"9.	c #F7E5E4",
"0.	c #FBE3D8",
"a.	c #FEF5F0",
"b.	c #FFFFFE",
"c.	c #FDE6D8",
"d.	c #FBC6C5",
"e.	c #FDC1A2",
"f.	c #FBB99A",
"g.	c #F7A080",
"h.	c #E68987",
"i.	c #DE8283",
"j.	c #DB8F8E",
"k.	c #DBADAD",
"l.	c #C15753",
"m.	c #DB150B",
"n.	c #AC0400",
"o.	c #9D2D2E",
"p.	c #D99999",
"q.	c #666965",
"r.	c #75726B",
"s.	c #68665F",
"t.	c #55544E",
"u.	c #5F5D57",
"v.	c #51504B",
"w.	c #B5A7A6",
"x.	c #F8DCD4",
"y.	c #F9D1C2",
"z.	c #FEF5EB",
"A.	c #FDE9D4",
"B.	c #FBBAA2",
"C.	c #FB8567",
"D.	c #FA5432",
"E.	c #F52509",
"F.	c #E0120A",
"G.	c #CD0F10",
"H.	c #BF0E0E",
"I.	c #B31010",
"J.	c #A81A1A",
"K.	c #A54242",
"L.	c #98302F",
"M.	c #871212",
"N.	c #AC4F4F",
"O.	c #A4736A",
"P.	c #A8A8A8",
"Q.	c #74726A",
"R.	c #5E5C56",
"S.	c #5A5955",
"T.	c #D3C1C2",
"U.	c #EB997F",
"V.	c #FADEC8",
"W.	c #FFF9F3",
"X.	c #F9B083",
"Y.	c #F34720",
"Z.	c #F51903",
"`.	c #F50700",
" +	c #ED0200",
".+	c #D50101",
"++	c #C80102",
"@+	c #BA0101",
"#+	c #AD0101",
"$+	c #9F0202",
"%+	c #930706",
"&+	c #871314",
"*+	c #792929",
"=+	c #764646",
"-+	c #86504A",
";+	c #B7A39B",
">+	c #585853",
",+	c #5C5A54",
"'+	c #77756D",
")+	c #C3BDAF",
"!+	c #DBD4C5",
"~+	c #C2BCAE",
"{+	c #66645E",
"]+	c #8A867D",
"^+	c #CEC8B9",
"/+	c #DDD6C6",
"(+	c #D0CABB",
"_+	c #8F8C82",
":+	c #76746C",
"<+	c #BFB9AC",
"[+	c #DBD4C4",
"}+	c #8D897F",
"|+	c #979388",
"1+	c #C7C1B2",
"2+	c #BEB9AB",
"3+	c #A29D92",
"4+	c #4E4D48",
"5+	c #61605C",
"6+	c #D7A6A3",
"7+	c #E87739",
"8+	c #FAD3AE",
"9+	c #FAC29B",
"0+	c #F04A11",
"a+	c #EB0A00",
"b+	c #ED0100",
"c+	c #ED0001",
"d+	c #E20000",
"e+	c #CC0000",
"f+	c #C10000",
"g+	c #B40000",
"h+	c #A80000",
"i+	c #9A0000",
"j+	c #8D0000",
"k+	c #810201",
"l+	c #740909",
"m+	c #681A19",
"n+	c #742829",
"o+	c #B98774",
"p+	c #5F605C",
"q+	c #726F68",
"r+	c #595752",
"s+	c #BEB8AA",
"t+	c #6D6B64",
"u+	c #64625C",
"v+	c #BFB9AB",
"w+	c #BAB5A7",
"x+	c #605E58",
"y+	c #DED7C7",
"z+	c #928E84",
"A+	c #6B6962",
"B+	c #79766E",
"C+	c #CAC4B5",
"D+	c #86837A",
"E+	c #858178",
"F+	c #5D5C56",
"G+	c #6C6A63",
"H+	c #64625B",
"I+	c #4D4C47",
"J+	c #656460",
"K+	c #D18078",
"L+	c #E64506",
"M+	c #ED672C",
"N+	c #EF4F10",
"O+	c #EB2901",
"P+	c #E30001",
"Q+	c #E50001",
"R+	c #D50001",
"S+	c #B80000",
"T+	c #AD0000",
"U+	c #A10000",
"V+	c #940000",
"W+	c #860000",
"X+	c #8F0000",
"Y+	c #950101",
"Z+	c #690303",
"`+	c #6F0001",
" @	c #C6856C",
".@	c #646560",
"+@	c #716F67",
"@@	c #D8D1C2",
"#@	c #CFC9BA",
"$@	c #726F67",
"%@	c #7E7B72",
"&@	c #DCD5C5",
"*@	c #4F4E49",
"=@	c #6A6861",
"-@	c #67655E",
";@	c #585651",
">@	c #827F76",
",@	c #9B978C",
"'@	c #C8C2B3",
")@	c #B4AEA2",
"!@	c #A49F93",
"~@	c #C1BBAD",
"{@	c #4B4A46",
"]@	c #646460",
"^@	c #C67069",
"/@	c #DF2200",
"(@	c #E52A00",
"_@	c #EA2E02",
":@	c #EA2C02",
"<@	c #DB0000",
"[@	c #DD0000",
"}@	c #DE0000",
"|@	c #C80000",
"1@	c #B60000",
"2@	c #AE0000",
"3@	c #A40000",
"4@	c #9B0001",
"5@	c #9C0001",
"6@	c #AF0001",
"7@	c #B10101",
"8@	c #720000",
"9@	c #770000",
"0@	c #840000",
"a@	c #E1A286",
"b@	c #63625E",
"c@	c #706D66",
"d@	c #696761",
"e@	c #5F5E58",
"f@	c #575651",
"g@	c #53524D",
"h@	c #4D4C48",
"i@	c #C0BAAC",
"j@	c #D6CFC0",
"k@	c #A9A499",
"l@	c #7C7971",
"m@	c #4C4B47",
"n@	c #5C5A55",
"o@	c #75736B",
"p@	c #78756E",
"q@	c #504F4A",
"r@	c #87837B",
"s@	c #4A4945",
"t@	c #60615D",
"u@	c #B9716F",
"v@	c #C81500",
"w@	c #E02002",
"x@	c #E32501",
"y@	c #E92E02",
"z@	c #D90D01",
"A@	c #D40000",
"B@	c #BC0000",
"C@	c #A90000",
"D@	c #A20000",
"E@	c #9F0001",
"F@	c #B90000",
"G@	c #B30000",
"H@	c #970001",
"I@	c #700000",
"J@	c #A50D06",
"K@	c #F3E0AE",
"L@	c #5D5C58",
"M@	c #6F6C65",
"N@	c #55544F",
"O@	c #53514D",
"P@	c #A09B91",
"Q@	c #D5CEBF",
"R@	c #B0AB9E",
"S@	c #5A5953",
"T@	c #4E4C48",
"U@	c #D0C9BB",
"V@	c #7F7C74",
"W@	c #D9D2C2",
"X@	c #52504C",
"Y@	c #474642",
"Z@	c #535350",
"`@	c #BC9796",
" #	c #A80900",
".#	c #CF1801",
"+#	c #DD1F01",
"@#	c #E22601",
"##	c #E42A02",
"$#	c #CD0200",
"%#	c #CD0000",
"&#	c #B10000",
"*#	c #9C0000",
"=#	c #BA0000",
"-#	c #B30100",
";#	c #870000",
">#	c #7C0000",
",#	c #910000",
"'#	c #EAB45D",
")#	c #E1DBBA",
"!#	c #51504D",
"~#	c #6D6A63",
"{#	c #4C4B46",
"]#	c #7D7A72",
"^#	c #989389",
"/#	c #969288",
"(#	c #B8B2A5",
"_#	c #AFAA9D",
":#	c #A6A296",
"<#	c #464541",
"[#	c #C2C3C2",
"}#	c #8E0B07",
"|#	c #BC1000",
"1#	c #D61702",
"2#	c #DB1E01",
"3#	c #DF2501",
"4#	c #DA2001",
"5#	c #C40101",
"6#	c #A70000",
"7#	c #8E0000",
"8#	c #AC0000",
"9#	c #A60000",
"0#	c #890000",
"a#	c #D25228",
"b#	c #FEED99",
"c#	c #BDBCAC",
"d#	c #55534E",
"e#	c #67645E",
"f#	c #87837A",
"g#	c #5E5C57",
"h#	c #A7A297",
"i#	c #C8C2B4",
"j#	c #737069",
"k#	c #817E75",
"l#	c #DAD3C3",
"m#	c #827E76",
"n#	c #5B5953",
"o#	c #727472",
"p#	c #C89595",
"q#	c #A30100",
"r#	c #CF1001",
"s#	c #D31702",
"t#	c #D71E02",
"u#	c #DA2501",
"v#	c #DA2702",
"w#	c #A70701",
"x#	c #950001",
"y#	c #B60101",
"z#	c #AF0000",
"A#	c #AB0000",
"B#	c #AD0001",
"C#	c #9B0401",
"D#	c #BE3013",
"E#	c #DD4D2C",
"F#	c #F6D0B6",
"G#	c #6B6C69",
"H#	c #6C6962",
"I#	c #716E67",
"J#	c #52504B",
"K#	c #D7D0C1",
"L#	c #66645D",
"M#	c #DAD3C4",
"N#	c #CDC7B8",
"O#	c #88847B",
"P#	c #45443F",
"Q#	c #B1ACAB",
"R#	c #982724",
"S#	c #C40A01",
"T#	c #CA0F01",
"U#	c #CE1601",
"V#	c #D11D02",
"W#	c #D62401",
"X#	c #CF2B02",
"Y#	c #C22202",
"Z#	c #C31901",
"`#	c #BB1501",
" $	c #BA1701",
".$	c #C62002",
"+$	c #D83304",
"@$	c #DC460D",
"#$	c #D9410F",
"$$	c #E87E65",
"%$	c #AD9B96",
"&$	c #6B6961",
"*$	c #514F49",
"=$	c #C7C1B3",
"-$	c #8C897E",
";$	c #42413D",
">$	c #4B4B47",
",$	c #B88786",
"'$	c #900000",
")$	c #C10901",
"!$	c #C50F00",
"~$	c #C91501",
"{$	c #CC1C02",
"]$	c #C92302",
"^$	c #CC2A01",
"/$	c #D63103",
"($	c #DC3703",
"_$	c #E33D02",
":$	c #E84503",
"<$	c #EE4C04",
"[$	c #E94A02",
"}$	c #EA6F3F",
"|$	c #D6AC9F",
"1$	c #69665F",
"2$	c #4E4C47",
"3$	c #837F76",
"4$	c #D9D2C3",
"5$	c #4F4E48",
"6$	c #41403B",
"7$	c #5E6460",
"8$	c #B26D6A",
"9$	c #AD0E0A",
"0$	c #BE0600",
"a$	c #CA0E00",
"b$	c #CD1501",
"c$	c #CD1C02",
"d$	c #CF2202",
"e$	c #DB2902",
"f$	c #E13002",
"g$	c #E63702",
"h$	c #EB3B01",
"i$	c #EF4404",
"j$	c #F57E42",
"k$	c #D7A892",
"l$	c #5A5853",
"m$	c #68665E",
"n$	c #4D4B46",
"o$	c #D2CCBC",
"p$	c #7B786F",
"q$	c #3F3E3A",
"r$	c #484743",
"s$	c #9C7370",
"t$	c #C4201B",
"u$	c #C20100",
"v$	c #CD0A00",
"w$	c #D51301",
"x$	c #CC1B01",
"y$	c #E22001",
"z$	c #E62601",
"A$	c #E82A01",
"B$	c #F05911",
"C$	c #F9AF3B",
"D$	c #AE8A75",
"E$	c #484541",
"F$	c #63615F",
"G$	c #A2524D",
"H$	c #B9322D",
"I$	c #C02923",
"J$	c #CA2E23",
"K$	c #DB4025",
"L$	c #DD6520",
"M$	c #DA902C",
"N$	c #BF9B3E",
"O$	c #675E50",
"P$	c #3C3B37",
"Q$	c #3B3C38",
"R$	c #453F3B",
"S$	c #4E3F3B",
"T$	c #503D39",
"U$	c #51403B",
"V$	c #514739",
"W$	c #484437",
"X$	c #3B3B37",
"Y$	c #32322D",
". . . . . . . . . . . . . . . . . . . . . . . . . . . . . . . . . . . . . . . . . . . . . . . . . . . . . . . . . . . . . . . . . . . . . . . . . . . . . . . . . . . . . . . . . . . . . . . . . ",
". . . . . . + @ # $ . . . . % & * * = - . . . . ; > , ' . . . . . . . . . . . . . . . . . . . . . . . . . . . . . . . . . . . . . . . . . . . . . . . . . . . . . . . . . . . . . . . . . . . . . ",
") ) ) ) ) ) ! ~ { ] ^ ) / ( _ : < [ } | 1 2 ) 3 4 5 6 7 ) ) ) ) ) ) ) ) ) ) ) ) ) ) ) ) ) ) ) ) ) ) ) ) ) ) ) ) ) ) ) ) ) ) ) ) ) ) ) ) ) ) ) ) ) ) ) ) ) ) ) ) ) ) ) ) ) ) ) ) ) ) ) ) ) ) ) ) ) ",
") ) ) ) ) ) 8 9 0 a b c d e f g h i j k l m n o p q r s ) ) ) ) ) ) ) ) ) ) ) ) ) ) ) ) ) ) ) ) ) ) ) ) ) ) ) ) ) ) ) ) ) ) ) ) ) ) ) ) ) ) ) ) ) ) ) ) ) ) ) ) ) ) ) ) ) ) ) ) ) ) ) ) ) ) ) ) ) ",
"t t t t t t u v w x y z A B C D E F G H I J K L M N O P t t t t t t t t t t t t t t t t t t t t t t t t t t t t t t t t t t t t t t t t t t t t t t t t t t t t t t t t t t t t t t t t t t t t t ",
"Q Q Q Q Q Q R S T U V W X Y Z `  ...+.@.#.$.%.&.*.=.-.Q Q Q Q Q Q Q Q Q Q Q Q Q Q Q Q Q Q Q Q Q Q Q Q Q Q Q Q Q Q Q Q Q Q Q Q Q Q Q Q Q Q Q Q Q Q Q Q Q Q Q Q Q Q Q Q Q Q Q Q Q Q Q Q Q Q Q Q Q Q ",
";.;.;.;.;.;.;.>.,.'.).!.~.{.].^./.(._.:.<.[.}.|.1.2.3.;.;.;.;.;.;.;.;.;.;.;.;.;.;.;.;.;.;.;.;.;.;.;.;.;.;.;.;.;.;.;.;.4.5.6.;.;.;.;.;.;.;.;.;.;.;.;.;.;.;.;.;.;.;.;.;.;.;.;.;.;.;.;.;.;.;.;.;.;.;.",
"7.7.7.7.7.7.7.8.9.0.a.b.c.d.e.f.g.h.i.j.k.l.m.n.o.p.q.7.7.7.7.7.7.7.r.5.5.5.5.5.5.s.7.7.7.7.7.7.7.7.7.7.7.7.7.7.7.7.7.t.u.7.7.7.7.7.7.7.7.7.7.7.7.7.7.7.7.7.7.7.7.7.7.7.7.7.7.7.7.7.7.7.7.7.7.7.7.",
"v.v.v.v.v.v.v.w.x.y.z.A.B.C.D.E.F.G.H.I.J.K.L.M.N.O.P.v.v.v.v.v.v.v.Q.5.s.R.R.R.R.7.v.v.v.v.v.v.v.v.v.v.v.v.v.v.v.v.v.v.v.v.v.v.v.v.v.v.v.v.v.v.v.v.v.v.v.v.v.v.v.v.v.v.v.v.v.v.v.v.v.v.v.v.v.v.v.",
"v.v.v.v.v.v.S.T.U.V.W.X.Y.Z.`. +.+++@+#+$+%+&+*+=+-+;+>+v.v.v.v.v.v.Q.5.,+v.v.v.v.v.v.Q.5.'+)+!+~+{+v.v.]+^+/+(+_+v.v.Q.5.,+v.Q.5.:+<+[+^+}+v.v.]+^+/+(+_+v.|+1+v.v.v.v.2+3+v.]+^+/+(+_+v.v.v.v.v.",
"4+4+4+4+4+4+5+6+7+8+9+0+a+b+c+d+e+f+g+h+i+j+k+l+m+n+o+p+4+4+4+4+4+4+q+5.r+4+4+4+4+4+4+q+5.s+t+u+v+w+4+x+y+z+u.A+B+4+4+q+5.r+4+q+5.C+B+u.D+[+E+x+y+z+u.A+B+4+F+/+G+4+4+H+5.s.x+y+z+u.A+B+4+4+4+4+4+",
"I+I+I+I+I+I+J+K+L+M+N+O+P+Q+Q+R+f+S+T+U+V+W+X+Y+Z+`+ @.@I+I+I+I+I+I++@5.@@@@@@@@#@I+I++@5.$@I+I+%@&@*@=@5.-@I+I+I+I+I++@5.;@I++@5.>@I+I+I+,@'@=@5.-@I+I+I+I+I+)@!@I+I+,@~@I+=@5.-@I+I+I+I+I+I+I+I+",
"{@{@{@{@{@{@]@^@/@(@_@:@<@[@}@|@1@2@3@4@5@6@7@8@9@0@a@b@{@{@{@{@{@{@c@5.d@e@e@e@R.{@{@c@5.f@{@{@c@5.g@h@i@j@k@l@m@{@{@c@5.Q {@c@5.n@{@{@{@o@5.v.i@j@k@l@m@{@{@p@j@q@m@(+r@{@h@i@j@k@l@m@{@{@{@{@{@",
"s@s@s@s@s@s@t@u@v@w@x@y@z@A@.+B@C@D@E@1@F@G@H@I@0@J@K@L@s@s@s@s@s@s@M@5.N@s@s@s@s@s@s@M@5.N@s@s@M@5.O@s@m@4.P@Q@R@s@s@M@5.N@s@M@5.S@s@s@s@r.5.T@m@4.P@Q@R@s@s@m@U@V@:+W@X@s@s@m@4.P@Q@R@s@s@s@s@s@",
"Y@Y@Y@Y@Y@Y@Z@`@ #.#+#@###$#%#&#*#5@=#F@-#T+;#>#,#'#)#!#Y@Y@Y@Y@Y@Y@~#5.7.Y@Y@Y@Y@Y@Y@~#5.7.Y@Y@~#5.q@Y@Y@Y@Y@B+5.{#Y@~#5.7.Y@~#5.]#Y@Y@Y@^#1+Y@Y@Y@Y@B+5.{#Y@Y@/#(#_#:#Y@Y@Y@Y@Y@Y@B+5.{#Y@Y@Y@Y@",
"Y@Y@Y@Y@Y@Y@<#[#}#|#1#2#3#4#5#6#7#g+S+G@8#9#0#;#a#b#c#<#Y@Y@Y@Y@Y@Y@~#5.x+d#d#d#d#s@Y@~#5.7.Y@Y@~#5.q@e#f#g#,+h#^+Y@Y@~#5.7.Y@~#5.i#j#;@k#l#m#e#f#g#,+h#^+Y@Y@Y@n#/+&@A+Y@Y@e#f#g#,+h#^+Y@Y@Y@Y@Y@",
"<#<#<#<#<#<#<#o#p#q#r#s#t#u#v#w#x#y#z#A#6#B#C#D#E#F#G#<#<#<#<#<#<#<#H#5.5.5.5.5.5.I#<#H#5.J#<#<#H#5.*@R.(#K#&@s+L#<#<#H#5.J#<#H#5.c@s+M#N#O#<#R.(#K#&@s+L#<#<#<#<#(#i#<#<#<#R.(#K#&@s+L#<#<#<#<#<#",
"P#P#P#P#P#P#P#P#Q#R#S#T#U#V#W#X#Y#Z#`# $.$+$@$#$$$%$P#P#P#P#P#P#P#P#P#P#P#P#P#P#P#P#P#P#P#P#P#P#P#P#P#P#P#P#P#P#P#P#P#P#P#P#P#&$5.*$P#P#P#P#P#P#P#P#P#P#P#P#P#P#P#=$-$P#P#P#P#P#P#P#P#P#P#P#P#P#P#",
";$;$;$;$;$;$;$;$>$,$'$)$!$~${$]$^$/$($_$:$<$[$}$|$s@;$;$;$;$;$;$;$;$;$;$;$;$;$;$;$;$;$;$;$;$;$;$;$;$;$;$;$;$;$;$;$;$;$;$;$;$;$1$5.2$;$;$;$;$;$;$;$;$;$;$;$;$;$4+3$4$5$;$;$;$;$;$;$;$;$;$;$;$;$;$;$",
"6$6$6$6$6$6$6$6$6$7$8$9$0$a$b$c$d$e$f$g$h$i$j$k$l$6$6$6$6$6$6$6$6$6$6$6$6$6$6$6$6$6$6$6$6$6$6$6$6$6$6$6$6$6$6$6$6$6$6$6$6$6$6$m$5.n$6$6$6$6$6$6$6$6$6$6$6$6$6$5.o$p$6$6$6$6$6$6$6$6$6$6$6$6$6$6$6$",
"q$q$q$q$q$q$q$q$q$q$r$s$t$u$v$w$x$y$z$A$B$C$D$E$q$q$q$q$q$q$q$q$q$q$q$q$q$q$q$q$q$q$q$q$q$q$q$q$q$q$q$q$q$q$q$q$q$q$q$q$q$q$q$q$q$q$q$q$q$q$q$q$q$q$q$q$q$q$q$q$q$q$q$q$q$q$q$q$q$q$q$q$q$q$q$q$q$",
"q$q$q$q$q$q$q$q$q$q$q$q$F$G$H$I$J$K$L$M$N$O$q$q$q$q$q$q$q$q$q$q$q$q$q$q$q$q$q$q$q$q$q$q$q$q$q$q$q$q$q$q$q$q$q$q$q$q$q$q$q$q$q$q$q$q$q$q$q$q$q$q$q$q$q$q$q$q$q$q$q$q$q$q$q$q$q$q$q$q$q$q$q$q$q$q$q$",
"P$P$P$P$P$P$P$P$P$P$P$P$P$Q$R$S$T$U$V$W$X$P$P$P$P$P$P$P$P$P$P$P$P$P$P$P$P$P$P$P$P$P$P$P$P$P$P$P$P$P$P$P$P$P$P$P$P$P$P$P$P$P$P$P$P$P$P$P$P$P$P$P$P$P$P$P$P$P$P$P$P$P$P$P$P$P$P$P$P$P$P$P$P$P$P$P$P$",
"Y$Y$Y$Y$Y$Y$Y$Y$Y$Y$Y$Y$Y$Y$Y$Y$Y$Y$Y$Y$Y$Y$Y$Y$Y$Y$Y$Y$Y$Y$Y$Y$Y$Y$Y$Y$Y$Y$Y$Y$Y$Y$Y$Y$Y$Y$Y$Y$Y$Y$Y$Y$Y$Y$Y$Y$Y$Y$Y$Y$Y$Y$Y$Y$Y$Y$Y$Y$Y$Y$Y$Y$Y$Y$Y$Y$Y$Y$Y$Y$Y$Y$Y$Y$Y$Y$Y$Y$Y$Y$Y$Y$Y$Y$Y$Y$Y$"};
