/* XPM */
static char * linux_Telesun_xpm[] = {
"93 24 300 2",
"  	c None",
". 	c #5C5B56",
"+ 	c #585752",
"@ 	c #3F3E3B",
"# 	c #181817",
"$ 	c #070707",
"% 	c #020202",
"& 	c #1C1C1A",
"* 	c #42423E",
"= 	c #595853",
"- 	c #565551",
"; 	c #35312F",
"> 	c #010101",
", 	c #000000",
"' 	c #030302",
") 	c #363633",
"! 	c #51504B",
"~ 	c #0A0A0A",
"{ 	c #1A0404",
"] 	c #5D0D0F",
"^ 	c #540C0D",
"/ 	c #3E090A",
"( 	c #4F0B0D",
"_ 	c #680E11",
": 	c #520B0D",
"< 	c #0C0202",
"[ 	c #111110",
"} 	c #54534F",
"| 	c #575652",
"1 	c #4F4E4B",
"2 	c #040404",
"3 	c #060101",
"4 	c #040101",
"5 	c #CF1C21",
"6 	c #E92025",
"7 	c #E72025",
"8 	c #881316",
"9 	c #C41B1F",
"0 	c #090908",
"a 	c #53524E",
"b 	c #565550",
"c 	c #54534E",
"d 	c #0A0A09",
"e 	c #050101",
"f 	c #45090B",
"g 	c #D21D21",
"h 	c #D41D22",
"i 	c #E51F24",
"j 	c #6B0F11",
"k 	c #131312",
"l 	c #2C2C29",
"m 	c #731012",
"n 	c #D31D22",
"o 	c #490A0C",
"p 	c #901417",
"q 	c #CA1C20",
"r 	c #010000",
"s 	c #3B3936",
"t 	c #76736C",
"u 	c #DFD8C8",
"v 	c #5D5C57",
"w 	c #52514C",
"x 	c #4E4D48",
"y 	c #1B0404",
"z 	c #4C0A0C",
"A 	c #4E0B0C",
"B 	c #861215",
"C 	c #370809",
"D 	c #040403",
"E 	c #75726B",
"F 	c #5D5B55",
"G 	c #32312E",
"H 	c #390809",
"I 	c #E31F24",
"J 	c #2E0607",
"K 	c #BC1A1E",
"L 	c #700F12",
"M 	c #3B3A37",
"N 	c #5E5C56",
"O 	c #7E7B73",
"P 	c #66645D",
"Q 	c #74726A",
"R 	c #5C5A54",
"S 	c #0F0F0E",
"T 	c #5F0D0F",
"U 	c #B8191D",
"V 	c #2D0607",
"W 	c #1C0404",
"X 	c #690E11",
"Y 	c #E21F24",
"Z 	c #971518",
"` 	c #7A1113",
" .	c #150303",
"..	c #1B1B19",
"+.	c #595852",
"@.	c #8E8A80",
"#.	c #C9C3B5",
"$.	c #DCD5C5",
"%.	c #CFC9BA",
"&.	c #99958A",
"*.	c #8A867D",
"=.	c #CEC8B9",
"-.	c #DDD6C6",
";.	c #D0CABB",
">.	c #8F8C82",
",.	c #77756D",
"'.	c #C3BDAF",
").	c #DBD4C5",
"!.	c #C2BCAE",
"~.	c #66645E",
"{.	c #0B0B0B",
"].	c #060303",
"^.	c #AB171B",
"/.	c #530B0D",
"(.	c #080101",
"_.	c #8F1417",
":.	c #D91E22",
"<.	c #300708",
"[.	c #726F68",
"}.	c #575550",
"|.	c #969288",
"1.	c #C8C2B4",
"2.	c #77746C",
"3.	c #5D5C56",
"4.	c #CCC6B7",
"5.	c #595752",
"6.	c #605E58",
"7.	c #DED7C7",
"8.	c #928E84",
"9.	c #5F5D57",
"0.	c #6B6962",
"a.	c #79766E",
"b.	c #BEB8AA",
"c.	c #6D6B64",
"d.	c #64625C",
"e.	c #BFB9AB",
"f.	c #BAB5A7",
"g.	c #4D4C47",
"h.	c #060404",
"i.	c #8C191C",
"j.	c #DD1E23",
"k.	c #716F67",
"l.	c #56544F",
"m.	c #D9D3C3",
"n.	c #6D6B63",
"o.	c #7F7C74",
"p.	c #D4CEBE",
"q.	c #585651",
"r.	c #6A6861",
"s.	c #67655E",
"t.	c #726F67",
"u.	c #7E7B72",
"v.	c #4F4E49",
"w.	c #4B4A46",
"x.	c #6C3536",
"y.	c #D01F24",
"z.	c #706D66",
"A.	c #54524E",
"B.	c #696761",
"C.	c #D8D1C2",
"D.	c #DAD3C3",
"E.	c #51504C",
"F.	c #4D4C48",
"G.	c #C0BAAC",
"H.	c #D6CFC0",
"I.	c #A9A499",
"J.	c #7C7971",
"K.	c #4C4B47",
"L.	c #575651",
"M.	c #53524D",
"N.	c #4A4945",
"O.	c #080808",
"P.	c #222222",
"Q.	c #FCFCFC",
"R.	c #AC9696",
"S.	c #6B2A2C",
"T.	c #D11D21",
"U.	c #B2181C",
"V.	c #060606",
"W.	c #6F6C65",
"X.	c #53514D",
"Y.	c #6A6761",
"Z.	c #6D6A63",
"`.	c #55544F",
" +	c #A09B91",
".+	c #D5CEBF",
"++	c #B0AB9E",
"@+	c #6E6C65",
"#+	c #706E66",
"$+	c #474642",
"%+	c #171716",
"&+	c #0E0E0E",
"*+	c #333333",
"=+	c #313131",
"-+	c #141414",
";+	c #E7E7E7",
">+	c #FFFFFF",
",+	c #E9E9E9",
"'+	c #614B4B",
")+	c #451E1F",
"!+	c #961C1F",
"~+	c #CE1C21",
"{+	c #E82025",
"]+	c #751013",
"^+	c #070101",
"/+	c #151513",
"(+	c #504F4A",
"_+	c #4E4C48",
":+	c #4C4B46",
"<+	c #64625B",
"[+	c #5E5C57",
"}+	c #88847B",
"|+	c #2A2A27",
"1+	c #474747",
"2+	c #CFCFCF",
"3+	c #5B5B5B",
"4+	c #FEFEFE",
"5+	c #828282",
"6+	c #555353",
"7+	c #534141",
"8+	c #4D3435",
"9+	c #7B5354",
"0+	c #603B3C",
"a+	c #472C2C",
"b+	c #D4CDBE",
"c+	c #7A776F",
"d+	c #67645E",
"e+	c #87837A",
"f+	c #A7A297",
"g+	c #D3CCBD",
"h+	c #A9A498",
"i+	c #5A5852",
"j+	c #CAC3B5",
"k+	c #464541",
"l+	c #41403C",
"m+	c #EDEDED",
"n+	c #969696",
"o+	c #44433F",
"p+	c #6C6962",
"q+	c #837F77",
"r+	c #DBD4C4",
"s+	c #BEB8AB",
"t+	c #827E75",
"u+	c #52504B",
"v+	c #B8B2A5",
"w+	c #D7D0C1",
"x+	c #DAD3C4",
"y+	c #B7B1A5",
"z+	c #7D7A72",
"A+	c #45443F",
"B+	c #292926",
"C+	c #606060",
"D+	c #D5D5D5",
"E+	c #9B9B9B",
"F+	c #FBFBFB",
"G+	c #5C5C5C",
"H+	c #2D2C29",
"I+	c #42413D",
"J+	c #403F3B",
"K+	c #141313",
"L+	c #9D9D9D",
"M+	c #C7C7C7",
"N+	c #101010",
"O+	c #B8B8B8",
"P+	c #F0F0F0",
"Q+	c #717170",
"R+	c #41403B",
"S+	c #393834",
"T+	c #F4F4F4",
"U+	c #E8E8E8",
"V+	c #7C7C7C",
"W+	c #100F0F",
"X+	c #3D3C37",
"Y+	c #3F3E3A",
"Z+	c #363532",
"`+	c #565655",
" @	c #E4E4E4",
".@	c #F7F7F7",
"+@	c #D9D9D9",
"@@	c #3F3E3E",
"#@	c #151414",
"$@	c #222120",
"%@	c #090909",
"&@	c #545454",
"*@	c #B1B1B1",
"=@	c #E1E1E1",
"-@	c #F8F8F8",
";@	c #DDDDDD",
">@	c #A9A9A9",
",@	c #232220",
"'@	c #3D3C38",
")@	c #3C3B37",
"!@	c #363531",
"~@	c #232320",
"{@	c #1B1B1A",
"]@	c #030303",
"^@	c #0F0F0F",
"/@	c #252522",
"(@	c #383733",
"_@	c #32322D",
". . . . . . . . . . . . . . . . . . . . . . . . . . . . . . . . . . . . . . . . . . . . . . . . . . . . . . . . . . . . . . . . . . . . . . . . . . . . . . . . . . . . . . . . . . . . . ",
". . . . . . . . . . . . + @ # $ % % $ & * = . . . . . . . . . . . . . . . . . . . . . . . . . . . . . . . . . . . . . . . . . . . . . . . . . . . . . . . . . . . . . . . . . . . . . . . ",
"= = = = = = = = = = - ; > , , , , , , , , ' ) + = = = = = = = = = = = = = = = = = = = = = = = = = = = = = = = = = = = = = = = = = = = = = = = = = = = = = = = = = = = = = = = = = = = = = ",
"= = = = = = = = = ! ~ , , { ] ^ / ( _ : < , , [ } = = = = = = = = = = = = = = = = = = = = = = = = = = = = = = = = = = = = = = = = = = = = = = = = = = = = = = = = = = = = = = = = = = = = ",
"| | | | | | | | 1 2 3 , 4 5 6 6 6 6 7 8 9 < , , 0 a | | | | | | | | | | | | | | | | | | | | | | | | | | | | | | | | | | | | | | | | | | | | | | | | | | | | | | | | | | | | | | | | | | | ",
"b b b b b b b c d e , , f g h 6 6 6 6 i 6 j , , , k b b b b b b b b b b b b b b b b b b b b b b b b b b b b b b b b b b b b b b b b b b b b b b b b b b b b b b b b b b b b b b b b b b b ",
"a a a a a a a l , , , , m n o p g 6 6 6 6 q r , , , s a a a a a a a a a a a a a a a a a a a a a a a a t u v a a a a a a a a a a a a a a a a a a a a a a a a a a a a a a a a a a a a a a a ",
"w w w w w w x > , y z A B 6 6 6 6 6 6 6 6 6 C , , , D ! w w w w w w u u u u u u u u u w w w w w w w w E u F w w w w w w w w w w w w w w w w w w w w w w w w w w w w w w w w w w w w w w w ",
"! ! ! ! ! ! G , H I 6 6 J _ K 6 6 6 6 6 6 6 L , , , , M ! ! ! ! ! ! N N N O u P N N N ! ! ! ! ! ! ! ! Q u R ! ! ! ! ! ! ! ! ! ! ! ! ! ! ! ! ! ! ! ! ! ! ! ! ! ! ! ! ! ! ! ! ! ! ! ! ! ! ! ",
"! ! ! ! ! ! S , T 6 6 6 U V , W X Y 6 6 6 6 Z `  ., , ..! ! ! ! ! ! ! ! ! Q u +.! ! ! @.#.$.%.&.w ! ! Q u R ! ! @.#.$.%.&.w ! ! *.=.-.;.>.! Q u R ! ! Q u +.! ! Q u ,.'.).!.~.! ! ! ! ! ! ",
"x x x x x x {., ].^.6 6 6 6 ^./.(._.6 6 6 6 Y 6 :.<., $ x x x x x x x x x [.u }.x x |.1.2.3.Q 4.&.x x [.u 5.x |.1.2.3.Q 4.&.x 6.7.8.9.0.a.x [.u 5.x x [.u }.x x [.u b.c.d.e.f.x x x x x x ",
"g.g.g.g.g.g.% , , h.i.6 6 6 6 6 j.9 6 6 6 6 6 6 6 _., % g.g.g.g.g.g.g.g.g.k.u l.g.w m.n.g.g.g.o.p.g.g.k.u q.w m.n.g.g.g.o.p.g.r.u s.g.g.g.g.k.u q.g.g.k.u l.g.g.k.u t.g.g.u.$.v.g.g.g.g.g.",
"w.w.w.w.w.w.> , , , , x.y.6 6 6 6 6 6 6 6 6 6 6 6 X , % w.w.w.w.w.w.w.w.w.z.u A.w.B.u C.C.C.C.D.u E.w.z.u b B.u C.C.C.C.D.u E.F.G.H.I.J.K.w.z.u b w.w.z.u A.w.w.z.u L.w.w.z.u M.w.w.w.w.w.",
"N.N.N.N.N.N.O., , , P.Q.R.S.T.6 6 6 6 6 6 6 6 6 U.e , V.N.N.N.N.N.N.N.N.N.W.u X.N.Y.u Z.9.9.9.9.9.w.N.W.u `.Y.u Z.9.9.9.9.9.w.N.K.t  +.+++N.@+u `.N.N.#+u X.N.N.W.u `.N.N.W.u X.N.N.N.N.N.",
"$+$+$+$+$+$+%+&+*+=+-+;+>+,+'+)+!+~+{+6 6 6 5 ]+^+, , /+$+$+$+$+$+$+$+$+$+Z.u (+$+_+D.J.$+$+$+$+$+$+$+Z.u w _+D.J.$+$+$+$+$+$+$+$+$+$+a.u :+<+u [+$+$+}+u (+$+$+Z.u w $+$+Z.u (+$+$+$+$+$+",
"$+$+$+$+$+$+|+1+>+>+2+3+4+>+Q.5+6+7+8+9+0+a+, , , , , G $+$+$+$+$+$+$+$+$+Z.u (+$+$+8.b+u.5.R c+8.$+$+Z.u w $+8.b+u.5.R c+8.$+d+e+[+R f+=.$+N.g+h+i+k.j+u (+$+$+Z.u w $+$+Z.u (+$+$+$+$+$+",
"k+k+k+k+k+k+l+-+m+>+>+>+>+>+>+>+>+>+>+>+>+n+, , , , % o+k+k+k+k+k+k+k+k+k+p+u v.k+k+k+q+'.r+C.s+t+k+k+p+u u+k+k+q+'.r+C.s+t+k+N v+w+$.b.P k+k+z.j+x+y+z+u v.k+k+p+u u+k+k+p+u v.k+k+k+k+k+",
"A+A+A+A+A+A+A+B+C+>+>+>+>+>+>+>+>+D+E+F+>+G+, , , {.H+A+A+A+A+A+A+A+A+A+A+A+A+A+A+A+A+A+A+A+A+A+A+A+A+A+A+A+A+A+A+A+A+A+A+A+A+A+A+A+A+A+A+A+A+A+A+A+A+A+A+A+A+A+A+A+A+A+A+A+A+A+A+A+A+A+A+",
"I+I+I+I+I+I+I+J+K+L+>+>+>+>+>+>+>+>+>+>+M+N+O+P+Q+# l+I+I+I+I+I+I+I+I+I+I+I+I+I+I+I+I+I+I+I+I+I+I+I+I+I+I+I+I+I+I+I+I+I+I+I+I+I+I+I+I+I+I+I+I+I+I+I+I+I+I+I+I+I+I+I+I+I+I+I+I+I+I+I+I+I+I+",
"R+R+R+R+R+R+R+R+S+&+n+>+>+>+>+>+>+>+>+T+3+U+4+V+W+X+R+R+R+R+R+R+R+R+R+R+R+R+R+R+R+R+R+R+R+R+R+R+R+R+R+R+R+R+R+R+R+R+R+R+R+R+R+R+R+R+R+R+R+R+R+R+R+R+R+R+R+R+R+R+R+R+R+R+R+R+R+R+R+R+R+R+R+",
"Y+Y+Y+Y+Y+Y+Y+Y+Y+Z+[ `+ @>+>+>+>+>+>+m+.@+@@@#@S+Y+Y+Y+Y+Y+Y+Y+Y+Y+Y+Y+Y+Y+Y+Y+Y+Y+Y+Y+Y+Y+Y+Y+Y+Y+Y+Y+Y+Y+Y+Y+Y+Y+Y+Y+Y+Y+Y+Y+Y+Y+Y+Y+Y+Y+Y+Y+Y+Y+Y+Y+Y+Y+Y+Y+Y+Y+Y+Y+Y+Y+Y+Y+Y+Y+Y+Y+Y+",
"Y+Y+Y+Y+Y+Y+Y+Y+Y+Y+M $@%@&@*@=@-@.@;@>@1+d ,@'@Y+Y+Y+Y+Y+Y+Y+Y+Y+Y+Y+Y+Y+Y+Y+Y+Y+Y+Y+Y+Y+Y+Y+Y+Y+Y+Y+Y+Y+Y+Y+Y+Y+Y+Y+Y+Y+Y+Y+Y+Y+Y+Y+Y+Y+Y+Y+Y+Y+Y+Y+Y+Y+Y+Y+Y+Y+Y+Y+Y+Y+Y+Y+Y+Y+Y+Y+Y+Y+",
")@)@)@)@)@)@)@)@)@)@)@)@!@~@{@&+]@2 ^@{@/@(@)@)@)@)@)@)@)@)@)@)@)@)@)@)@)@)@)@)@)@)@)@)@)@)@)@)@)@)@)@)@)@)@)@)@)@)@)@)@)@)@)@)@)@)@)@)@)@)@)@)@)@)@)@)@)@)@)@)@)@)@)@)@)@)@)@)@)@)@)@)@)@",
"_@_@_@_@_@_@_@_@_@_@_@_@_@_@_@_@_@_@_@_@_@_@_@_@_@_@_@_@_@_@_@_@_@_@_@_@_@_@_@_@_@_@_@_@_@_@_@_@_@_@_@_@_@_@_@_@_@_@_@_@_@_@_@_@_@_@_@_@_@_@_@_@_@_@_@_@_@_@_@_@_@_@_@_@_@_@_@_@_@_@_@_@_@"};
