/* XPM */
static char * linux_Ensisun_xpm[] = {
"92 24 281 2",
"  	c None",
". 	c #5C5B56",
"+ 	c #585752",
"@ 	c #3F3E3B",
"# 	c #181817",
"$ 	c #070707",
"% 	c #020202",
"& 	c #1C1C1A",
"* 	c #42423E",
"= 	c #595853",
"- 	c #565551",
"; 	c #35312F",
"> 	c #010101",
", 	c #000000",
"' 	c #030302",
") 	c #363633",
"! 	c #51504B",
"~ 	c #0A0A0A",
"{ 	c #1A0404",
"] 	c #5D0D0F",
"^ 	c #540C0D",
"/ 	c #3E090A",
"( 	c #4F0B0D",
"_ 	c #680E11",
": 	c #520B0D",
"< 	c #0C0202",
"[ 	c #111110",
"} 	c #54534F",
"| 	c #575652",
"1 	c #4F4E4B",
"2 	c #040404",
"3 	c #060101",
"4 	c #040101",
"5 	c #CF1C21",
"6 	c #E92025",
"7 	c #E72025",
"8 	c #881316",
"9 	c #C41B1F",
"0 	c #090908",
"a 	c #53524E",
"b 	c #565550",
"c 	c #54534E",
"d 	c #0A0A09",
"e 	c #050101",
"f 	c #45090B",
"g 	c #D21D21",
"h 	c #D41D22",
"i 	c #E51F24",
"j 	c #6B0F11",
"k 	c #131312",
"l 	c #2C2C29",
"m 	c #731012",
"n 	c #D31D22",
"o 	c #490A0C",
"p 	c #901417",
"q 	c #CA1C20",
"r 	c #010000",
"s 	c #3B3936",
"t 	c #76736C",
"u 	c #DFD8C8",
"v 	c #5D5C57",
"w 	c #52514C",
"x 	c #4E4D48",
"y 	c #1B0404",
"z 	c #4C0A0C",
"A 	c #4E0B0C",
"B 	c #861215",
"C 	c #370809",
"D 	c #040403",
"E 	c #75726B",
"F 	c #68665F",
"G 	c #55544E",
"H 	c #5F5D57",
"I 	c #32312E",
"J 	c #390809",
"K 	c #E31F24",
"L 	c #2E0607",
"M 	c #BC1A1E",
"N 	c #700F12",
"O 	c #3B3A37",
"P 	c #74726A",
"Q 	c #5E5C56",
"R 	c #0F0F0E",
"S 	c #5F0D0F",
"T 	c #B8191D",
"U 	c #2D0607",
"V 	c #1C0404",
"W 	c #690E11",
"X 	c #E21F24",
"Y 	c #971518",
"Z 	c #7A1113",
"` 	c #150303",
" .	c #1B1B19",
"..	c #5C5A54",
"+.	c #77756D",
"@.	c #C3BDAF",
"#.	c #DBD4C5",
"$.	c #C2BCAE",
"%.	c #66645E",
"&.	c #8A867D",
"*.	c #CEC8B9",
"=.	c #DDD6C6",
"-.	c #D0CABB",
";.	c #8F8C82",
">.	c #595852",
",.	c #0B0B0B",
"'.	c #060303",
").	c #AB171B",
"!.	c #530B0D",
"~.	c #080101",
"{.	c #8F1417",
"].	c #D91E22",
"^.	c #300708",
"/.	c #726F68",
"(.	c #595752",
"_.	c #BEB8AA",
":.	c #6D6B64",
"<.	c #64625C",
"[.	c #BFB9AB",
"}.	c #BAB5A7",
"|.	c #605E58",
"1.	c #DED7C7",
"2.	c #928E84",
"3.	c #6B6962",
"4.	c #79766E",
"5.	c #575550",
"6.	c #4D4C47",
"7.	c #060404",
"8.	c #8C191C",
"9.	c #DD1E23",
"0.	c #716F67",
"a.	c #D8D1C2",
"b.	c #CFC9BA",
"c.	c #726F67",
"d.	c #7E7B72",
"e.	c #DCD5C5",
"f.	c #4F4E49",
"g.	c #6A6861",
"h.	c #67655E",
"i.	c #585651",
"j.	c #56544F",
"k.	c #4B4A46",
"l.	c #6C3536",
"m.	c #D01F24",
"n.	c #706D66",
"o.	c #696761",
"p.	c #5F5E58",
"q.	c #575651",
"r.	c #53524D",
"s.	c #4D4C48",
"t.	c #C0BAAC",
"u.	c #D6CFC0",
"v.	c #A9A499",
"w.	c #7C7971",
"x.	c #4C4B47",
"y.	c #54524E",
"z.	c #4A4945",
"A.	c #080808",
"B.	c #222222",
"C.	c #FCFCFC",
"D.	c #AC9696",
"E.	c #6B2A2C",
"F.	c #D11D21",
"G.	c #B2181C",
"H.	c #060606",
"I.	c #6F6C65",
"J.	c #55544F",
"K.	c #53514D",
"L.	c #A09B91",
"M.	c #D5CEBF",
"N.	c #B0AB9E",
"O.	c #6E6C65",
"P.	c #706E66",
"Q.	c #474642",
"R.	c #171716",
"S.	c #0E0E0E",
"T.	c #333333",
"U.	c #313131",
"V.	c #141414",
"W.	c #E7E7E7",
"X.	c #FFFFFF",
"Y.	c #E9E9E9",
"Z.	c #614B4B",
"`.	c #451E1F",
" +	c #961C1F",
".+	c #CE1C21",
"++	c #E82025",
"@+	c #751013",
"#+	c #070101",
"$+	c #151513",
"%+	c #6D6A63",
"&+	c #504F4A",
"*+	c #4C4B46",
"=+	c #64625B",
"-+	c #5E5C57",
";+	c #88847B",
">+	c #2A2A27",
",+	c #474747",
"'+	c #CFCFCF",
")+	c #5B5B5B",
"!+	c #FEFEFE",
"~+	c #828282",
"{+	c #555353",
"]+	c #534141",
"^+	c #4D3435",
"/+	c #7B5354",
"(+	c #603B3C",
"_+	c #472C2C",
":+	c #55534E",
"<+	c #67645E",
"[+	c #87837A",
"}+	c #A7A297",
"|+	c #D3CCBD",
"1+	c #A9A498",
"2+	c #5A5852",
"3+	c #CAC3B5",
"4+	c #464541",
"5+	c #41403C",
"6+	c #EDEDED",
"7+	c #969696",
"8+	c #44433F",
"9+	c #6C6962",
"0+	c #716E67",
"a+	c #52504B",
"b+	c #B8B2A5",
"c+	c #D7D0C1",
"d+	c #66645D",
"e+	c #DAD3C4",
"f+	c #B7B1A5",
"g+	c #7D7A72",
"h+	c #45443F",
"i+	c #292926",
"j+	c #606060",
"k+	c #D5D5D5",
"l+	c #9B9B9B",
"m+	c #FBFBFB",
"n+	c #5C5C5C",
"o+	c #2D2C29",
"p+	c #42413D",
"q+	c #403F3B",
"r+	c #141313",
"s+	c #9D9D9D",
"t+	c #C7C7C7",
"u+	c #101010",
"v+	c #B8B8B8",
"w+	c #F0F0F0",
"x+	c #717170",
"y+	c #41403B",
"z+	c #393834",
"A+	c #F4F4F4",
"B+	c #E8E8E8",
"C+	c #7C7C7C",
"D+	c #100F0F",
"E+	c #3D3C37",
"F+	c #3F3E3A",
"G+	c #363532",
"H+	c #565655",
"I+	c #E4E4E4",
"J+	c #F7F7F7",
"K+	c #D9D9D9",
"L+	c #3F3E3E",
"M+	c #151414",
"N+	c #222120",
"O+	c #090909",
"P+	c #545454",
"Q+	c #B1B1B1",
"R+	c #E1E1E1",
"S+	c #F8F8F8",
"T+	c #DDDDDD",
"U+	c #A9A9A9",
"V+	c #232220",
"W+	c #3D3C38",
"X+	c #3C3B37",
"Y+	c #363531",
"Z+	c #232320",
"`+	c #1B1B1A",
" @	c #030303",
".@	c #0F0F0F",
"+@	c #252522",
"@@	c #383733",
"#@	c #32322D",
". . . . . . . . . . . . . . . . . . . . . . . . . . . . . . . . . . . . . . . . . . . . . . . . . . . . . . . . . . . . . . . . . . . . . . . . . . . . . . . . . . . . . . . . . . . . ",
". . . . . . . . . . . . + @ # $ % % $ & * = . . . . . . . . . . . . . . . . . . . . . . . . . . . . . . . . . . . . . . . . . . . . . . . . . . . . . . . . . . . . . . . . . . . . . . ",
"= = = = = = = = = = - ; > , , , , , , , , ' ) + = = = = = = = = = = = = = = = = = = = = = = = = = = = = = = = = = = = = = = = = = = = = = = = = = = = = = = = = = = = = = = = = = = = = ",
"= = = = = = = = = ! ~ , , { ] ^ / ( _ : < , , [ } = = = = = = = = = = = = = = = = = = = = = = = = = = = = = = = = = = = = = = = = = = = = = = = = = = = = = = = = = = = = = = = = = = = ",
"| | | | | | | | 1 2 3 , 4 5 6 6 6 6 7 8 9 < , , 0 a | | | | | | | | | | | | | | | | | | | | | | | | | | | | | | | | | | | | | | | | | | | | | | | | | | | | | | | | | | | | | | | | | | ",
"b b b b b b b c d e , , f g h 6 6 6 6 i 6 j , , , k b b b b b b b b b b b b b b b b b b b b b b b b b b b b b b b b b b b b b b b b b b b b b b b b b b b b b b b b b b b b b b b b b b ",
"a a a a a a a l , , , , m n o p g 6 6 6 6 q r , , , s a a a a a a a a a a a a a a a a a a a a a a a a a a a a a a a a t u v a a a a a a a a a a a a a a a a a a a a a a a a a a a a a a ",
"w w w w w w x > , y z A B 6 6 6 6 6 6 6 6 6 C , , , D ! w w w w w w E u u u u u u F w w w w w w w w w w w w w w w w w G H w w w w w w w w w w w w w w w w w w w w w w w w w w w w w w w ",
"! ! ! ! ! ! I , J K 6 6 L _ M 6 6 6 6 6 6 6 N , , , , O ! ! ! ! ! ! P u F Q Q Q Q w ! ! ! ! ! ! ! ! ! ! ! ! ! ! ! ! ! ! ! ! ! ! ! ! ! ! ! ! ! ! ! ! ! ! ! ! ! ! ! ! ! ! ! ! ! ! ! ! ! ! ",
"! ! ! ! ! ! R , S 6 6 6 T U , V W X 6 6 6 6 Y Z ` , ,  .! ! ! ! ! ! P u ..! ! ! ! ! ! P u +.@.#.$.%.! ! &.*.=.-.;.! ! P u ..! &.*.=.-.;.! P u ..! ! P u >.! ! P u +.@.#.$.%.! ! ! ! ! ! ",
"x x x x x x ,., '.).6 6 6 6 ).!.~.{.6 6 6 6 X 6 ].^., $ x x x x x x /.u (.x x x x x x /.u _.:.<.[.}.x |.1.2.H 3.4.x x /.u (.|.1.2.H 3.4.x /.u (.x x /.u 5.x x /.u _.:.<.[.}.x x x x x x ",
"6.6.6.6.6.6.% , , 7.8.6 6 6 6 6 9.9 6 6 6 6 6 6 6 {., % 6.6.6.6.6.6.0.u a.a.a.a.b.6.6.0.u c.6.6.d.e.f.g.u h.6.6.6.6.6.0.u i.g.u h.6.6.6.6.0.u i.6.6.0.u j.6.6.0.u c.6.6.d.e.f.6.6.6.6.6.",
"k.k.k.k.k.k.> , , , , l.m.6 6 6 6 6 6 6 6 6 6 6 6 W , % k.k.k.k.k.k.n.u o.p.p.p.Q k.k.n.u q.k.k.n.u r.s.t.u.v.w.x.k.k.n.u b s.t.u.v.w.x.k.n.u b k.k.n.u y.k.k.n.u q.k.k.n.u r.k.k.k.k.k.",
"z.z.z.z.z.z.A., , , B.C.D.E.F.6 6 6 6 6 6 6 6 6 G.e , H.z.z.z.z.z.z.I.u J.z.z.z.z.z.z.I.u J.z.z.I.u K.z.x.t L.M.N.z.z.I.u J.z.x.t L.M.N.z.O.u J.z.z.P.u K.z.z.I.u J.z.z.I.u K.z.z.z.z.z.",
"Q.Q.Q.Q.Q.Q.R.S.T.U.V.W.X.Y.Z.`. +.+++6 6 6 5 @+#+, , $+Q.Q.Q.Q.Q.Q.%+u w Q.Q.Q.Q.Q.Q.%+u w Q.Q.%+u &+Q.Q.Q.Q.4.u *+Q.%+u w Q.Q.Q.Q.4.u *+=+u -+Q.Q.;+u &+Q.Q.%+u w Q.Q.%+u &+Q.Q.Q.Q.Q.",
"Q.Q.Q.Q.Q.Q.>+,+X.X.'+)+!+X.C.~+{+]+^+/+(+_+, , , , , I Q.Q.Q.Q.Q.Q.%+u |.:+:+:+:+z.Q.%+u w Q.Q.%+u &+<+[+-+..}+*.Q.Q.%+u w <+[+-+..}+*.Q.z.|+1+2+0.3+u &+Q.Q.%+u w Q.Q.%+u &+Q.Q.Q.Q.Q.",
"4+4+4+4+4+4+5+V.6+X.X.X.X.X.X.X.X.X.X.X.X.7+, , , , % 8+4+4+4+4+4+4+9+u u u u u u 0+4+9+u a+4+4+9+u f.Q b+c+e._.d+4+4+9+u a+Q b+c+e._.d+4+4+n.3+e+f+g+u f.4+4+9+u a+4+4+9+u f.4+4+4+4+4+",
"h+h+h+h+h+h+h+i+j+X.X.X.X.X.X.X.X.k+l+m+X.n+, , , ,.o+h+h+h+h+h+h+h+h+h+h+h+h+h+h+h+h+h+h+h+h+h+h+h+h+h+h+h+h+h+h+h+h+h+h+h+h+h+h+h+h+h+h+h+h+h+h+h+h+h+h+h+h+h+h+h+h+h+h+h+h+h+h+h+h+h+",
"p+p+p+p+p+p+p+q+r+s+X.X.X.X.X.X.X.X.X.X.t+u+v+w+x+# 5+p+p+p+p+p+p+p+p+p+p+p+p+p+p+p+p+p+p+p+p+p+p+p+p+p+p+p+p+p+p+p+p+p+p+p+p+p+p+p+p+p+p+p+p+p+p+p+p+p+p+p+p+p+p+p+p+p+p+p+p+p+p+p+p+p+",
"y+y+y+y+y+y+y+y+z+S.7+X.X.X.X.X.X.X.X.A+)+B+!+C+D+E+y+y+y+y+y+y+y+y+y+y+y+y+y+y+y+y+y+y+y+y+y+y+y+y+y+y+y+y+y+y+y+y+y+y+y+y+y+y+y+y+y+y+y+y+y+y+y+y+y+y+y+y+y+y+y+y+y+y+y+y+y+y+y+y+y+y+",
"F+F+F+F+F+F+F+F+F+G+[ H+I+X.X.X.X.X.X.6+J+K+L+M+z+F+F+F+F+F+F+F+F+F+F+F+F+F+F+F+F+F+F+F+F+F+F+F+F+F+F+F+F+F+F+F+F+F+F+F+F+F+F+F+F+F+F+F+F+F+F+F+F+F+F+F+F+F+F+F+F+F+F+F+F+F+F+F+F+F+F+F+",
"F+F+F+F+F+F+F+F+F+F+O N+O+P+Q+R+S+J+T+U+,+d V+W+F+F+F+F+F+F+F+F+F+F+F+F+F+F+F+F+F+F+F+F+F+F+F+F+F+F+F+F+F+F+F+F+F+F+F+F+F+F+F+F+F+F+F+F+F+F+F+F+F+F+F+F+F+F+F+F+F+F+F+F+F+F+F+F+F+F+F+F+",
"X+X+X+X+X+X+X+X+X+X+X+X+Y+Z+`+S. @2 .@`++@@@X+X+X+X+X+X+X+X+X+X+X+X+X+X+X+X+X+X+X+X+X+X+X+X+X+X+X+X+X+X+X+X+X+X+X+X+X+X+X+X+X+X+X+X+X+X+X+X+X+X+X+X+X+X+X+X+X+X+X+X+X+X+X+X+X+X+X+X+X+X+",
"#@#@#@#@#@#@#@#@#@#@#@#@#@#@#@#@#@#@#@#@#@#@#@#@#@#@#@#@#@#@#@#@#@#@#@#@#@#@#@#@#@#@#@#@#@#@#@#@#@#@#@#@#@#@#@#@#@#@#@#@#@#@#@#@#@#@#@#@#@#@#@#@#@#@#@#@#@#@#@#@#@#@#@#@#@#@#@#@#@#@#@#@"};
