/* XPM */
static char * linux_IceWM_xpm[] = {
"52 24 411 2",
"  	c None",
". 	c #5C5B56",
"+ 	c #595853",
"@ 	c #5C5951",
"# 	c #605B52",
"$ 	c #625C51",
"% 	c #605C51",
"& 	c #5D5B51",
"* 	c #575652",
"= 	c #5C5551",
"- 	c #635C54",
"; 	c #696155",
"> 	c #6C6455",
", 	c #6B6454",
"' 	c #656053",
") 	c #5E5A50",
"! 	c #565550",
"~ 	c #59544F",
"{ 	c #625A53",
"] 	c #6C6157",
"^ 	c #756759",
"/ 	c #786C58",
"( 	c #B9B9B6",
"_ 	c #716855",
": 	c #675F52",
"< 	c #5D584F",
"[ 	c #53524E",
"} 	c #5B5550",
"| 	c #675A54",
"1 	c #73635A",
"2 	c #7B6B5B",
"3 	c #8C877E",
"4 	c #D7D7D6",
"5 	c #949391",
"6 	c #6F6555",
"7 	c #655D52",
"8 	c #5A544E",
"9 	c #52514C",
"0 	c #55514B",
"a 	c #5F5750",
"b 	c #6D5F55",
"c 	c #77675A",
"d 	c #7E6C5B",
"e 	c #B7B7B5",
"f 	c #EAEAE9",
"g 	c #776957",
"h 	c #6F6155",
"i 	c #635A51",
"j 	c #58534D",
"k 	c #58544D",
"l 	c #5A534D",
"m 	c #58524D",
"n 	c #54514B",
"o 	c #51504B",
"p 	c #534F4A",
"q 	c #56504C",
"r 	c #58514E",
"s 	c #57514E",
"t 	c #544F4B",
"u 	c #58534B",
"v 	c #645B4F",
"w 	c #726455",
"x 	c #7B6A59",
"y 	c #8B847C",
"z 	c #B7B6B4",
"A 	c #776658",
"B 	c #6C5E55",
"C 	c #605851",
"D 	c #57514C",
"E 	c #54504A",
"F 	c #57514B",
"G 	c #5D564E",
"H 	c #645951",
"I 	c #665A53",
"J 	c #645751",
"K 	c #5D544E",
"L 	c #534F4B",
"M 	c #5A524E",
"N 	c #615552",
"O 	c #645655",
"P 	c #635654",
"Q 	c #5D5350",
"R 	c #55504C",
"S 	c #565149",
"T 	c #5F584D",
"U 	c #6C6251",
"V 	c #796B56",
"W 	c #7F6F58",
"X 	c #A29C96",
"Y 	c #766658",
"Z 	c #6B5E55",
"` 	c #605750",
" .	c #5C564E",
"..	c #60574F",
"+.	c #695E52",
"@.	c #726456",
"#.	c #756458",
"$.	c #736358",
"%.	c #685C54",
"&.	c #5D554E",
"*.	c #534F49",
"=.	c #4E4D48",
"-.	c #504C48",
";.	c #58504C",
">.	c #61534F",
",.	c #6A5854",
"'.	c #6F5A58",
").	c #6D5A58",
"!.	c #5B514F",
"~.	c #574F4B",
"{.	c #5B544C",
"].	c #665B4F",
"^.	c #746853",
"/.	c #7F6F57",
"(.	c #8C867B",
"_.	c #B6B5B3",
":.	c #7A6B55",
"<.	c #D6D6D5",
"[.	c #796A5A",
"}.	c #736454",
"|.	c #6A5E51",
"1.	c #655B4F",
"2.	c #695D51",
"3.	c #726354",
"4.	c #796756",
"5.	c #7D6B58",
"6.	c #7B6959",
"7.	c #726255",
"8.	c #63584F",
"9.	c #565049",
"0.	c #4D4C47",
"a.	c #4F4A47",
"b.	c #574E4A",
"c.	c #60544F",
"d.	c #6A5A54",
"e.	c #715E57",
"f.	c #755D59",
"g.	c #EAE9E9",
"h.	c #6D5958",
"i.	c #645554",
"j.	c #615350",
"k.	c #655950",
"l.	c #726454",
"m.	c #7F6E57",
"n.	c #867359",
"o.	c #D3D3D2",
"p.	c #7C6A58",
"q.	c #7B6957",
"r.	c #7B6857",
"s.	c #B5B5B3",
"t.	c #ACAAA4",
"u.	c #7C6B55",
"v.	c #766754",
"w.	c #736553",
"x.	c #746654",
"y.	c #786855",
"z.	c #7C6C55",
"A.	c #776756",
"B.	c #6B5E51",
"C.	c #5D544C",
"D.	c #514D47",
"E.	c #4B4A46",
"F.	c #534B48",
"G.	c #5E504D",
"H.	c #695952",
"I.	c #705E56",
"J.	c #736057",
"K.	c #BBBBBA",
"L.	c #E9E9E9",
"M.	c #B4B4B2",
"N.	c #6C5756",
"O.	c #6B5653",
"P.	c #715F55",
"Q.	c #7D6B59",
"R.	c #87725B",
"S.	c #726156",
"T.	c #716056",
"U.	c #756357",
"V.	c #7B6758",
"W.	c #D6D5D4",
"X.	c #837158",
"Y.	c #816F57",
"Z.	c #7E6D56",
"`.	c #7D6C55",
" +	c #767672",
".+	c #77736A",
"++	c #645A4E",
"@+	c #64594E",
"#+	c #574F49",
"$+	c #4D4945",
"%+	c #4A4945",
"&+	c #4F4946",
"*+	c #5B4F4C",
"=+	c #675651",
"-+	c #715E56",
";+	c #766256",
">+	c #767572",
",+	c #D5D5D4",
"'+	c #746E6B",
")+	c #735E58",
"!+	c #7A6559",
"~+	c #846F5B",
"{+	c #8D857B",
"]+	c #6E5D53",
"^+	c #655750",
"/+	c #645650",
"(+	c #695B53",
"_+	c #736356",
":+	c #7D6857",
"<+	c #8D785A",
"[+	c #8A7658",
"}+	c #837256",
"|+	c #B0AEAB",
"1+	c #796853",
"2+	c #6F6151",
"3+	c #60554C",
"4+	c #534C48",
"5+	c #474642",
"6+	c #4B4642",
"7+	c #544A47",
"8+	c #60524E",
"9+	c #6D5C54",
"0+	c #776356",
"a+	c #786655",
"b+	c #B3B2B1",
"c+	c #E9E9E8",
"d+	c #AEACA9",
"e+	c #755F58",
"f+	c #7E6859",
"g+	c #856E59",
"h+	c #6D5E50",
"i+	c #5E534B",
"j+	c #564C47",
"k+	c #594E49",
"l+	c #63564E",
"m+	c #705F52",
"n+	c #7D6855",
"o+	c #D5D4D4",
"p+	c #907C5A",
"q+	c #695A4E",
"r+	c #594F48",
"s+	c #4C4743",
"t+	c #4C4744",
"u+	c #534B47",
"v+	c #5E514C",
"w+	c #6B5A53",
"x+	c #7C6957",
"y+	c #A9A8A6",
"z+	c #888581",
"A+	c #877E74",
"B+	c #6F614F",
"C+	c #5F554A",
"D+	c #534C46",
"E+	c #4C4642",
"F+	c #4A4542",
"G+	c #4D4843",
"H+	c #554C46",
"I+	c #60534B",
"J+	c #6D5E51",
"K+	c #7D6A55",
"L+	c #8C8C89",
"M+	c #7C6A53",
"N+	c #7C6B53",
"O+	c #76726C",
"P+	c #736252",
"Q+	c #60544C",
"R+	c #524A45",
"S+	c #494642",
"T+	c #464541",
"U+	c #554C48",
"V+	c #6A5A53",
"W+	c #9F9F9D",
"X+	c #D4D4D3",
"Y+	c #B2B2B0",
"Z+	c #70624E",
"`+	c #AFAEAC",
" @	c #7A6558",
".@	c #8C8B89",
"+@	c #62564A",
"@@	c #544D44",
"#@	c #494540",
"$@	c #504A45",
"%@	c #5B5048",
"&@	c #695B4D",
"*@	c #786752",
"=@	c #C7C6C5",
"-@	c #786652",
";@	c #726150",
">@	c #756451",
",@	c #7B6954",
"'@	c #796655",
")@	c #67594E",
"!@	c #554D47",
"~@	c #45443F",
"{@	c #5F514C",
"]@	c #6A5A52",
"^@	c #786558",
"/@	c #826E59",
"(@	c #8B8B88",
"_@	c #B2B2AF",
":@	c #6D624B",
"<@	c #6F604E",
"[@	c #63554B",
"}@	c #554E45",
"|@	c #4A463F",
"1@	c #4C4740",
"2@	c #554D44",
"3@	c #625648",
"4@	c #6B5D4B",
"5@	c #6E5F4C",
"6@	c #6B5E4C",
"7@	c #64584A",
"8@	c #615449",
"9@	c #64574A",
"0@	c #6B5B4D",
"a@	c #756351",
"b@	c #A8A7A5",
"c@	c #87827E",
"d@	c #66574D",
"e@	c #574C46",
"f@	c #4D4642",
"g@	c #42413D",
"h@	c #62524D",
"i@	c #6D5D54",
"j@	c #7D6A59",
"k@	c #847159",
"l@	c #B1B0AF",
"m@	c #898986",
"n@	c #675D47",
"o@	c #605845",
"p@	c #5F5546",
"q@	c #63564A",
"r@	c #6A5A4E",
"s@	c #6E5D50",
"t@	c #61524B",
"u@	c #554B45",
"v@	c #4A443F",
"w@	c #46423C",
"x@	c #4D473F",
"y@	c #524B41",
"z@	c #554D43",
"A@	c #534C42",
"B@	c #504941",
"C@	c #4D4641",
"D@	c #504842",
"E@	c #564B45",
"F@	c #5F524A",
"G@	c #584D46",
"H@	c #ADADAB",
"I@	c #5C4F48",
"J@	c #524843",
"K@	c #4A423F",
"L@	c #41403B",
"M@	c #5B4E48",
"N@	c #756653",
"O@	c #9D9C9A",
"P@	c #81817D",
"Q@	c #575142",
"R@	c #585140",
"S@	c #514B3E",
"T@	c #4F493F",
"U@	c #534A42",
"V@	c #5A4E46",
"W@	c #605249",
"X@	c #615249",
"Y@	c #5B4E47",
"Z@	c #534943",
"`@	c #4B433F",
" #	c #433F3A",
".#	c #403D37",
"+#	c #45423A",
"@#	c #44403A",
"##	c #43403A",
"$#	c #443F3B",
"%#	c #48423D",
"&#	c #4F4540",
"*#	c #544742",
"=#	c #544943",
"-#	c #504641",
";#	c #49423D",
">#	c #3F3E3A",
",#	c #4E4641",
"'#	c #574D44",
")#	c #615748",
"!#	c #645A48",
"~#	c #5F5645",
"{#	c #544E3F",
"]#	c #4B463B",
"^#	c #444139",
"/#	c #423E39",
"(#	c #44403B",
"_#	c #4A433E",
":#	c #4E4640",
"<#	c #4F4740",
"[#	c #4C443F",
"}#	c #46403C",
"|#	c #423D3A",
"1#	c #423E3A",
"2#	c #443F3C",
"3#	c #463F3C",
"4#	c #423D39",
"5#	c #4A453E",
"6#	c #514B40",
"7#	c #534D40",
"8#	c #504A3E",
"9#	c #49453B",
"0#	c #424039",
"a#	c #413E39",
"b#	c #443F3A",
"c#	c #3C3B37",
"d#	c #32322D",
". . . . . . . . . . . . . . . . . . . . . . . . . . . . . . . . . . . . . . . . . . . . . . . . . . . . ",
". . . . . . . . . . . . . . . . . . . . . . . . . . . . . . . . . . . . . . . . . . . . . . . . . . . . ",
"+ + + + + + + + + + + + + + + + + + + + + + + + + + + + + + + + + + + + + + + + + + + + + + + + + + + + ",
"+ + + + + + + + + + + + + + + + + + + + + + + @ # $ % & + + + + + + + + + + + + + + + + + + + + + + + + ",
"* * * * * * * * * * * * * * * * * * * * * * = - ; > , ' ) * * * * * * * * * * * * * * * * * * * * * * * ",
"! ! ! ! ! ! ! ! ! ! ! ! ! ! ! ! ! ! ! ! ! ~ { ] ^ / ( _ : < ! ! ! ! ! ! ! ! ! ! ! ! ! ! ! ! ! ! ! ! ! ! ",
"[ [ [ [ [ [ [ [ [ [ [ [ [ [ [ [ [ [ [ [ [ } | 1 2 3 4 5 6 7 8 [ [ [ [ [ [ [ [ [ [ [ [ [ [ [ [ [ [ [ [ [ ",
"9 9 9 9 9 9 9 9 9 9 9 9 9 9 9 9 9 9 9 9 0 a b c d e f e g h i j 9 9 9 0 k l m n 9 9 9 9 9 9 9 9 9 9 9 9 ",
"o o o o o o o o o o o o p q r s t o o o u v w x y 4 f 4 z A B C D E F G H I J K 0 o o o o o o o o o o o ",
"o o o o o o o o o o o L M N O P Q R p S T U V W z f f f 4 X Y Z `  ...+.@.#.$.%.&.*.o o o o o o o o o o ",
"=.=.=.=.=.=.=.=.=.=.-.;.>.,.'.).O !.~.{.].^./.(.f _.:._.f <.[.}.|.1.2.3.4.5.6.7.8.9.=.=.=.=.=.=.=.=.=.=.",
"0.0.0.0.0.0.0.0.0.a.b.c.d.e.f.g.h.i.j.k.l.m.n.o.o.p.q.r.s.g.t.u.v.w.x.y.z.s.s.A.B.C.D.0.0.0.0.0.0.0.0.0.",
"E.E.E.E.E.E.E.E.E.F.G.H.I.J.K.L.M.N.O.P.Q.R.M.L.M.S.T.U.V.M.W.M.X.Y.Z.`. +W.W..+++@+#+$+E.E.E.E.E.E.E.E.",
"%+%+%+%+%+%+%+%+&+*+=+-+;+>+,+L.,+'+)+!+~+{+L.M.]+^+/+(+_+:+M.,+M.<+[+}+M.L.L.|+1+2+3+4+%+%+%+%+%+%+%+%+",
"5+5+5+5+5+5+5+6+7+8+9+0+a+b+c+c+c+d+e+f+g+b+b+h+i+j+7+k+l+m+n+b+o+b+p+b+o+b+b+o+b+1+q+r+s+5+5+5+5+5+5+5+",
"5+5+5+5+5+5+t+u+v+w+;+x+y+o+o+b+o+o+z+f+A+b+B+C+D+E+F+G+H+I+J+K+b+b+L+o+b+M+N+b+o+O+P+Q+R+S+5+5+5+5+5+5+",
"T+T+T+T+T+T+U+v+V+0+:+W+X+X+Y+Z+Y+X+`+ @Y+.@+@@@T+T+T+T+#@$@%@&@*@.@=@.@-@;@>@,@Y+Y+'@)@!@6+T+T+T+T+T+T+",
"~@~@~@~@~@~@{@]@^@/@(@X+_@(@:@<@;@_@X+_@_@[@}@|@~@~@~@~@~@~@1@2@3@4@5@6@7@8@9@0@a@b@c@d@e@f@~@~@~@~@~@~@",
"g@g@g@g@g@g@h@i@j@k@l@m@n@o@p@q@r@s@l@m@t@u@v@g@g@g@g@g@g@g@g@w@x@y@z@A@B@C@D@E@F@G@H@I@J@K@g@g@g@g@g@g@",
"L@L@L@L@L@L@M@)@N@O@P@Q@R@S@T@U@V@W@X@Y@Z@`@ #L@L@L@L@L@L@L@L@L@L@.#+#@###L@$#%#&#*#=#-#;#$#L@L@L@L@L@L@",
">#>#>#>#>#>#,#'#)#!#~#{#]#^#/#(#_#:#<#[#}#|#>#>#>#>#>#>#>#>#>#>#>#>#>#>#>#>#>#>#1#2#3#2#4#>#>#>#>#>#>#>#",
">#>#>#>#>#>#1#5#6#7#8#9#0#>#>#>#a# #b#1#>#>#>#>#>#>#>#>#>#>#>#>#>#>#>#>#>#>#>#>#>#>#>#>#>#>#>#>#>#>#>#>#",
"c#c#c#c#c#c#c#c#c#c#c#c#c#c#c#c#c#c#c#c#c#c#c#c#c#c#c#c#c#c#c#c#c#c#c#c#c#c#c#c#c#c#c#c#c#c#c#c#c#c#c#c#",
"d#d#d#d#d#d#d#d#d#d#d#d#d#d#d#d#d#d#d#d#d#d#d#d#d#d#d#d#d#d#d#d#d#d#d#d#d#d#d#d#d#d#d#d#d#d#d#d#d#d#d#d#"};
