/* XPM */
static char * linux_Applications_xpm[] = {
"97 24 199 2",
"  	c None",
". 	c #5C5B56",
"+ 	c #595853",
"@ 	c #575652",
"# 	c #565550",
"$ 	c #53524E",
"% 	c #76736C",
"& 	c #DFD8C8",
"* 	c #5D5C57",
"= 	c #52514C",
"- 	c #6D6B64",
"; 	c #BEB9AB",
"> 	c #75726B",
", 	c #5D5B55",
"' 	c #55544E",
") 	c #5F5D57",
"! 	c #5A5953",
"~ 	c #51504B",
"{ 	c #A4A094",
"] 	c #C1BBAE",
"^ 	c #DDD6C7",
"/ 	c #67655F",
"( 	c #74726A",
"_ 	c #5C5A54",
": 	c #595852",
"< 	c #56544F",
"[ 	c #D6D0C0",
"} 	c #7A776F",
"| 	c #B9B3A6",
"1 	c #9E9A8F",
"2 	c #76746C",
"3 	c #BFB9AC",
"4 	c #DBD4C4",
"5 	c #CEC8B9",
"6 	c #8D897F",
"7 	c #52514B",
"8 	c #928E84",
"9 	c #CBC5B6",
"0 	c #DCD5C5",
"a 	c #D1CABB",
"b 	c #979388",
"c 	c #858279",
"d 	c #C4BEB0",
"e 	c #DBD4C5",
"f 	c #D6CFC0",
"g 	c #ACA79B",
"h 	c #53524C",
"i 	c #9A968B",
"j 	c #CFC9BA",
"k 	c #C9C3B5",
"l 	c #88847B",
"m 	c #77756D",
"n 	c #C3BDAF",
"o 	c #C2BCAE",
"p 	c #66645E",
"q 	c #8A867D",
"r 	c #DDD6C6",
"s 	c #D0CABB",
"t 	c #8F8C82",
"u 	c #4E4D48",
"v 	c #827F76",
"w 	c #4F4E49",
"x 	c #7E7B72",
"y 	c #D3CCBD",
"z 	c #504F4A",
"A 	c #726F68",
"B 	c #CAC4B5",
"C 	c #79766E",
"D 	c #86837A",
"E 	c #858178",
"F 	c #595752",
"G 	c #9B978C",
"H 	c #D5CEBF",
"I 	c #807C74",
"J 	c #5E5C56",
"K 	c #6B6962",
"L 	c #848077",
"M 	c #737069",
"N 	c #716F67",
"O 	c #C5C0B1",
"P 	c #AAA599",
"Q 	c #7C7971",
"R 	c #63615B",
"S 	c #5B5A54",
"T 	c #A29E92",
"U 	c #BEB8AA",
"V 	c #64625C",
"W 	c #BFB9AB",
"X 	c #BAB5A7",
"Y 	c #605E58",
"Z 	c #DED7C7",
"` 	c #4D4C47",
" .	c #BAB5A8",
"..	c #969287",
"+.	c #D2CBBC",
"@.	c #7D7A71",
"#.	c #C8C2B3",
"$.	c #585651",
"%.	c #54534D",
"&.	c #DAD4C4",
"*.	c #838077",
"=.	c #D8D1C2",
"-.	c #C8C2B4",
";.	c #726F67",
">.	c #6A6861",
",.	c #67655E",
"'.	c #4B4A46",
").	c #5F5E58",
"!.	c #5C5A55",
"~.	c #B5AFA3",
"{.	c #706D66",
"].	c #75736B",
"^.	c #4F4D49",
"/.	c #6D6A64",
"(.	c #B8B2A5",
"_.	c #D2CCBD",
":.	c #D8D1C1",
"<.	c #DAD3C3",
"[.	c #54524E",
"}.	c #6A6862",
"|.	c #575651",
"1.	c #53524D",
"2.	c #4D4C48",
"3.	c #C0BAAC",
"4.	c #A9A499",
"5.	c #4C4B47",
"6.	c #4A4945",
"7.	c #99958A",
"8.	c #6F6C65",
"9.	c #4E4C48",
"0.	c #55544F",
"a.	c #696760",
"b.	c #5B5954",
"c.	c #53514D",
"d.	c #D7D0C1",
"e.	c #A7A297",
"f.	c #6B6862",
"g.	c #5F5D58",
"h.	c #807D75",
"i.	c #6A6761",
"j.	c #A09B91",
"k.	c #B0AB9E",
"l.	c #474642",
"m.	c #494844",
"n.	c #8E8A81",
"o.	c #615F59",
"p.	c #6D6A63",
"q.	c #7D7A72",
"r.	c #989389",
"s.	c #C7C1B2",
"t.	c #DAD3C4",
"u.	c #8C887E",
"v.	c #989489",
"w.	c #4C4B46",
"x.	c #76736B",
"y.	c #52504B",
"z.	c #8D8A80",
"A.	c #CBC5B7",
"B.	c #817E75",
"C.	c #827E76",
"D.	c #D4CDBE",
"E.	c #65635D",
"F.	c #7F7C73",
"G.	c #5A5852",
"H.	c #CDC7B8",
"I.	c #585751",
"J.	c #9F9A8F",
"K.	c #D1CBBC",
"L.	c #747169",
"M.	c #807D74",
"N.	c #67645E",
"O.	c #87837A",
"P.	c #5E5C57",
"Q.	c #464541",
"R.	c #B0AB9F",
"S.	c #B5B0A3",
"T.	c #5A5853",
"U.	c #6C6962",
"V.	c #908C82",
"W.	c #D0C9BA",
"X.	c #B6B1A4",
"Y.	c #7F7B73",
"Z.	c #8F8B82",
"`.	c #484743",
" +	c #959187",
".+	c #827E75",
"++	c #66645D",
"@+	c #45443F",
"#+	c #6B6961",
"$+	c #514F49",
"%+	c #42413D",
"&+	c #69665F",
"*+	c #4E4C47",
"=+	c #41403B",
"-+	c #68665E",
";+	c #4D4B46",
">+	c #3F3E3A",
",+	c #3C3B37",
"'+	c #32322D",
". . . . . . . . . . . . . . . . . . . . . . . . . . . . . . . . . . . . . . . . . . . . . . . . . . . . . . . . . . . . . . . . . . . . . . . . . . . . . . . . . . . . . . . . . . . . . . . . . ",
". . . . . . . . . . . . . . . . . . . . . . . . . . . . . . . . . . . . . . . . . . . . . . . . . . . . . . . . . . . . . . . . . . . . . . . . . . . . . . . . . . . . . . . . . . . . . . . . . ",
"+ + + + + + + + + + + + + + + + + + + + + + + + + + + + + + + + + + + + + + + + + + + + + + + + + + + + + + + + + + + + + + + + + + + + + + + + + + + + + + + + + + + + + + + + + + + + + + + + + ",
"+ + + + + + + + + + + + + + + + + + + + + + + + + + + + + + + + + + + + + + + + + + + + + + + + + + + + + + + + + + + + + + + + + + + + + + + + + + + + + + + + + + + + + + + + + + + + + + + + + ",
"@ @ @ @ @ @ @ @ @ @ @ @ @ @ @ @ @ @ @ @ @ @ @ @ @ @ @ @ @ @ @ @ @ @ @ @ @ @ @ @ @ @ @ @ @ @ @ @ @ @ @ @ @ @ @ @ @ @ @ @ @ @ @ @ @ @ @ @ @ @ @ @ @ @ @ @ @ @ @ @ @ @ @ @ @ @ @ @ @ @ @ @ @ @ @ @ @ ",
"# # # # # # # # # # # # # # # # # # # # # # # # # # # # # # # # # # # # # # # # # # # # # # # # # # # # # # # # # # # # # # # # # # # # # # # # # # # # # # # # # # # # # # # # # # # # # # # # # ",
"$ $ $ $ $ $ $ $ $ $ $ $ $ $ $ $ $ $ $ $ $ $ $ $ $ $ $ $ $ $ $ $ $ $ $ % & * $ % & * $ $ $ $ $ $ $ $ $ $ $ $ $ $ $ $ $ $ $ $ $ $ $ % & * $ $ $ $ $ $ $ $ $ $ $ $ $ $ $ $ $ $ $ $ $ $ $ $ $ $ $ $ $ ",
"= = = = = = = = = - & ; = = = = = = = = = = = = = = = = = = = = = = = > & , = ' ) = = = = = = = = = = = = = = = = = = = > & ! = = ' ) = = = = = = = = = = = = = = = = = = = = = = = = = = = = = = ",
"~ ~ ~ ~ ~ ~ ~ ~ ~ { ] ^ / ~ ~ ~ ~ ~ ~ ~ ~ ~ ~ ~ ~ ~ ~ ~ ~ ~ ~ ~ ~ ~ ~ ( & _ ~ ~ ~ ~ ~ ~ ~ ~ ~ ~ ~ ~ ~ ~ ~ ~ ~ ~ ~ ~ ~ ~ ( & : ~ ~ ~ ~ ~ ~ ~ ~ ~ ~ ~ ~ ~ ~ ~ ~ ~ ~ ~ ~ ~ ~ ~ ~ ~ ~ ~ ~ ~ ~ ~ ~ ~ ~ ",
"~ ~ ~ ~ ~ ~ ~ ~ < [ } | 1 ~ ~ ~ ~ ( & 2 3 4 5 6 ~ ~ ( & 2 3 4 5 6 ~ ~ ( & _ ~ ( & _ ~ 7 8 9 0 a b ~ ~ c d e f g : ~ ~ ~ & & & & & ( & _ ~ h i j 0 k l ~ ~ ~ ( & m n e o p ~ ~ q 5 r s t ~ ~ ~ ~ ~ ",
"u u u u u u u u v 5 w x y z u u u A & B C ) D 4 E u A & B C ) D 4 E u A & F u A & F u G H I J K L u u v M J N O P u u u Q & R S S A & F u T y C ) D 4 E u u A & U - V W X u Y Z 8 ) K C u u u u u ",
"` ` ` ` ` ` ` `  ...` w +.@.` ` ` N & v ` ` ` G #.` N & v ` ` ` G #.` N & $.` N & $.%.&.*.` ` ` ` ` ` ` ` ` ` } =.` ` ` N & < ` ` N & $.' 0 v ` ` ` G -.` ` N & ;.` ` x 0 w >.& ,.` ` ` ` ` ` ` ` ",
"'.'.'.'.'.'.'.).r !.'.'.i ~.'.'.'.{.& !.'.'.'.].& ^.{.& !.'.'.'.].& ^.{.& # '.{.& # >.& !.'.'.'.'.'.'./.(._.:.<.& = '.'.{.& [.'.'.{.& # }.& !.'.'.'.].& ^.'.{.& |.'.'.{.& 1.2.3.f 4.Q 5.'.'.'.'.'.",
"6.6.6.6.6.6.6.7.& r r r r r ! 6.6.8.& ! 6.6.6.> & 9.8.& ! 6.6.6.> & 9.8.& 0.6.8.& 0.a.& b.6.6.6.6.6.c.d.e.f.g.h.& c.6.6.8.& c.6.6.8.& 0.i.& b.6.6.6.> & 9.6.8.& 0.6.6.8.& c.6.5.% j.H k.6.6.6.6.6.",
"l.l.l.l.l.l.m.s n.o.o.o.o.o 8 l.l.p.& q.l.l.l.r.s.l.p.& q.l.l.l.r.s.l.p.& = l.p.& = u t.I l.l.l.l.l.a.& $.l.l.u.& z l.l.f.& ~ l.l.p.& = w 0 x l.l.l.v.s.l.l.p.& = l.l.p.& z l.l.l.l.C & w.l.l.l.l.",
"l.l.l.l.l.l.x.0 y.l.l.l.l.z.A.l.l.p.& -.M $.B.<.C.l.p.& -.M $.B.<.C.l.p.& = l.p.& = l.v.D.} $.E.F.l.< r 7.G.% H.& z l.l.I.& I 1.= p.& = l.J.K.L.$.C.t.M.l.l.p.& = l.l.p.& z N.O.P._ e.5 l.l.l.l.l.",
"Q.Q.Q.Q.Q.Q.R.S.Q.Q.Q.Q.Q.T.& {.Q.U.& {.U t.H.l Q.Q.U.& {.U t.H.l Q.Q.U.& y.Q.U.& y.Q.l.n.A.r 5 V.Q.Q.M.W.<.X.Y.& w Q.Q.Q.Z.W.r & U.& y.Q.`. +5 0 #..+Q.Q.Q.U.& y.Q.Q.U.& w J (.d.0 U ++Q.Q.Q.Q.Q.",
"@+@+@+@+@+@+@+@+@+@+@+@+@+@+@+@+@+#+& $+@+@+@+@+@+@+#+& $+@+@+@+@+@+@+@+@+@+@+@+@+@+@+@+@+@+@+@+@+@+@+@+@+@+@+@+@+@+@+@+@+@+@+@+@+@+@+@+@+@+@+@+@+@+@+@+@+@+@+@+@+@+@+@+@+@+@+@+@+@+@+@+@+@+@+@+@+",
"%+%+%+%+%+%+%+%+%+%+%+%+%+%+%+%+%+&+& *+%+%+%+%+%+%+&+& *+%+%+%+%+%+%+%+%+%+%+%+%+%+%+%+%+%+%+%+%+%+%+%+%+%+%+%+%+%+%+%+%+%+%+%+%+%+%+%+%+%+%+%+%+%+%+%+%+%+%+%+%+%+%+%+%+%+%+%+%+%+%+%+%+%+%+%+%+",
"=+=+=+=+=+=+=+=+=+=+=+=+=+=+=+=+=+-+& ;+=+=+=+=+=+=+-+& ;+=+=+=+=+=+=+=+=+=+=+=+=+=+=+=+=+=+=+=+=+=+=+=+=+=+=+=+=+=+=+=+=+=+=+=+=+=+=+=+=+=+=+=+=+=+=+=+=+=+=+=+=+=+=+=+=+=+=+=+=+=+=+=+=+=+=+=+=+",
">+>+>+>+>+>+>+>+>+>+>+>+>+>+>+>+>+>+>+>+>+>+>+>+>+>+>+>+>+>+>+>+>+>+>+>+>+>+>+>+>+>+>+>+>+>+>+>+>+>+>+>+>+>+>+>+>+>+>+>+>+>+>+>+>+>+>+>+>+>+>+>+>+>+>+>+>+>+>+>+>+>+>+>+>+>+>+>+>+>+>+>+>+>+>+>+>+",
">+>+>+>+>+>+>+>+>+>+>+>+>+>+>+>+>+>+>+>+>+>+>+>+>+>+>+>+>+>+>+>+>+>+>+>+>+>+>+>+>+>+>+>+>+>+>+>+>+>+>+>+>+>+>+>+>+>+>+>+>+>+>+>+>+>+>+>+>+>+>+>+>+>+>+>+>+>+>+>+>+>+>+>+>+>+>+>+>+>+>+>+>+>+>+>+>+",
",+,+,+,+,+,+,+,+,+,+,+,+,+,+,+,+,+,+,+,+,+,+,+,+,+,+,+,+,+,+,+,+,+,+,+,+,+,+,+,+,+,+,+,+,+,+,+,+,+,+,+,+,+,+,+,+,+,+,+,+,+,+,+,+,+,+,+,+,+,+,+,+,+,+,+,+,+,+,+,+,+,+,+,+,+,+,+,+,+,+,+,+,+,+,+,+,+",
"'+'+'+'+'+'+'+'+'+'+'+'+'+'+'+'+'+'+'+'+'+'+'+'+'+'+'+'+'+'+'+'+'+'+'+'+'+'+'+'+'+'+'+'+'+'+'+'+'+'+'+'+'+'+'+'+'+'+'+'+'+'+'+'+'+'+'+'+'+'+'+'+'+'+'+'+'+'+'+'+'+'+'+'+'+'+'+'+'+'+'+'+'+'+'+'+'+"};
