/* XPM */
static char * linux_Ensibm_xpm[] = {
"90 24 302 2",
"  	c None",
". 	c #5C5B56",
"+ 	c #585752",
"@ 	c #3F3E3B",
"# 	c #181817",
"$ 	c #070707",
"% 	c #020202",
"& 	c #1C1C1A",
"* 	c #42423E",
"= 	c #595853",
"- 	c #565551",
"; 	c #35312F",
"> 	c #010101",
", 	c #000000",
"' 	c #030302",
") 	c #363633",
"! 	c #51504B",
"~ 	c #0A0A0A",
"{ 	c #1A0404",
"] 	c #5D0D0F",
"^ 	c #540C0D",
"/ 	c #3E090A",
"( 	c #4F0B0D",
"_ 	c #680E11",
": 	c #520B0D",
"< 	c #0C0202",
"[ 	c #111110",
"} 	c #54534F",
"| 	c #575652",
"1 	c #4F4E4B",
"2 	c #040404",
"3 	c #060101",
"4 	c #040101",
"5 	c #CF1C21",
"6 	c #E92025",
"7 	c #E72025",
"8 	c #881316",
"9 	c #C41B1F",
"0 	c #090908",
"a 	c #53524E",
"b 	c #565550",
"c 	c #54534E",
"d 	c #0A0A09",
"e 	c #050101",
"f 	c #45090B",
"g 	c #D21D21",
"h 	c #D41D22",
"i 	c #E51F24",
"j 	c #6B0F11",
"k 	c #131312",
"l 	c #2C2C29",
"m 	c #731012",
"n 	c #D31D22",
"o 	c #490A0C",
"p 	c #901417",
"q 	c #CA1C20",
"r 	c #010000",
"s 	c #3B3936",
"t 	c #76736C",
"u 	c #DFD8C8",
"v 	c #5D5C57",
"w 	c #52514C",
"x 	c #4E4D48",
"y 	c #1B0404",
"z 	c #4C0A0C",
"A 	c #4E0B0C",
"B 	c #861215",
"C 	c #370809",
"D 	c #040403",
"E 	c #75726B",
"F 	c #68665F",
"G 	c #55544E",
"H 	c #5F5D57",
"I 	c #5D5B55",
"J 	c #32312E",
"K 	c #390809",
"L 	c #E31F24",
"M 	c #2E0607",
"N 	c #BC1A1E",
"O 	c #700F12",
"P 	c #3B3A37",
"Q 	c #74726A",
"R 	c #5E5C56",
"S 	c #5C5A54",
"T 	c #0F0F0E",
"U 	c #5F0D0F",
"V 	c #B8191D",
"W 	c #2D0607",
"X 	c #1C0404",
"Y 	c #690E11",
"Z 	c #E21F24",
"` 	c #971518",
" .	c #7A1113",
"..	c #150303",
"+.	c #1B1B19",
"@.	c #77756D",
"#.	c #C3BDAF",
"$.	c #DBD4C5",
"%.	c #C2BCAE",
"&.	c #66645E",
"*.	c #8A867D",
"=.	c #CEC8B9",
"-.	c #DDD6C6",
";.	c #D0CABB",
">.	c #8F8C82",
",.	c #76746C",
"'.	c #BFB9AC",
").	c #DBD4C4",
"!.	c #8D897F",
"~.	c #78756D",
"{.	c #C2BCAF",
"].	c #C0BAAD",
"^.	c #64625C",
"/.	c #6F6D65",
"(.	c #65635D",
"_.	c #0B0B0B",
":.	c #060303",
"<.	c #AB171B",
"[.	c #530B0D",
"}.	c #080101",
"|.	c #8F1417",
"1.	c #D91E22",
"2.	c #300708",
"3.	c #726F68",
"4.	c #595752",
"5.	c #BEB8AA",
"6.	c #6D6B64",
"7.	c #BFB9AB",
"8.	c #BAB5A7",
"9.	c #605E58",
"0.	c #DED7C7",
"a.	c #928E84",
"b.	c #6B6962",
"c.	c #79766E",
"d.	c #CAC4B5",
"e.	c #86837A",
"f.	c #858178",
"g.	c #6E6C64",
"h.	c #64625B",
"i.	c #6D6A63",
"j.	c #B8B3A6",
"k.	c #4D4C47",
"l.	c #060404",
"m.	c #8C191C",
"n.	c #DD1E23",
"o.	c #716F67",
"p.	c #D8D1C2",
"q.	c #CFC9BA",
"r.	c #726F67",
"s.	c #7E7B72",
"t.	c #DCD5C5",
"u.	c #4F4E49",
"v.	c #6A6861",
"w.	c #67655E",
"x.	c #585651",
"y.	c #827F76",
"z.	c #9B978C",
"A.	c #C8C2B3",
"B.	c #727068",
"C.	c #7D7A72",
"D.	c #4B4A46",
"E.	c #6C3536",
"F.	c #D01F24",
"G.	c #706D66",
"H.	c #696761",
"I.	c #5F5E58",
"J.	c #575651",
"K.	c #53524D",
"L.	c #4D4C48",
"M.	c #C0BAAC",
"N.	c #D6CFC0",
"O.	c #A9A499",
"P.	c #7C7971",
"Q.	c #4C4B47",
"R.	c #5C5A55",
"S.	c #75736B",
"T.	c #4F4D49",
"U.	c #55544F",
"V.	c #4A4945",
"W.	c #080808",
"X.	c #222222",
"Y.	c #FCFCFC",
"Z.	c #AC9696",
"`.	c #6B2A2C",
" +	c #D11D21",
".+	c #B2181C",
"++	c #060606",
"@+	c #6F6C65",
"#+	c #53514D",
"$+	c #A09B91",
"%+	c #D5CEBF",
"&+	c #B0AB9E",
"*+	c #5A5953",
"=+	c #4E4C48",
"-+	c #474642",
";+	c #171716",
">+	c #0E0E0E",
",+	c #333333",
"'+	c #313131",
")+	c #141414",
"!+	c #E7E7E7",
"~+	c #FFFFFF",
"{+	c #E9E9E9",
"]+	c #614B4B",
"^+	c #451E1F",
"/+	c #961C1F",
"(+	c #CE1C21",
"_+	c #E82025",
":+	c #751013",
"<+	c #070101",
"[+	c #151513",
"}+	c #504F4A",
"|+	c #4C4B46",
"1+	c #989389",
"2+	c #C7C1B2",
"3+	c #2A2A27",
"4+	c #474747",
"5+	c #CFCFCF",
"6+	c #5B5B5B",
"7+	c #FEFEFE",
"8+	c #828282",
"9+	c #555353",
"0+	c #534141",
"a+	c #4D3435",
"b+	c #7B5354",
"c+	c #603B3C",
"d+	c #472C2C",
"e+	c #55534E",
"f+	c #67645E",
"g+	c #87837A",
"h+	c #5E5C57",
"i+	c #A7A297",
"j+	c #C8C2B4",
"k+	c #737069",
"l+	c #817E75",
"m+	c #DAD3C3",
"n+	c #827E76",
"o+	c #464541",
"p+	c #41403C",
"q+	c #EDEDED",
"r+	c #969696",
"s+	c #44433F",
"t+	c #6C6962",
"u+	c #716E67",
"v+	c #52504B",
"w+	c #B8B2A5",
"x+	c #D7D0C1",
"y+	c #66645D",
"z+	c #DAD3C4",
"A+	c #CDC7B8",
"B+	c #88847B",
"C+	c #45443F",
"D+	c #292926",
"E+	c #606060",
"F+	c #D5D5D5",
"G+	c #9B9B9B",
"H+	c #FBFBFB",
"I+	c #5C5C5C",
"J+	c #2D2C29",
"K+	c #42413D",
"L+	c #403F3B",
"M+	c #141313",
"N+	c #9D9D9D",
"O+	c #C7C7C7",
"P+	c #101010",
"Q+	c #B8B8B8",
"R+	c #F0F0F0",
"S+	c #717170",
"T+	c #41403B",
"U+	c #393834",
"V+	c #F4F4F4",
"W+	c #E8E8E8",
"X+	c #7C7C7C",
"Y+	c #100F0F",
"Z+	c #3D3C37",
"`+	c #3F3E3A",
" @	c #363532",
".@	c #565655",
"+@	c #E4E4E4",
"@@	c #F7F7F7",
"#@	c #D9D9D9",
"$@	c #3F3E3E",
"%@	c #151414",
"&@	c #222120",
"*@	c #090909",
"=@	c #545454",
"-@	c #B1B1B1",
";@	c #E1E1E1",
">@	c #F8F8F8",
",@	c #DDDDDD",
"'@	c #A9A9A9",
")@	c #232220",
"!@	c #3D3C38",
"~@	c #3C3B37",
"{@	c #363531",
"]@	c #232320",
"^@	c #1B1B1A",
"/@	c #030303",
"(@	c #0F0F0F",
"_@	c #252522",
":@	c #383733",
"<@	c #32322D",
". . . . . . . . . . . . . . . . . . . . . . . . . . . . . . . . . . . . . . . . . . . . . . . . . . . . . . . . . . . . . . . . . . . . . . . . . . . . . . . . . . . . . . . . . . ",
". . . . . . . . . . . . + @ # $ % % $ & * = . . . . . . . . . . . . . . . . . . . . . . . . . . . . . . . . . . . . . . . . . . . . . . . . . . . . . . . . . . . . . . . . . . . . ",
"= = = = = = = = = = - ; > , , , , , , , , ' ) + = = = = = = = = = = = = = = = = = = = = = = = = = = = = = = = = = = = = = = = = = = = = = = = = = = = = = = = = = = = = = = = = = = ",
"= = = = = = = = = ! ~ , , { ] ^ / ( _ : < , , [ } = = = = = = = = = = = = = = = = = = = = = = = = = = = = = = = = = = = = = = = = = = = = = = = = = = = = = = = = = = = = = = = = = ",
"| | | | | | | | 1 2 3 , 4 5 6 6 6 6 7 8 9 < , , 0 a | | | | | | | | | | | | | | | | | | | | | | | | | | | | | | | | | | | | | | | | | | | | | | | | | | | | | | | | | | | | | | | | ",
"b b b b b b b c d e , , f g h 6 6 6 6 i 6 j , , , k b b b b b b b b b b b b b b b b b b b b b b b b b b b b b b b b b b b b b b b b b b b b b b b b b b b b b b b b b b b b b b b b ",
"a a a a a a a l , , , , m n o p g 6 6 6 6 q r , , , s a a a a a a a a a a a a a a a a a a a a a a a a a a a a a a a a t u v a t u v a a a a a a a a a a a a a a a a a a a a a a a a ",
"w w w w w w x > , y z A B 6 6 6 6 6 6 6 6 6 C , , , D ! w w w w w w E u u u u u u F w w w w w w w w w w w w w w w w w G H w w E u I w w w w w w w w w w w w w w w w w w w w w w w w ",
"! ! ! ! ! ! J , K L 6 6 M _ N 6 6 6 6 6 6 6 O , , , , P ! ! ! ! ! ! Q u F R R R R w ! ! ! ! ! ! ! ! ! ! ! ! ! ! ! ! ! ! ! ! ! Q u S ! ! ! ! ! ! ! ! ! ! ! ! ! ! ! ! ! ! ! ! ! ! ! ! ",
"! ! ! ! ! ! T , U 6 6 6 V W , X Y Z 6 6 6 6 `  ..., , +.! ! ! ! ! ! Q u S ! ! ! ! ! ! Q u @.#.$.%.&.! ! *.=.-.;.>.! ! Q u S ! Q u ,.'.).=.!.! ! Q u ~.{.).].^./.%.).%.(.! ! ! ! ! ! ",
"x x x x x x _., :.<.6 6 6 6 <.[.}.|.6 6 6 6 Z 6 1.2., $ x x x x x x 3.u 4.x x x x x x 3.u 5.6.^.7.8.x 9.0.a.H b.c.x x 3.u 4.x 3.u d.c.H e.).f.x 3.u 7.g.h.5.%.8.i.h.5.j.x x x x x x ",
"k.k.k.k.k.k.% , , l.m.6 6 6 6 6 n.9 6 6 6 6 6 6 6 |., % k.k.k.k.k.k.o.u p.p.p.p.q.k.k.o.u r.k.k.s.t.u.v.u w.k.k.k.k.k.o.u x.k.o.u y.k.k.k.z.A.k.o.u B.k.k.C.u /.k.k.C.t.x k.k.k.k.k.",
"D.D.D.D.D.D.> , , , , E.F.6 6 6 6 6 6 6 6 6 6 6 6 Y , % D.D.D.D.D.D.G.u H.I.I.I.R D.D.G.u J.D.D.G.u K.L.M.N.O.P.Q.D.D.G.u b D.G.u R.D.D.D.S.u T.G.u J.D.D.G.u U.D.D.G.u K.D.D.D.D.D.",
"V.V.V.V.V.V.W., , , X.Y.Z.`. +6 6 6 6 6 6 6 6 6 .+e , ++V.V.V.V.V.V.@+u U.V.V.V.V.V.V.@+u U.V.V.@+u #+V.Q.t $+%+&+V.V.@+u U.V.@+u *+V.V.V.E u =+@+u U.V.V.@+u #+V.V.@+u #+V.V.V.V.V.",
"-+-+-+-+-+-+;+>+,+'+)+!+~+{+]+^+/+(+_+6 6 6 5 :+<+, , [+-+-+-+-+-+-+i.u w -+-+-+-+-+-+i.u w -+-+i.u }+-+-+-+-+c.u |+-+i.u w -+i.u C.-+-+-+1+2+-+i.u w -+-+i.u }+-+-+i.u }+-+-+-+-+-+",
"-+-+-+-+-+-+3+4+~+~+5+6+7+~+Y.8+9+0+a+b+c+d+, , , , , J -+-+-+-+-+-+i.u 9.e+e+e+e+V.-+i.u w -+-+i.u }+f+g+h+S i+=.-+-+i.u w -+i.u j+k+x.l+m+n+-+i.u w -+-+i.u }+-+-+i.u }+-+-+-+-+-+",
"o+o+o+o+o+o+p+)+q+~+~+~+~+~+~+~+~+~+~+~+~+r+, , , , % s+o+o+o+o+o+o+t+u u u u u u u+o+t+u v+o+o+t+u u.R w+x+t.5.y+o+o+t+u v+o+t+u G.5.z+A+B+o+o+t+u v+o+o+t+u u.o+o+t+u u.o+o+o+o+o+",
"C+C+C+C+C+C+C+D+E+~+~+~+~+~+~+~+~+F+G+H+~+I+, , , _.J+C+C+C+C+C+C+C+C+C+C+C+C+C+C+C+C+C+C+C+C+C+C+C+C+C+C+C+C+C+C+C+C+C+C+C+C+C+C+C+C+C+C+C+C+C+C+C+C+C+C+C+C+C+C+C+C+C+C+C+C+C+C+C+",
"K+K+K+K+K+K+K+L+M+N+~+~+~+~+~+~+~+~+~+~+O+P+Q+R+S+# p+K+K+K+K+K+K+K+K+K+K+K+K+K+K+K+K+K+K+K+K+K+K+K+K+K+K+K+K+K+K+K+K+K+K+K+K+K+K+K+K+K+K+K+K+K+K+K+K+K+K+K+K+K+K+K+K+K+K+K+K+K+K+K+",
"T+T+T+T+T+T+T+T+U+>+r+~+~+~+~+~+~+~+~+V+6+W+7+X+Y+Z+T+T+T+T+T+T+T+T+T+T+T+T+T+T+T+T+T+T+T+T+T+T+T+T+T+T+T+T+T+T+T+T+T+T+T+T+T+T+T+T+T+T+T+T+T+T+T+T+T+T+T+T+T+T+T+T+T+T+T+T+T+T+T+T+",
"`+`+`+`+`+`+`+`+`+ @[ .@+@~+~+~+~+~+~+q+@@#@$@%@U+`+`+`+`+`+`+`+`+`+`+`+`+`+`+`+`+`+`+`+`+`+`+`+`+`+`+`+`+`+`+`+`+`+`+`+`+`+`+`+`+`+`+`+`+`+`+`+`+`+`+`+`+`+`+`+`+`+`+`+`+`+`+`+`+`+",
"`+`+`+`+`+`+`+`+`+`+P &@*@=@-@;@>@@@,@'@4+d )@!@`+`+`+`+`+`+`+`+`+`+`+`+`+`+`+`+`+`+`+`+`+`+`+`+`+`+`+`+`+`+`+`+`+`+`+`+`+`+`+`+`+`+`+`+`+`+`+`+`+`+`+`+`+`+`+`+`+`+`+`+`+`+`+`+`+`+",
"~@~@~@~@~@~@~@~@~@~@~@~@{@]@^@>+/@2 (@^@_@:@~@~@~@~@~@~@~@~@~@~@~@~@~@~@~@~@~@~@~@~@~@~@~@~@~@~@~@~@~@~@~@~@~@~@~@~@~@~@~@~@~@~@~@~@~@~@~@~@~@~@~@~@~@~@~@~@~@~@~@~@~@~@~@~@~@~@~@~@",
"<@<@<@<@<@<@<@<@<@<@<@<@<@<@<@<@<@<@<@<@<@<@<@<@<@<@<@<@<@<@<@<@<@<@<@<@<@<@<@<@<@<@<@<@<@<@<@<@<@<@<@<@<@<@<@<@<@<@<@<@<@<@<@<@<@<@<@<@<@<@<@<@<@<@<@<@<@<@<@<@<@<@<@<@<@<@<@<@<@<@"};
