/* XPM */
static char * taskbuttonbg_xpm[] = {
"1 24 22 1",
" 	c None",
".	c #484641",
"+	c #474640",
"@	c #46453F",
"#	c #45443E",
"$	c #43433D",
"%	c #42423D",
"&	c #41403B",
"*	c #403F3A",
"=	c #3F3E39",
"-	c #3D3C39",
";	c #3C3B37",
">	c #3B3A36",
",	c #3A3935",
"'	c #393935",
")	c #393834",
"!	c #383834",
"~	c #383733",
"{	c #373733",
"]	c #373632",
"^	c #363632",
"/	c #353531",
".",
"+",
"@",
"@",
"#",
"$",
"%",
"&",
"*",
"=",
"-",
";",
">",
">",
",",
"'",
")",
"!",
"~",
"{",
"]",
"^",
"/",
"/"};
