/* XPM */
static char * windows_xpm[] = {
"16 16 18 1",
" 	c None",
".	c #565853",
"+	c #868686",
"@	c #858585",
"#	c #848484",
"$	c #828282",
"%	c #707070",
"&	c #F5F5F5",
"*	c #F4F4F4",
"=	c #F1F1F1",
"-	c #F0F0F0",
";	c #ECECEC",
">	c #EEEEEE",
",	c #E8E8E8",
"'	c #EAEAEA",
")	c #E4E4E4",
"!	c #E7E7E7",
"~	c #E1E1E1",
"    ............",
"    .+++@@#####.",
"    .$%%%%%%%%$.",
"    .&********&.",
"    .=--------=.",
"............;;>.",
".+++@@#####.,,'.",
".$%%%%%%%%$.))!.",
".&********&.~~).",
".=--------=.~~~.",
".>;;;;;;;;>.....",
".',,,,,,,,'.    ",
".!))))))))!.    ",
".)~~~~~~~~).    ",
".~~~~~~~~~~.    ",
"............    "};
